/* XPM */
static const char * gunarm_xpm[] = {
"32 32 7 1",
" 	c None",
".	c #666666",
"+	c #333333",
"@	c #999999",
"#	c #CCCCCC",
"$	c #000000",
"%	c #FFFFFF",
"                                ",
"                                ",
"                                ",
"                                ",
"       +......                  ",
"     +.@.......                 ",
"    +.@..........+ +.+          ",
"    .@.......@....@....         ",
"   .@.......@....@......        ",
"   .@......#....@@.......       ",
"  .@@.....@@...@#.....@+.+      ",
"  .@......#....#@.........      ",
"  .@......#....%.....++...      ",
"  .@.....@@....%..........      ",
" ..@.....@@...@#...........     ",
" ..#.....#@...@#...@+....@++    ",
" ..#.....#@...@#............    ",
" ..@.....@....@@..++....+++     ",
" ..@......@....#..........      ",
"  .@......@....#..........      ",
"  +......+@+...@......@+..      ",
"  +....+++..+++..........       ",
"   +...++++.++++.....++..       ",
"   ++...++++.++++.......        ",
"    +....+$$++$$$+....+         ",
"     +......++.+$ $++$          ",
"      $+......+                 ",
"        $+..+                   ",
"                                ",
"                                ",
"                                ",
"                                "};
