/* XPM */
static const char * m_grow_slot_xpm[] = {
"48 48 7 1",
" 	c None",
".	c #000000",
"+	c #CCCCCC",
"@	c #999999",
"#	c #333333",
"$	c #666666",
"%	c #FFFFFF",
"                   @@++++@@$#                   ",
"               @@+++++++++@$$##..               ",
"             ++%++++++@@@++@$$##...             ",
"           @+++++@@@@$$$$$@@@@@$#...#           ",
"          +++++@@$###....####$@@@$###$          ",
"        $@+++@$##.............#$$@@$$@@$        ",
"       $@++@$#..................#$@@@@+@@       ",
"      $@++@$#.....................#@+++++@      ",
"     #$@@@$........................#@+++%+@     ",
"     $@@@$..........................#@++%%+     ",
"    #$@@$............................#@+%%%+    ",
"   .#$@$..............................$+%%%+@   ",
"   .#@$#..............................#@+%%%+   ",
"  ..$@#...............................#@+%%++$  ",
"  .#@$#...............................#@+%%++@  ",
" .#$@#.................................@+%%++$# ",
" ##@@#.................................#+%%+@## ",
" $$@$...................................+%%%@#. ",
" $@@#...................................@%%%@#. ",
"$@+@#...................................$%%%+#..",
"@++@#.....................##............#%%%+#..",
"+++@#....................................+%++#..",
"+++@#....................................+%++#..",
"%%+@#....................................@+++#..",
"%%+@#....................................@+++#..",
"%%%+$#...............#...................$@+@#..",
"+%%+$$#..............#...................$@+$...",
"@%%++@$.............##..................##@+$...",
"@%%%+++..................................#@+$...",
" +%%%+%$.................................#@@#.. ",
" @+%%%%+.................................#@$... ",
" $@+%%%%$................................$@#... ",
" #$@+%%%+#............................###@$#... ",
"  .$+%%%%@...........................##$$@$...  ",
"  ..$+%%%+$..........................$$$@$#...  ",
"   .#@++++@#........................$@@@@#...   ",
"   ..#@+++@$#......................$++@@$....   ",
"    ..#@++@##....................#@+++@$...     ",
"     ..#@+@#....................$++++@$#...     ",
"     ...#@@@#...##............$@+%++@$#...      ",
"      ...#$@@$###$$$$##..##$@++%+++@$....       ",
"       ...#$@@$$$$@@@@@+++++%%+++@$#....        ",
"        ....#$@@@@@@+++++%+++++@$##....         ",
"          ....#$$@@@@++++++++@$##....           ",
"           .....##$$$$@@@$$$$#.......           ",
"             ........####..........             ",
"               ..................               ",
"                   ..........                   "};
