/* XPM */
static const char * paste_xpm[] = {
"22 22 10 1",
" 	c None",
".	c #FFFFFF",
"+	c #666666",
"@	c #663300",
"#	c #CC9933",
"$	c #999999",
"%	c #CCCCCC",
"&	c #996600",
"*	c #996633",
"=	c #666633",
"        ++++++        ",
"       ++$$$$++       ",
"   @@@=+$$$$$$+=@@@   ",
"  @#*++$%%%%%%$++*&@  ",
"  @#+.%++++++++%.+#@  ",
"  @#+............+#@  ",
"  @#+............+#@  ",
"  @#+..$$$$$$$$..+#@  ",
"  @#+............+#@  ",
"  @#+..$$$$$$$$..+#@  ",
"  @#+..........%.+#@  ",
"  @#+..$$$$$...%.+#@  ",
"  @#+..........%.+#@  ",
"  @#+.......%%%%.+#@  ",
"  @#+......%$....+#@  ",
"  @#+.....%%$..%%+#@  ",
"  @#+...%%%%$.%%+&#@  ",
"  @#+.........%+&##@  ",
"  @#*++++++++++####@  ",
"  @&##############&@  ",
"   @@@@@@@@@@@@@@@@   ",
"           ++         "};
