/* XPM */
static const char * quit_xpm[] = {
"22 22 5 1",
" 	c None",
".	c #CC0000",
"+	c #660000",
"@	c #CC3333",
"#	c #990000",
"                      ",
"     +          +     ",
"    +++        +++    ",
"   +@@#+      +#@@+   ",
"  +@@.@#+    +#@.@@+  ",
" ++@...@#+  +#@...@#+ ",
"  +#@...@#++#@...@#+  ",
"   +#@...@##@...@#+   ",
"    +#@...@@...@#+    ",
"     +#@......@#+     ",
"      +#@....@#+      ",
"      +#@....@#+      ",
"     +#@......@#+     ",
"    +#@...@@...@#+    ",
"   +#@...@#+@...@#+   ",
"  +#@...@#+++@...@#+  ",
" ++@...@#+  +#@...@++ ",
"  +@@.@#+    +#@.@@+  ",
"   +@@#+      +#@@+   ",
"    +++        +++    ",
"     +          +     ",
"                      "};
