/* XPM */
static const char * clip_xpm[] = {
"32 32 4 1",
" 	c None",
".	c #999999",
"+	c #666666",
"@	c #333333",
"                                ",
"                                ",
"      ++.                       ",
"      +.....                    ",
"      +.......                  ",
"       .........                ",
"        .........               ",
"        +.........+             ",
"         .+.........            ",
"          .........++           ",
"           ...........          ",
"            ...........         ",
"             ...........        ",
"              ...........       ",
"               ..........+      ",
"               +..........+     ",
"                ...........     ",
"                 ..........+    ",
"                  ..........    ",
"                  +........+    ",
"                   ........     ",
"                    .......     ",
"                    ...+..+     ",
"                     .+...+     ",
"                     @...++     ",
"                          +     ",
"                                ",
"                           @    ",
"                           +    ",
"                                ",
"                            +   ",
"                            +   "};
