/* XPM */
static const char * clip_xpm[] = {
"32 32 124 2",
"  	c None",
". 	c #000000",
"+ 	c #000000",
"@ 	c #000000",
"# 	c #000000",
"$ 	c #000000",
"% 	c #000000",
"& 	c #2B2B2B",
"* 	c #000000",
"= 	c #030303",
"- 	c #000000",
"; 	c #111111",
"> 	c #242424",
", 	c #363636",
"' 	c #404040",
") 	c #444444",
"! 	c #303030",
"~ 	c #000000",
"{ 	c #020202",
"] 	c #000000",
"^ 	c #0B0B0B",
"/ 	c #171717",
"( 	c #222222",
"_ 	c #565656",
": 	c #454545",
"< 	c #2E2E2E",
"[ 	c #303030",
"} 	c #4F4F4F",
"| 	c #555555",
"1 	c #555555",
"2 	c #616161",
"3 	c #646464",
"4 	c #333333",
"5 	c #5B5B5B",
"6 	c #636363",
"7 	c #4C4C4C",
"8 	c #747474",
"9 	c #5B5B5B",
"0 	c #5D5D5D",
"a 	c #888888",
"b 	c #535353",
"c 	c #464646",
"d 	c #636363",
"e 	c #5A5A5A",
"f 	c #5E5E5E",
"g 	c #707070",
"h 	c #5D5D5D",
"i 	c #757575",
"j 	c #5B5B5B",
"k 	c #7D7D7D",
"l 	c #606060",
"m 	c #737373",
"n 	c #7F7F7F",
"o 	c #808080",
"p 	c #6A6A6A",
"q 	c #797979",
"r 	c #848484",
"s 	c #505050",
"t 	c #525252",
"u 	c #4E4E4E",
"v 	c #8B8B8B",
"w 	c #979797",
"x 	c #858585",
"y 	c #808080",
"z 	c #7E7E7E",
"A 	c #4A4A4A",
"B 	c #8D8D8D",
"C 	c #777777",
"D 	c #7F7F7F",
"E 	c #A7A7A7",
"F 	c #9F9F9F",
"G 	c #6D6D6D",
"H 	c #8D8D8D",
"I 	c #6E6E6E",
"J 	c #828282",
"K 	c #8A8A8A",
"L 	c #8D8D8D",
"M 	c #9A9A9A",
"N 	c #A2A2A2",
"O 	c #A4A4A4",
"P 	c #A5A5A5",
"Q 	c #A6A6A6",
"R 	c #A7A7A7",
"S 	c #A8A8A8",
"T 	c #A9A9A9",
"U 	c #AAAAAA",
"V 	c #ABABAB",
"W 	c #ACACAC",
"X 	c #636363",
"Y 	c #6D6D6D",
"Z 	c #707070",
"` 	c #858585",
" .	c #888888",
"..	c #8A8A8A",
"+.	c #8C8C8C",
"@.	c #8E8E8E",
"#.	c #8F8F8F",
"$.	c #909090",
"%.	c #949494",
"&.	c #959595",
"*.	c #969696",
"=.	c #979797",
"-.	c #989898",
";.	c #999999",
">.	c #9A9A9A",
",.	c #9B9B9B",
"'.	c #9C9C9C",
").	c #9E9E9E",
"!.	c #9F9F9F",
"~.	c #A0A0A0",
"{.	c #A1A1A1",
"].	c #A2A2A2",
"^.	c #A3A3A3",
"/.	c #A4A4A4",
"(.	c #A5A5A5",
"_.	c #A6A6A6",
":.	c #A7A7A7",
"<.	c #A8A8A8",
"[.	c #A9A9A9",
"}.	c #AAAAAA",
"|.	c #ABABAB",
"1.	c #ACACAC",
"2.	c #ADADAD",
"3.	c #AEAEAE",
"                                                                ",
"                                                                ",
"            b 9 a                                               ",
"            Z ` M {.!.y                                         ",
"            l K -.~.].J [.@.                                    ",
"              ..>.'.~.{._.(.[.o                                 ",
"                ).).{.).(.(.:.R '.                              ",
"                m N #.].~.].:.:._.<.i                           ",
"                  B G (.(.{.].:.:.:.}.x                         ",
"                    D O /.(./.'.<.:.S p C                       ",
"                      H P (._._.;.<.$.v R ,.                    ",
"                        L Q _._.:.>.@.T :.Q '.                  ",
"                          %.Q _.<.<.*.<.:.:.Q &.                ",
"                            F R [.[.}.=.:.:.:.R w               ",
"                              (.<.}.[.<.'.:.:.:.S q             ",
"                              d 2.[.}.}.'.]._.:.:.}.0           ",
"                                n V }.|.1.-.<.:.:._.'.          ",
"                                  &.U |.|.1.&.<.:.:.R z         ",
"                                    1.|.|.}.^.)._._.:.r         ",
"                                    k W }.|.2.*.:._.N g         ",
"                                      '.|.|.|.}.=.^.,.          ",
"                                        3.1.V <.%.-.@.          ",
"                                        %.V E I (. .Y           ",
"                                          Q h }.).+.t           ",
"                                          c {.=.+.X f           ",
"                                                    s           ",
"                                                                ",
"                                                      A         ",
"                                                      j         ",
"                                                                ",
"                                                        u       ",
"                                                        e       "};
