/* XPM */
static const char * glove_xpm[] = {
"32 32 240 2",
"  	c None",
". 	c #000000",
"+ 	c #000000",
"@ 	c #000000",
"# 	c #000000",
"$ 	c #000000",
"% 	c #000000",
"& 	c #000000",
"* 	c #000000",
"= 	c #000000",
"- 	c #000000",
"; 	c #000000",
"> 	c #000000",
", 	c #030303",
"' 	c #010101",
") 	c #000000",
"! 	c #050505",
"~ 	c #030303",
"{ 	c #1F1F1F",
"] 	c #070707",
"^ 	c #090909",
"/ 	c #050505",
"( 	c #212121",
"_ 	c #040404",
": 	c #030303",
"< 	c #040404",
"[ 	c #323232",
"} 	c #050505",
"| 	c #040404",
"1 	c #080808",
"2 	c #050505",
"3 	c #070707",
"4 	c #080808",
"5 	c #050505",
"6 	c #383838",
"7 	c #424242",
"8 	c #060606",
"9 	c #050505",
"0 	c #282828",
"a 	c #222222",
"b 	c #070707",
"c 	c #060606",
"d 	c #000000",
"e 	c #070707",
"f 	c #060606",
"g 	c #444444",
"h 	c #2E2E2E",
"i 	c #2D2D2D",
"j 	c #3E3E3E",
"k 	c #101010",
"l 	c #262626",
"m 	c #070707",
"n 	c #323232",
"o 	c #050505",
"p 	c #2A2A2A",
"q 	c #464646",
"r 	c #515151",
"s 	c #070707",
"t 	c #070707",
"u 	c #080808",
"v 	c #080808",
"w 	c #090909",
"x 	c #060606",
"y 	c #3C3C3C",
"z 	c #383838",
"A 	c #070707",
"B 	c #070707",
"C 	c #232323",
"D 	c #070707",
"E 	c #080808",
"F 	c #090909",
"G 	c #676767",
"H 	c #080808",
"I 	c #0A0A0A",
"J 	c #0B0B0B",
"K 	c #141414",
"L 	c #181818",
"M 	c #363636",
"N 	c #4D4D4D",
"O 	c #575757",
"P 	c #5D5D5D",
"Q 	c #666666",
"R 	c #8C8C8C",
"S 	c #050505",
"T 	c #060606",
"U 	c #070707",
"V 	c #080808",
"W 	c #090909",
"X 	c #0A0A0A",
"Y 	c #0B0B0B",
"Z 	c #0C0C0C",
"` 	c #0D0D0D",
" .	c #0E0E0E",
"..	c #0F0F0F",
"+.	c #101010",
"@.	c #111111",
"#.	c #121212",
"$.	c #131313",
"%.	c #141414",
"&.	c #151515",
"*.	c #161616",
"=.	c #171717",
"-.	c #181818",
";.	c #191919",
">.	c #1A1A1A",
",.	c #1B1B1B",
"'.	c #1C1C1C",
").	c #1D1D1D",
"!.	c #1E1E1E",
"~.	c #1F1F1F",
"{.	c #212121",
"].	c #232323",
"^.	c #252525",
"/.	c #262626",
"(.	c #282828",
"_.	c #2A2A2A",
":.	c #2D2D2D",
"<.	c #313131",
"[.	c #333333",
"}.	c #373737",
"|.	c #3A3A3A",
"1.	c #3B3B3B",
"2.	c #3C3C3C",
"3.	c #3D3D3D",
"4.	c #3F3F3F",
"5.	c #404040",
"6.	c #414141",
"7.	c #424242",
"8.	c #464646",
"9.	c #474747",
"0.	c #494949",
"a.	c #4A4A4A",
"b.	c #4B4B4B",
"c.	c #4E4E4E",
"d.	c #4F4F4F",
"e.	c #505050",
"f.	c #515151",
"g.	c #525252",
"h.	c #535353",
"i.	c #545454",
"j.	c #555555",
"k.	c #565656",
"l.	c #575757",
"m.	c #585858",
"n.	c #595959",
"o.	c #5A5A5A",
"p.	c #5C5C5C",
"q.	c #5D5D5D",
"r.	c #5E5E5E",
"s.	c #5F5F5F",
"t.	c #606060",
"u.	c #616161",
"v.	c #626262",
"w.	c #646464",
"x.	c #656565",
"y.	c #666666",
"z.	c #686868",
"A.	c #696969",
"B.	c #6A6A6A",
"C.	c #6C6C6C",
"D.	c #6E6E6E",
"E.	c #6F6F6F",
"F.	c #707070",
"G.	c #717171",
"H.	c #727272",
"I.	c #737373",
"J.	c #747474",
"K.	c #757575",
"L.	c #767676",
"M.	c #777777",
"N.	c #787878",
"O.	c #797979",
"P.	c #7A7A7A",
"Q.	c #7B7B7B",
"R.	c #7C7C7C",
"S.	c #7D7D7D",
"T.	c #7E7E7E",
"U.	c #7F7F7F",
"V.	c #808080",
"W.	c #818181",
"X.	c #828282",
"Y.	c #838383",
"Z.	c #848484",
"`.	c #858585",
" +	c #868686",
".+	c #878787",
"++	c #888888",
"@+	c #898989",
"#+	c #8A8A8A",
"$+	c #8B8B8B",
"%+	c #8C8C8C",
"&+	c #8D8D8D",
"*+	c #8E8E8E",
"=+	c #8F8F8F",
"-+	c #909090",
";+	c #919191",
">+	c #929292",
",+	c #939393",
"'+	c #949494",
")+	c #959595",
"!+	c #969696",
"~+	c #979797",
"{+	c #989898",
"]+	c #999999",
"^+	c #9A9A9A",
"/+	c #9B9B9B",
"(+	c #9C9C9C",
"_+	c #9D9D9D",
":+	c #9E9E9E",
"<+	c #9F9F9F",
"[+	c #A0A0A0",
"}+	c #A1A1A1",
"|+	c #A2A2A2",
"1+	c #A3A3A3",
"2+	c #A4A4A4",
"3+	c #A5A5A5",
"4+	c #A7A7A7",
"5+	c #A9A9A9",
"6+	c #ABABAB",
"7+	c #ACACAC",
"8+	c #ADADAD",
"9+	c #B0B0B0",
"0+	c #B5B5B5",
"a+	c #B8B8B8",
"b+	c #BABABA",
"c+	c #C1C1C1",
"d+	c #C2C2C2",
"e+	c #C3C3C3",
"f+	c #C6C6C6",
"g+	c #CFCFCF",
"h+	c #D2D2D2",
"i+	c #DCDCDC",
"j+	c #DDDDDD",
"k+	c #E7E7E7",
"l+	c #E8E8E8",
"m+	c #ECECEC",
"n+	c #EDEDED",
"o+	c #F5F5F5",
"p+	c #FEFEFE",
"q+	c #FFFFFF",
"                      9 8   E W Y w                             ",
"                  f W I L !. .W +.K X U U 5                     ",
"                  W X ..(.:.u.P.K.Q.G.y.k.4./.D                 ",
"                  I W #._.e+p+:+|+_+/+R.@+=+*+R G 6             ",
"                t W X $.6.q+'+7+q./+W.2+K.Y.W.J.O.G.            ",
"                B X X $.b.q+x.i+I.I.C.c+,+z.!+d+n.^+j           ",
"                A W X &.c.o+j.1+y.z.B.$+I.u.`.}+9.h+r           ",
"                s  .` -.8.j+p.y.8.L.Q.i.8.I.C.x.f.#+q           ",
"                x ~. .-.1.f+4+5.0.]+)+n.m.@+P.3.D.h.p           ",
"            V X I X @.>.<.b+9+4+(+,+-+&+#+`.V.T.F.r.g           ",
"            W Y ` ..&.'./.8+7+<+~+>+*+$+++`.U.O.E.s.7           ",
"            W Y ` ..&.,.{.1+5+:+!+;+=+$+.+Z.U.N.C.P 0           ",
"            X X ` +.&.,.,.^+3+_+!+>+&+#+.+Y.T.L.B.l.            ",
"            V X  .@.*.,.>.%+2+(+)+-+&+@+ +X.S.J.y.d.            ",
"            e I Z +.%.>.,.U.1+/+'+-+%+@+`.W.R.I.v.4.            ",
"              X Y  .$.;.,.D.}+^+,+=+$+++`.W.Q.H.q.z             ",
"              v I ` @.*.'.o.[+]+>+&+#+++Z.V.O.D.O h             ",
"                X Z ..%.;.8.<+{+-+%+#+ +Y.T.M.C.g.              ",
"                u I ` #.*.:.]+!+=+$+.+Z.V.P.I.Q 2.              ",
"                  W Y ..$.#.V.-+#+`.X.T.G.o.6.C                 ",
"                  b X ` +.%.).b.8.}.^.#.T S W                   ",
"                    H Z  .#.*.=.=.&.@.Z Y W X                   ",
"                      X ` @.&.=.=.&.+.` X W X                   ",
"                      m J  .$.-.-.&.@.` Z Y X                   ",
"                        W ` %.;.>.=.#. .Z Y T a                 ",
"                        ].T $.'.!.-.@.Y V ,.5.7.                ",
"                        x.A.8.6.2.1.a.t.O.X.L.|.                ",
"                        r.++_+g+m+l+d+[+>+Z.D.y                 ",
"                        g.W.)+a+n+k+0+{+$+S.z.l                 ",
"                        n O.*+(+6+4+]+=+`.w.i                   ",
"                          k M e.t.p.N [.&.d                     ",
"                            F Y U o c                           "};
