/* XPM */
static const char * gunarm_xpm[] = {
"32 32 205 2",
"  	c None",
". 	c #000000",
"+ 	c #000000",
"@ 	c #000000",
"# 	c #A8A8A8",
"$ 	c #000000",
"% 	c #191919",
"& 	c #010101",
"* 	c #1D1D1D",
"= 	c #000000",
"- 	c #070707",
"; 	c #0E0E0E",
"> 	c #000000",
", 	c #282828",
"' 	c #0C0C0C",
") 	c #111111",
"! 	c #3D3D3D",
"~ 	c #434343",
"{ 	c #020202",
"] 	c #2E2E2E",
"^ 	c #000000",
"/ 	c #0A0A0A",
"( 	c #1B1B1B",
"_ 	c #292929",
": 	c #0E0E0E",
"< 	c #2F2F2F",
"[ 	c #040404",
"} 	c #2F2F2F",
"| 	c #000000",
"1 	c #2A2A2A",
"2 	c #292929",
"3 	c #505050",
"4 	c #323232",
"5 	c #2C2C2C",
"6 	c #030303",
"7 	c #2F2F2F",
"8 	c #4A4A4A",
"9 	c #4F4F4F",
"0 	c #393939",
"a 	c #3B3B3B",
"b 	c #404040",
"c 	c #444444",
"d 	c #0D0D0D",
"e 	c #2F2F2F",
"f 	c #191919",
"g 	c #5A5A5A",
"h 	c #3B3B3B",
"i 	c #161616",
"j 	c #6C6C6C",
"k 	c #636363",
"l 	c #393939",
"m 	c #474747",
"n 	c #181818",
"o 	c #3B3B3B",
"p 	c #717171",
"q 	c #3F3F3F",
"r 	c #505050",
"s 	c #242424",
"t 	c #2B2B2B",
"u 	c #555555",
"v 	c #575757",
"w 	c #595959",
"x 	c #5B5B5B",
"y 	c #2F2F2F",
"z 	c #4F4F4F",
"A 	c #4E4E4E",
"B 	c #3D3D3D",
"C 	c #2B2B2B",
"D 	c #4E4E4E",
"E 	c #555555",
"F 	c #545454",
"G 	c #585858",
"H 	c #141414",
"I 	c #535353",
"J 	c #6B6B6B",
"K 	c #3A3A3A",
"L 	c #444444",
"M 	c #464646",
"N 	c #525252",
"O 	c #565656",
"P 	c #585858",
"Q 	c #646464",
"R 	c #686868",
"S 	c #6A6A6A",
"T 	c #6B6B6B",
"U 	c #737373",
"V 	c #7F7F7F",
"W 	c #808080",
"X 	c #888888",
"Y 	c #0E0E0E",
"Z 	c #111111",
"` 	c #121212",
" .	c #151515",
"..	c #181818",
"+.	c #212121",
"@.	c #232323",
"#.	c #242424",
"$.	c #252525",
"%.	c #262626",
"&.	c #2B2B2B",
"*.	c #2C2C2C",
"=.	c #2D2D2D",
"-.	c #2F2F2F",
";.	c #303030",
">.	c #353535",
",.	c #373737",
"'.	c #383838",
").	c #393939",
"!.	c #3A3A3A",
"~.	c #3B3B3B",
"{.	c #3D3D3D",
"].	c #404040",
"^.	c #444444",
"/.	c #454545",
"(.	c #464646",
"_.	c #474747",
":.	c #4A4A4A",
"<.	c #4B4B4B",
"[.	c #4D4D4D",
"}.	c #4E4E4E",
"|.	c #4F4F4F",
"1.	c #515151",
"2.	c #545454",
"3.	c #565656",
"4.	c #575757",
"5.	c #585858",
"6.	c #595959",
"7.	c #5A5A5A",
"8.	c #5B5B5B",
"9.	c #5C5C5C",
"0.	c #5D5D5D",
"a.	c #5E5E5E",
"b.	c #5F5F5F",
"c.	c #606060",
"d.	c #616161",
"e.	c #626262",
"f.	c #636363",
"g.	c #646464",
"h.	c #656565",
"i.	c #666666",
"j.	c #676767",
"k.	c #686868",
"l.	c #696969",
"m.	c #6A6A6A",
"n.	c #6B6B6B",
"o.	c #6C6C6C",
"p.	c #6D6D6D",
"q.	c #6E6E6E",
"r.	c #6F6F6F",
"s.	c #707070",
"t.	c #717171",
"u.	c #727272",
"v.	c #737373",
"w.	c #747474",
"x.	c #757575",
"y.	c #767676",
"z.	c #787878",
"A.	c #797979",
"B.	c #7A7A7A",
"C.	c #7C7C7C",
"D.	c #7D7D7D",
"E.	c #7E7E7E",
"F.	c #828282",
"G.	c #848484",
"H.	c #858585",
"I.	c #888888",
"J.	c #8A8A8A",
"K.	c #8B8B8B",
"L.	c #8D8D8D",
"M.	c #8E8E8E",
"N.	c #8F8F8F",
"O.	c #919191",
"P.	c #929292",
"Q.	c #939393",
"R.	c #949494",
"S.	c #959595",
"T.	c #969696",
"U.	c #989898",
"V.	c #999999",
"W.	c #9A9A9A",
"X.	c #9B9B9B",
"Y.	c #9C9C9C",
"Z.	c #9D9D9D",
"`.	c #A0A0A0",
" +	c #A6A6A6",
".+	c #A8A8A8",
"++	c #A9A9A9",
"@+	c #AAAAAA",
"#+	c #ACACAC",
"$+	c #AEAEAE",
"%+	c #AFAFAF",
"&+	c #B0B0B0",
"*+	c #B2B2B2",
"=+	c #B3B3B3",
"-+	c #B8B8B8",
";+	c #BDBDBD",
">+	c #BFBFBF",
",+	c #C1C1C1",
"'+	c #C3C3C3",
")+	c #CBCBCB",
"!+	c #CECECE",
"~+	c #D7D7D7",
"{+	c #E3E3E3",
"]+	c #E9E9E9",
"^+	c #FFFFFF",
"                                                                ",
"                                                                ",
"                                                                ",
"                                                                ",
"              B c.s.o.n.g.r                                     ",
"          a c.W l.m.l.m.m.T d.                                  ",
"        c l.J.j.m.k.9.6.4.3.u.j.A e   m z b                     ",
"        g.Y.g.m.h.8.0.a.p.G.6.3.7.b.K.x.n.T 9.                  ",
"      G X C.m.k.i.j.j.v.W.e.h.h.k. +u.l.l.m.l.h.                ",
"      t.$+h.m.o.p.p.m.>+k.n.n.k.&+G.l.m.k.f.i.o.5.              ",
"    k V W.m.r.u.u.u.`.U.t.t.t.H.!+f.m.l.u.w.O.,.j.0             ",
"    J #+j.m.w.v.v.p.{+n.v.v.t.)+R.m.m.m.g.e.z.u.o.E             ",
"    w.++g.q.x.x.x.y.~+t.w.w.o.^+i.l.m.m.2.#.&.0.m.l.            ",
"    q..+k.s.w.w.w.V.%+w.w.w.E.]+f.m.m.m.n.n.n.k.n.q.            ",
"  x T @+l.s.u.u.u.@+S.u.u.u.V.)+j.k.e.f.o.m.m.k.0.Q F           ",
"  p h.-+l.q.r.r.q.'+I.r.r.r.X.,+k.u.u.P.!.g.l.u.v.L.L 8         ",
"  j e.*+l.m.n.n.m.>+F.n.n.o.U.;+l.f.f.D.v.l.n.a.9.z.U 9         ",
"  u d.Z.m.i.h.h.i.V.E.i.i.i.N.$+l.}.*.{.b.m.m.4.=.K <.          ",
"  g a.T.l.e.b.b.b.E.I.b.b.c.s.=+j.n.r.p.g.o.n.m.q.t.            ",
"    a.K.i.f.4.5.5.a.O.4.5.6.4.=+h.m.m.m.l.9.c.e.n.g.            ",
"    _.y.l.l.[.|.|.<.N.:.|.|.[.M.s.m.m.l.u.w.Q.:.h.D             ",
"    l N D.m.1.^./.(.f.4././.(.b.B.l.m.m.a.a.A.u.s.              ",
"      (.r.k.k.,.).!.).q.>.).!.).w.m.l.m.7.).{.P I               ",
"      y M t.l.d.$.&.*.'.6.%.&.*.~.j.m.l.m.n.p.c.                ",
"        -.O m.m.a.+.Y ` &.(...Z  .;.4.b.k.R _.                  ",
"          @.P m.l.q.i.7./.].4.C n   d t s i                     ",
"            H ^.S n.m.m.T h.h                                   ",
"                f q v w o                                       ",
"                                                                ",
"                                                                ",
"                                                                ",
"                                                                "};
