/* XPM */
static const char * item_xpm[] = {
"32 32 218 2",
"  	c None",
". 	c #000000",
"+ 	c #000000",
"@ 	c #000000",
"# 	c #000000",
"$ 	c #000000",
"% 	c #000000",
"& 	c #000000",
"* 	c #000000",
"= 	c #000000",
"- 	c #0C0C0C",
"; 	c #000000",
"> 	c #0F0F0F",
", 	c #161616",
"' 	c #0B0B0B",
") 	c #202020",
"! 	c #232323",
"~ 	c #050505",
"{ 	c #000000",
"] 	c #1D1D1D",
"^ 	c #1C1C1C",
"/ 	c #0C0C0C",
"( 	c #272727",
"_ 	c #4B4B4B",
": 	c #212121",
"< 	c #0B0B0B",
"[ 	c #343434",
"} 	c #303030",
"| 	c #323232",
"1 	c #232323",
"2 	c #2F2F2F",
"3 	c #2D2D2D",
"4 	c #4D4D4D",
"5 	c #131313",
"6 	c #323232",
"7 	c #3D3D3D",
"8 	c #353535",
"9 	c #2E2E2E",
"0 	c #252525",
"a 	c #2F2F2F",
"b 	c #252525",
"c 	c #222222",
"d 	c #323232",
"e 	c #6E6E6E",
"f 	c #363636",
"g 	c #3C3C3C",
"h 	c #242424",
"i 	c #474747",
"j 	c #4A4A4A",
"k 	c #3C3C3C",
"l 	c #3E3E3E",
"m 	c #3B3B3B",
"n 	c #404040",
"o 	c #454545",
"p 	c #7F7F7F",
"q 	c #3C3C3C",
"r 	c #292929",
"s 	c #393939",
"t 	c #3A3A3A",
"u 	c #2C2C2C",
"v 	c #2C2C2C",
"w 	c #3D3D3D",
"x 	c #2A2A2A",
"y 	c #525252",
"z 	c #535353",
"A 	c #555555",
"B 	c #575757",
"C 	c #595959",
"D 	c #5A5A5A",
"E 	c #5C5C5C",
"F 	c #5D5D5D",
"G 	c #5E5E5E",
"H 	c #5F5F5F",
"I 	c #606060",
"J 	c #636363",
"K 	c #6C6C6C",
"L 	c #6D6D6D",
"M 	c #767676",
"N 	c #AEAEAE",
"O 	c #000000",
"P 	c #121212",
"Q 	c #131313",
"R 	c #161616",
"S 	c #171717",
"T 	c #191919",
"U 	c #1C1C1C",
"V 	c #242424",
"W 	c #252525",
"X 	c #282828",
"Y 	c #292929",
"Z 	c #2D2D2D",
"` 	c #2E2E2E",
" .	c #2F2F2F",
"..	c #313131",
"+.	c #343434",
"@.	c #353535",
"#.	c #373737",
"$.	c #383838",
"%.	c #3B3B3B",
"&.	c #3D3D3D",
"*.	c #3E3E3E",
"=.	c #404040",
"-.	c #414141",
";.	c #424242",
">.	c #434343",
",.	c #444444",
"'.	c #454545",
").	c #464646",
"!.	c #484848",
"~.	c #494949",
"{.	c #4A4A4A",
"].	c #4B4B4B",
"^.	c #4C4C4C",
"/.	c #4D4D4D",
"(.	c #4E4E4E",
"_.	c #505050",
":.	c #515151",
"<.	c #525252",
"[.	c #535353",
"}.	c #545454",
"|.	c #555555",
"1.	c #565656",
"2.	c #585858",
"3.	c #595959",
"4.	c #5A5A5A",
"5.	c #5B5B5B",
"6.	c #5C5C5C",
"7.	c #5D5D5D",
"8.	c #5E5E5E",
"9.	c #5F5F5F",
"0.	c #606060",
"a.	c #616161",
"b.	c #626262",
"c.	c #636363",
"d.	c #646464",
"e.	c #656565",
"f.	c #666666",
"g.	c #676767",
"h.	c #686868",
"i.	c #696969",
"j.	c #6A6A6A",
"k.	c #6B6B6B",
"l.	c #6C6C6C",
"m.	c #6D6D6D",
"n.	c #6E6E6E",
"o.	c #6F6F6F",
"p.	c #707070",
"q.	c #717171",
"r.	c #727272",
"s.	c #737373",
"t.	c #747474",
"u.	c #757575",
"v.	c #767676",
"w.	c #777777",
"x.	c #787878",
"y.	c #797979",
"z.	c #7A7A7A",
"A.	c #7B7B7B",
"B.	c #7C7C7C",
"C.	c #7D7D7D",
"D.	c #7E7E7E",
"E.	c #7F7F7F",
"F.	c #818181",
"G.	c #828282",
"H.	c #838383",
"I.	c #848484",
"J.	c #868686",
"K.	c #878787",
"L.	c #888888",
"M.	c #898989",
"N.	c #8A8A8A",
"O.	c #8B8B8B",
"P.	c #8C8C8C",
"Q.	c #8D8D8D",
"R.	c #8E8E8E",
"S.	c #8F8F8F",
"T.	c #909090",
"U.	c #919191",
"V.	c #929292",
"W.	c #939393",
"X.	c #949494",
"Y.	c #959595",
"Z.	c #969696",
"`.	c #979797",
" +	c #989898",
".+	c #999999",
"++	c #9A9A9A",
"@+	c #9B9B9B",
"#+	c #9C9C9C",
"$+	c #9D9D9D",
"%+	c #9E9E9E",
"&+	c #9F9F9F",
"*+	c #A0A0A0",
"=+	c #A1A1A1",
"-+	c #A2A2A2",
";+	c #A3A3A3",
">+	c #A4A4A4",
",+	c #A5A5A5",
"'+	c #A6A6A6",
")+	c #A7A7A7",
"!+	c #A8A8A8",
"~+	c #A9A9A9",
"{+	c #AAAAAA",
"]+	c #ABABAB",
"^+	c #ACACAC",
"/+	c #ADADAD",
"(+	c #AEAEAE",
"_+	c #AFAFAF",
":+	c #B0B0B0",
"<+	c #B1B1B1",
"[+	c #B2B2B2",
"}+	c #B3B3B3",
"|+	c #B4B4B4",
"1+	c #B5B5B5",
"2+	c #B6B6B6",
"3+	c #B7B7B7",
"4+	c #B8B8B8",
"5+	c #FFFFFF",
"                                                                ",
"                                                                ",
"                                                                ",
"            b T W ` ].).=.w g                                   ",
"          6 P Q S U X 9.{.{./.:.~.8                             ",
"          k +.$.*.'.]._.d.,.>.(.|.1.t                           ",
"          i >.!.^._.|.6.h._.+.%.|.6.3.9                         ",
"          j ]./.:.4.l.r.q.p.V R >.8.9.].                        ",
"          l ].[.k.r.j.e.a.c.Z O Y 5.g.F o                       ",
"          7 L F.C.A.r.g.7.:.&.O ,.e.D.l.F 2.m                   ",
"            E.#+=+#+N.v.k.0.;.` k.M.E.n.f.8.C ,.                ",
"            4 ^+|+_+ +I.F.R.p.L.y.z.D.C.r.e.7.B ,.              ",
"              p N ~+T.G.W.:+q.B.E.I.N.S.P.t.d.6.A q             ",
"                 +@+I.A..+|+8.H.J.P.Z.%+-+ +q.0.3.}.3           ",
"                  .+y.t.@+Z.y.N.P.Y.&+~+^+]+@+j.7.1.'.          ",
"                  e M o.%+J.R.Q.W.$+)+_+[+/+(+T.d.3.z a         ",
"                    f.K $+E.X.T. +;+^+<+1+[+~+[+z.8.|.-.        ",
"                      i.y.T. +W.%+{+(+<+2+1+/+{+~+g.2.:.        ",
"                    n J A.@+V.`.>+(+:+[+1+3+<+~+}+L.8.<.d       ",
"                  s y g.K.Y..+++{+[+:+<+1+4+1+/+/+{+i.1.#.      ",
"                  |.1.}.c.m. +%+_+|+[+:+|+3+2+<+^+<+F.5.!.      ",
"                2 I c.c.d.P.Q.-+}+2+<+:+}+2+2+}+(+/+`.c.^.      ",
"                | 9.g.l.t.E.R.,+1+1+:+:+[+|+1+}+_+^+#+l.:.      ",
"                } H e.l.r.D.T.!+1+[+(+(+<+}+}+<+/+)+.+r.[.      ",
"                1 G e.j.r.E.V.~+<+/+^+^+(+_+_+/+~+*+S.o.:.      ",
"                  3.c.j.r.E.W.,+~+'+'+'+!+~+!+'+&+X.F.g.*.      ",
"                  {.b.h.q.E.U.#+#+#+#+$+%+&+#+`.S.G.o.F 0       ",
"                  f G g.p.A.J.N.O.O.Q.R.R.Q.M.H.y.l.F ..        ",
"                    ~.I h.o.s.v.w.w.x.y.x.u.p.i.b.|.r           ",
"                      #.1.E 9.0.b.c.c.c.0.8.D ~.v               ",
"                          c u  .@.#.@...x h 5                   ",
"                                                                "};
