/* XPM */
static const char * item_xpm[] = {
"32 32 6 1",
" 	c None",
".	c #999999",
"+	c #666666",
"@	c #333333",
"#	c #CCCCCC",
"$	c #000000",
"                                ",
"                                ",
"                                ",
"      @$@@@@@@@                 ",
"     @$$$$@+@@++@@              ",
"     @@@@@@++@@+++@             ",
"     @@@++++++@@+++@            ",
"     @@+++++++@$@++@            ",
"     @@+++++++@$@+++@           ",
"     @+.++++++@$@+++++@         ",
"      .....+++@@+..++++@        ",
"      +.#.....+.++++++++@       ",
"       .......++.....++++@      ",
"        ...+.#+.......++++@     ",
"         .++..+........+++@     ",
"         +++........#...+++@    ",
"          ++........##.#+++@    ",
"           ++.......##...+++    ",
"          @++......###..#.++@   ",
"         @++.....#..###...++@   ",
"         +++++...##.###....+@   ",
"        @++++...##..####...++   ",
"        @++++...##..####...++   ",
"        @+++++..##...##....++   ",
"        @++++..............++   ",
"         ++++..............+@   ",
"         @+++.............++@   ",
"         @++++..........+++@    ",
"          @+++++++++++++++@     ",
"           @+++++++++++@@       ",
"             @@@@@@@@@$         ",
"                                "};
