/* XPM */
static const char * m_no_grow_slot_xpm[] = {
"48 48 238 2",
"  	g None",
". 	g #DBDBDB",
"+ 	g #D5D5D5",
"@ 	g #CFCFCF",
"# 	g #C7C7C7",
"$ 	g #BEBEBE",
"% 	g #B3B3B3",
"& 	g #989898",
"* 	g #787878",
"= 	g #E8E8E8",
"- 	g #EBEBEB",
"; 	g #EAEAEA",
"> 	g #E9E9E9",
", 	g #E5E5E5",
"' 	g #DDDDDD",
") 	g #D6D6D6",
"! 	g #CCCCCC",
"~ 	g #C4C4C4",
"{ 	g #BCBCBC",
"] 	g #ABABAB",
"^ 	g #888888",
"/ 	g #646464",
"( 	g #414141",
"_ 	g #262626",
": 	g #121212",
"< 	g #050505",
"[ 	g #EEEEEE",
"} 	g #F1F1F1",
"| 	g #E4E4E4",
"1 	g #D9D9D9",
"2 	g #D1D1D1",
"3 	g #C1C1C1",
"4 	g #C0C0C0",
"5 	g #BABABA",
"6 	g #AFAFAF",
"7 	g #A3A3A3",
"8 	g #939393",
"9 	g #717171",
"0 	g #505050",
"a 	g #303030",
"b 	g #171717",
"c 	g #060606",
"d 	g #030303",
"e 	g #080808",
"f 	g #DCDCDC",
"g 	g #E3E3E3",
"h 	g #E7E7E7",
"i 	g #B0B0B0",
"j 	g #6C6C6C",
"k 	g #4F4F4F",
"l 	g #535353",
"m 	g #595959",
"n 	g #565656",
"o 	g #5F5F5F",
"p 	g #919191",
"q 	g #313131",
"r 	g #0E0E0E",
"s 	g #020202",
"t 	g #0A0A0A",
"u 	g #1B1B1B",
"v 	g #D7D7D7",
"w 	g #E0E0E0",
"x 	g #E6E6E6",
"y 	g #808080",
"z 	g #1F1F1F",
"A 	g #131313",
"B 	g #000000",
"C 	g #212121",
"D 	g #4E4E4E",
"E 	g #737373",
"F 	g #878787",
"G 	g #696969",
"H 	g #2F2F2F",
"I 	g #090909",
"J 	g #191919",
"K 	g #3E3E3E",
"L 	g #C3C3C3",
"M 	g #CECECE",
"N 	g #DADADA",
"O 	g #CACACA",
"P 	g #686868",
"Q 	g #252525",
"R 	g #010101",
"S 	g #1E1E1E",
"T 	g #5A5A5A",
"U 	g #959595",
"V 	g #747474",
"W 	g #353535",
"X 	g #BDBDBD",
"Y 	g #CDCDCD",
"Z 	g #B8B8B8",
"` 	g #8A8A8A",
" .	g #2E2E2E",
"..	g #222222",
"+.	g #828282",
"@.	g #9C9C9C",
"#.	g #6A6A6A",
"$.	g #ADADAD",
"%.	g #C6C6C6",
"&.	g #B4B4B4",
"*.	g #C2C2C2",
"=.	g #A9A9A9",
"-.	g #545454",
";.	g #0C0C0C",
">.	g #0D0D0D",
",.	g #0B0B0B",
"'.	g #070707",
").	g #040404",
"!.	g #A7A7A7",
"~.	g #9E9E9E",
"{.	g #6F6F6F",
"].	g #8D8D8D",
"^.	g #B1B1B1",
"/.	g #3A3A3A",
"(.	g #0F0F0F",
"_.	g #111111",
":.	g #141414",
"<.	g #101010",
"[.	g #AAAAAA",
"}.	g #C5C5C5",
"|.	g #F2F2F2",
"1.	g #F8F8F8",
"2.	g #5E5E5E",
"3.	g #858585",
"4.	g #999999",
"5.	g #161616",
"6.	g #181818",
"7.	g #1A1A1A",
"8.	g #B6B6B6",
"9.	g #DEDEDE",
"0.	g #F4F4F4",
"a.	g #FCFCFC",
"b.	g #343434",
"c.	g #777777",
"d.	g #969696",
"e.	g #3B3B3B",
"f.	g #1C1C1C",
"g.	g #1D1D1D",
"h.	g #434343",
"i.	g #C8C8C8",
"j.	g #DFDFDF",
"k.	g #FEFEFE",
"l.	g #FBFBFB",
"m.	g #282828",
"n.	g #454545",
"o.	g #575757",
"p.	g #151515",
"q.	g #202020",
"r.	g #E1E1E1",
"s.	g #F0F0F0",
"t.	g #F6F6F6",
"u.	g #898989",
"v.	g #242424",
"w.	g #232323",
"x.	g #B9B9B9",
"y.	g #ECECEC",
"z.	g #EFEFEF",
"A.	g #2B2B2B",
"B.	g #929292",
"C.	g #373737",
"D.	g #272727",
"E.	g #868686",
"F.	g #F5F5F5",
"G.	g #7E7E7E",
"H.	g #B2B2B2",
"I.	g #2D2D2D",
"J.	g #A1A1A1",
"K.	g #6E6E6E",
"L.	g #2C2C2C",
"M.	g #B7B7B7",
"N.	g #D3D3D3",
"O.	g #B5B5B5",
"P.	g #656565",
"Q.	g #404040",
"R.	g #393939",
"S.	g #D8D8D8",
"T.	g #F3F3F3",
"U.	g #464646",
"V.	g #F7F7F7",
"W.	g #A4A4A4",
"X.	g #292929",
"Y.	g #383838",
"Z.	g #4A4A4A",
"`.	g #636363",
" +	g #7A7A7A",
".+	g #D4D4D4",
"++	g #8B8B8B",
"@+	g #323232",
"#+	g #484848",
"$+	g #EDEDED",
"%+	g #D0D0D0",
"&+	g #CBCBCB",
"*+	g #333333",
"=+	g #8E8E8E",
"-+	g #2A2A2A",
";+	g #FAFAFA",
">+	g #AEAEAE",
",+	g #949494",
"'+	g #A6A6A6",
")+	g #3D3D3D",
"!+	g #525252",
"~+	g #444444",
"{+	g #ACACAC",
"]+	g #585858",
"^+	g #515151",
"/+	g #3F3F3F",
"(+	g #E2E2E2",
"_+	g #474747",
":+	g #D2D2D2",
"<+	g #6D6D6D",
"[+	g #5C5C5C",
"}+	g #F9F9F9",
"|+	g #4D4D4D",
"1+	g #7C7C7C",
"2+	g #707070",
"3+	g #A5A5A5",
"4+	g #8F8F8F",
"5+	g #616161",
"6+	g #727272",
"7+	g #8C8C8C",
"8+	g #424242",
"9+	g #7F7F7F",
"0+	g #C9C9C9",
"a+	g #5D5D5D",
"b+	g #838383",
"c+	g #9B9B9B",
"d+	g #BBBBBB",
"e+	g #666666",
"f+	g #555555",
"g+	g #363636",
"h+	g #767676",
"i+	g #9D9D9D",
"j+	g #9A9A9A",
"k+	g #5B5B5B",
"l+	g #7D7D7D",
"m+	g #A8A8A8",
"n+	g #909090",
"o+	g #9F9F9F",
"                                        . + @ # $ % & *                                         ",
"                              = = - ; > , ' ) ! ~ { ] ^ / ( _ : <                               ",
"                          , > [ } [ | 1 2 ~ 3 4 5 6 7 8 9 0 a b c d e                           ",
"                      f g ; [ h ) ~ i 7 j k l m n k o p & ^ / q r s t u q                       ",
"                    v w x w @ 6 y n z A < B B B B B s A C D E F G H I J K /                     ",
"                L M . N O i P Q e R B B B B B B B B B B B R c S T U V _ W 9 7 X                 ",
"              5 L @ Y Z `  .B B B B B B B B B B B R B B B B B B B ..+.@.o #.$.%.2               ",
"            U &.*.3 =.-.;.B B B B B B < e t >.;.>.>.,.'.).R B B B B e 0 !.~.!.O ' -             ",
"          {.].^.&.@./.d B B B B B c (._.A A :.:.:.A A : <.(.c B B B B B H [.{ }.g |.1.          ",
"          2.3.@.4.q B B B B B < <.: A 5.b 6.J 7.7.J 6.b 5.A : (.< B B B B q 8.Y 9.0.a.          ",
"        b.-.c.d.e.B B B B s ;.: :.5.J 7.f.f.g.g.S g.f.u 7.6.5.:.: ;.s B B B h.i.j.0.k.l.        ",
"      :.m.n.^ o.).B B B c <.A p.J u f.S q.C C C C q.C q.g.f.u J p.A (.'.B B R {.r.s.a.t.[       ",
"      ,.S / u.(.B B B c : A b 7.f.q.q...v.v.Q Q Q v.v.w...z z u J b A <.;.s B q.x.y.1.z.r.      ",
"    s c A.B.C.B B B s <.A b u S q.w.v.v._ _ D._ D._ D.Q v.w.C z g.7.5.A _.q.A S E.| F.= 2 }.    ",
"    < < T {.B B B B ;.A b u S C w.Q _ D.D.D.D._ _ D.D._ _ v.v...z g.u b : z l D G.) F.x }.H.    ",
"  5.,._.E.I.B B B < A p.7.S C w.Q _ D.m.D.D._ Q Q _ _ Q Q _ Q v.w.q.g.7.p.'.{.4.J.Y F.= 5 +.K.  ",
"  L.: ( ^ ;.B B B <.:.J g.C v.Q D.D._ D._ Q v.v.v.w.w.v.Q _ Q Q v.w.z f.b A J M.3 N.s.y.H.o./.  ",
"  ( q.G.#.s B B c : b f.q.w._ _ D.D._ Q v...q.z S z C ..v.Q _ Q Q v...z u 5.I E.9.f } |.O.C.:   ",
"  P.Q.7 R.B B B <.A J S C Q D.m.m.D.Q ..S 7.b 5.6.f.u g.q.w.v.Q Q Q v.C g.J p.(.S.y.T.|.X _ B   ",
"  3.K.O.g.B B < _.5.u z Q _ D.m.D._ ..f.g.w.C f.L.U.e.f.7.q.w.Q Q Q v.C S 7.5.A !.V.t.} # ..B   ",
"~ W.~.W.>.B B e : 6.f...Q D.X.D.D.v.z q.Y.Q 5.<.g.Z.`.W (.u C v._ _ _ w.z u 6.<. +|.t.y.M Q B B ",
".+$ X ++d B B ,.A J g.C _ X.X.m._ C g.@+q.t d B B ,.Z.#+:.:.z v.Q _ _ Q C g.6.: k g $+| %+A.B B ",
"g M &+3.B B R >.:.7.S w.D.m.X.X.Q z g.X.>.s B B B B d D.C >.f.w.Q _ Q v.C g.J : *+%+w S.! H B B ",
"s.9.) =+B B R r p.7.z v.D.X.X.-+m.z 7.-+c B B B B B B c X.t g...Q D._ Q C S J :.H *.! i.%.I.B B ",
";+$+w J.'.B < : p.u z w._ X.-+-+m.g.6.a s B B B B B B <  .t f.q.Q Q _ Q C S J :.L.>+{ 5 X ..B B ",
"k.V.> { f.R b b :.7.S w.D.X.-+-+m.z S C.>.B B B B B B : Q '.7.C Q _ _ Q C S J A D.,+~.'+&.p.B B ",
";+;+|..+-.S )+H A J S ..D.X.X.m.D.C v.!+~+B B B B B B *+:.,.g.w.Q _ Q v.q.f.6.A Q P.j p {+I B B ",
"z.0.V.h 8 l E ]+_.6.g.C _ D.m.X.D.w.z ^+9 ( R B B ).@+_ ).:.z v.Q Q v.w.C u b : q.)+/+E.` B B B ",
"  (+T.|.i.B.7 F A 5.f.q.v.D.X.X.X._ z Q /+_+I.7.7.L.z < >.f...v.Q Q v.C S 7.5.<.:.S v.8 n B B   ",
"  i.r.t.g 4 4 i.r p.J S .._ m.-+-+m.Q z J _.(.b _.c < _.f.C w._ Q Q w.q.f.6.A (.c t z & I.B B   ",
"  ] *.$+0.f :+; ,+e b f...w.D.D.X.X.D.Q q.f.:.>.;.: J S C v._ Q Q v...z u 5.: e s B R.u.I B B   ",
"  <+F %+F.|.= z.x 7.A J g...v.D.m.X.X.m._ v.......C ..v.Q _ _ Q v...z u 6.:.(.(.'.d K.[+s B B   ",
"  W R.3., 1.1.V.}+d.s b u S ..Q D.m.m.X.m.m.D._ _ _ Q _ _ D.Q v.w.q.g.J p.>.Q q.:.H U Q B B B   ",
"    ,.w.W.[ 1.}+0.. @+_.6.f.z ..v.D.m.m.m.m.X.m.D.m.D._ _ Q v.w.q.S 7.5.: q.|+e. .1+2+R B B     ",
"    B B /.O $+s.z.r.3+J :.b f.S ..w.Q _ D.m.D.D.D.D._ Q Q v...z g.J 5.:.:.E 2+m 2.4+u B B B     ",
"      B s 5+j.r.r.) *.]+e :.6.7.S q...w.v._ _ _ _ Q v.w.w.z z g.7.b :.B <+i ,+6+7+8+B B B       ",
"      B B d 9+.+0+~ i G.X.r : 5.6.f.S z C ....w.w...q.z S f.u b p._.6.* @ Z '+4+2+e B B B       ",
"        B B :.,+O =.^ a+a (.r : :.5.J u f.g.S S z g.g.u 7.6.b A B b.&.1 &+$ !.b+7.B B B         ",
"          B B 7.c+d+e+/.z I ).>._.(.:.5.6.6.7.7.J J 6.b 5.p.'.J U f g ' &+O.u.g.B B B           ",
"          B B B p.` !.K r ).)._.Q a <._._.: A :.:.A : <.: (.U (+0.- h :+Z E.g.B B B B           ",
"            B B B r j c+f+(.).b a k P G [+8+H @+@+*+k  +!.g k.F.0., 2 % 9 J B B B B             ",
"              B B B < C.` u.K z g+f+h+i+&.Z $ # 2 v (+s.1.1.F.; ) ~ j+Q.c B B B B               ",
"                B B B B >.k+8 l+k+2. +i+&.*.&+) ' g y.$+- g .+X J./ b B B B B B                 ",
"                    B B B B J _+V ^ 4.d.{+8.X }.&+M @ ! ~ m++.D g.B B B B B                     ",
"                      B B B B B < S Q.m n+~.].u.=+o+i+`./+v.c R B B B B B                       ",
"                          B B B B B B B ).'.< < ).c < B B B B B B B B                           ",
"                              B B B B B B B B B B B B B B B B B B                               ",
"                                        B B B B B B B B                                         "};
