/* XPM */
static const char * m_no_grow_slot_xpm[] = {
"48 48 7 1",
" 	c None",
".	c #000000",
"+	c #333333",
"@	c #CCCCCC",
"#	c #999999",
"$	c #FFFFFF",
"%	c #666666",
"                    @@@@@@#%                    ",
"               $$$$$$@@@@@##%++..               ",
"             $$$$$@@@@@@@###%%+....             ",
"           @@$$$@@##%%%%%%%###%+....+           ",
"          @@$@@##%+.........+%%#%+..+%          ",
"        @@@@@#%+...............+%#%++%#@        ",
"       @@@@@#+...................+##%%#@@       ",
"      #@@@#%.......................%###@@$      ",
"     %##@#+.........................+#@@@$$     ",
"     %###+...........................+@@@$$     ",
"    +%%#+.............++++............+@@$$$    ",
"   .++#%...........++++++++++..........%@$$$$   ",
"   .+%#..........++++++++++++++........+@$$$@   ",
"  ..+#+........++++++++++++++++++....+.+#@$$@@  ",
"  ..%%........++++++++++++++++++++...+%%%@$$@@  ",
" ...#+.......++++++++++++++++++++++...%##@$$@#% ",
" +.+#.......+++++++++++++++++++++++....@@@$$@%+ ",
" ++%%.......++++++++++++++++++++++++...#@@$$@+. ",
" %+#+......++++++++++......++++++++++...@$$$@+. ",
" #%@+......++++++++.+++.+++..++++++++...#$$$@+. ",
"@###.......+++++++++++..++%+..+++++++...%$$$@+..",
"@@@#......+++++++++++.....++..++++++++..%@$@@+..",
"@@@#......++++++++++.......++..+++++++..+@@@@+..",
"$@@#......++++++++.+........+.++++++++..+@@@@+..",
"$$@#......++++++++.+........+..+++++++..+#@@@+..",
"$$$@......++++++++++........+..+++++++..+###@...",
"$$$@%+++..+++++++++%+......+..+++++++...+%%##...",
"$$$$#%%%..+++++++++%%+....++..+++++++...+++##...",
" @$$@###...++++++++++++..++...+++++++....++#%.. ",
" @@$@@@@...+++++++++.........+++++++......+#+.. ",
" #@$$@@$#...+++++++++......+++++++++......+#... ",
" %#@$$$$$...+++++++++++++++++++++++.......%%... ",
" ++#$$$$$#...++++++++++++++++++++++...++.+#+... ",
"  .+#$$$$@+...++++++++++++++++++++...+%++%%...  ",
"  ..+@$$$@#....++++++++++++++++++....%%%%#....  ",
"   ..%@@@@@%....++++++++++++++++....%##%#+...   ",
"   ...#@@@#%+.....+++++++++++......%@@##%....   ",
"    ...#@##%+........++++++......+@@@@##....    ",
"     ...#@%++...................#@@@@@#+...     ",
"     ....##+....++............#@$$$@@#+....     ",
"      ....%#%...+%%%%+++++%%#@$$$$@@%.....      ",
"       ....+##+++%%#@@@@@@@$$$$$@@#+.....       ",
"        .....%#%%%%#@@@@@@$$$@@@#%......        ",
"          .....+%####@@@@@@@@##%+.....          ",
"           ......++%#######%++.......           ",
"             ......................             ",
"               ..................               ",
"                    ........                    "};
