/* XPM */
static const char * mlink_xpm[] = {
"14 32 6 1",
" 	c None",
".	c #333333",
"+	c #999999",
"@	c #000000",
"#	c #666666",
"$	c #CCCCCC",
"              ",
"              ",
"              ",
"              ",
"              ",
"              ",
"              ",
"$$$$$$$$$++##.",
"+++++++++##...",
"++++##....@@@@",
"+##..@@@@@@@@@",
"+#.@@@@@@@@...",
"+###########..",
"+++$$$$$$$$#..",
"+#+++++++#....",
"++++++##.@@@..",
"++###..@@@@@..",
"+#.@@@@@@@@@..",
"+#............",
"+++++$$$+++#..",
"++++#######..#",
"+++##.......##",
"###......@@...",
"..@@@@@@@@@@@@",
"              ",
"              ",
"              ",
"              ",
"              ",
"              ",
"              ",
"              "};
