/* XPM */
static const char * mphone_xpm[] = {
"32 32 224 2",
"  	c None",
". 	c #000000",
"+ 	c #000000",
"@ 	c #000000",
"# 	c #000000",
"$ 	c #101010",
"% 	c #020202",
"& 	c #070707",
"* 	c #080808",
"= 	c #070707",
"- 	c #1A1A1A",
"; 	c #000000",
"> 	c #323232",
", 	c #151515",
"' 	c #161616",
") 	c #494949",
"! 	c #000000",
"~ 	c #434343",
"{ 	c #000000",
"] 	c #141414",
"^ 	c #161616",
"/ 	c #3C3C3C",
"( 	c #000000",
"_ 	c #050505",
": 	c #262626",
"< 	c #2D2D2D",
"[ 	c #050505",
"} 	c #060606",
"| 	c #050505",
"1 	c #262626",
"2 	c #323232",
"3 	c #474747",
"4 	c #1D1D1D",
"5 	c #1D1D1D",
"6 	c #3A3A3A",
"7 	c #3F3F3F",
"8 	c #363636",
"9 	c #303030",
"0 	c #464646",
"a 	c #474747",
"b 	c #484848",
"c 	c #5E5E5E",
"d 	c #5F5F5F",
"e 	c #373737",
"f 	c #040404",
"g 	c #424242",
"h 	c #2E2E2E",
"i 	c #161616",
"j 	c #2C2C2C",
"k 	c #282828",
"l 	c #383838",
"m 	c #303030",
"n 	c #070707",
"o 	c #424242",
"p 	c #454545",
"q 	c #3C3C3C",
"r 	c #3D3D3D",
"s 	c #3E3E3E",
"t 	c #090909",
"u 	c #4D4D4D",
"v 	c #070707",
"w 	c #747474",
"x 	c #494949",
"y 	c #5C5C5C",
"z 	c #303030",
"A 	c #404040",
"B 	c #4F4F4F",
"C 	c #181818",
"D 	c #1D1D1D",
"E 	c #242424",
"F 	c #292929",
"G 	c #525252",
"H 	c #555555",
"I 	c #585858",
"J 	c #616161",
"K 	c #626262",
"L 	c #636363",
"M 	c #646464",
"N 	c #6B6B6B",
"O 	c #909090",
"P 	c #969696",
"Q 	c #0D0D0D",
"R 	c #0F0F0F",
"S 	c #111111",
"T 	c #121212",
"U 	c #181818",
"V 	c #1A1A1A",
"W 	c #1C1C1C",
"X 	c #1D1D1D",
"Y 	c #202020",
"Z 	c #212121",
"` 	c #242424",
" .	c #282828",
"..	c #292929",
"+.	c #2A2A2A",
"@.	c #2C2C2C",
"#.	c #2D2D2D",
"$.	c #303030",
"%.	c #313131",
"&.	c #323232",
"*.	c #373737",
"=.	c #383838",
"-.	c #393939",
";.	c #3B3B3B",
">.	c #3C3C3C",
",.	c #3D3D3D",
"'.	c #3E3E3E",
").	c #3F3F3F",
"!.	c #404040",
"~.	c #414141",
"{.	c #424242",
"].	c #434343",
"^.	c #444444",
"/.	c #454545",
"(.	c #464646",
"_.	c #474747",
":.	c #484848",
"<.	c #494949",
"[.	c #4A4A4A",
"}.	c #4B4B4B",
"|.	c #4C4C4C",
"1.	c #4D4D4D",
"2.	c #4E4E4E",
"3.	c #4F4F4F",
"4.	c #505050",
"5.	c #515151",
"6.	c #525252",
"7.	c #535353",
"8.	c #545454",
"9.	c #555555",
"0.	c #565656",
"a.	c #575757",
"b.	c #585858",
"c.	c #595959",
"d.	c #5A5A5A",
"e.	c #5B5B5B",
"f.	c #5C5C5C",
"g.	c #5D5D5D",
"h.	c #5E5E5E",
"i.	c #5F5F5F",
"j.	c #606060",
"k.	c #616161",
"l.	c #626262",
"m.	c #636363",
"n.	c #646464",
"o.	c #656565",
"p.	c #666666",
"q.	c #676767",
"r.	c #686868",
"s.	c #696969",
"t.	c #6A6A6A",
"u.	c #6B6B6B",
"v.	c #6C6C6C",
"w.	c #6D6D6D",
"x.	c #6E6E6E",
"y.	c #6F6F6F",
"z.	c #707070",
"A.	c #717171",
"B.	c #727272",
"C.	c #737373",
"D.	c #747474",
"E.	c #757575",
"F.	c #767676",
"G.	c #777777",
"H.	c #787878",
"I.	c #797979",
"J.	c #7A7A7A",
"K.	c #7B7B7B",
"L.	c #7C7C7C",
"M.	c #7D7D7D",
"N.	c #7E7E7E",
"O.	c #7F7F7F",
"P.	c #808080",
"Q.	c #818181",
"R.	c #828282",
"S.	c #838383",
"T.	c #848484",
"U.	c #858585",
"V.	c #868686",
"W.	c #878787",
"X.	c #888888",
"Y.	c #898989",
"Z.	c #8A8A8A",
"`.	c #8B8B8B",
" +	c #8C8C8C",
".+	c #8E8E8E",
"++	c #8F8F8F",
"@+	c #909090",
"#+	c #919191",
"$+	c #929292",
"%+	c #939393",
"&+	c #959595",
"*+	c #969696",
"=+	c #979797",
"-+	c #989898",
";+	c #999999",
">+	c #9A9A9A",
",+	c #9B9B9B",
"'+	c #9C9C9C",
")+	c #9D9D9D",
"!+	c #9F9F9F",
"~+	c #A0A0A0",
"{+	c #A1A1A1",
"]+	c #A2A2A2",
"^+	c #A3A3A3",
"/+	c #A4A4A4",
"(+	c #A5A5A5",
"_+	c #A6A6A6",
":+	c #A7A7A7",
"<+	c #A8A8A8",
"[+	c #A9A9A9",
"}+	c #AAAAAA",
"|+	c #ACACAC",
"1+	c #B1B1B1",
"2+	c #B2B2B2",
"3+	c #B4B4B4",
"4+	c #B5B5B5",
"5+	c #B9B9B9",
"6+	c #CACACA",
"7+	c #D5D5D5",
"8+	c #D7D7D7",
"9+	c #D8D8D8",
"0+	c #E0E0E0",
"a+	c #FFFFFF",
"                                                                ",
"                                                                ",
"                                                                ",
"                                                                ",
"                                          o.r.n.B               ",
"                                      s R.j.l.l.k.i.            ",
"                                  k |.P k.k.m.l.m.k.b.          ",
"                                ].7.L.m.k.j.+.Z '.i.K o         ",
"                            z G I b.)+k.n.R R U W 3.k.l.        ",
"                          4.0.d.g.G.u.l.@.` #.&.-.,.p.L         ",
"                      }.H c.f.i.j.7+n.o.=.'.^.[.2.6.o.o.x       ",
"          l 4.A   m 5.b.f.h.j.k.j.0+k.a.4.9.b.f.i.l.m.A.c.      ",
"        y O y.n.1+8.e.g.i.j.k.l.f.{+k.k.m.q.s.u.x.z.A.P.k.      ",
"        <+V.L.A.e.g.h.i.j.k.k.k.E.C.k.B.D.G.H.J.K.M.N.`.o.      ",
"      w 3+`.O.A.i.h.h.h.i.i.i.j.:+k.k.Q.S.T.U.V.W.W.X.#+N       ",
"      '+}+Y.L.w.g.f.g.g.g.g.h.h.1+j.o..+.+++++@+@+#+#+=+y.      ",
"      2+$+T.C.{+7.d.e.e.f.f.g.f.9+m.o.,+,+,+,+,+,+,+,+~+A.      ",
"      ;+Z.K.u.g.6.9.0.a.b.c.c.c.8+m.q.:+_+(+(+(+(+/+/+|+C.      ",
"      s.S.y.n.a.[.2.3.5.7.8.9.a.6+l.r.[+[+[+[+}+[+[+[+4+G.      ",
"      p P.h.9.1.~./.:.[.1.3.5.7. +k.m.^+/+(+(+_+_+:+<+5+v.      ",
"        r.}.'.=.3.=.).{.(.<.}.1.o.m.i.,+)+!+!+~+{+]+]+2+l.      ",
"        i 6.E T J.F $.*.,.!.]._.2.u.k.%+*+-+>+,+'+)+)+*+l.      ",
"                    S  .$.*.>.!.!.L.k.O.`..+#+%+&+=+>+I.[.      ",
"                      t D ..%.=.;.Z.k.k.M.R.V.Y. +++>+o.q       ",
"                          S Y +.&.q.l.l.m.z.F.L.P.U.N.m.        ",
"                            v C E @.t.k.h.2.h.r.x.X.l.3.        ",
"                                Q X v.l.l.f.3.m.C.m.n.          ",
"                                  n V M l.k.l.l.k.J u           ",
"                                      $.j.l.l.l.K 0.            ",
"                                        j |.e.g.r               ",
"                                                                ",
"                                                                "};
