/* XPM */
static const char * spear_xpm[] = {
"32 32 153 2",
"  	c None",
". 	c #000000",
"+ 	c #000000",
"@ 	c #000000",
"# 	c #000000",
"$ 	c #000000",
"% 	c #000000",
"& 	c #000000",
"* 	c #000000",
"= 	c #020202",
"- 	c #000000",
"; 	c #484848",
"> 	c #000000",
", 	c #050505",
"' 	c #151515",
") 	c #010101",
"! 	c #010101",
"~ 	c #050505",
"{ 	c #060606",
"] 	c #080808",
"^ 	c #353535",
"/ 	c #1B1B1B",
"( 	c #191919",
"_ 	c #0C0C0C",
": 	c #AAAAAA",
"< 	c #575757",
"[ 	c #080808",
"} 	c #191919",
"| 	c #121212",
"1 	c #666666",
"2 	c #3C3C3C",
"3 	c #181818",
"4 	c #0D0D0D",
"5 	c #1D1D1D",
"6 	c #2F2F2F",
"7 	c #060606",
"8 	c #0D0D0D",
"9 	c #626262",
"0 	c #202020",
"a 	c #545454",
"b 	c #909090",
"c 	c #141414",
"d 	c #222222",
"e 	c #6B6B6B",
"f 	c #535353",
"g 	c #101010",
"h 	c #2B2B2B",
"i 	c #1A1A1A",
"j 	c #828282",
"k 	c #232323",
"l 	c #101010",
"m 	c #666666",
"n 	c #909090",
"o 	c #505050",
"p 	c #3F3F3F",
"q 	c #171717",
"r 	c #282828",
"s 	c #464646",
"t 	c #464646",
"u 	c #2A2A2A",
"v 	c #666666",
"w 	c #6E6E6E",
"x 	c #313131",
"y 	c #2A2A2A",
"z 	c #2B2B2B",
"A 	c #A4A4A4",
"B 	c #1C1C1C",
"C 	c #1A1A1A",
"D 	c #1C1C1C",
"E 	c #323232",
"F 	c #212121",
"G 	c #8A8A8A",
"H 	c #3B3B3B",
"I 	c #393939",
"J 	c #464646",
"K 	c #848484",
"L 	c #3B3B3B",
"M 	c #878787",
"N 	c #343434",
"O 	c #4F4F4F",
"P 	c #1F1F1F",
"Q 	c #262626",
"R 	c #272727",
"S 	c #2D2D2D",
"T 	c #2F2F2F",
"U 	c #333333",
"V 	c #373737",
"W 	c #393939",
"X 	c #3A3A3A",
"Y 	c #3B3B3B",
"Z 	c #3D3D3D",
"` 	c #3F3F3F",
" .	c #404040",
"..	c #414141",
"+.	c #434343",
"@.	c #484848",
"#.	c #4F4F4F",
"$.	c #535353",
"%.	c #545454",
"&.	c #595959",
"*.	c #5C5C5C",
"=.	c #606060",
"-.	c #646464",
";.	c #676767",
">.	c #686868",
",.	c #6A6A6A",
"'.	c #717171",
").	c #727272",
"!.	c #747474",
"~.	c #757575",
"{.	c #767676",
"].	c #7B7B7B",
"^.	c #7D7D7D",
"/.	c #7E7E7E",
"(.	c #7F7F7F",
"_.	c #808080",
":.	c #818181",
"<.	c #838383",
"[.	c #878787",
"}.	c #888888",
"|.	c #898989",
"1.	c #8A8A8A",
"2.	c #8C8C8C",
"3.	c #8D8D8D",
"4.	c #8E8E8E",
"5.	c #909090",
"6.	c #929292",
"7.	c #939393",
"8.	c #949494",
"9.	c #959595",
"0.	c #979797",
"a.	c #999999",
"b.	c #9A9A9A",
"c.	c #9C9C9C",
"d.	c #9E9E9E",
"e.	c #A0A0A0",
"f.	c #A3A3A3",
"g.	c #A4A4A4",
"h.	c #A6A6A6",
"i.	c #A8A8A8",
"j.	c #ACACAC",
"k.	c #ADADAD",
"l.	c #AEAEAE",
"m.	c #B7B7B7",
"n.	c #B9B9B9",
"o.	c #BFBFBF",
"p.	c #C0C0C0",
"q.	c #C1C1C1",
"r.	c #C9C9C9",
"s.	c #CCCCCC",
"t.	c #D6D6D6",
"u.	c #DDDDDD",
"v.	c #FFFFFF",
"                                                                ",
"                                                                ",
"                                                  m <.i.r.      ",
"                                                w b.g.o.t.      ",
"                                              v }.a.n.s.n.      ",
"                                            f ^.|.h.q.r.A       ",
"                                            )._.6.l.m.p.n       ",
"                                        !./.].[.d.f.k.j.        ",
"                                      t 1.<.(.0.b.c.e.j         ",
"                                      '._.2.5.9.0.0.G           ",
"                                      -.,.7.4.6.6.M             ",
"                                      *.@.:.8.3.}.              ",
"                                    ^.#.=.%.1.5.O               ",
"                                    (.u.T {.&.>.s               ",
"                                  u $.>.4.J K o                 ",
"                                d +.W B                         ",
"                                ` Z D                           ",
"                              N  .P                             ",
"                            z ..Q                               ",
"                          k ..S                                 ",
"                           .U                                   ",
"                        I X l                                   ",
"                      x Z q                                     ",
"                    h  .C                                       ",
"                    ` F                                         ",
"                  L R                                           ",
"                E T                                             ",
"              r V                                               ",
"              Y g                                               ",
"          p H i                                                 ",
"        e ;.Z                                                   ",
"          ~.y                                                   "};
