/* XPM */
static const char * star_xpm[] = {
"32 32 166 2",
"  	g None",
". 	g #797979",
"+ 	g #8A8A8A",
"@ 	g #939393",
"# 	g #5B5B5B",
"$ 	g #848484",
"% 	g #575757",
"& 	g #C7C7C7",
"* 	g #878787",
"= 	g #737373",
"- 	g #4C4C4C",
"; 	g #2F2F2F",
"> 	g #696969",
", 	g #8F8F8F",
"' 	g #C3C3C3",
") 	g #646464",
"! 	g #949494",
"~ 	g #BABABA",
"{ 	g #7E7E7E",
"] 	g #6C6C6C",
"^ 	g #585858",
"/ 	g #3B3B3B",
"( 	g #242424",
"_ 	g #636363",
": 	g #929292",
"< 	g #AAAAAA",
"[ 	g #AEAEAE",
"} 	g #7B7B7B",
"| 	g #686868",
"1 	g #535353",
"2 	g #3E3E3E",
"3 	g #272727",
"4 	g #111111",
"5 	g #3D3D3D",
"6 	g #5D5D5D",
"7 	g #808080",
"8 	g #979797",
"9 	g #AFAFAF",
"0 	g #CACACA",
"a 	g #9A9A9A",
"b 	g #B0B0B0",
"c 	g #9C9C9C",
"d 	g #787878",
"e 	g #4E4E4E",
"f 	g #393939",
"g 	g #222222",
"h 	g #B5B5B5",
"i 	g #CECECE",
"j 	g #CFCFCF",
"k 	g #6A6A6A",
"l 	g #515151",
"m 	g #828282",
"n 	g #747474",
"o 	g #5E5E5E",
"p 	g #494949",
"q 	g #2B2B2B",
"r 	g #7A7A7A",
"s 	g #A1A1A1",
"t 	g #BBBBBB",
"u 	g #D4D4D4",
"v 	g #EBEBEB",
"w 	g #5F5F5F",
"x 	g #595959",
"y 	g #858585",
"z 	g #6F6F6F",
"A 	g #353535",
"B 	g #202020",
"C 	g #909090",
"D 	g #B4B4B4",
"E 	g #DADADA",
"F 	g #F6F6F6",
"G 	g #8B8B8B",
"H 	g #4F4F4F",
"I 	g #262626",
"J 	g #444444",
"K 	g #6D6D6D",
"L 	g #A7A7A7",
"M 	g #5C5C5C",
"N 	g #9F9F9F",
"O 	g #C6C6C6",
"P 	g #E8E8E8",
"Q 	g #ACACAC",
"R 	g #545454",
"S 	g #757575",
"T 	g #ADADAD",
"U 	g #707070",
"V 	g #5A5A5A",
"W 	g #6B6B6B",
"X 	g #7D7D7D",
"Y 	g #7F7F7F",
"Z 	g #626262",
"` 	g #656565",
" .	g #C8C8C8",
"..	g #A9A9A9",
"+.	g #343434",
"@.	g #181818",
"#.	g #414141",
"$.	g #525252",
"%.	g #BCBCBC",
"&.	g #C9C9C9",
"*.	g #CBCBCB",
"=.	g #CDCDCD",
"-.	g #BEBEBE",
";.	g #B7B7B7",
">.	g #969696",
",.	g #4A4A4A",
"'.	g #373737",
").	g #292929",
"!.	g #333333",
"~.	g #D2D2D2",
"{.	g #9B9B9B",
"].	g #CCCCCC",
"^.	g #1B1B1B",
"/.	g #0D0D0D",
"(.	g #8C8C8C",
"_.	g #ABABAB",
":.	g #666666",
"<.	g #818181",
"[.	g #999999",
"}.	g #717171",
"|.	g #C4C4C4",
"1.	g #323232",
"2.	g #D3D3D3",
"3.	g #B1B1B1",
"4.	g #C1C1C1",
"5.	g #4B4B4B",
"6.	g #313131",
"7.	g #151515",
"8.	g #B2B2B2",
"9.	g #C5C5C5",
"0.	g #F3F3F3",
"a.	g #3F3F3F",
"b.	g #D9D9D9",
"c.	g #F2F2F2",
"d.	g #8E8E8E",
"e.	g #898989",
"f.	g #FFFFFF",
"g.	g #E3E3E3",
"h.	g #616161",
"i.	g #3A3A3A",
"j.	g #D6D6D6",
"k.	g #FBFBFB",
"l.	g #868686",
"m.	g #555555",
"n.	g #D0D0D0",
"o.	g #F8F8F8",
"p.	g #6E6E6E",
"q.	g #B3B3B3",
"r.	g #F4F4F4",
"s.	g #E5E5E5",
"t.	g #484848",
"u.	g #454545",
"v.	g #777777",
"w.	g #1D1D1D",
"x.	g #383838",
"y.	g #A8A8A8",
"z.	g #FCFCFC",
"A.	g #676767",
"B.	g #565656",
"C.	g #767676",
"D.	g #919191",
"E.	g #4D4D4D",
"F.	g #888888",
"G.	g #232323",
"H.	g #FEFEFE",
"I.	g #959595",
"                                                                ",
"                                                                ",
"        .                                                       ",
"        + @ #                                       $           ",
"        % & * = - ;                           > , ' )           ",
"          ! ~ { ] ^ / (                   _ : < & , -           ",
"          . [ < } | 1 2 3 4         5 6 7 8 9 0 [ >             ",
"            a b c d _ e f g         > $ c h i j k l             ",
"            m 8 b , n o p q         r s t u v n w f             ",
"            x m 8 [ y z 1 A       B C D E F G ) H I             ",
"            J K m 8 L } M /         N O P Q k R 2               ",
"              ^ ] m 8 $ * S         T T [ U V J I               ",
"              2 % W X y y O Y Z ` 7  ...< x p +.@.              ",
"              ( #.$._ Y %.j &.*.=.t -.;.>.,.'.(                 ",
"                  ).!.#.-.~.0 @ {.].D D #.3 ^./.                ",
"                        (.&.Y     (.j                           ",
"                        _.].      :.j <.                        ",
"                        [.i       X =.}.                        ",
"                        } 0 :   ).0 |.                          ",
"              1.l 6 }.] 2.%.0 O *.0 3.4.+ 5.6.7.                ",
"              $.(.s 8.@ < |.9 9.-...9.0.' ^ a.).                ",
"              * 8.b.c.d.e._.        v f.g.h.e i.^.              ",
"              9 j.k.f.l.$ x       m. .P f.K o p q               ",
"            m n.o.f.2.K H 1.      e { y @ G p.x 5               ",
"            q.r.f.s.}.h.t.I       u.> n $ >.<.> m.              ",
"            0.f.0.v.) H / w.      x.R _ n y >.d ) f             ",
"          y.f.z.{ A.$.2 ).4         / B.` C.l.D.= E.            ",
"          ].f.F.k B.2 G.                #.:.d e.G )             ",
"          H.[.p.- A                         ,.k d.y             ",
"        I.3.V                                     W $.          ",
"        .                                                       ",
"                                                                "};
