/* XPM */
static const char * sword_xpm[] = {
"32 32 146 2",
"  	c None",
". 	c #000000",
"+ 	c #000000",
"@ 	c #000000",
"# 	c #181818",
"$ 	c #000000",
"% 	c #020202",
"& 	c #5E5E5E",
"* 	c #262626",
"= 	c #2A2A2A",
"- 	c #707070",
"; 	c #030303",
"> 	c #5D5D5D",
", 	c #747474",
"' 	c #393939",
") 	c #2A2A2A",
"! 	c #6C6C6C",
"~ 	c #2B2B2B",
"{ 	c #373737",
"] 	c #717171",
"^ 	c #464646",
"/ 	c #3E3E3E",
"( 	c #4D4D4D",
"_ 	c #646464",
": 	c #090909",
"< 	c #4D4D4D",
"[ 	c #000000",
"} 	c #838383",
"| 	c #505050",
"1 	c #606060",
"2 	c #888888",
"3 	c #777777",
"4 	c #6E6E6E",
"5 	c #767676",
"6 	c #0F0F0F",
"7 	c #6A6A6A",
"8 	c #0E0E0E",
"9 	c #5A5A5A",
"0 	c #696969",
"a 	c #414141",
"b 	c #1A1A1A",
"c 	c #313131",
"d 	c #515151",
"e 	c #828282",
"f 	c #080808",
"g 	c #9A9A9A",
"h 	c #3B3B3B",
"i 	c #000000",
"j 	c #5F5F5F",
"k 	c #6B6B6B",
"l 	c #717171",
"m 	c #7E7E7E",
"n 	c #818181",
"o 	c #5F5F5F",
"p 	c #777777",
"q 	c #5A5A5A",
"r 	c #383838",
"s 	c #5E5E5E",
"t 	c #888888",
"u 	c #B0B0B0",
"v 	c #919191",
"w 	c #494949",
"x 	c #676767",
"y 	c #9C9C9C",
"z 	c #A4A4A4",
"A 	c #151515",
"B 	c #AEAEAE",
"C 	c #2E2E2E",
"D 	c #7F7F7F",
"E 	c #676767",
"F 	c #383838",
"G 	c #797979",
"H 	c #7A7A7A",
"I 	c #838383",
"J 	c #848484",
"K 	c #8E8E8E",
"L 	c #8F8F8F",
"M 	c #959595",
"N 	c #9C9C9C",
"O 	c #AFAFAF",
"P 	c #B4B4B4",
"Q 	c #B5B5B5",
"R 	c #C4C4C4",
"S 	c #C5C5C5",
"T 	c #C6C6C6",
"U 	c #C7C7C7",
"V 	c #C8C8C8",
"W 	c #CDCDCD",
"X 	c #363636",
"Y 	c #474747",
"Z 	c #505050",
"` 	c #5B5B5B",
" .	c #6B6B6B",
"..	c #707070",
"+.	c #717171",
"@.	c #737373",
"#.	c #747474",
"$.	c #757575",
"%.	c #767676",
"&.	c #777777",
"*.	c #787878",
"=.	c #797979",
"-.	c #7B7B7B",
";.	c #7C7C7C",
">.	c #7D7D7D",
",.	c #7F7F7F",
"'.	c #818181",
").	c #828282",
"!.	c #838383",
"~.	c #878787",
"{.	c #8C8C8C",
"].	c #8D8D8D",
"^.	c #8E8E8E",
"/.	c #919191",
"(.	c #929292",
"_.	c #939393",
":.	c #949494",
"<.	c #959595",
"[.	c #979797",
"}.	c #989898",
"|.	c #9A9A9A",
"1.	c #9D9D9D",
"2.	c #A3A3A3",
"3.	c #A5A5A5",
"4.	c #A7A7A7",
"5.	c #ABABAB",
"6.	c #AFAFAF",
"7.	c #B2B2B2",
"8.	c #B4B4B4",
"9.	c #B5B5B5",
"0.	c #B7B7B7",
"a.	c #B9B9B9",
"b.	c #BABABA",
"c.	c #BBBBBB",
"d.	c #C0C0C0",
"e.	c #C2C2C2",
"f.	c #C3C3C3",
"g.	c #C4C4C4",
"h.	c #C5C5C5",
"i.	c #C6C6C6",
"j.	c #C7C7C7",
"k.	c #C8C8C8",
"l.	c #C9C9C9",
"m.	c #CBCBCB",
"n.	c #CCCCCC",
"o.	c #FFFFFF",
"                                                                ",
"                                                                ",
"                                                  ;.7           ",
"                                                2.I o           ",
"                                              a.O !.j           ",
"                                            B R 6.!.j           ",
"                                          z T g.0.).k           ",
"                                        v U h.g.0.!.l           ",
"                                      g k.h.h.g.0.!.l           ",
"                                    e k.h.h.h.g.0.!.m           ",
"                                  0 l.g.h.h.h.g.d.'.n           ",
"                                  h.g.h.h.h.g.j.~.H p           ",
"                                d.g.h.h.h.h.k.].*.@.            ",
"                              c.g.h.h.h.h.k.:.&.$.              ",
"                            c.R h.h.h.h.j.1.&.=.                ",
"                          8.R h.h.h.h.i.3.%.;.a                 ",
"                        u S g.i.j.g.g.8.#.-.d                   ",
"                      y U h.m.f 4 j.b.&.H q                     ",
"                    D V g.W n.6 5 e.*.G x                       ",
"                  K N 7.m.C   i.f.-.G E                         ",
"                  ].4.|.i.i   k.,.G  .                          ",
"                    }.5./.9.b.J G +.                            ",
"                    9 <.9._.(.*...                              ",
"                    s ^.M 0.` >.                                ",
"                  w ,.  t L Q A                                 ",
"                r ^.      [.Z                                   ",
"              c |.8                                             ",
"            F {.b                                               ",
"          h P X                                                 ",
"            Y                                                   ",
"                                                                ",
"                                                                "};
