/* XPM */
static const char * sword_xpm[] = {
"32 32 6 1",
" 	c None",
".	c #CCCCCC",
"+	c #999999",
"@	c #666666",
"#	c #333333",
"$	c #000000",
"                                ",
"                                ",
"                         @@     ",
"                        ++@     ",
"                       .++@     ",
"                      +.++@     ",
"                     +...+@     ",
"                    +....+@     ",
"                   +.....+@     ",
"                  +......+@     ",
"                 @.......++     ",
"                 .......+@@     ",
"                .......+@@      ",
"               .......+@@       ",
"              .......+@@        ",
"             .......+@@#        ",
"            +.......@@@         ",
"           +...$@..@@@          ",
"          +....$@.@@@           ",
"         ++..# ..@@@            ",
"         +++.$ .+@@             ",
"          +++..+@@              ",
"          @+.++@@               ",
"          @++.@@                ",
"         #+ ++.$                ",
"        #+   +@                 ",
"       #+$                      ",
"      #+$                       ",
"     #.#                        ",
"      #                         ",
"                                ",
"                                "};
