/* XPM */
static const char * copy_xpm[] = {
"22 22 4 1",
" 	c None",
".	c #FFFFFF",
"+	c #999999",
"@	c #CCCCCC",
" +++++++++++++        ",
" .............        ",
" .............        ",
" .............+       ",
" ..@@@@+++++++++++++++",
" ......+.............+",
" ..@@@@+.............+",
" ......+.............+",
" ..@@@@+..@@@@@@@@@..+",
" ......+.............+",
" ..@@@@+..@@@@@@@@@..+",
" ......+.............+",
" ..@@@@+..@@@@@@@....+",
" .....@+.............+",
" .....@+..@@@@@@@@@..+",
" .....@+.............+",
" ......+............@+",
" +++++++........++++++",
"       +........+@@@+ ",
"       +........+@@++ ",
"       +........+@+   ",
"       +++++++++++    "};
