/* XPM */
static const char * paste_xpm[] = {
"22 22 110 2",
"  	c None",
". 	c #5C5C5C",
"+ 	c #5E5E5D",
"@ 	c #8F8F83",
"# 	c #909084",
"$ 	c #6D4501",
"% 	c #6B4301",
"& 	c #63543A",
"* 	c #7A7A73",
"= 	c #97978A",
"- 	c #7B7B75",
"; 	c #63553B",
"> 	c #6A4301",
", 	c #6C4401",
"' 	c #6F4501",
") 	c #C08324",
"! 	c #A97E3A",
"~ 	c #747064",
"{ 	c #626261",
"] 	c #8D8D88",
"^ 	c #BABAB0",
"/ 	c #BABAB1",
"( 	c #BBBBB1",
"_ 	c #BBBBB2",
": 	c #BCBCB2",
"< 	c #90908A",
"[ 	c #636362",
"} 	c #B87E23",
"| 	c #6E4400",
"1 	c #6D4401",
"2 	c #C58826",
"3 	c #757164",
"4 	c #ECEDEC",
"5 	c #DDDDDD",
"6 	c #6B6B6A",
"7 	c #5E5E5E",
"8 	c #DBDBDB",
"9 	c #726F63",
"0 	c #C48726",
"a 	c #6C4301",
"b 	c #C68727",
"c 	c #696A64",
"d 	c #FFFFFF",
"e 	c #F0F0EF",
"f 	c #EFEFEE",
"g 	c #EBEBEA",
"h 	c #686964",
"i 	c #C58726",
"j 	c #C58626",
"k 	c #686A64",
"l 	c #A7A7A6",
"m 	c #A6A6A6",
"n 	c #EDEDEC",
"o 	c #EEEEED",
"p 	c #EDEDEB",
"q 	c #A6A6A5",
"r 	c #A5A5A4",
"s 	c #A4A4A3",
"t 	c #A4A4A2",
"u 	c #E9E9E7",
"v 	c #EEEEEC",
"w 	c #ECECEB",
"x 	c #EBEBE9",
"y 	c #EAEAE8",
"z 	c #DBDBD8",
"A 	c #C58727",
"B 	c #A3A3A1",
"C 	c #E8E8E6",
"D 	c #E7E7E4",
"E 	c #CDCECA",
"F 	c #C48626",
"G 	c #ECECEA",
"H 	c #E7E7E5",
"I 	c #E6E6E3",
"J 	c #E5E5E2",
"K 	c #B8B8B5",
"L 	c #E8E8E5",
"M 	c #E6E6E4",
"N 	c #CDCDC9",
"O 	c #C1C1BE",
"P 	c #B7B7B4",
"Q 	c #B6B6B2",
"R 	c #EAEAE9",
"S 	c #E4E4E2",
"T 	c #AFAFAC",
"U 	c #E4E4E1",
"V 	c #E2E2DF",
"W 	c #ADAEAA",
"X 	c #E2E2E1",
"Y 	c #D6D6D4",
"Z 	c #E5E5E3",
"` 	c #D6D7D3",
" .	c #CBCBC7",
"..	c #B5B5B1",
"+.	c #ACACA8",
"@.	c #CBCBC9",
"#.	c #666864",
"$.	c #B18031",
"%.	c #736F62",
"&.	c #EAEBEA",
"*.	c #906D35",
"=.	c #706E62",
"-.	c #BA832C",
";.	c #6E4401",
">.	c #B97E22",
",.	c #B47B22",
"'.	c #6C4300",
").	c #6C4402",
"!.	c #6B4302",
"~.	c #646459",
"                . . . . . .                 ",
"              + . @ # # @ . +               ",
"      $ % % & * = = = = = = - ; % > ,       ",
"    ' ) ! ~ { ] ^ ^ / ( _ : < [ ~ ! } |     ",
"    1 2 3 4 5 6 7 7 7 7 7 7 6 8 4 9 0 a     ",
"    1 b c d e f g g g g g g f e d h i a     ",
"    1 b c d e e e e e e e e e f d h j a     ",
"    1 b k d e l l l l l l l m n d h j a     ",
"    1 b k d e e e e e e f o p g d h j a     ",
"    1 b h d e l l l l q r s t u d h j a     ",
"    1 b h d e e e f v w x y u z d h j a     ",
"    1 A h d e m q r s B u C D E d h F a     ",
"    1 i h d o n G x y C H I J K d h F a     ",
"    1 i h d w x y u L M N O P Q d h F a     ",
"    1 i h d R u C D I S T d d d e h F a     ",
"    1 i h d C H I J U V W d e X Y h F a     ",
"    1 i h d M Z U `  ...+.d X @.#.$.F a     ",
"    , i %.&.d d d d d d d e @.#.$.F F a     ",
"    , i *.=.#.#.#.#.#.#.#.#.#.-.F F F a     ",
"    ;.>.0 j j j j F F F F F F F F 0 ,.'.    ",
"      ).a a a a a a a a a a a a a a !.      ",
"                      ~.~.                  "};
