/* XPM */
static const char * quit_xpm[] = {
"22 22 146 2",
"  	c None",
". 	c #800000",
"+ 	c #660000",
"@ 	c #550000",
"# 	c #6D0000",
"$ 	c #600000",
"% 	c #630000",
"& 	c #640000",
"* 	c #630000",
"= 	c #630000",
"- 	c #650000",
"; 	c #670000",
"> 	c #680000",
", 	c #680000",
"' 	c #690000",
") 	c #6A0000",
"! 	c #680000",
"~ 	c #690000",
"{ 	c #6A0000",
"] 	c #6A0000",
"^ 	c #6A0000",
"/ 	c #680000",
"( 	c #680000",
"_ 	c #680000",
": 	c #690000",
"< 	c #690000",
"[ 	c #6A0000",
"} 	c #680000",
"| 	c #690000",
"1 	c #690000",
"2 	c #6A0000",
"3 	c #690000",
"4 	c #6B0000",
"5 	c #680000",
"6 	c #690000",
"7 	c #6A0000",
"8 	c #6A0101",
"9 	c #820707",
"0 	c #830707",
"a 	c #840707",
"b 	c #690000",
"c 	c #7D0505",
"d 	c #7E0707",
"e 	c #800707",
"f 	c #820707",
"g 	c #830707",
"h 	c #840707",
"i 	c #840808",
"j 	c #850707",
"k 	c #850909",
"l 	c #870909",
"m 	c #680000",
"n 	c #7F0505",
"o 	c #800707",
"p 	c #810606",
"q 	c #810707",
"r 	c #810808",
"s 	c #820808",
"t 	c #830808",
"u 	c #830909",
"v 	c #840808",
"w 	c #840A0A",
"x 	c #860808",
"y 	c #860A0A",
"z 	c #860B0B",
"A 	c #7D0505",
"B 	c #7E0505",
"C 	c #7E0707",
"D 	c #BB0000",
"E 	c #BC0F0F",
"F 	c #BD0000",
"G 	c #BD2C2C",
"H 	c #BD2E2E",
"I 	c #BE0000",
"J 	c #BE2E2E",
"K 	c #BF0000",
"L 	c #BF0F0F",
"M 	c #BF2E2E",
"N 	c #BF3030",
"O 	c #C00000",
"P 	c #C00A0A",
"Q 	c #C00F0F",
"R 	c #C02E2E",
"S 	c #C03131",
"T 	c #C10000",
"U 	c #C20A0A",
"V 	c #C30000",
"W 	c #C30A0A",
"X 	c #C30E0E",
"Y 	c #C40000",
"Z 	c #C40E0E",
"` 	c #C50A0A",
" .	c #C60000",
"..	c #C60E0E",
"+.	c #C70B0B",
"@.	c #C70E0E",
"#.	c #C80000",
"$.	c #C80A0A",
"%.	c #C90000",
"&.	c #C90A0A",
"*.	c #C90D0D",
"=.	c #C90E0E",
"-.	c #CA0000",
";.	c #CA0909",
">.	c #CA0B0B",
",.	c #CB0000",
"'.	c #CB0D0D",
").	c #CB4242",
"!.	c #CC0909",
"~.	c #CC0D0D",
"{.	c #CC4141",
"].	c #CD0808",
"^.	c #CD0909",
"/.	c #CD0A0A",
"(.	c #CD0C0C",
"_.	c #CD0D0D",
":.	c #CE0D0D",
"<.	c #CE0E0E",
"[.	c #CE0F0F",
"}.	c #CF3F3F",
"|.	c #D04040",
"1.	c #D04141",
"2.	c #D04242",
"3.	c #D13F3F",
"4.	c #D14040",
"5.	c #D23F3F",
"6.	c #D24040",
"7.	c #D32727",
"8.	c #D32929",
"9.	c #D34040",
"0.	c #D34141",
"a.	c #D42B2B",
"b.	c #D43F3F",
"c.	c #D44141",
"d.	c #D53F3F",
"e.	c #D54040",
"f.	c #D64141",
"g.	c #D64545",
"h.	c #D73E3E",
"i.	c #D73F3F",
"j.	c #D74141",
"k.	c #D74444",
"l.	c #D74545",
"m.	c #D84343",
"n.	c #D84444",
"o.	c #D84545",
"                                            ",
"          !                     ,           ",
"        b C 3                 _ n 4         ",
"      b H m.z 3             [ j o.R 6       ",
"    5 J 7.].h.z 3         | i j.<.8.M 6     ",
"  ; c k.[.,.^.i.y 3     1 v f.:.,.(.l.p !   ",
"    ' 9 f.[.,.^.i.y 3 2 t f.(.,.(.f.l 3     ",
"      ) 0 f.[.,.!.d.w r 9.>.-.:.j.x 3       ",
"        ) 0 j.[.#.$.5.4.+. .'.f.v 3         ",
"          ) h f.=.V W W T ..0.t 3           ",
"            ) a 0.Z K I X 2.q 3             ",
"            1 k 5.U F D P }.u 3             ",
"          } k b.` K L E D U 3.w 3           ",
"        < k i.&.V X {.).Q O ` b.y 3         ",
"      : k i./.#.@.1.f d {.Z Y ;.i.y 3       ",
"    _ k i./.,.~.c.f / ( e |.*.%.^.i.y 3     ",
"  , o n./.,.:.f.g ^     _ r 6._.,.^.o.C !   ",
"    8 S 7.:.f.h ]         [ s e.(.a.H m     ",
"      8 N k.g {             | t g.G b       ",
"        7 A ~                 1 B b         ",
"          >                     !           ",
"                                            "};
