/* XPM */
static const char * accessory_xpm[] = {
"32 32 164 2",
"  	g None",
". 	g #121212",
"+ 	g #1C1C1C",
"@ 	g #191919",
"# 	g #0C0C0C",
"$ 	g #1B1B1B",
"% 	g #323232",
"& 	g #3A3A3A",
"* 	g #393939",
"= 	g #2E2E2E",
"- 	g #101010",
"; 	g #090909",
"> 	g #424242",
", 	g #4C4C4C",
"' 	g #494949",
") 	g #3F3F3F",
"! 	g #1F1F1F",
"~ 	g #363636",
"{ 	g #474747",
"] 	g #838383",
"^ 	g #686868",
"/ 	g #444444",
"( 	g #242424",
"_ 	g #373737",
": 	g #3E3E3E",
"< 	g #414141",
"[ 	g #404040",
"} 	g #292929",
"| 	g #3C3C3C",
"1 	g #858585",
"2 	g #ABABAB",
"3 	g #999999",
"4 	g #666666",
"5 	g #1A1A1A",
"6 	g #383838",
"7 	g #717171",
"8 	g #878787",
"9 	g #7E7E7E",
"0 	g #5F5F5F",
"a 	g #171717",
"b 	g #5E5E5E",
"c 	g #6D6D6D",
"d 	g #6F6F6F",
"e 	g #A3A3A3",
"f 	g #C8C8C8",
"g 	g #737373",
"h 	g #5B5B5B",
"i 	g #4B4B4B",
"j 	g #707070",
"k 	g #797979",
"l 	g #818181",
"m 	g #848484",
"n 	g #888888",
"o 	g #8B8B8B",
"p 	g #7F7F7F",
"q 	g #727272",
"r 	g #515151",
"s 	g #464646",
"t 	g #616161",
"u 	g #6A6A6A",
"v 	g #747474",
"w 	g #7C7C7C",
"x 	g #929292",
"y 	g #9B9B9B",
"z 	g #A0A0A0",
"A 	g #9E9E9E",
"B 	g #969696",
"C 	g #8A8A8A",
"D 	g #7A7A7A",
"E 	g #232323",
"F 	g #333333",
"G 	g #595959",
"H 	g #696969",
"I 	g #767676",
"J 	g #909090",
"K 	g #A1A1A1",
"L 	g #B1B1B1",
"M 	g #B9B9B9",
"N 	g #B4B4B4",
"O 	g #A5A5A5",
"P 	g #7D7D7D",
"Q 	g #646464",
"R 	g #212121",
"S 	g #4D4D4D",
"T 	g #222222",
"U 	g #131313",
"V 	g #252525",
"W 	g #484848",
"X 	g #B2B2B2",
"Y 	g #CBCBCB",
"Z 	g #D4D4D4",
"` 	g #CACACA",
" .	g #7B7B7B",
"..	g #565656",
"+.	g #4E4E4E",
"@.	g #181818",
"#.	g #2F2F2F",
"$.	g #5D5D5D",
"%.	g #868686",
"&.	g #A2A2A2",
"*.	g #C7C7C7",
"=.	g #E7E7E7",
"-.	g #EFEFEF",
";.	g #D8D8D8",
">.	g #B3B3B3",
",.	g #2C2C2C",
"'.	g #3D3D3D",
").	g #AEAEAE",
"!.	g #DFDFDF",
"~.	g #FFFFFF",
"{.	g #FCFCFC",
"].	g #D9D9D9",
"^.	g #AAAAAA",
"/.	g #636363",
"(.	g #535353",
"_.	g #343434",
":.	g #919191",
"<.	g #C1C1C1",
"[.	g #F7F7F7",
"}.	g #F8F8F8",
"|.	g #C6C6C6",
"1.	g #959595",
"2.	g #353535",
"3.	g #575757",
"4.	g #DBDBDB",
"5.	g #202020",
"6.	g #676767",
"7.	g #F2F2F2",
"8.	g #EEEEEE",
"9.	g #6C6C6C",
"0.	g #939393",
"a.	g #CDCDCD",
"b.	g #FBFBFB",
"c.	g #F0F0F0",
"d.	g #BCBCBC",
"e.	g #282828",
"f.	g #8E8E8E",
"g.	g #585858",
"h.	g #757575",
"i.	g #8F8F8F",
"j.	g #D6D6D6",
"k.	g #B7B7B7",
"l.	g #8D8D8D",
"m.	g #777777",
"n.	g #5A5A5A",
"o.	g #A6A6A6",
"p.	g #828282",
"q.	g #949494",
"r.	g #5C5C5C",
"s.	g #ADADAD",
"t.	g #8C8C8C",
"u.	g #9A9A9A",
"v.	g #4F4F4F",
"w.	g #808080",
"x.	g #434343",
"y.	g #6B6B6B",
"z.	g #787878",
"A.	g #505050",
"B.	g #656565",
"C.	g #4A4A4A",
"D.	g #626262",
"E.	g #545454",
"F.	g #2A2A2A",
"G.	g #1D1D1D",
"                                                                ",
"                              . + @ #                           ",
"                            $ % & * = -                         ",
"                          ; % > , ' ) !                         ",
"                            ~ { ] ^ / (                         ",
"                            _ : ) < [ }                         ",
"                            | 1 2 3 4 5                         ",
"                          6 < 7 8 9 0 a                         ",
"                      ) b c d e f 3 g h *                       ",
"                    i 4 j k l m n o 8 p q r                     ",
"                  s t u v w 8 x y z A B C D t E                 ",
"                F G t H d I l J K L M N O x P Q R               ",
"                { S T U V W v m 3 X Y Z ` L B  ...              ",
"                +.@.@.( #.~ + $.%.&.*.=.-.;.>.J g |             ",
"              = s ,.F './ &     ..o ).!.~.{.].^.] /.            ",
"              & i './ S (._.      h :.<.[.~.}.|.1.7 _.          ",
"              2.3.i r h /.          4 A 4.~.~.!.O w S           ",
"              5.Q ..$.6.d             p >.7.~.8.>.m 0           ",
"                9.0 ^ v  .            W 0.a.b.c.d.C 6.e.        ",
"                t 6.j p C               g ^.!.=.d.f.H |         ",
"                g.g h.1 1.              , i.<.j.k.l.u )         ",
"                  J m.8 B n.              p o.<.).C 6.'.        ",
"                  7 I p.q.]               r.x s.K p./.F         ",
"                    B w t.u.              v.] u.0.k r.@         ",
"                    h l w.l.d             : k C m d i           ",
"                      g h.9 n x.            7 P h.t #.          ",
"                        y.d I z.          : y.j 4 A.U           ",
"                          B.u ^ 6.<       C.Q D.E.F.            ",
"                            s B.....C._.~ n.G v.#.              ",
"                              5 > S < [ A.S > (                 ",
"                                    E #.= G.                    ",
"                                                                "};
