/* XPM */
static const char * armor_xpm[] = {
"32 32 6 1",
" 	c None",
".	c #666666",
"+	c #999999",
"@	c #CCCCCC",
"#	c #333333",
"$	c #000000",
"                                ",
"                                ",
"           ###                  ",
"          #.#.#                 ",
"          #.####                ",
"         #...###.               ",
"       ##....###..              ",
"       @...++.#....             ",
"      #...+.++#..++.            ",
"     #....+.++..++++#           ",
"    #..+@++++@+.+++@+           ",
"    ...+@++++@@+.+@@@.          ",
"   .....++++@+@@.@@@@@.         ",
"   ...+++++@@@+@@.@@@@+         ",
"   ..++++++@@@+@@+.@@++.        ",
"    ++++++++@@@+@@++++++#       ",
"    .+++@+@@@@@@+@+..+...       ",
"    .+@@@+..@@@@++++.....#      ",
"     +@@@@@@@@@@+++++...##      ",
"     .@@@@@@@@@+++.....###      ",
"      @@@@@@@@+++++.....###     ",
"      .@@@@@@+@@.+........#     ",
"       +@@@@++.+......####      ",
"        @@@+++.......###$       ",
"        #@+++++...++###         ",
"         .++++....++#..         ",
"          .+++....###.          ",
"           #+....##$            ",
"            #....##             ",
"              ####              ",
"                                ",
"                                "};
