/* XPM */
static const char * armor_xpm[] = {
"32 32 231 2",
"  	c None",
". 	c #000000",
"+ 	c #DEDEDE",
"@ 	c #000000",
"# 	c #7B7B7B",
"$ 	c #000000",
"% 	c #000000",
"& 	c #000000",
"* 	c #000000",
"= 	c #000000",
"- 	c #000000",
"; 	c #191919",
"> 	c #111111",
", 	c #000000",
"' 	c #000000",
") 	c #010101",
"! 	c #1F1F1F",
"~ 	c #060606",
"{ 	c #040404",
"] 	c #0C0C0C",
"^ 	c #292929",
"/ 	c #181818",
"( 	c #040404",
"_ 	c #0B0B0B",
": 	c #191919",
"< 	c #232323",
"[ 	c #1A1A1A",
"} 	c #282828",
"| 	c #1C1C1C",
"1 	c #101010",
"2 	c #202020",
"3 	c #2B2B2B",
"4 	c #222222",
"5 	c #2C2C2C",
"6 	c #464646",
"7 	c #545454",
"8 	c #595959",
"9 	c #646464",
"0 	c #383838",
"a 	c #232323",
"b 	c #303030",
"c 	c #121212",
"d 	c #2A2A2A",
"e 	c #464646",
"f 	c #2D2D2D",
"g 	c #3D3D3D",
"h 	c #454545",
"i 	c #343434",
"j 	c #595959",
"k 	c #686868",
"l 	c #383838",
"m 	c #4B4B4B",
"n 	c #333333",
"o 	c #343434",
"p 	c #626262",
"q 	c #666666",
"r 	c #454545",
"s 	c #414141",
"t 	c #4D4D4D",
"u 	c #525252",
"v 	c #353535",
"w 	c #535353",
"x 	c #222222",
"y 	c #707070",
"z 	c #474747",
"A 	c #3F3F3F",
"B 	c #1C1C1C",
"C 	c #343434",
"D 	c #383838",
"E 	c #3A3A3A",
"F 	c #3C3C3C",
"G 	c #444444",
"H 	c #4F4F4F",
"I 	c #5B5B5B",
"J 	c #5D5D5D",
"K 	c #5F5F5F",
"L 	c #606060",
"M 	c #707070",
"N 	c #777777",
"O 	c #7D7D7D",
"P 	c #838383",
"Q 	c #959595",
"R 	c #A3A3A3",
"S 	c #ACACAC",
"T 	c #B0B0B0",
"U 	c #BBBBBB",
"V 	c #C1C1C1",
"W 	c #C3C3C3",
"X 	c #CCCCCC",
"Y 	c #1E1E1E",
"Z 	c #202020",
"` 	c #222222",
" .	c #252525",
"..	c #262626",
"+.	c #2D2D2D",
"@.	c #2E2E2E",
"#.	c #343434",
"$.	c #353535",
"%.	c #363636",
"&.	c #373737",
"*.	c #393939",
"=.	c #3B3B3B",
"-.	c #3D3D3D",
";.	c #3E3E3E",
">.	c #424242",
",.	c #454545",
"'.	c #464646",
").	c #474747",
"!.	c #484848",
"~.	c #494949",
"{.	c #4A4A4A",
"].	c #4B4B4B",
"^.	c #4C4C4C",
"/.	c #4F4F4F",
"(.	c #505050",
"_.	c #515151",
":.	c #525252",
"<.	c #535353",
"[.	c #545454",
"}.	c #555555",
"|.	c #565656",
"1.	c #585858",
"2.	c #595959",
"3.	c #5A5A5A",
"4.	c #5C5C5C",
"5.	c #5D5D5D",
"6.	c #5E5E5E",
"7.	c #5F5F5F",
"8.	c #606060",
"9.	c #616161",
"0.	c #636363",
"a.	c #646464",
"b.	c #656565",
"c.	c #666666",
"d.	c #676767",
"e.	c #686868",
"f.	c #6A6A6A",
"g.	c #6B6B6B",
"h.	c #6C6C6C",
"i.	c #6D6D6D",
"j.	c #6E6E6E",
"k.	c #6F6F6F",
"l.	c #707070",
"m.	c #717171",
"n.	c #727272",
"o.	c #737373",
"p.	c #747474",
"q.	c #757575",
"r.	c #767676",
"s.	c #777777",
"t.	c #787878",
"u.	c #797979",
"v.	c #7A7A7A",
"w.	c #7B7B7B",
"x.	c #7C7C7C",
"y.	c #7D7D7D",
"z.	c #7E7E7E",
"A.	c #7F7F7F",
"B.	c #808080",
"C.	c #818181",
"D.	c #838383",
"E.	c #848484",
"F.	c #858585",
"G.	c #868686",
"H.	c #888888",
"I.	c #898989",
"J.	c #8A8A8A",
"K.	c #8B8B8B",
"L.	c #8C8C8C",
"M.	c #8D8D8D",
"N.	c #8E8E8E",
"O.	c #8F8F8F",
"P.	c #909090",
"Q.	c #919191",
"R.	c #939393",
"S.	c #949494",
"T.	c #959595",
"U.	c #969696",
"V.	c #979797",
"W.	c #989898",
"X.	c #999999",
"Y.	c #9A9A9A",
"Z.	c #9B9B9B",
"`.	c #9C9C9C",
" +	c #9D9D9D",
".+	c #9E9E9E",
"++	c #9F9F9F",
"@+	c #A0A0A0",
"#+	c #A1A1A1",
"$+	c #A2A2A2",
"%+	c #A3A3A3",
"&+	c #A4A4A4",
"*+	c #A5A5A5",
"=+	c #A6A6A6",
"-+	c #A8A8A8",
";+	c #A9A9A9",
">+	c #ABABAB",
",+	c #ACACAC",
"'+	c #ADADAD",
")+	c #AEAEAE",
"!+	c #AFAFAF",
"~+	c #B0B0B0",
"{+	c #B2B2B2",
"]+	c #B3B3B3",
"^+	c #B4B4B4",
"/+	c #B5B5B5",
"(+	c #B6B6B6",
"_+	c #B7B7B7",
":+	c #B9B9B9",
"<+	c #BABABA",
"[+	c #BBBBBB",
"}+	c #BCBCBC",
"|+	c #BDBDBD",
"1+	c #BEBEBE",
"2+	c #BFBFBF",
"3+	c #C0C0C0",
"4+	c #C1C1C1",
"5+	c #C2C2C2",
"6+	c #C3C3C3",
"7+	c #C4C4C4",
"8+	c #C5C5C5",
"9+	c #C6C6C6",
"0+	c #C7C7C7",
"a+	c #C8C8C8",
"b+	c #C9C9C9",
"c+	c #CCCCCC",
"d+	c #CFCFCF",
"e+	c #D0D0D0",
"f+	c #D4D4D4",
"g+	c #D8D8D8",
"h+	c #DBDBDB",
"                                                                ",
"                                                                ",
"                      e r f                                     ",
"                    d 8.!.^.A                                   ",
"                    ).l.!.@.E !.                                ",
"                  v L q.4... .G (.                              ",
"              h z J 8.w.z.;.%.).I [.                            ",
"              h+8.e.b.G.S.1.,.[.a.N |.                          ",
"            a b.d.p.C.p.V.P.{.0.m.B.Q u                         ",
"          5 ^.0.g.z.H.r.*+'+b.g.A.O.@+T l                       ",
"        i }.a.C.d+E.Q.#+E.{+~+_.Q.++!+[+;+                      ",
"        0.7.l.C.e+M.`.*+M./+2+K.v.!+<+5+b+y.                    ",
"      7 M i.w.c.H.Y.*+)+}+L.9+9+8.{+5+9+7+V t                   ",
"      9 t.x.E.O.Y.&+'+/+}+/+&+0+|+1.c+8+|+]+ +                  ",
"      8 O M.M.W.%+'+~+}+4+8+Z.5+6+@+j.6+]+=+W.8.                ",
"        I.X.U.$+>+%+T.*+0+0+c+H.9+[+D.D.-+W.I.P n               ",
"        u. +&+>+^+H.f+|+2+9+6+1+K._+~+g.x.I.w.j.4.              ",
"        p R {+]+<+!+}.c.c+6+3+<+$+R.*+@+3.h.k.9.K o             ",
"          ,+_+[+3+7+7+a+6+3+[+^+,+F.J.Q.O.|.|.:.~.,.            ",
"          y U 5+6+9+0+6+3+[+^+'+%+Y.r.y.z.z.1.).-.].            ",
"            :+7+9+9+7+3+<+(+@+@+Z.N.G.c.g.h.h.4.!.{.6           ",
"            k X 0+7+4+[+/+Q.0+g+x.F.w.o.2.|.3.:.1.H 0           ",
"               +W 6+[+/+'+L.s.F.h.w.n.e.6.^.;.>.C x             ",
"                [+[+<+'+&+`.r.f.y.n.e.4.<.).F ` c               ",
"                g <+!+'+X.O.E.w.n.d.D.=+'.*.Z                   ",
"                  j S .+`.E.v.m.e.1.&+>+$.5.q                   ",
"                    w V.J.L.l.d.5._.;.D Y 2.                    ",
"                      m C.q.x.0./.,.&.B                         ",
"                        b a.L 9.5.!.#.                          ",
"                            s !.=.+.                            ",
"                                                                ",
"                                                                "};
