/* XPM */
static const char * glove_xpm[] = {
"32 32 7 1",
" 	c None",
".	c #000000",
"+	c #999999",
"@	c #666666",
"#	c #333333",
"$	c #CCCCCC",
"%	c #FFFFFF",
"           .. ....              ",
"         ....#........          ",
"         ...##@@@@@@@##.        ",
"         ...#$%++++@++++@#      ",
"        ....#%++@+++@++@@@      ",
"        ....#%@$@@@$+@+$@+#     ",
"        ....@%@+@@@+@@++#$@     ",
"        ....#$@@#@@@#@@@@+#     ",
"        .#..#$+##++@@+@#@@#     ",
"      ......#$+++++++++@@@#     ",
"      ......#++++++++++@@@#     ",
"      ......#++++++++++@@@#     ",
"      .......+++++++++@@@@      ",
"      .......+++++++++@@@@      ",
"      .......+++++++++@@@#      ",
"       ......@++++++++@@@#      ",
"       ......@++++++++@@@#      ",
"        .....#+++++++@@@@       ",
"        .....#+++++++@@@#       ",
"         .....+++++@@@##        ",
"         .....#####....         ",
"          .............         ",
"           ............         ",
"           ............         ",
"            ...........#        ",
"            #...#.....##        ",
"            @@#####@@+@#        ",
"            @++$%%$+++@#        ",
"            @++$%%$++@@#        ",
"            #@+++++++@#         ",
"             .#@@@@#..          ",
"              .....             "};
