/* XPM */
static const char * gun_xpm[] = {
"32 32 181 2",
"  	c None",
". 	c #0D0D0D",
"+ 	c #B0B0B0",
"@ 	c #000000",
"# 	c #797979",
"$ 	c #B0B0B0",
"% 	c #B0B0B0",
"& 	c #000000",
"* 	c #000000",
"= 	c #000000",
"- 	c #1E1E1E",
"; 	c #B0B0B0",
"> 	c #000000",
", 	c #000000",
"' 	c #000000",
") 	c #000000",
"! 	c #000000",
"~ 	c #000000",
"{ 	c #2C2C2C",
"] 	c #000000",
"^ 	c #000000",
"/ 	c #000000",
"( 	c #111111",
"_ 	c #000000",
": 	c #2C2C2C",
"< 	c #181818",
"[ 	c #343434",
"} 	c #3C3C3C",
"| 	c #4F4F4F",
"1 	c #020202",
"2 	c #2F2F2F",
"3 	c #303030",
"4 	c #393939",
"5 	c #515151",
"6 	c #363636",
"7 	c #282828",
"8 	c #474747",
"9 	c #060606",
"0 	c #686868",
"a 	c #313131",
"b 	c #5E5E5E",
"c 	c #414141",
"d 	c #333333",
"e 	c #3D3D3D",
"f 	c #464646",
"g 	c #3A3A3A",
"h 	c #3E3E3E",
"i 	c #313131",
"j 	c #000000",
"k 	c #101010",
"l 	c #0A0A0A",
"m 	c #000000",
"n 	c #767676",
"o 	c #343434",
"p 	c #1F1F1F",
"q 	c #3D3D3D",
"r 	c #4A4A4A",
"s 	c #313131",
"t 	c #555555",
"u 	c #444444",
"v 	c #565656",
"w 	c #616161",
"x 	c #323232",
"y 	c #717171",
"z 	c #868686",
"A 	c #000000",
"B 	c #2C2C2C",
"C 	c #7B7B7B",
"D 	c #8C8C8C",
"E 	c #646464",
"F 	c #020202",
"G 	c #242424",
"H 	c #7C7C7C",
"I 	c #474747",
"J 	c #414141",
"K 	c #494949",
"L 	c #747474",
"M 	c #A0A0A0",
"N 	c #000000",
"O 	c #090909",
"P 	c #1A1A1A",
"Q 	c #1F1F1F",
"R 	c #383838",
"S 	c #404040",
"T 	c #464646",
"U 	c #555555",
"V 	c #565656",
"W 	c #666666",
"X 	c #909090",
"Y 	c #929292",
"Z 	c #ABABAB",
"` 	c #B0B0B0",
" .	c #B4B4B4",
"..	c #C8C8C8",
"+.	c #CACACA",
"@.	c #CDCDCD",
"#.	c #CFCFCF",
"$.	c #D3D3D3",
"%.	c #D5D5D5",
"&.	c #D7D7D7",
"*.	c #E0E0E0",
"=.	c #EBEBEB",
"-.	c #F7F7F7",
";.	c #FDFDFD",
">.	c #FFFFFF",
",.	c #000000",
"'.	c #010101",
").	c #020202",
"!.	c #080808",
"~.	c #090909",
"{.	c #0A0A0A",
"].	c #141414",
"^.	c #171717",
"/.	c #242424",
"(.	c #2A2A2A",
"_.	c #2C2C2C",
":.	c #2D2D2D",
"<.	c #323232",
"[.	c #3B3B3B",
"}.	c #3C3C3C",
"|.	c #585858",
"1.	c #5A5A5A",
"2.	c #5C5C5C",
"3.	c #5E5E5E",
"4.	c #636363",
"5.	c #676767",
"6.	c #727272",
"7.	c #747474",
"8.	c #787878",
"9.	c #7F7F7F",
"0.	c #818181",
"a.	c #878787",
"b.	c #8A8A8A",
"c.	c #8C8C8C",
"d.	c #8E8E8E",
"e.	c #909090",
"f.	c #919191",
"g.	c #929292",
"h.	c #939393",
"i.	c #989898",
"j.	c #9B9B9B",
"k.	c #9C9C9C",
"l.	c #9D9D9D",
"m.	c #A0A0A0",
"n.	c #A3A3A3",
"o.	c #A5A5A5",
"p.	c #A6A6A6",
"q.	c #A7A7A7",
"r.	c #A8A8A8",
"s.	c #AAAAAA",
"t.	c #ACACAC",
"u.	c #ADADAD",
"v.	c #AFAFAF",
"w.	c #B0B0B0",
"x.	c #B2B2B2",
"y.	c #B4B4B4",
"z.	c #B6B6B6",
"A.	c #B7B7B7",
"B.	c #B8B8B8",
"C.	c #BCBCBC",
"D.	c #BDBDBD",
"E.	c #BEBEBE",
"F.	c #C0C0C0",
"G.	c #C2C2C2",
"H.	c #C4C4C4",
"I.	c #C6C6C6",
"J.	c #C8C8C8",
"K.	c #C9C9C9",
"L.	c #CACACA",
"M.	c #CECECE",
"N.	c #CFCFCF",
"O.	c #D2D2D2",
"P.	c #D5D5D5",
"Q.	c #D7D7D7",
"R.	c #D8D8D8",
"S.	c #DBDBDB",
"T.	c #DCDCDC",
"U.	c #DFDFDF",
"V.	c #E0E0E0",
"W.	c #E3E3E3",
"X.	c #E5E5E5",
"                                                                ",
"                                                                ",
"                                          o.H                   ",
"                                        c.+. .o                 ",
"                                      d.%.F.t.o.                ",
"                                    a.*.I.v.x.l.                ",
"                                  D =.K.y.` t.                  ",
"                                z -.O.E.u.D.k                   ",
"                              y ;.W.N.v...p                     ",
"                            a >.U.V.o.@.x                       ",
"                            s.Q.X.q.$.I                         ",
"                          l.T.V.r.&.3.                          ",
"                        T.#.P.n.R.L                             ",
"                      S.G.M.m.J.W v                             ",
"                    N.B.C.k.H.9.m h                             ",
"                g L.z.C.e.w.j.l     B                           ",
"                H.x.A.h.7.b.R b     r                           ",
"              n Z p.h.].,./.8.M 0 u                             ",
"              C Y f.:.,._.,.g.U X                               ",
"            c   E 0.3.'.!.,.2.6.                                ",
"                  i.a.,.,.,.~.1.                                ",
"                w g.h.].,.,.,.}.                                ",
"                5.s K T ,.,.,.P d                               ",
"                      4.,.,.,.,.J                               ",
"                      V {.,.,.,.<.                              ",
"                      f (.,.,.,.O q                             ",
"                        |.,.,.,.,.[.                            ",
"                        2.).,.,.,.Q G                           ",
"                        t ^.,.<.N F                             ",
"                        e S ,.,.A                               ",
"                          2.,.j                                 ",
"                          i 9                                   "};
