/* XPM */
static const char * m_grow_slot_xpm[] = {
"48 48 247 2",
"  	c None",
". 	c #989898",
"+ 	c #A1A1A1",
"@ 	c #B8B8B8",
"# 	c #C2C2C2",
"$ 	c #C4C4C4",
"% 	c #BCBCBC",
"& 	c #A8A8A8",
"* 	c #828282",
"= 	c #565656",
"- 	c #3C3C3C",
"; 	c #9D9D9D",
"> 	c #DEDEDE",
", 	c #DFDFDF",
"' 	c #DBDBDB",
") 	c #D8D8D8",
"! 	c #D4D4D4",
"~ 	c #CECECE",
"{ 	c #C8C8C8",
"] 	c #BABABA",
"^ 	c #7D7D7D",
"/ 	c #5B5B5B",
"( 	c #414141",
"_ 	c #262626",
": 	c #0B0B0B",
"< 	c #020202",
"[ 	c #B2B2B2",
"} 	c #C0C0C0",
"| 	c #E7E7E7",
"1 	c #E2E2E2",
"2 	c #D6D6D6",
"3 	c #CDCDCD",
"4 	c #CBCBCB",
"5 	c #C6C6C6",
"6 	c #B0B0B0",
"7 	c #ACACAC",
"8 	c #AEAEAE",
"9 	c #B3B3B3",
"0 	c #B5B5B5",
"a 	c #7C7C7C",
"b 	c #636363",
"c 	c #1D1D1D",
"d 	c #080808",
"e 	c #0A0A0A",
"f 	c #9E9E9E",
"g 	c #B9B9B9",
"h 	c #DADADA",
"i 	c #CFCFCF",
"j 	c #ABABAB",
"k 	c #9C9C9C",
"l 	c #949494",
"m 	c #737373",
"n 	c #575757",
"o 	c #525252",
"p 	c #5C5C5C",
"q 	c #787878",
"r 	c #929292",
"s 	c #858585",
"t 	c #898989",
"u 	c #606060",
"v 	c #353535",
"w 	c #171717",
"x 	c #111111",
"y 	c #1A1A1A",
"z 	c #303030",
"A 	c #C9C9C9",
"B 	c #CACACA",
"C 	c #B6B6B6",
"D 	c #848484",
"E 	c #4F4F4F",
"F 	c #2D2D2D",
"G 	c #2A2A2A",
"H 	c #191919",
"I 	c #0F0F0F",
"J 	c #0C0C0C",
"K 	c #2E2E2E",
"L 	c #393939",
"M 	c #5F5F5F",
"N 	c #868686",
"O 	c #8F8F8F",
"P 	c #333333",
"Q 	c #7B7B7B",
"R 	c #A7A7A7",
"S 	c #9F9F9F",
"T 	c #6C6C6C",
"U 	c #1E1E1E",
"V 	c #010101",
"W 	c #000000",
"X 	c #030303",
"Y 	c #121212",
"Z 	c #2B2B2B",
"` 	c #505050",
" .	c #7E7E7E",
"..	c #9A9A9A",
"+.	c #6E6E6E",
"@.	c #646464",
"#.	c #878787",
"$.	c #888888",
"%.	c #AAAAAA",
"&.	c #CCCCCC",
"*.	c #404040",
"=.	c #282828",
"-.	c #5D5D5D",
";.	c #959595",
">.	c #AFAFAF",
",.	c #ADADAD",
"'.	c #676767",
").	c #BEBEBE",
"!.	c #202020",
"~.	c #050505",
"{.	c #040404",
"].	c #060606",
"^.	c #070707",
"/.	c #0D0D0D",
"(.	c #3D3D3D",
"_.	c #C3C3C3",
":.	c #D9D9D9",
"<.	c #C7C7C7",
"[.	c #9B9B9B",
"}.	c #515151",
"|.	c #131313",
"1.	c #090909",
"2.	c #EFEFEF",
"3.	c #8C8C8C",
"4.	c #4E4E4E",
"5.	c #101010",
"6.	c #DDDDDD",
"7.	c #E8E8E8",
"8.	c #FFFFFF",
"9.	c #939393",
"0.	c #535353",
"a.	c #363636",
"b.	c #A0A0A0",
"c.	c #EAEAEA",
"d.	c #F6F6F6",
"e.	c #696969",
"f.	c #161616",
"g.	c #0E0E0E",
"h.	c #595959",
"i.	c #E9E9E9",
"j.	c #F7F7F7",
"k.	c #FAFAFA",
"l.	c #E4E4E4",
"m.	c #434343",
"n.	c #7A7A7A",
"o.	c #272727",
"p.	c #969696",
"q.	c #F5F5F5",
"r.	c #1C1C1C",
"s.	c #686868",
"t.	c #909090",
"u.	c #494949",
"v.	c #141414",
"w.	c #3A3A3A",
"x.	c #F1F1F1",
"y.	c #D0D0D0",
"z.	c #797979",
"A.	c #151515",
"B.	c #ECECEC",
"C.	c #F4F4F4",
"D.	c #DCDCDC",
"E.	c #1F1F1F",
"F.	c #999999",
"G.	c #747474",
"H.	c #252525",
"I.	c #212121",
"J.	c #444444",
"K.	c #8D8D8D",
"L.	c #292929",
"M.	c #4A4A4A",
"N.	c #F0F0F0",
"O.	c #4C4C4C",
"P.	c #6D6D6D",
"Q.	c #666666",
"R.	c #C5C5C5",
"S.	c #F9F9F9",
"T.	c #E5E5E5",
"U.	c #A2A2A2",
"V.	c #323232",
"W.	c #757575",
"X.	c #A4A4A4",
"Y.	c #424242",
"Z.	c #FEFEFE",
"`.	c #E6E6E6",
" +	c #A5A5A5",
".+	c #BDBDBD",
"++	c #A9A9A9",
"@+	c #383838",
"#+	c #616161",
"$+	c #313131",
"%+	c #EEEEEE",
"&+	c #3B3B3B",
"*+	c #A3A3A3",
"=+	c #1B1B1B",
"-+	c #D3D3D3",
";+	c #222222",
">+	c #464646",
",+	c #242424",
"'+	c #A6A6A6",
")+	c #D7D7D7",
"!+	c #BFBFBF",
"~+	c #F2F2F2",
"{+	c #2F2F2F",
"]+	c #181818",
"^+	c #979797",
"/+	c #B4B4B4",
"(+	c #BBBBBB",
"_+	c #B1B1B1",
":+	c #C1C1C1",
"<+	c #D1D1D1",
"[+	c #FCFCFC",
"}+	c #555555",
"|+	c #E1E1E1",
"1+	c #818181",
"2+	c #656565",
"3+	c #D2D2D2",
"4+	c #F3F3F3",
"5+	c #EBEBEB",
"6+	c #2C2C2C",
"7+	c #373737",
"8+	c #F8F8F8",
"9+	c #6A6A6A",
"0+	c #B7B7B7",
"a+	c #FDFDFD",
"b+	c #4B4B4B",
"c+	c #919191",
"d+	c #777777",
"e+	c #727272",
"f+	c #717171",
"g+	c #E0E0E0",
"h+	c #5E5E5E",
"i+	c #3E3E3E",
"j+	c #808080",
"k+	c #474747",
"l+	c #232323",
"m+	c #E3E3E3",
"n+	c #3F3F3F",
"o+	c #EDEDED",
"p+	c #545454",
"q+	c #5A5A5A",
"r+	c #484848",
"s+	c #8A8A8A",
"t+	c #8E8E8E",
"u+	c #343434",
"v+	c #454545",
"w+	c #767676",
"x+	c #6F6F6F",
"                                      . + @ # $ % & * = -                                       ",
"                              ; + > , ' ) ! ~ { # ] + ^ / ( _ : <                               ",
"                          [ } | 1 2 3 4 5 ] 6 7 8 9 0 ; a b ( c d < e                           ",
"                      f g 1 h i # j k ; l m n o p q r r s t s u v w x y z                       ",
"                    3 A ) B C + D E F G _ H I J x c G K L M N O D b - P ( q                     ",
"                Q R ! A g S T L U J V W W W W W W W W W X Y Z `  ...O +.@.#.$.a                 ",
"               .%.&.% %.Q *.w X W W W W W W V V V V W W W W W d =.-.;.>.+ f } ,.r               ",
"            '.S ).C k / !.~.W W W V < X {.~.].^.^.].~.{.X < V W W /.(.t )._.} :.<.[.            ",
"          ( a & >.;.}.|.W W W W X ~.^.^.d d 1.1.1.1.d d ^.^.{.X W W X K * } ~ 2 2.! 3.          ",
"          }.D f r 4.5.W W W V {.^.^.1.1.e e e e e : e e 1.1.d ].{.< W V G t A 6.7.8.~           ",
"        z -.#.9.0.5.W W V X ].^.1.1.e : J /./././././.J : e 1.d ^.~.{.V V a.b.' c.d.8.:.        ",
"      I z e.r M f.W W W {.^.d e e J /.g.g.I I I I I I g.g./.J e e ^.^.{.{.d h.% i.j.k.l.O       ",
"      5.m.#.n.o.W W V X ^.d 1.: J g.g.I x x x Y Y x x 5.I g.g.J e 1.d ^.].g.G p., q.d.2.@       ",
"    < r.s.t.u.~.W W X ^.d 1.: J I I x Y Y |.|.v.|.|.|.Y Y x I I /.e 1.d ].g.w.* ~ x.q.1 y.z.    ",
"    1.w.N m c W W < ~.d 1.: J g.5.Y |.v.v.v.A.A.A.A.v.v.v.|.x 5.g./.e 1.^.].L + 5 B.C.D.# $.    ",
"  g.E.s.l u.{.W V ~.^.e : J g.5.x |.v.A.A.v.v.A.A.v.A.A.A.v.|.x 5.g./.e e ].g.F.! i.C.6.0 G.H.  ",
"  I.J.t.K.L.W W X ^.d e J I 5.x |.v.A.A.A.v.|.|.|.v.v.v.A.A.v.|.x 5.I J e d < M.> N.d.1 & M.U   ",
"  O.P.; Q.x W V ~.^.1.J g.I Y |.v.A.A.v.|.Y 5.5.5.5.x |.v.v.A.v.|.Y I g.J 1.~.v.R.k.S.T.U.V.:   ",
"  W...X.Y.X W < ].d e /.g.x Y v.A.A.v.x 5.: ^.^.].d J I x v.A.A.|.|.x g./.e d W U.Z.S.`. +G W   ",
"+.X..+++@+W W X ^.1.: g.I Y v.v.A.v.Y g.d d J I 5.5.w A.5.x v.A.v.v.Y 5.g.: 1.W #+8.S.T.9 $+W W ",
"O ).{ ++$+W V ].d 1.: g.x Y v.A.A.Y 5.d e 5.A.w y r.E.E.A.I |.v.v.v.Y x g.J 1.{.$+%+j.T.).&+W W ",
"[ &.~ *+=.W X ^.d e J I x |.A.A.v.Y : d 5.A.v.A.y r.=+y A.g.x v.v.A.|.x I J e ^.A.! x.1 # m.V W ",
"-+h ! S ;+W X ^.d e /.I x |.A.v.v.x d J A.A.x Y f.w |.J d 1.5.|.A.A.|.x I /.e d ].@ `.' # >+< W ",
"c.| ' U.,+< {.^.1.e /.I Y |.A.A.|.5.].g.A.v.Y 5.I x 5.1.{.d 5.|.A.A.|.Y I /.e 1.~.'+)+-+!+J.V W ",
"~+~+l.j {+: 1.].1.e /.I Y v.v.A.|.x ].J ]+H f.I : I x I /.J 5.|.A.A.v.Y I /.e 1.^.^+<.B /+w.V W ",
"c.k.%+(+O.,+f.^.d e /.I x |.A.A.v.x d e H c H |.5.x f.H w 5.5.|.A.A.|.x I J e ^.g.z._+:+p.G W W ",
"<+[+d.i  .E v J ^.e J I x |.A.A.v.x : /.=+U ]+x g.|.H r.H 5.x v.A.v.|.x g.J e ].]+}+O @ z.w W W ",
"%.q.j.|+[ K.W.x ~.e : g.5.Y v.v.A.Y 5.5.c E.A.1.e |.=+=+|.g.Y v.A.v.Y 5.g.J 1.^.c @+1+@ 2+e W W ",
"s `.C.%+3+!+% r.{.1.: g.5.Y |.A.v.v.x 5.f.r.|.~.~.I f.Y 5.Y |.A.v.|.Y I g.: d e f.G s 9 }+{.W W ",
"  -+T.4+`.-+5+/ < d e /.g.x |.|.A.A.v.Y g.5.g.1.d /.I I Y |.v.A.|.|.x I /.e ^.|.e 6+K.p.7+V W   ",
"  & y.c.4+i.N.] g.~.1.J g.I Y |.v.A.A.|.|.x 5.5.5.5.x |.v.v.A.v.|.x I g.J 1.e A.d m.F.+.w W W   ",
"  O.*+)+N.8+S.Z.n V d e J I 5.x |.v.A.A.v.v.|.|.|.v.v.v.A.A.v.|.x 5.I J e ^.A.v.=+9+F.u.].W W   ",
"  I.o  +|+j.[+8.) !.{.e e /.g.5.Y |.|.A.A.v.A.A.A.A.A.v.v.|.|.x 5.g./.: d : o.o.J.3.n.,+W W W   ",
"    |.}.0+7.8+8+a+[.e ].1.e /.g.5.x Y v.v.v.A.A.A.A.A.v.|.|.x 5.g./.e 1.1.Z b+O.m c+O.1.W W     ",
"    W w e.&.c.2.| :.M X ^.1.e /.I I x Y Y |.|.|.v.|.|.Y Y x I I /.: 1.e ]+#+d+e+l f+E.W W W     ",
"      V ,+$.) g+)+y.U.P ^.d 1.: J g.I 5.5.x x Y Y x x 5.I I g.J : 1.: ]+h.S 9.;.#.L {.W W       ",
"      W X P k ! ~ (+../ ;+: ].1.e J /.g.g.I I I I I g.g.g./.J e 1.: f.h+C @ R 9.E /.W W W       ",
"        W ].i+b.4 0+j+k+l+Y x : ^.1.e : J J /././.J J J : e 1.g.x - r <.A @ + M ]+W W           ",
"          W 1.J...!+p.u.w ~.: w A./.e d 1.1.e e e e 1.d J x Y y s.5 m+3+!+'+Q.I.V W W           ",
"          W W e n+3.8 N (.g.d H G Z ]+Y x I /.J g.x v.v.I H h.S 1 o+y.!+b.u I.X W W             ",
"            W W ^.$+G.+ K.p+F o.L 0.9++.q+i+!.w f.I.r+m f $ h B.l.&.% r 4.w W W W               ",
"              W W X U n s+l  .b / e.N X._+_+>./+] _.-+|+N.N.m+<+_.& W.L J W W W                 ",
"                W W W /.$+u #.;.O t+t.S g A ! > m+`.|+) 3+A :+++a u.U {.W W W                   ",
"                    W W X Y u+p+f+;.b.. X.@ ).# _.:+% 0+/+9.Q.v+;+d W W W                       ",
"                      W W W X : E.Y.` E p w+#.K.s x+= 4.4.7+v.~.V W W W W                       ",
"                          W W W W < {.d Y I.K z G =+J {.X V W W W W W                           ",
"                              W W W W W W W V V W W W W W W W W W                               ",
"                                      W W W W W W W W W W                                       "};
