/* XPM */
static const char * mlink_xpm[] = {
"14 32 211 2",
"  	c None",
". 	c #C0BCBC",
"+ 	c #B6B6B7",
"@ 	c #C3C5C6",
"# 	c #CDCED2",
"$ 	c #D3D4D8",
"% 	c #D9DBDA",
"& 	c #D2D2D1",
"* 	c #BEBFC1",
"= 	c #B3B2B2",
"- 	c #A5A4A4",
"; 	c #908E8F",
"> 	c #777476",
", 	c #5F5F60",
"' 	c #484846",
") 	c #ABABA8",
"! 	c #9FA09D",
"~ 	c #A1A09E",
"{ 	c #A4A4A3",
"] 	c #A5A5A5",
"^ 	c #A2A1A2",
"/ 	c #989B9A",
"( 	c #909191",
"_ 	c #848887",
": 	c #737372",
"< 	c #605D5D",
"[ 	c #4B494A",
"} 	c #363636",
"| 	c #262225",
"1 	c #9D9D9E",
"2 	c #959694",
"3 	c #959495",
"4 	c #8A8B8B",
"5 	c #727372",
"6 	c #565456",
"7 	c #414242",
"8 	c #383838",
"9 	c #303131",
"0 	c #252524",
"a 	c #1C1A1A",
"b 	c #151414",
"c 	c #141112",
"d 	c #151113",
"e 	c #97999B",
"f 	c #7C7C7D",
"g 	c #5E5F62",
"h 	c #434546",
"i 	c #2C2C2C",
"j 	c #141314",
"k 	c #050404",
"l 	c #000000",
"m 	c #030303",
"n 	c #1D1B1A",
"o 	c #1A1919",
"p 	c #969996",
"q 	c #636364",
"r 	c #262627",
"s 	c #050505",
"t 	c #040403",
"u 	c #070707",
"v 	c #080809",
"w 	c #090909",
"x 	c #090A09",
"y 	c #09090A",
"z 	c #1F1F1F",
"A 	c #3E3E39",
"B 	c #272726",
"C 	c #939192",
"D 	c #787778",
"E 	c #605E5F",
"F 	c #535253",
"G 	c #515252",
"H 	c #525151",
"I 	c #515152",
"J 	c #515251",
"K 	c #4F514F",
"L 	c #4D4E4D",
"M 	c #4F4F50",
"N 	c #4D4D4C",
"O 	c #413F3C",
"P 	c #292828",
"Q 	c #8F8E8E",
"R 	c #868787",
"S 	c #ABABAB",
"T 	c #CAC9CB",
"U 	c #D6D5D8",
"V 	c #DEDEDF",
"W 	c #E0E3E1",
"X 	c #DDDEDD",
"Y 	c #D6D8D5",
"Z 	c #D6D7D4",
"` 	c #BCBFBC",
" .	c #787B79",
"..	c #2E3030",
"+.	c #232222",
"@.	c #828382",
"#.	c #767678",
"$.	c #817F81",
"%.	c #8F8D8F",
"&.	c #989597",
"*.	c #9B979B",
"=.	c #9D9EA0",
"-.	c #A5A6AA",
";.	c #929295",
">.	c #646566",
",.	c #3B3B3C",
"'.	c #282728",
").	c #262425",
"!.	c #232122",
"~.	c #898A89",
"{.	c #8F8D8C",
"].	c #9A9898",
"^.	c #9B9A9B",
"/.	c #908F91",
"(.	c #807F7F",
"_.	c #6B6968",
":.	c #524C50",
"<.	c #2C2B2D",
"[.	c #0F0F10",
"}.	c #060407",
"|.	c #1E1C1E",
"1.	c #929191",
"2.	c #858281",
"3.	c #767573",
"4.	c #666666",
"5.	c #575758",
"6.	c #464845",
"7.	c #302E2C",
"8.	c #140E10",
"9.	c #202023",
"0.	c #262526",
"a.	c #959393",
"b.	c #5E5B5C",
"c.	c #1D1E1E",
"d.	c #020202",
"e.	c #060606",
"f.	c #050504",
"g.	c #141514",
"h.	c #2F3132",
"i.	c #2E2D2E",
"j.	c #737473",
"k.	c #3F4140",
"l.	c #292B2A",
"m.	c #2F302F",
"n.	c #333333",
"o.	c #343434",
"p.	c #333232",
"q.	c #343333",
"r.	c #2D2D2D",
"s.	c #2F312F",
"t.	c #3D413C",
"u.	c #383736",
"v.	c #A5A2A3",
"w.	c #A09D9D",
"x.	c #A9A7A5",
"y.	c #A7A6A6",
"z.	c #A7A8AB",
"A.	c #B7B8BB",
"B.	c #BBBEBD",
"C.	c #B5B5B7",
"D.	c #A7A8AA",
"E.	c #989A9E",
"F.	c #7F8183",
"G.	c #5B5C5D",
"H.	c #3D3E41",
"I.	c #3E3D3E",
"J.	c #8C8687",
"K.	c #8F8C8B",
"L.	c #8F8E8C",
"M.	c #6C6B6D",
"N.	c #636365",
"O.	c #646665",
"P.	c #606060",
"Q.	c #5C5A5B",
"R.	c #545555",
"S.	c #4F5051",
"T.	c #4B4B4D",
"U.	c #47494A",
"V.	c #4B4C4D",
"W.	c #828082",
"X.	c #8D8E8E",
"Y.	c #858685",
"Z.	c #6F6F6F",
"`.	c #585857",
" +	c #484A47",
".+	c #404341",
"++	c #3C3D3B",
"@+	c #353534",
"#+	c #2E2F2E",
"$+	c #303031",
"%+	c #3C3B3C",
"&+	c #4E4C4C",
"*+	c #5D5E5D",
"=+	c #6B6C6D",
"-+	c #656969",
";+	c #575959",
">+	c #444445",
",+	c #363736",
"'+	c #2E302D",
")+	c #272928",
"!+	c #242524",
"~+	c #1C1E1D",
"{+	c #171918",
"]+	c #171818",
"^+	c #201F1F",
"/+	c #312D2E",
"(+	c #3D3C3D",
"_+	c #2C302D",
":+	c #020204",
"<+	c #030103",
"[+	c #070609",
"                            ",
"                            ",
"                            ",
"                            ",
"                            ",
"                            ",
"                            ",
". + @ # $ % & * = - ; > , ' ",
") ! ~ { ] ^ / ( _ : < [ } | ",
"1 2 3 4 5 6 7 8 9 0 a b c d ",
"e f g h i j k l l l l m n o ",
"p q r s t u v w x w y z A B ",
"C D E F G H I J K L M N O P ",
"Q R S T U V W X Y Z `  ...+.",
"@.#.$.%.&.*.=.-.;.>.,.'.).!.",
"~.{.].^./.(._.:.<.[.l }.|.!.",
"1.2.3.4.5.6.7.8.l l l w 9.0.",
"a.b.c.l l l l d.s e.f.g.h.i.",
"1 j.k.l.m.n.o.o.p.q.r.s.t.u.",
"v.w.x.y.z.A.B.C.D.E.F.G.H.I.",
"J.K.L.(.M.N.O.P.Q.R.S.T.U.V.",
"W.X.Y.Z.`. +.+++@+#+$+%+&+*+",
"=+-+;+>+,+'+)+!+~+{+]+^+/+(+",
"++_+]+:+l l l l l l l l <+[+",
"                            ",
"                            ",
"                            ",
"                            ",
"                            ",
"                            ",
"                            ",
"                            "};
