/* XPM */
static const char * spear_xpm[] = {
"32 32 6 1",
" 	c None",
".	c #999999",
"+	c #333333",
"@	c #666666",
"#	c #CCCCCC",
"$	c #000000",
"                                ",
"                                ",
"                         @..#   ",
"                        @..##   ",
"                       @..###   ",
"                      @@..##.   ",
"                      @...##.   ",
"                    @@@.....    ",
"                   +........    ",
"                   @.......     ",
"                   @@.....      ",
"                   @+....       ",
"                  @@@@..@       ",
"                  .#+@@@+       ",
"                 +@@.+.@        ",
"                +++$            ",
"                ++$             ",
"               +++              ",
"              +++               ",
"             +++                ",
"             ++                 ",
"            ++$                 ",
"           ++$                  ",
"          ++$                   ",
"          ++                    ",
"         ++                     ",
"        ++                      ",
"       ++                       ",
"       +$                       ",
"     ++$                        ",
"    @@+                         ",
"     @+                         "};
