/* XPM */
static const char * staff_xpm[] = {
"32 32 7 1",
" 	c None",
".	c #666666",
"+	c #333333",
"@	c #CCCCCC",
"#	c #999999",
"$	c #000000",
"%	c #FFFFFF",
"                         .      ",
"                        .#@     ",
"                       +#%#+    ",
"                       .@@.     ",
"                       #@.+     ",
"                      +@.$      ",
"                      @+        ",
"                     @+         ",
"                    +.          ",
"                   .#           ",
"                  +#            ",
"                 +@$            ",
"                 @+             ",
"                #+              ",
"               ..               ",
"              $++               ",
"             $+$                ",
"            .+$                 ",
"            #.                  ",
"           ..                   ",
"          .#                    ",
"         +@                     ",
"         @$                     ",
"        @+                      ",
"       #$                       ",
"      .#                        ",
"     .#                         ",
"   +.@$                         ",
"  .#@.                          ",
" .#%#+                          ",
" .%@.                           ",
" #@.+                           "};
