/* XPM */
static const char * staff_xpm[] = {
"32 32 77 1",
" 	c None",
".	c #6A6A6A",
"+	c #4D4D4D",
"@	c #A9A9A9",
"#	c #DCDCDC",
"$	c #363636",
"%	c #989898",
"&	c #FCFCFC",
"*	c #ABABAB",
"=	c #4B4B4B",
"-	c #505050",
";	c #DFDFDF",
">	c #C3C3C3",
",	c #6C6C6C",
"'	c #848484",
")	c #BFBFBF",
"!	c #767676",
"~	c #212121",
"{	c #373737",
"]	c #C1C1C1",
"^	c #1A1A1A",
"/	c #1F1F1F",
"(	c #B6B6B6",
"_	c #383838",
":	c #2A2A2A",
"<	c #616161",
"[	c #606060",
"}	c #A1A1A1",
"|	c #3F3F3F",
"1	c #ADADAD",
"2	c #202020",
"3	c #CCCCCC",
"4	c #131313",
"5	c #C5C5C5",
"6	c #272727",
"7	c #9E9E9E",
"8	c #464646",
"9	c #626262",
"0	c #707070",
"a	c #141414",
"b	c #353535",
"c	c #282828",
"d	c #0B0B0B",
"e	c #444444",
"f	c #060606",
"g	c #0A0A0A",
"h	c #ACACAC",
"i	c #5B5B5B",
"j	c #7B7B7B",
"k	c #525252",
"l	c #8F8F8F",
"m	c #B9B9B9",
"n	c #C8C8C8",
"o	c #1B1B1B",
"p	c #CDCDCD",
"q	c #333333",
"r	c #969696",
"s	c #111111",
"t	c #808080",
"u	c #4C4C4C",
"v	c #A7A7A7",
"w	c #434343",
"x	c #797979",
"y	c #C0C0C0",
"z	c #161616",
"A	c #4E4E4E",
"B	c #E2E2E2",
"C	c #595959",
"D	c #515151",
"E	c #A4A4A4",
"F	c #7A7A7A",
"G	c #EDEDED",
"H	c #CACACA",
"I	c #6D6D6D",
"J	c #8B8B8B",
"K	c #D3D3D3",
"L	c #292929",
"                         .      ",
"                        +@#     ",
"                       $%&*=    ",
"                       -;>,     ",
"                       ')!~     ",
"                      {]+^      ",
"                      >/        ",
"                     (_         ",
"                    :<          ",
"                   [}           ",
"                  |1            ",
"                 234            ",
"                 56             ",
"                78              ",
"               90               ",
"              abc               ",
"             def                ",
"            -8g                 ",
"            hi                  ",
"           j9                   ",
"          kl                    ",
"         {m                     ",
"         no                     ",
"        pq                      ",
"       rs                       ",
"      .t                        ",
"     uv                         ",
"   wxyz                         ",
"  A}BC                          ",
" D%&E_                          ",
" FGHI                           ",
" JKFL                           "};
