/* XPM */
static const char * star_xpm[] = {
"32 32 7 1",
" 	c None",
".	c #666666",
"+	c #999999",
"@	c #CCCCCC",
"#	c #333333",
"$	c #FFFFFF",
"%	c #000000",
"                                ",
"                                ",
"    .                           ",
"    ++.                   +     ",
"    .@+..#             .+@.     ",
"     +@...##         .++@+.     ",
"     .++...##%    #.+++@+.      ",
"      +++...##    .++@@@..      ",
"      ++++..##    .+@@$..#      ",
"      .++++..#   #+@@$+..#      ",
"      #.+++..#    +@$+..#       ",
"       ..++++.    +++..##       ",
"       #...++@+..+@++.##%       ",
"       ##..+@@@@@@@@+###        ",
"         ###@@@++@@@##%%        ",
"            +@+  +@             ",
"            +@   .@+            ",
"            +@   .@.            ",
"            .@+ #@@             ",
"       #....@@@@@@+@+##%        ",
"       .++@++@+@@+@$@.##        ",
"       +@@$+++    $$@..#%       ",
"       +@$$++.   .@$$..##       ",
"      +@$$@..#   ..+++..#       ",
"      @$$$..##   #..+++..       ",
"      $$$...##   #...++..#      ",
"     +$$...##%    #...++..      ",
"     @$+..##        #..++.      ",
"     $+..#            #.++      ",
"    ++.                  ..     ",
"    .                           ",
"                                "};
