/* XPM */
static const char * command_star_empty_xpm[] = {
"48 48 108 2",
"  	c None",
". 	c #E5E500",
"+ 	c #AEAE00",
"@ 	c #D6D600",
"# 	c #7E7E00",
"$ 	c #E7E700",
"% 	c #ECEC00",
"& 	c #8E8E00",
"* 	c #828200",
"= 	c #D7D700",
"- 	c #E9E900",
"; 	c #B2B200",
"> 	c #838300",
", 	c #D0D000",
"' 	c #D4D400",
") 	c #7D7D00",
"! 	c #E8E800",
"~ 	c #999900",
"{ 	c #A6A600",
"] 	c #EEEE00",
"^ 	c #8F8F00",
"/ 	c #E6E600",
"( 	c #F1F100",
"_ 	c #EDED00",
": 	c #B0B000",
"< 	c #A8A800",
"[ 	c #CECE00",
"} 	c #7F7F00",
"| 	c #A2A200",
"1 	c #B7B700",
"2 	c #EBEB00",
"3 	c #7B7B00",
"4 	c #BEBE00",
"5 	c #BDBD00",
"6 	c #E4E400",
"7 	c #C3C300",
"8 	c #818100",
"9 	c #979700",
"0 	c #A7A700",
"a 	c #ADAD00",
"b 	c #DADA00",
"c 	c #DEDE00",
"d 	c #CCCC00",
"e 	c #BABA00",
"f 	c #767600",
"g 	c #EAEA00",
"h 	c #898900",
"i 	c #D8D800",
"j 	c #C1C100",
"k 	c #A5A500",
"l 	c #A4A400",
"m 	c #B8B800",
"n 	c #C7C700",
"o 	c #CFCF00",
"p 	c #CACA00",
"q 	c #989800",
"r 	c #C8C800",
"s 	c #BFBF00",
"t 	c #909000",
"u 	c #858500",
"v 	c #808000",
"w 	c #B5B500",
"x 	c #DDDD00",
"y 	c #AFAF00",
"z 	c #B6B600",
"A 	c #888800",
"B 	c #E0E000",
"C 	c #BBBB00",
"D 	c #DFDF00",
"E 	c #E2E200",
"F 	c #C2C200",
"G 	c #D5D500",
"H 	c #7C7C00",
"I 	c #797900",
"J 	c #CBCB00",
"K 	c #CDCD00",
"L 	c #E1E100",
"M 	c #A0A000",
"N 	c #D9D900",
"O 	c #9A9A00",
"P 	c #949400",
"Q 	c #A3A300",
"R 	c #ACAC00",
"S 	c #757500",
"T 	c #E3E300",
"U 	c #BCBC00",
"V 	c #747400",
"W 	c #F2F200",
"X 	c #A9A900",
"Y 	c #B4B400",
"Z 	c #9C9C00",
"` 	c #8C8C00",
" .	c #878700",
"..	c #B3B300",
"+.	c #8A8A00",
"@.	c #DCDC00",
"#.	c #C5C500",
"$.	c #D1D100",
"%.	c #C0C000",
"&.	c #F3F300",
"*.	c #969600",
"=.	c #B1B100",
"-.	c #F0F000",
";.	c #7A7A00",
">.	c #DBDB00",
",.	c #ABAB00",
"'.	c #9D9D00",
").	c #848400",
"                                                                                                ",
"                                          . +                                                   ",
"                                          . @ #                                                 ",
"                                          $ % & *                                               ",
"                                        . = - ; > >                                             ",
"                                        . ; , ' ) > >                                           ",
"                                        ! ~ { ] ^ > >                                           ",
"                                      / (     _ : > > *                                         ",
"                                      / <     ' [ } > *                                         ",
"                                      . |     1 2 3 > >                                         ",
"                                    / 2         % 4 > >                                         ",
"                                    . 5         6 7 8 > >                                       ",
"                                    / 9         0 ] > > >                                       ",
"                                  . _             _ a > >                                       ",
"                                  . b             c d 8 > *                                     ",
"                                  ! <             e / f } }                                     ",
"                                g [               h i j k l                                     ",
"  m ] ! . g 2 2 2 2 2 2 2 2 2 2 n h                 h o / / 2 2 2 2 2 2 2 2 ! 6 ! 2 p > *       ",
"    q r - {                                                                 : $ s t u * > >     ",
"      v w ! x y                                                         z 6 $ w 8 * > > > > >   ",
"        v A z B C                                                     5 D y 8 v > > > > > > >   ",
"            # 8 = E F                                           9 r 6 G H } * > > > * > > > >   ",
"                I l p J l                                     K L n M 3 * > > > > > * >         ",
"                  H H C N '                               m G 5 O 3 } > > > > > > > *           ",
"                        P + ' Q                         p c R 3 v > > > > * > >                 ",
"                          S T F                         U D V > > > > * > > >                   ",
"                            g                             W j > > > > > *                       ",
"                          / j                               / 3 > > >                           ",
"                          !                                 g X > >                             ",
"                        / Y             k / ! Z             5 E * >                             ",
"                      . $             : 6 ` P / 0             . z * *                           ",
"                      / o           C b  .8 8 & c ..          y ! +.>                           ",
"                      g           n [ > 8 > > 8 +., 4           @.#.v >                         ",
"                    / Y         $.%.* * > > > > 8 h &.n 9       M ! *.>                         ",
"                  . g       j b =.8 * > > > > > *       @ m       -.$.> >                       ",
"                  /       K p Q 8 * > > > > >             . #.    Q / ;.>                       ",
"                . /     N 7 +.* * > > > > > >               . $.    ] G * >                     ",
"                $     E C u * * > > > > >                     T >.    / v > >                   ",
"              / L   $ ..* > > > > > > *                         ! T   / $ * >                   ",
"              / Y ! ,.v > > > > > > *                             - /   6 & *                   ",
"            / $ B l } > > > > > >                                   >.! . ] * >                 ",
"            / i '.} > > > > > >                                         >.. *.*                 ",
"          $ w q v > > > > > *                                             B $.).>               ",
"          < 3 v > > > > > >                                                 @.A > >             ",
"            > > > > > > *                                                       > *             ",
"              > > > > >                                                           * *           ",
"                * >                                                                 >           ",
"                                                                                                "};
