/* XPM */
static const char * independent_xpm[] = {
"26 26 373 2",
"  	c None",
". 	c #010002",
"+ 	c #060108",
"@ 	c #060009",
"# 	c #09010D",
"$ 	c #0B010F",
"% 	c #0B0111",
"& 	c #040007",
"* 	c #030005",
"= 	c #09010E",
"- 	c #16011E",
"; 	c #250233",
"> 	c #320245",
", 	c #3A0250",
"' 	c #3E0157",
") 	c #3C0153",
"! 	c #340247",
"~ 	c #290138",
"{ 	c #1B0126",
"] 	c #110117",
"^ 	c #09010C",
"/ 	c #170121",
"( 	c #340246",
"_ 	c #4B0265",
": 	c #58027A",
"< 	c #610286",
"[ 	c #6A0292",
"} 	c #6B0295",
"| 	c #6B0294",
"1 	c #68018F",
"2 	c #600284",
"3 	c #530172",
"4 	c #39014D",
"5 	c #260135",
"6 	c #0E0113",
"7 	c #2B023C",
"8 	c #51016F",
"9 	c #65018B",
"0 	c #71029C",
"a 	c #7802A5",
"b 	c #8D02C1",
"c 	c #9102C7",
"d 	c #9502CC",
"e 	c #9702CE",
"f 	c #8C01C1",
"g 	c #7C02AB",
"h 	c #6B0195",
"i 	c #540173",
"j 	c #340047",
"k 	c #100117",
"l 	c #3F0056",
"m 	c #8000B2",
"n 	c #A404DD",
"o 	c #A202DC",
"p 	c #8801BB",
"q 	c #7B02A8",
"r 	c #7C01AA",
"s 	c #8602B7",
"t 	c #8C02C0",
"u 	c #9D02D6",
"v 	c #AA02E8",
"w 	c #B600F8",
"x 	c #A001DB",
"y 	c #7D02AC",
"z 	c #72029D",
"A 	c #73019E",
"B 	c #3D0054",
"C 	c #0D0113",
"D 	c #400057",
"E 	c #9400CB",
"F 	c #D31CFD",
"G 	c #E930FF",
"H 	c #D31AFF",
"I 	c #A402DF",
"J 	c #8401B5",
"K 	c #8002B0",
"L 	c #8502B7",
"M 	c #8902BC",
"N 	c #A102DD",
"O 	c #AA01E8",
"P 	c #8001B0",
"Q 	c #6E0297",
"R 	c #7302A0",
"S 	c #8101B1",
"T 	c #9301CA",
"U 	c #3B0250",
"V 	c #07000B",
"W 	c #8201B3",
"X 	c #D519FF",
"Y 	c #F43CFE",
"Z 	c #FB43FF",
"` 	c #E22AFF",
" .	c #B602F7",
"..	c #9502CB",
"+.	c #9002C5",
"@.	c #9E02D8",
"#.	c #9D02D7",
"$.	c #6D0296",
"%.	c #610186",
"&.	c #6C0293",
"*.	c #7E02AD",
"=.	c #B801F9",
"-.	c #7E01AC",
";.	c #20012A",
">.	c #14011B",
",.	c #B806F4",
"'.	c #EE35FF",
").	c #FC44FF",
"!.	c #F53DFE",
"~.	c #D51DFF",
"{.	c #9101C5",
"].	c #8B02BE",
"^.	c #8702B9",
"/.	c #8C02C1",
"(.	c #8F02C4",
"_.	c #9802CF",
":.	c #7F02AF",
"<.	c #570277",
"[.	c #620287",
"}.	c #6F0199",
"|.	c #B602F6",
"1.	c #AD01ED",
"2.	c #4C0168",
"3.	c #040006",
"4.	c #2B023A",
"5.	c #70009C",
"6.	c #CF13FF",
"7.	c #F840FE",
"8.	c #FA42FF",
"9.	c #E62EFF",
"0.	c #BC09F6",
"a.	c #8A01BE",
"b.	c #7C02AA",
"c.	c #7601A2",
"d.	c #6F0299",
"e.	c #5A027C",
"f.	c #7702A3",
"g.	c #6C0294",
"h.	c #67028E",
"i.	c #530173",
"j.	c #B200F3",
"k.	c #BA02FD",
"l.	c #7701A4",
"m.	c #110018",
"n.	c #0F0115",
"o.	c #3F0157",
"p.	c #7501A2",
"q.	c #C008FC",
"r.	c #CA12FD",
"s.	c #9600CF",
"t.	c #64028A",
"u.	c #5F0283",
"v.	c #580278",
"w.	c #3E0255",
"x.	c #170220",
"y.	c #270237",
"z.	c #7902A6",
"A.	c #71029B",
"B.	c #9602CC",
"C.	c #8B02BF",
"D.	c #B101F2",
"E.	c #B901FD",
"F.	c #9401CB",
"G.	c #2D013E",
"H.	c #0F0015",
"I.	c #4D026A",
"J.	c #71019B",
"K.	c #9000C6",
"L.	c #AD03EA",
"M.	c #B906F5",
"N.	c #9C00D7",
"O.	c #7401A0",
"P.	c #5F0182",
"Q.	c #520270",
"R.	c #45025E",
"S.	c #39024D",
"T.	c #300242",
"U.	c #190223",
"V.	c #2D023F",
"W.	c #8102B2",
"X.	c #A602E3",
"Y.	c #B101F1",
"Z.	c #B900FD",
"`.	c #AB01EA",
" +	c #2A0139",
".+	c #170120",
"++	c #570278",
"@+	c #6C0296",
"#+	c #8601B8",
"$+	c #8A01BD",
"%+	c #7402A1",
"&+	c #4A0265",
"*+	c #360249",
"=+	c #280239",
"-+	c #190222",
";+	c #2C023C",
">+	c #490263",
",+	c #630288",
"'+	c #8202B3",
")+	c #AF01F0",
"!+	c #B800FC",
"~+	c #B001F1",
"{+	c #3B0151",
"]+	c #180120",
"^+	c #5E0281",
"/+	c #8102B0",
"(+	c #7602A5",
"_+	c #65028B",
":+	c #480263",
"<+	c #1F022C",
"[+	c #120219",
"}+	c #08020A",
"|+	c #08020C",
"1+	c #170221",
"2+	c #240232",
"3+	c #37024A",
"4+	c #4B0266",
"5+	c #560276",
"6+	c #AF02EF",
"7+	c #B301F6",
"8+	c #A602E4",
"9+	c #45015F",
"0+	c #15011C",
"a+	c #7C01AB",
"b+	c #50026D",
"c+	c #3A024E",
"d+	c #280238",
"e+	c #1B0227",
"f+	c #110218",
"g+	c #0B020F",
"h+	c #0B0210",
"i+	c #100217",
"j+	c #330245",
"k+	c #470261",
"l+	c #67028D",
"m+	c #9A02D2",
"n+	c #AC02EB",
"o+	c #9801CF",
"p+	c #9602CE",
"q+	c #3E0156",
"r+	c #190122",
"s+	c #640189",
"t+	c #8702BA",
"u+	c #7402A0",
"v+	c #580279",
"w+	c #460260",
"x+	c #38024B",
"y+	c #2A023B",
"z+	c #13021A",
"A+	c #16021F",
"B+	c #310243",
"C+	c #45025D",
"D+	c #550274",
"E+	c #7701A5",
"F+	c #70029B",
"G+	c #470162",
"H+	c #09000D",
"I+	c #5A027B",
"J+	c #9202C6",
"K+	c #480262",
"L+	c #3D0253",
"M+	c #320242",
"N+	c #21022E",
"O+	c #1E022A",
"P+	c #1E022B",
"Q+	c #290239",
"R+	c #39024E",
"S+	c #550275",
"T+	c #64028B",
"U+	c #73029F",
"V+	c #71029D",
"W+	c #600283",
"X+	c #6B0293",
"Y+	c #70029A",
"Z+	c #1A0023",
"`+	c #3D0154",
" @	c #9501CB",
".@	c #9C02D5",
"+@	c #5B027D",
"@@	c #4F026B",
"#@	c #44025D",
"$@	c #2D023E",
"%@	c #38024C",
"&@	c #410258",
"*@	c #490264",
"=@	c #530271",
"-@	c #6C0195",
";@	c #7A02A8",
">@	c #7B01AA",
",@	c #690292",
"'@	c #8D01C1",
")@	c #470160",
"!@	c #20012C",
"~@	c #680190",
"{@	c #67028F",
"]@	c #4C0269",
"^@	c #3D0252",
"/@	c #3C0251",
"(@	c #4F026C",
"_@	c #510270",
":@	c #600185",
"<@	c #7502A1",
"[@	c #8500B7",
"}@	c #A501E0",
"|@	c #8802BB",
"1@	c #2C013B",
"2@	c #3A024F",
"3@	c #9001C4",
"4@	c #AB02EA",
"5@	c #8901BC",
"6@	c #560175",
"7@	c #490262",
"8@	c #540271",
"9@	c #610284",
"0@	c #6E0298",
"a@	c #8900BD",
"b@	c #BE06FC",
"c@	c #BF04FF",
"d@	c #A301DF",
"e@	c #490063",
"f@	c #A401E1",
"g@	c #B201F3",
"h@	c #A401E0",
"i@	c #8302B4",
"j@	c #5F0282",
"k@	c #68028F",
"l@	c #7602A2",
"m@	c #7A01A8",
"n@	c #8B01C0",
"o@	c #BC06FA",
"p@	c #C607FF",
"q@	c #A200DE",
"r@	c #560177",
"s@	c #560077",
"t@	c #B600FB",
"u@	c #B300F4",
"v@	c #A701E4",
"w@	c #6E0198",
"x@	c #8102B1",
"y@	c #8002B1",
"z@	c #8602B9",
"A@	c #BD05FE",
"B@	c #AE03EB",
"C@	c #74019F",
"D@	c #43005B",
"E@	c #8A01BC",
"F@	c #AB01EB",
"G@	c #B201F4",
"H@	c #9501CD",
"I@	c #9301C9",
"J@	c #9300C9",
"K@	c #9001C5",
"L@	c #7E01AE",
"M@	c #65008C",
"N@	c #4B0168",
"O@	c #3F0155",
"P@	c #36014A",
"Q@	c #5B017E",
"R@	c #7E01AD",
"S@	c #A501E3",
"T@	c #B102F2",
"U@	c #AE01EE",
"V@	c #9B01D5",
"W@	c #7F01AF",
"X@	c #570177",
"Y@	c #300142",
"Z@	c #16011F",
"`@	c #36014B",
" #	c #330146",
".#	c #3C0252",
"+#	c #41015A",
"@#	c #480163",
"##	c #1E0129",
"                . + @ # $ # % &                     ",
"            * = - ; > , ' ) ! ~ { ]                 ",
"          ^ / ( _ : < [ } | 1 2 3 4 5               ",
"        6 7 8 9 } 0 a b c d e f g h i j             ",
"      k l m n o p q r s t u v w x y z A B           ",
"    C D E F G H I J K L M e N O P Q R S T U         ",
"  V 5 W X Y Z `  ...c ..+...@.#.$.%.&.*.=.-.;.      ",
"  >.8 ,.'.).!.~.v {.].^.L /.(._.:.<.[.}.|.1.2.      ",
"3.4.5.6.7.8.9.0.a.b.c.d.d.e.q f.g.h.i.h.j.k.l.m.    ",
"n.o.p.q.` 9.r.s.z t.u.v.w.x.y.z.A.B.C.e D.E.F.G.    ",
"H.I.J.K.L.M.N.O.P.Q.R.S.T.U.V.z W.(.u X.Y.Z.`. +    ",
".+++@+J.#+$+%+< &+*+=+-+U.;+>+,+0 '+..X.)+!+~+{+    ",
"]+^+$.%+/+(+_+:+> <+[+}+|+1+2+3+4+5+'+@.6+7+8+9+    ",
"0+_+a+'+g [ b+c+d+e+f+g+h+i+U.2+j+k+l+m+n+o+p+q+    ",
"r+s+M t+u+v+w+x+y+<+1+z+z+A+<+B+C+D+h.u+E+F+#+G+    ",
"H+I+..J+F+<.K+L+M+y.N+O+P+Q+R+k+S+T+U+V+W+X+Y+Z+    ",
"  `+ @.@z.+@@@#@U j+;+$@%@&@*@=@u.-@;@>@,@'@)@      ",
"  !@~@X.b {@5+]@#@^@/@*@(@_@v+:@| <@[@}@1.|@1@      ",
"    2@3@4@5@{@6@I.7@8@9@2 < l+0@c.a@b@c@d@w+        ",
"      e@f@g@h@i@j@8 k@F+A.0 l@m@n@o@p@q@r@          ",
"        s@d@t@u@v@g w@x@y@'+z@u A@B@C@D@            ",
"          <.E@F@g@G@h@H@I@J@K@L@M@N@O@              ",
"            P@Q@R@d S@D.T@U@V@W@X@Y@                ",
"                Z@`@ #.#+#`+@###                    ",
"                                                    ",
"                                                    "};
