/* XPM */
static const char * indpendent_xpm[] = {
"26 26 12 1",
" 	c None",
".	c #660099",
"+	c #9900CC",
"@	c #330066",
"#	c #330033",
"$	c #CC00FF",
"%	c #000000",
"&	c #000033",
"*	c #CC33FF",
"=	c #660066",
"-	c #9933CC",
";	c #FF33FF",
"        %%%%%%%%          ",
"      %%&##@@@##&%        ",
"     %&#@@......@@#       ",
"    %#@....+++++..@#      ",
"   %@++++..+++*$+...@     ",
"  %@+$;$++-++++*-..-+@    ",
" %#+$;;*$+++++++....$.#   ",
" %@$;;;$*++-++++.=..$*@   ",
"%#.$;;*$+....@....@.$$.%  ",
"%@.$**$+...=@&#..+++$$+#  ",
"%@.+*$+..@@##&#.-+++$$*#  ",
"&@..-+..@##&&#@..+++$$$@  ",
"&...-..@##%%%&##@=++$$+@  ",
"%..+..=@#&%%%%&##@.+*++@  ",
"&.++.@@###&%%&##@@....-@  ",
"%@++.==@######@@=......&  ",
" @++.@=@@####=@@.....+@   ",
" #.++.=@@@@@=@@...++*+#   ",
"  @+*+.=@=@......+$$+@    ",
"   @+$++.@......+$$+@     ",
"    @+$$+..--+-+$*.@      ",
"     =+*$$+++++..@@       ",
"      #..++$$$+-=#        ",
"        &##@@@@#          ",
"                          ",
"                          "};
