/* XPM */
static const char * indpendent_star_empty_xpm[] = {
"48 48 110 2",
"  	c None",
". 	c #E500E5",
"+ 	c #AE00AE",
"@ 	c #D600D6",
"# 	c #7E007E",
"$ 	c #E700E7",
"% 	c #EC00EC",
"& 	c #8E008E",
"* 	c #820082",
"= 	c #D700D7",
"- 	c #E900E9",
"; 	c #B200B2",
"> 	c #830083",
", 	c #D000D0",
"' 	c #D400D4",
") 	c #7D007D",
"! 	c #E800E8",
"~ 	c #990099",
"{ 	c #A600A6",
"] 	c #EE00EE",
"^ 	c #8F008F",
"/ 	c #E600E6",
"( 	c #F100F1",
"_ 	c #ED00ED",
": 	c #B000B0",
"< 	c #A800A8",
"[ 	c #CE00CE",
"} 	c #7F007F",
"| 	c #A200A2",
"1 	c #B700B7",
"2 	c #EB00EB",
"3 	c #7B007B",
"4 	c #BE00BE",
"5 	c #BD00BD",
"6 	c #E400E4",
"7 	c #C300C3",
"8 	c #810081",
"9 	c #970097",
"0 	c #A700A7",
"a 	c #8B008B",
"b 	c #AD00AD",
"c 	c #DA00DA",
"d 	c #DE00DE",
"e 	c #CC00CC",
"f 	c #BA00BA",
"g 	c #760076",
"h 	c #EA00EA",
"i 	c #D800D8",
"j 	c #C100C1",
"k 	c #A500A5",
"l 	c #A400A4",
"m 	c #B800B8",
"n 	c #C700C7",
"o 	c #CF00CF",
"p 	c #CA00CA",
"q 	c #980098",
"r 	c #C800C8",
"s 	c #BF00BF",
"t 	c #900090",
"u 	c #850085",
"v 	c #800080",
"w 	c #B500B5",
"x 	c #DD00DD",
"y 	c #AF00AF",
"z 	c #B600B6",
"A 	c #880088",
"B 	c #E000E0",
"C 	c #BB00BB",
"D 	c #DF00DF",
"E 	c #E200E2",
"F 	c #C200C2",
"G 	c #D500D5",
"H 	c #7C007C",
"I 	c #790079",
"J 	c #CB00CB",
"K 	c #CD00CD",
"L 	c #E100E1",
"M 	c #A000A0",
"N 	c #D900D9",
"O 	c #9A009A",
"P 	c #940094",
"Q 	c #A300A3",
"R 	c #AC00AC",
"S 	c #750075",
"T 	c #E300E3",
"U 	c #BC00BC",
"V 	c #740074",
"W 	c #F200F2",
"X 	c #A100A1",
"Y 	c #960096",
"Z 	c #A900A9",
"` 	c #B400B4",
" .	c #9C009C",
"..	c #8C008C",
"+.	c #870087",
"@.	c #B300B3",
"#.	c #8A008A",
"$.	c #DC00DC",
"%.	c #C500C5",
"&.	c #D100D1",
"*.	c #C000C0",
"=.	c #890089",
"-.	c #F300F3",
";.	c #B100B1",
">.	c #F000F0",
",.	c #7A007A",
"'.	c #DB00DB",
").	c #AB00AB",
"!.	c #9D009D",
"~.	c #840084",
"                                                                                                ",
"                                          . +                                                   ",
"                                          . @ #                                                 ",
"                                          $ % & *                                               ",
"                                        . = - ; > >                                             ",
"                                        . ; , ' ) > >                                           ",
"                                        ! ~ { ] ^ > >                                           ",
"                                      / (     _ : > > *                                         ",
"                                      / <     ' [ } > *                                         ",
"                                      . |     1 2 3 > >                                         ",
"                                    / 2         % 4 > >                                         ",
"                                    . 5         6 7 8 > >                                       ",
"                                    / 9         0 ] > > >                                       ",
"                                  . _           a _ b > >                                       ",
"                                  . c             d e 8 > *                                     ",
"                                  ! <             f / g } }                                     ",
"                                h [                 i j k l                                     ",
"  m ] ! . h 2 2 2 2 2 2 2 2 2 2 n                     o / / 2 2 2 2 2 2 2 2 ! 6 ! 2 p > *       ",
"    q r - {                                                                 : $ s t u * > >     ",
"      v w ! x y                                                         z 6 $ w 8 * > > > > >   ",
"        v A z B C                                                     5 D y 8 v > > > > > > >   ",
"            # 8 = E F                                             r 6 G H } * > > > * > > > >   ",
"                I l p J l                                     K L n M 3 * > > > > > * >         ",
"                  H H C N ' q                             m G 5 O 3 } > > > > > > > *           ",
"                        P + ' Q                         p d R 3 v > > > > * > >                 ",
"                          S T F                         U D V > > > > * > > >                   ",
"                            h                             W j > > > > > *                       ",
"                          / j                             X / 3 > > >                           ",
"                          !               M Y               h Z > >                             ",
"                        / `             k / !  .            5 E * >                             ",
"                      . $             : 6 ..P / 0             . z * *                           ",
"                      / o           C c +.8 8 & d @.          y ! #.>                           ",
"                      h           n [ > 8 > > 8 #., 4           $.%.v >                         ",
"                    / `         &.*.* * > > > > 8 =.-.n 9       M ! Y >                         ",
"                  . h       j c ;.8 * > > > > > *       @ m       >.&.> >                       ",
"                  / ~     K p Q 8 * > > > > >             . %.    Q / ,.>                       ",
"                . /     N 7 #.* * > > > > > >               . &.    ] G * >                     ",
"                $     E C u * * > > > > >                     T '.    / v > >                   ",
"              / L   $ @.* > > > > > > *                         ! T   / $ * >                   ",
"              / ` ! ).v > > > > > > *                             - /   6 & *                   ",
"            / $ B l } > > > > > >                                   '.! . ] * >                 ",
"            / i !.} > > > > > >                                         '.. Y *                 ",
"          $ w q v > > > > > *                                             B &.~.>               ",
"          < 3 v > > > > > >                                                 $.A > >             ",
"            > > > > > > *                                                       > *             ",
"              > > > > >                                                           * *           ",
"                * >                                                                 >           ",
"                                                                                                "};
