/* XPM */
static const char * indpendent_star_full_xpm[] = {
"48 48 90 1",
" 	c None",
".	c #E500E5",
"+	c #AE00AE",
"@	c #D600D6",
"#	c #7E007E",
"$	c #EC00EC",
"%	c #8E008E",
"&	c #820082",
"*	c #E600E6",
"=	c #B200B2",
"-	c #830083",
";	c #D400D4",
">	c #7D007D",
",	c #8F008F",
"'	c #B000B0",
")	c #CE00CE",
"!	c #7F007F",
"~	c #EB00EB",
"{	c #7B007B",
"]	c #BE00BE",
"^	c #C300C3",
"/	c #810081",
"(	c #EE00EE",
"_	c #E700E7",
":	c #AD00AD",
"<	c #CC00CC",
"[	c #E400E4",
"}	c #760076",
"|	c #BF00BF",
"1	c #A500A5",
"2	c #A400A4",
"3	c #B800B8",
"4	c #E800E8",
"5	c #E000E0",
"6	c #CA00CA",
"7	c #980098",
"8	c #C800C8",
"9	c #900090",
"0	c #850085",
"a	c #800080",
"b	c #B500B5",
"c	c #880088",
"d	c #DD00DD",
"e	c #DC00DC",
"f	c #AF00AF",
"g	c #DE00DE",
"h	c #D200D2",
"i	c #7C007C",
"j	c #790079",
"k	c #C600C6",
"l	c #EA00EA",
"m	c #D800D8",
"n	c #C400C4",
"o	c #A000A0",
"p	c #B900B9",
"q	c #9A009A",
"r	c #940094",
"s	c #AB00AB",
"t	c #D700D7",
"u	c #AA00AA",
"v	c #750075",
"w	c #E200E2",
"x	c #740074",
"y	c #C100C1",
"z	c #A900A9",
"A	c #E100E1",
"B	c #8C008C",
"C	c #DF00DF",
"D	c #B600B6",
"E	c #E900E9",
"F	c #870087",
"G	c #8A008A",
"H	c #C900C9",
"I	c #840084",
"J	c #890089",
"K	c #C500C5",
"L	c #ED00ED",
"M	c #BC00BC",
"N	c #960096",
"O	c #D100D1",
"P	c #A100A1",
"Q	c #7A007A",
"R	c #C200C2",
"S	c #D500D5",
"T	c #BA00BA",
"U	c #B300B3",
"V	c #9D009D",
"W	c #DA00DA",
"X	c #A800A8",
"Y	c #D900D9",
"                                                ",
"                     .+                         ",
"                     .@#                        ",
"                     .$%&                       ",
"                    .*.=--                      ",
"                    ***;>--                     ",
"                    ***$,--                     ",
"                   *****'--&                    ",
"                   ****.)!-&                    ",
"                   .****~{--                    ",
"                  ******.]--                    ",
"                  *******^/--                   ",
"                  *******(---                   ",
"                 .*******_:--                   ",
"                 .*******.</-&                  ",
"                 *********[}!!                  ",
"                **********_|12                  ",
" 3(4***..**..*..**********..55**..***..*4~6-&   ",
"  78_.***********************..*******._|90&--  ",
"   ab4.*.****************************.*b/&----- ",
"    acbd_***************************ef/a------- ",
"      #/;g4.*******************.__dhi!&---&---- ",
"        j2kl_.*****************lmno{&-----&-    ",
"         ii3h~***************__pq{!-------&     ",
"            rs[**************tu{a----&--        ",
"             vw**************5x----&---         ",
"              .**************_y-----&           ",
"             ****************.*{---             ",
"             *****************_z--              ",
"            *******.*ww*.*****.A&-              ",
"           ..*****._gBrC_.*****_D&&             ",
"           .*****.E;F//%@E.****.*G-             ",
"           *****.~HI/--/J6_******Ka-            ",
"          *****.LM&&---&/JE..***._N-            ",
"         *****E(+/&---&-&  .******O--           ",
"         ****E8P/&---&-      .***.*Q-           ",
"        ***.ERG&&------       .****S&-          ",
"        .*._T0&&-----          ***.*a--         ",
"       *.*.U&------&            ***._&-         ",
"       .*wsa-----&&              E[*[%&         ",
"      *_d2!-----&-                @w.(&-        ",
"      *mV!-----&                    W.N&        ",
"     _b7a-----&                      dOI-       ",
"     X{a------                        Yc--      ",
"      ------&                           -&      ",
"       -----                             &&     ",
"        &-                                -     ",
"                                                "};
