/* XPM */
static const char * magic_star_full_xpm[] = {
"48 48 115 2",
"  	c None",
". 	c #01E501",
"+ 	c #1BAE24",
"@ 	c #08D60B",
"# 	c #337E43",
"$ 	c #00EC00",
"% 	c #2B8E39",
"& 	c #308241",
"* 	c #01E601",
"= 	c #1AB222",
"- 	c #308340",
"; 	c #318341",
"> 	c #09D40C",
", 	c #337D44",
"' 	c #2B8F39",
") 	c #318340",
"! 	c #00E600",
"~ 	c #1AB023",
"{ 	c #308240",
"] 	c #0CCE10",
"^ 	c #327F42",
"/ 	c #318241",
"( 	c #00EB00",
"_ 	c #347B45",
": 	c #14BE1A",
"< 	c #308341",
"[ 	c #11C317",
"} 	c #318142",
"| 	c #00EE00",
"1 	c #00E700",
"2 	c #1CAD25",
"3 	c #0DCC11",
"4 	c #318240",
"5 	c #01E401",
"6 	c #377649",
"7 	c #327F43",
"8 	c #13BF19",
"9 	c #20A52A",
"0 	c #20A42B",
"a 	c #17B81E",
"b 	c #00E800",
"c 	c #00E601",
"d 	c #00E501",
"e 	c #03E004",
"f 	c #0ECA13",
"g 	c #269833",
"h 	c #0FC814",
"i 	c #13BF1A",
"j 	c #2A9038",
"k 	c #2F853F",
"l 	c #328042",
"m 	c #18B520",
"n 	c #318141",
"o 	c #2E883D",
"p 	c #05DD06",
"q 	c #05DC06",
"r 	c #1BAF24",
"s 	c #337E44",
"t 	c #04DD05",
"u 	c #0AD20D",
"v 	c #347C45",
"w 	c #357946",
"x 	c #10C615",
"y 	c #00EA00",
"z 	c #07D80A",
"A 	c #11C416",
"B 	c #22A02E",
"C 	c #16B91D",
"D 	c #259A31",
"E 	c #347B46",
"F 	c #289435",
"G 	c #1DAB26",
"H 	c #01E302",
"I 	c #07D70A",
"J 	c #1DAA27",
"K 	c #37724A",
"L 	c #02E203",
"M 	c #38744A",
"N 	c #12C118",
"O 	c #1EA928",
"P 	c #03E103",
"Q 	c #04DE05",
"R 	c #2C8C3B",
"S 	c #04DF05",
"T 	c #18B61F",
"U 	c #00E900",
"V 	c #2E873E",
"W 	c #08D60A",
"X 	c #2D8A3C",
"Y 	c #0FC913",
"Z 	c #308440",
"` 	c #2D893C",
" .	c #11C516",
"..	c #00ED00",
"+.	c #15BC1C",
"@.	c #2C8C3A",
"#.	c #00E500",
"$.	c #279634",
"%.	c #0AD10E",
"&.	c #22A12D",
"*.	c #347A46",
"=.	c #12C218",
"-.	c #01E500",
";.	c #08D50B",
">.	c #16BA1D",
",.	c #19B322",
"'.	c #01E402",
").	c #21A42B",
"!.	c #249D30",
"~.	c #13BE1A",
"{.	c #06DB07",
"].	c #21A12C",
"^.	c #05DB07",
"/.	c #1EA828",
"(.	c #07DC0A",
"                                                                                                ",
"                                          . +                                                   ",
"                                          . @ #                                                 ",
"                                          . $ % &                                               ",
"                                        . * . = - ;                                             ",
"                                        * * * > , ; ;                                           ",
"                                        * * * $ ' ; )                                           ",
"                                      * * * * ! ~ - ; {                                         ",
"                                      * * * * . ] ^ ; /                                         ",
"                                      . * * * * ( _ ; ;                                         ",
"                                    * * * * * * . : - <                                         ",
"                                    * * * * * * * [ } < ;                                       ",
"                                    * * * * * * * | - ; ;                                       ",
"                                  . * * * * * * * 1 2 - <                                       ",
"                                  . * * * * * * * . 3 } ; 4                                     ",
"                                  * * * * * * * * * 5 6 7 7                                     ",
"                                * * * * * * * * * * 1 8 9 0                                     ",
"  a | b * * * c ! ! d * * * . . * * * * * * * * * * . . e e ! . * * d ! ! . . * b ( f - {       ",
"    g h 1 . * * * * * * * * * * * * * * * * * * * * * ! ! ! . * * * * * * * . 1 i j k / ) ;     ",
"      l m b . ! . * * * * * * * * * * * * * * * * * * * * * * * * * * ! ! . ! m n / ; ; ; ) ;   ",
"        l o m p 1 ! * * * * * * * * * * * * * * * * * * * * * * * ! ! ! q r } l - ; ; ; < ; ;   ",
"            s n > t b . * * * * * * * * * * * * * * * * * * * . 1 1 p u v 7 / ; ; ; / ; < ; ;   ",
"                w 0 x y 1 . * * * * * * * * * * * * * * * * ! y z A B _ / ; ; ; ; ; & ;         ",
"                  v _ a u ( ! * * * * * * * * * * * * * * 1 1 C D E 7 ; ; ; ; ; ; ; 4           ",
"                        F G H * * * * * * * * * * * * * * I J _ l - ; ; ; / ; ;                 ",
"                          K L * * * * * * * * * * * * * * e M - ; ; ; / ; ; ;                   ",
"                            . * * * * * * * * * * * * * * 1 N - ; ; ; ; {                       ",
"                          ! ! * * * * * * * * * * * * * * . ! E ; ; ;                           ",
"                          * * * * * * * * * * * * * * * * * 1 O - -                             ",
"                        * * * * * * * . ! L L ! . * * * * * . P / -                             ",
"                      . . * * * * * . 1 Q R F S 1 . * * * * * 1 T / /                           ",
"                      . * * * * * . U > V n } % W U . * * * * . ! X -                           ",
"                      * * * * * . ( Y Z n ; ; } ` f 1 ! * * * * !  .l ;                         ",
"                    * * * * * . ..+./ / ; ; ; / n @.U . #.* * * . 1 $.;                         ",
"                  * * * * * U | + } / ; ; ; ; ; n     . * * * * * ! %.- )                       ",
"                  * * * * U h &.n / ; ; ; ; ;           #.#.* * * . ! *.-                       ",
"                * * * . U =.X / / ; ; ; ; ; -               -.* * * ! ;./ ;                     ",
"                . * . 1 >.k / / ; ; ; / )                     1 * * . ! l - )                   ",
"              * . ! . ,./ - ; ; ; ; & /                         5 . * . 1 / -                   ",
"              . ! L G l - ; ; ; ; & {                             y '.* . % /                   ",
"            ! 1 p ).^ ; ; ; ; ; / -                                 3 e . | / -                 ",
"            ! z !.7 ; ; ; ; - < <                                     ~.{.. $./                 ",
"          1 m g l ; ; ; ; ; -                                           ].^.%.Z <               ",
"          /._ l ; ; ; ; ; ;                                                 (.o ; ;             ",
"            - ; ; ; ; < &                                                       ; 4             ",
"              ; ; - ; ;                                                           & &           ",
"                4 ;                                                                 <           ",
"                                                                                                "};
