/* XPM */
static const char * magic_star_empty_xpm[] = {
"48 48 146 2",
"  	c None",
". 	c #01E501",
"+ 	c #1BAE24",
"@ 	c #08D60B",
"# 	c #337E43",
"$ 	c #00E700",
"% 	c #00EC00",
"& 	c #2B8E39",
"* 	c #308241",
"= 	c #00E500",
"- 	c #07D70A",
"; 	c #00E900",
"> 	c #1AB222",
", 	c #308340",
"' 	c #318341",
") 	c #19B222",
"! 	c #0BD00E",
"~ 	c #09D40C",
"{ 	c #337D44",
"] 	c #00E800",
"^ 	c #269932",
"/ 	c #1FA62A",
"( 	c #00EE00",
"_ 	c #2B8F39",
": 	c #318340",
"< 	c #01E601",
"[ 	c #00F100",
"} 	c #00ED00",
"| 	c #1AB023",
"1 	c #2F823F",
"2 	c #1EA828",
"3 	c #0CCE10",
"4 	c #327F42",
"5 	c #308240",
"6 	c #21A22C",
"7 	c #17B71F",
"8 	c #00EB00",
"9 	c #347B45",
"0 	c #14BE1A",
"a 	c #308341",
"b 	c #14BD1B",
"c 	c #01E402",
"d 	c #11C317",
"e 	c #318142",
"f 	c #00E600",
"g 	c #279733",
"h 	c #1FA729",
"i 	c #1CAD25",
"j 	c #06DA08",
"k 	c #04DE05",
"l 	c #0DCC11",
"m 	c #318240",
"n 	c #16BA1D",
"o 	c #377649",
"p 	c #327F43",
"q 	c #07D80A",
"r 	c #12C118",
"s 	c #20A52A",
"t 	c #20A42B",
"u 	c #17B81E",
"v 	c #00EA00",
"w 	c #0FC714",
"x 	c #0CCF0F",
"y 	c #00E601",
"z 	c #01E401",
"A 	c #0ECA13",
"B 	c #269833",
"C 	c #0FC814",
"D 	c #1BB024",
"E 	c #13BF1A",
"F 	c #2A9038",
"G 	c #2F853F",
"H 	c #318241",
"I 	c #328042",
"J 	c #18B520",
"K 	c #04DD06",
"L 	c #1BAF24",
"M 	c #18B620",
"N 	c #318141",
"O 	c #2E883D",
"P 	c #03E004",
"Q 	c #16BB1D",
"R 	c #04DF05",
"S 	c #337E44",
"T 	c #02E203",
"U 	c #12C218",
"V 	c #02E402",
"W 	c #08D50B",
"X 	c #347C45",
"Y 	c #357946",
"Z 	c #0ECA12",
"` 	c #0ECB12",
" .	c #0CCD10",
"..	c #03E104",
"+.	c #22A02E",
"@.	c #15BB1C",
"#.	c #06D908",
"$.	c #09D50C",
"%.	c #259A32",
"&.	c #347B46",
"*.	c #289435",
"=.	c #21A32C",
"-.	c #1CAC25",
";.	c #377549",
">.	c #01E302",
",.	c #15BC1B",
"'.	c #38744A",
").	c #00F200",
"!.	c #13C119",
"~.	c #22A12D",
"{.	c #22A02D",
"].	c #279634",
"^.	c #1EA928",
"/.	c #19B421",
"(.	c #249C30",
"_.	c #2C8C3B",
":.	c #18B61F",
"<.	c #0BCF0F",
"[.	c #2F873E",
"}.	c #19B321",
"|.	c #2D8A3C",
"1.	c #10C715",
"2.	c #05DC07",
"3.	c #11C516",
"4.	c #18B420",
"5.	c #0AD10E",
"6.	c #13C019",
"7.	c #2E893D",
"8.	c #00F300",
"9.	c #269733",
"0.	c #1AB122",
"a.	c #16B81E",
"b.	c #00F000",
"c.	c #10C515",
"d.	c #347A46",
"e.	c #06DB07",
"f.	c #19B322",
"g.	c #01E301",
"h.	c #1DAB26",
"i.	c #21A42B",
"j.	c #01E901",
"k.	c #249D30",
"l.	c #03DE05",
"m.	c #02E103",
"n.	c #308440",
"o.	c #06E008",
"                                                                                                ",
"                                          . +                                                   ",
"                                          . @ #                                                 ",
"                                          $ % & *                                               ",
"                                        = - ; > , '                                             ",
"                                        . ) ! ~ { ' '                                           ",
"                                        ] ^ / ( _ ' :                                           ",
"                                      < [     } | , ' 1                                         ",
"                                      < 2     ~ 3 4 ' 5                                         ",
"                                      . 6     7 8 9 ' '                                         ",
"                                    < 8         % 0 , a                                         ",
"                                    . b         c d e a '                                       ",
"                                    f g         h ( , ' ,                                       ",
"                                  . }             } i , a                                       ",
"                                  . j             k l e ' m                                     ",
"                                  ] 2             n f o p p                                     ",
"                                8 3                 q r s t                                     ",
"  u ( ] . v 8 8 8 8 8 8 8 8 8 8 w                     x f < 8 8 8 8 8 8 8 v y z ] 8 A , 5       ",
"    B C ; /                                                                 D $ E F G H : '     ",
"      I J ] K L                                                         M z $ J N H ' ' ' : '   ",
"        I O M P Q                                                     b R L e I , ' ' ' a ' '   ",
"            S e - T U                                           g C V W X p H ' ' ' H ' a ' '   ",
"                Y t Z ` t                                      ...w +.9 H ' ' ' ' ' * '         ",
"                  X X @.#.~ B                             u $.b %.&.p ' ' ' ' ' ' ' m           ",
"                        *.+ ~ =.                        Z k -.9 I , ' ' ' H ' '                 ",
"                          ;.>.U                         ,.R '., ' ' ' H ' ' '                   ",
"                            v                             ).r , ' ' ' ' 5                       ",
"                          f !.                            ~.f &.' ' '                           ",
"                          ]               {.].              v ^., ,                             ",
"                        f /.            s f ] (.            b T H ,                             ",
"                      . $             D z _.*.f h             . :.H H                           ",
"                      f <.          @.j [.N e & k }.          L ] |.,                           ",
"                      v           1.3 , N ' ' e |.! 0           2.3.I '                         ",
"                    f 4.        5.6.H H ' ' ' ' N 7.8.w 9.      +.] ].'                         ",
"                  . v       r j 0.e H ' ' ' ' ' H       @ a.      b.5., :                       ",
"                  f ^      .A =.N H ' ' ' ' '             f c.    =.f d.,                       ",
"                . f     #.d |.H H ' ' ' ' ' '               f 5.    ( W H '                     ",
"                $     T @.G H H ' ' ' ' :                     = e.    f I , :                   ",
"              f ..  $ f.H , ' ' ' ' ' H                         f g.  f $ H ,                   ",
"              f /.] h.I , ' ' ' ' ' 5                             $ $   z & H                   ",
"            f $ P i.4 ' ' ' ' ' ,                                     j.. ( H ,                 ",
"            f q k.p ' ' ' ' , a                                         l.. ].H                 ",
"          $ J B I ' ' ' ' ' '                                             m.5.n.a               ",
"          2 9 I ' ' ' ' ' '                                                 o.O ' '             ",
"            , ' ' ' ' a *                                                       ' m             ",
"              ' ' , ' '                                                           * *           ",
"                m '                                                                 a           ",
"                                                                                                "};
