/* XPM */
static const char * magic_xpm[] = {
"25 26 316 2",
"  	c None",
". 	c #010101",
"+ 	c #020603",
"@ 	c #020703",
"# 	c #020906",
"$ 	c #020A06",
"% 	c #020905",
"& 	c #020B07",
"* 	c #010503",
"= 	c #010402",
"- 	c #02150B",
"; 	c #032211",
"> 	c #032F16",
", 	c #033619",
"' 	c #03391A",
") 	c #03371A",
"! 	c #022F16",
"~ 	c #032612",
"{ 	c #02190D",
"] 	c #011008",
"^ 	c #02170B",
"/ 	c #03441F",
"( 	c #035125",
"_ 	c #035928",
": 	c #03622B",
"< 	c #03642D",
"[ 	c #02642C",
"} 	c #03602B",
"| 	c #034C23",
"1 	c #023418",
"2 	c #022412",
"3 	c #020D07",
"4 	c #032814",
"5 	c #034A21",
"6 	c #035D2A",
"7 	c #03642C",
"8 	c #03692E",
"9 	c #037031",
"0 	c #038239",
"a 	c #03863B",
"b 	c #03893D",
"c 	c #038A3D",
"d 	c #038138",
"e 	c #037333",
"f 	c #024E23",
"g 	c #013016",
"h 	c #020F08",
"i 	c #02391A",
"j 	c #037534",
"k 	c #039C44",
"l 	c #039641",
"m 	c #037D37",
"n 	c #037232",
"o 	c #037C36",
"p 	c #038139",
"q 	c #03903E",
"r 	c #039D44",
"s 	c #03A848",
"t 	c #039440",
"u 	c #037433",
"v 	c #036A30",
"w 	c #026A2F",
"x 	c #01381A",
"y 	c #023A1B",
"z 	c #03883C",
"A 	c #02DF60",
"B 	c #03F971",
"C 	c #03DC60",
"D 	c #039741",
"E 	c #037A35",
"F 	c #037634",
"G 	c #037B37",
"H 	c #037D38",
"I 	c #03662C",
"J 	c #026C2F",
"K 	c #02883B",
"L 	c #023619",
"M 	c #010704",
"N 	c #022311",
"O 	c #037935",
"P 	c #03DD5F",
"Q 	c #03FF7A",
"R 	c #03FF80",
"S 	c #03EF6C",
"T 	c #03AB4A",
"U 	c #03883B",
"V 	c #03873B",
"W 	c #03893C",
"X 	c #03853A",
"Y 	c #03923F",
"Z 	c #03913E",
"` 	c #03652D",
" .	c #035B28",
"..	c #03632B",
"+.	c #037533",
"@.	c #03AA4A",
"#.	c #027433",
"$.	c #021D0E",
"%.	c #021209",
"&.	c #024A21",
"*.	c #03B04D",
"=.	c #03FD75",
"-.	c #03FF7B",
";.	c #03E162",
">.	c #039E44",
",.	c #03853B",
"'.	c #038039",
").	c #038B3E",
"!.	c #034F23",
"~.	c #035B29",
"{.	c #03662D",
"].	c #02A045",
"^.	c #02451F",
"/.	c #032712",
"(.	c #03D05A",
"_.	c #03FF7D",
":.	c #03FE7F",
"<.	c #03FA70",
"[.	c #03B74F",
"}.	c #038038",
"|.	c #037332",
"1.	c #036E30",
"2.	c #03672E",
"3.	c #035325",
"4.	c #036E31",
"5.	c #03632C",
"6.	c #034D23",
"7.	c #035F2B",
"8.	c #03A448",
"9.	c #03AF4D",
"0.	c #036D31",
"a.	c #020E08",
"b.	c #036C30",
"c.	c #03B951",
"d.	c #03F46C",
"e.	c #03F96F",
"f.	c #03CD58",
"g.	c #036A2F",
"h.	c #035C29",
"i.	c #035827",
"j.	c #035124",
"k.	c #03170B",
"l.	c #032412",
"m.	c #037131",
"n.	c #03682E",
"o.	c #038B3D",
"p.	c #03A347",
"q.	c #03AC4A",
"r.	c #02893C",
"s.	c #022914",
"t.	c #010E07",
"u.	c #024720",
"v.	c #03843A",
"w.	c #03A447",
"x.	c #03B24D",
"y.	c #038F3E",
"z.	c #036C2F",
"A.	c #035727",
"B.	c #034C22",
"C.	c #033F1D",
"D.	c #033418",
"E.	c #032C14",
"F.	c #03180C",
"G.	c #032A14",
"H.	c #03692F",
"I.	c #037835",
"J.	c #03833A",
"K.	c #03903F",
"L.	c #039842",
"M.	c #03A247",
"N.	c #02AC4A",
"O.	c #039E45",
"P.	c #022712",
"Q.	c #025024",
"R.	c #037C37",
"S.	c #037F38",
"T.	c #036D30",
"U.	c #035A28",
"V.	c #033117",
"W.	c #03170C",
"X.	c #032813",
"Y.	c #03421E",
"Z.	c #038A3C",
"`.	c #039942",
" +	c #03A245",
".+	c #01150C",
"++	c #035627",
"@+	c #037735",
"#+	c #035D29",
"$+	c #03431E",
"%+	c #032D16",
"&+	c #031E0E",
"*+	c #031009",
"=+	c #030704",
"-+	c #030905",
";+	c #03150B",
">+	c #032311",
",+	c #033217",
"'+	c #03451F",
")+	c #034F24",
"!+	c #039140",
"~+	c #03A145",
"{+	c #03A549",
"]+	c #023F1D",
"^+	c #01120A",
"/+	c #025E29",
"(+	c #034921",
"_+	c #032512",
":+	c #031B0D",
"<+	c #030B06",
"[+	c #030A06",
"}+	c #030F09",
"|+	c #032310",
"1+	c #032E16",
"2+	c #03401D",
"3+	c #035F2A",
"4+	c #038D3E",
"5+	c #039F44",
"6+	c #028B3D",
"7+	c #02160C",
"8+	c #025C29",
"9+	c #037E38",
"0+	c #035024",
"a+	c #032713",
"b+	c #031F0E",
"c+	c #03160C",
"d+	c #031208",
"e+	c #031108",
"f+	c #03140B",
"g+	c #032C15",
"h+	c #033F1C",
"i+	c #034E23",
"j+	c #036F31",
"k+	c #027C36",
"l+	c #02421E",
"m+	c #010804",
"n+	c #035225",
"o+	c #03893B",
"p+	c #03863A",
"q+	c #035023",
"r+	c #033719",
"s+	c #03200E",
"t+	c #031D0E",
"u+	c #031D0F",
"v+	c #033218",
"w+	c #034E24",
"x+	c #036B2F",
"y+	c #035726",
"z+	c #03632D",
"A+	c #01180B",
"B+	c #02381A",
"C+	c #038F3F",
"D+	c #035425",
"E+	c #034720",
"F+	c #033618",
"G+	c #032E15",
"H+	c #032913",
"I+	c #033317",
"J+	c #033B1B",
"K+	c #03652C",
"L+	c #037132",
"M+	c #037233",
"N+	c #03622C",
"O+	c #028239",
"P+	c #02411D",
"Q+	c #02612B",
"R+	c #039843",
"S+	c #03602A",
"T+	c #034620",
"U+	c #034821",
"V+	c #034A22",
"W+	c #035A27",
"X+	c #037B36",
"Y+	c #027D37",
"Z+	c #022713",
"`+	c #023519",
" @	c #02853A",
".@	c #027F38",
"+@	c #03421D",
"@@	c #035927",
"#@	c #037F37",
"$@	c #02B54F",
"%@	c #03B54F",
"&@	c #029642",
"*@	c #01421E",
"=@	c #029842",
"-@	c #039742",
";@	c #034922",
">@	c #03BE53",
",@	c #029541",
"'@	c #015024",
")@	c #014F23",
"!@	c #03A94A",
"~@	c #03A547",
"{@	c #039A43",
"]@	c #039040",
"^@	c #03B34E",
"/@	c #026B30",
"(@	c #013D1C",
"_@	c #029F45",
":@	c #03A548",
"<@	c #03A546",
"[@	c #023216",
"}@	c #025426",
"|@	c #027434",
"1@	c #039943",
"2@	c #027534",
"3@	c #022C14",
"4@	c #02150A",
"5@	c #023317",
"6@	c #012E15",
"7@	c #023819",
"8@	c #023D1B",
"9@	c #013819",
"0@	c #02431E",
"a@	c #011C0D",
"                . + @ # $ % & *                   ",
"            = % - ; > , ' ) ! ~ { ]               ",
"          # ^ > / ( _ : < [ } _ | 1 2             ",
"        3 4 5 6 7 8 9 0 a b c d e 7 f g           ",
"      h i j k l m n e o p q r s t u v w x         ",
"    3 y z A B C D E F G H c t k F I J F K L       ",
"  M N O P Q R S T U V W X W Y Z `  ...+.@.#.$.    ",
"  %.&.*.=.R -.;.>.,.'.m G 0 X ).j !.~.{.T ].^.    ",
"= /.{.(._.:.<.[.}.|.1.2.2.3.n 4.5.} 6.7.8.9.0.]   ",
"a.y b.c.d.e.f.b g.h.i.j.' k.l.m.n.W d o.p.q.r.s.  ",
"t.u.n.v.w.x.y.z.A.B.C.D.E.F.G.H.I.J.K.L.M.N.O.P.  ",
"- Q.7 8 R.S.T.U./ V.~ W.W.X.Y.h.8 I.Z.`. +T p.L   ",
".+++` T.@+4.#+$+%+&+*+=+-+;+>+,+'+)+I.!+~+{+`.]+  ",
"^+/+u I.e : (+D._+:+*+<+[+}+F.|+1+2+3+4+5+6+o.i   ",
"7+8+9+H b.0+2+,+a+b+c+d+e+f+&+g+h+i+3+b.j+8 k+l+  ",
"m+n+o+p+n.q+Y.r+g+~ s+t+u+~ v+Y.w+#+x+H.y+z+2.A+  ",
"  B+r.C+9 D+E+h+F+G+X.H+I+J+$+B.i.K+L+M+N+O+P+    ",
"  $.Q+R+0 S+!.T+h+) , $+U+V+j.W+7 b.X+`.~+Y+Z+    ",
"    `+ @r .@3+!.T++@| @@@@ .3+{.1.#@$@%@&@P+      ",
"      *@=@w.-@O y+;@S+n.8 H.1.L+}.%@>@,@'@        ",
"        )@&@!@~@{@|.{.I.@+O o ]@^@p./@(@          ",
"          Q..@_@:@<@-@W U a ,.j 8+^.i             ",
"            [@}@|@o+1@p.:@M.C+2@Q.3@              ",
"                4@5@6@7@8@9@0@a@                  ",
"                                                  ",
"                                                  "};
