/* XPM */
static const char * summon_star_empty_xpm[] = {
"48 48 126 2",
"  	c None",
". 	c #E50000",
"+ 	c #A00000",
"@ 	c #D20000",
"# 	c #640000",
"$ 	c #E70000",
"% 	c #EE0000",
"& 	c #780000",
"* 	c #6A0000",
"= 	c #D30000",
"- 	c #EA0000",
"; 	c #A40000",
"> 	c #A50000",
", 	c #CB0000",
"' 	c #D00000",
") 	c #620000",
"! 	c #690000",
"~ 	c #E80000",
"{ 	c #860000",
"] 	c #950000",
"^ 	c #F00000",
"/ 	c #790000",
"( 	c #E60000",
"_ 	c #F40000",
": 	c #EF0000",
"< 	c #A30000",
"[ 	c #980000",
"} 	c #C80000",
"| 	c #660000",
"1 	c #920000",
"2 	c #AB0000",
"3 	c #ED0000",
"4 	c #610000",
"5 	c #EC0000",
"6 	c #B40000",
"7 	c #B30000",
"8 	c #E30000",
"9 	c #BA0000",
"0 	c #670000",
"a 	c #830000",
"b 	c #970000",
"c 	c #F10000",
"d 	c #9F0000",
"e 	c #D70000",
"f 	c #DC0000",
"g 	c #C60000",
"h 	c #E90000",
"i 	c #AE0000",
"j 	c #5A0000",
"k 	c #650000",
"l 	c #EB0000",
"m 	c #D40000",
"n 	c #B80000",
"o 	c #940000",
"p 	c #930000",
"q 	c #BF0000",
"r 	c #C90000",
"s 	c #C20000",
"t 	c #840000",
"u 	c #C00000",
"v 	c #960000",
"w 	c #A20000",
"x 	c #B50000",
"y 	c #7A0000",
"z 	c #6D0000",
"A 	c #A80000",
"B 	c #DB0000",
"C 	c #A10000",
"D 	c #A90000",
"E 	c #E40000",
"F 	c #680000",
"G 	c #710000",
"H 	c #DF0000",
"I 	c #AF0000",
"J 	c #B20000",
"K 	c #DD0000",
"L 	c #E20000",
"M 	c #D10000",
"N 	c #5E0000",
"O 	c #C30000",
"P 	c #C40000",
"Q 	c #7E0000",
"R 	c #C70000",
"S 	c #E00000",
"T 	c #8E0000",
"U 	c #600000",
"V 	c #B00000",
"W 	c #D60000",
"X 	c #CF0000",
"Y 	c #AC0000",
"Z 	c #7F0000",
"` 	c #9E0000",
" .	c #580000",
"..	c #B90000",
"+.	c #B10000",
"@.	c #570000",
"#.	c #7C0000",
"$.	c #F50000",
"%.	c #B70000",
"&.	c #900000",
"*.	c #8F0000",
"=.	c #820000",
"-.	c #990000",
";.	c #A70000",
">.	c #890000",
",.	c #750000",
"'.	c #AA0000",
").	c #D80000",
"!.	c #6E0000",
"~.	c #A60000",
"{.	c #730000",
"].	c #6B0000",
"^.	c #D90000",
"/.	c #BC0000",
"(.	c #CC0000",
"_.	c #F60000",
":.	c #810000",
"<.	c #AD0000",
"[.	c #F30000",
"}.	c #BD0000",
"|.	c #5F0000",
"1.	c #720000",
"2.	c #E10000",
"3.	c #9C0000",
"4.	c #8A0000",
"5.	c #700000",
"                                                                                                ",
"                                          . +                                                   ",
"                                          . @ #                                                 ",
"                                          $ % & *                                               ",
"                                        . = - ; * *                                             ",
"                                        . > , ' ) * !                                           ",
"                                        ~ { ] ^ / * *                                           ",
"                                      ( _     : < * * !                                         ",
"                                      ( [     ' } | * *                                         ",
"                                      . 1     2 3 4 * *                                         ",
"                                    ( 5         % 6 * *                                         ",
"                                    . 7         8 9 0 * *                                       ",
"                                    ( a         b c * * *                                       ",
"                                  . :             ^ d * !                                       ",
"                                  . e             f g 0 * !                                     ",
"                                  h [             i ( j k k                                     ",
"                                l }                 m n o p                                     ",
"  2 c ~ . l 3 5 5 5 5 5 5 5 5 5 q                     r ( . 3 5 5 5 5 5 3 5 h . h 3 s * !       ",
"    t u h v                                                                 w ~ x y z ! ! *     ",
"      | A h B C                                                         D E $ A F ! * * * * *   ",
"        | G D H I                                                     J K C 0 | * * * * ! * *   ",
"            # F m L n                                           a u 8 M 4 k ! * * * * * * * *   ",
"                N p O P p                                   Q R S q T U ! * * * * * ! *         ",
"                  ) 4 V W X t                             Y ' J { U k * * * * * * * *           ",
"                        Z + X 1                         O f ` 4 | * * * * ! * *                 ",
"                           .8 ..                        +.K @.* * * * ! ! * !                   ",
"                            l #.                          $.n * * * * * *                       ",
"                          ( %.                            &.( U * * *                           ",
"                          ~               *.=.              5 -.* !                             ",
"                        ( ;.            ] $ h >.            J S F *                             ",
"                      . ~             w E ,.Z $ b             . '.F !                           ",
"                      ( r           V ).!.F 0 & f ~.          C ~ {.*                           ",
"                      l           q } ].F * * 0 G , 7           ^./.| *                         ",
"                    ( A       Q (.%.F ! * * * ! F G _.u =.      T h :.*                         ",
"                  . 5       %.e ; 0 ! * * * ! * *     c @ <.      [.(.* !                       ",
"                  $ {     R s 1 F ! * * * ! *             ( }.    1 ( |.*                       ",
"                . (     W 9 1.! ! * * * * * !               . (.    ^ M ! *                     ",
"                $     2.I z ! ! * * * * *                     L ^.    ( | * !                   ",
"              ( H   ~ ~.! * * * * * * !                         h L   ( $ ! *                   ",
"              ( ~.h 3.0 * * * * * ! !                             l $   E & !                   ",
"            ( $ H p | * * * * * ! *                                 = h . c ! *                 ",
"            ( m 4.k * * * * * !                                         e . =.!                 ",
"          $ D t | * * * * * !                                             f (.].*               ",
"          -.4 | * * * * * *                                                 W 5.* *             ",
"            * * * * * * !                                                       * !             ",
"              * * ! * *                                                           ! !           ",
"                * *                                                                 *           ",
"                                                                                                "};
