/* XPM */
static const char * summon_xpm[] = {
"26 26 285 2",
"  	c None",
". 	c #010000",
"+ 	c #050000",
"@ 	c #070000",
"# 	c #080000",
"$ 	c #030000",
"% 	c #020000",
"& 	c #110000",
"* 	c #1C0000",
"= 	c #260001",
"- 	c #2C0002",
"; 	c #2E0001",
"> 	c #2D0002",
", 	c #1E0000",
"' 	c #140000",
") 	c #0C0000",
"! 	c #060000",
"~ 	c #130000",
"{ 	c #370002",
"] 	c #420003",
"^ 	c #490103",
"/ 	c #4F0102",
"( 	c #510103",
"_ 	c #500103",
": 	c #4E0103",
"< 	c #470003",
"[ 	c #3D0002",
"} 	c #290001",
"| 	c #1D0000",
"1 	c #0B0000",
"2 	c #210001",
"3 	c #3C0002",
"4 	c #4A0102",
"5 	c #510104",
"6 	c #540103",
"7 	c #590004",
"8 	c #6A0105",
"9 	c #6D0105",
"0 	c #6F0105",
"a 	c #700105",
"b 	c #6A0104",
"c 	c #5D0104",
"d 	c #3D0003",
"e 	c #2F0001",
"f 	c #600003",
"g 	c #810004",
"h 	c #7B0005",
"i 	c #660104",
"j 	c #5C0104",
"k 	c #630104",
"l 	c #690104",
"m 	c #750104",
"n 	c #7F0105",
"o 	c #8A0105",
"p 	c #790105",
"q 	c #560004",
"r 	c #550003",
"s 	c #0A0000",
"t 	c #300001",
"u 	c #710004",
"v 	c #B1020A",
"w 	c #CB050C",
"x 	c #B60007",
"y 	c #7C0105",
"z 	c #620103",
"A 	c #600104",
"B 	c #640104",
"C 	c #700104",
"D 	c #800105",
"E 	c #600103",
"F 	c #520103",
"G 	c #560103",
"H 	c #610104",
"I 	c #6E0004",
"J 	c #1D0001",
"K 	c #620003",
"L 	c #B00309",
"M 	c #D30A12",
"N 	c #DC0B13",
"O 	c #C8020A",
"P 	c #8B0005",
"Q 	c #6C0105",
"R 	c #760105",
"S 	c #480103",
"T 	c #5E0103",
"U 	c #8C0006",
"V 	c #5E0004",
"W 	c #170000",
"X 	c #0F0000",
"Y 	c #900005",
"Z 	c #CF070F",
"` 	c #DA0810",
" .	c #B90007",
"..	c #810005",
"+.	c #690105",
"@.	c #650105",
"#.	c #640105",
"$.	c #6C0104",
"%.	c #710104",
"&.	c #400102",
"*.	c #480104",
"=.	c #8C0106",
"-.	c #830006",
";.	c #390001",
">.	c #200000",
",.	c #530003",
"'.	c #AA0007",
").	c #DB0912",
"!.	c #D00209",
"~.	c #970005",
"{.	c #680105",
"].	c #590103",
"^.	c #530103",
"/.	c #530104",
"(.	c #420103",
"_.	c #580103",
":.	c #4D0103",
"<.	c #3E0103",
"[.	c #860104",
"}.	c #8F0107",
"|.	c #590003",
"1.	c #970006",
"2.	c #CB0108",
"3.	c #A80006",
"4.	c #550103",
"5.	c #4B0103",
"6.	c #460103",
"7.	c #400103",
"8.	c #2D0102",
"9.	c #0F0100",
"0.	c #1C0101",
"a.	c #860105",
"b.	c #8D0005",
"c.	c #220000",
"d.	c #390002",
"e.	c #860005",
"f.	c #920005",
"g.	c #750105",
"h.	c #570003",
"i.	c #3D0102",
"j.	c #320102",
"k.	c #280102",
"l.	c #220101",
"m.	c #100101",
"n.	c #200101",
"o.	c #540104",
"p.	c #6B0104",
"q.	c #8D0105",
"r.	c #810105",
"s.	c #1E0001",
"t.	c #410003",
"u.	c #650004",
"v.	c #670104",
"w.	c #580004",
"x.	c #360103",
"y.	c #270101",
"z.	c #1D0101",
"A.	c #110101",
"B.	c #1F0102",
"C.	c #340101",
"D.	c #4B0104",
"E.	c #550104",
"F.	c #620105",
"G.	c #840105",
"H.	c #2C0001",
"I.	c #460003",
"J.	c #580104",
"K.	c #590104",
"L.	c #4B0102",
"M.	c #350102",
"N.	c #240101",
"O.	c #160102",
"P.	c #0B0101",
"Q.	c #030100",
"R.	c #040100",
"S.	c #0F0101",
"T.	c #190102",
"U.	c #370102",
"V.	c #3F0102",
"W.	c #620104",
"X.	c #770105",
"Y.	c #840106",
"Z.	c #880105",
"`.	c #7D0005",
" +	c #330002",
".+	c #100000",
"++	c #4C0102",
"@+	c #5D0103",
"#+	c #500104",
"$+	c #3B0102",
"%+	c #290101",
"&+	c #130101",
"*+	c #0A0100",
"=+	c #060100",
"-+	c #050100",
";+	c #090100",
">+	c #190101",
",+	c #330101",
"'+	c #4C0104",
")+	c #730104",
"!+	c #820105",
"~+	c #4B0003",
"{+	c #660103",
"]+	c #410103",
"^+	c #320103",
"/+	c #1E0101",
"(+	c #150101",
"_+	c #0C0100",
":+	c #0E0101",
"<+	c #170101",
"[+	c #230102",
"}+	c #4C0103",
"|+	c #570104",
"1+	c #5A0104",
"2+	c #330103",
"3+	c #430002",
"4+	c #6E0104",
"5+	c #2C0102",
"6+	c #1C0102",
"7+	c #140101",
"8+	c #160101",
"9+	c #280101",
"0+	c #330102",
"a+	c #470103",
"b+	c #540003",
"c+	c #120001",
"d+	c #2D0001",
"e+	c #5B0103",
"f+	c #440103",
"g+	c #390102",
"h+	c #310103",
"i+	c #290102",
"j+	c #1F0101",
"k+	c #2E0102",
"l+	c #3D0103",
"m+	c #340002",
"n+	c #4E0002",
"o+	c #7D0106",
"p+	c #6A0004",
"q+	c #380102",
"r+	c #300103",
"s+	c #2C0101",
"t+	c #2A0102",
"u+	c #360102",
"v+	c #3C0102",
"w+	c #410102",
"x+	c #830005",
"y+	c #1F0001",
"z+	c #2A0001",
"A+	c #6B0004",
"B+	c #470104",
"C+	c #950106",
"D+	c #7B0104",
"E+	c #7C0104",
"F+	c #860006",
"G+	c #560104",
"H+	c #5C0103",
"I+	c #680104",
"J+	c #940005",
"K+	c #9C0007",
"L+	c #790005",
"M+	c #410002",
"N+	c #8A0106",
"O+	c #870105",
"P+	c #7D0104",
"Q+	c #650103",
"R+	c #930106",
"S+	c #310001",
"T+	c #400002",
"U+	c #670004",
"V+	c #870005",
"W+	c #6E0005",
"X+	c #5F0104",
"Y+	c #4A0003",
"Z+	c #280001",
"`+	c #450002",
" @	c #5F0003",
".@	c #700005",
"+@	c #7D0105",
"@@	c #850105",
"#@	c #750005",
"$@	c #230000",
"%@	c #2A0000",
"&@	c #360001",
"*@	c #140001",
"                . + + @ # @ # $                     ",
"            % # & * = - ; > = , ' )                 ",
"          ! ~ = { ] ^ / ( _ : < [ } |               ",
"        1 2 3 4 5 6 7 8 9 0 a b c ( d =             ",
"      ) e f g h i j c k l m n o p c q r ;           ",
"    s t u v w x y z A B i C p D E F G H I -         ",
"  + J K L M N O P a 9 C Q C R R ( S _ T U V W       ",
"  X 3 Y Z N `  ...Q +.@.#.+.$.%.A &.*.F =.-.;.      ",
"% >.,.'.).N !.~.{.c ].^./.(.j _.( :.<.:.[.}.|.)     ",
"1 e _.1.2.!.3.a 4.5.6.7.8.9.0.j 6 a l C a.b.a c.    ",
"1 d.6 Q e.f.g.h.6.i.j.k.l.m.n.o.z p.m y a.q.r.s.    ",
"& t.F 6 u.v.w.^ x.y.z.A.A.B.C.D.E.F.C y G.=.a.H.    ",
"~ I.F J.A K.L.M.N.O.P.Q.R.S.T.y.U.V.W.X.Y.Z.`. +    ",
".+++V W.@+#+$+%+0.&+*+=+-+;+A.>+N.,+'+)+!+%.u -     ",
"~ ~+{+v._.]+^+y./+(+9._+_+:+<+[+j.V.}+|+1+6 u.2+    ",
"@ 3+0 4+o.V.M.5+l.6+O.7+8+z.9+0+V.5.G G a+_ b+c+    ",
"  d+0 g.e+f+g+h+i+N.j+n.k.k+M.l+6.( j j : b m+      ",
"  W n+o+p+:.V.q+r+s+t+u+g+v+w+a+_ _.k y x+{+y+      ",
"    z+A+D i :.V.g+0+i.a+B+S }+F ].i C+C+D+m+        ",
"      M.E+F+E+W.6.$+:.6 6 G+_.H+I+J+K+L+&.          ",
"        M+D+N+O+P+c ^.H H W.Q+g.R+a.h.S+            ",
"          T+U+..V+O+h a a W+Q X+Y+{ ;               ",
"            Z+`+ @.@+@@@O+G.#@ @T+$@                ",
"                .+%@= ; S+; &@*@                    ",
"                                                    ",
"                                                    "};
