/* XPM */
static const char * support_xpm[] = {
"26 26 331 2",
"  	c None",
". 	c #000004",
"+ 	c #000105",
"@ 	c #000108",
"# 	c #000209",
"$ 	c #000208",
"% 	c #000513",
"& 	c #000B22",
"* 	c #00102E",
"= 	c #011435",
"- 	c #01143A",
"; 	c #001337",
"> 	c #01102E",
", 	c #000C22",
"' 	c #000919",
") 	c #000716",
"! 	c #000F2E",
"~ 	c #001944",
"{ 	c #001E53",
"] 	c #00215E",
"^ 	c #002768",
"/ 	c #00276D",
"( 	c #00276C",
"_ 	c #002668",
": 	c #00215D",
"< 	c #011A4A",
"[ 	c #001132",
"} 	c #010C24",
"| 	c #00040E",
"1 	c #000E29",
"2 	c #001B4C",
"3 	c #002362",
"4 	c #002769",
"5 	c #012B74",
"6 	c #003084",
"7 	c #003289",
"8 	c #01338E",
"9 	c #003591",
"0 	c #00338A",
"a 	c #012E7C",
"b 	c #012667",
"c 	c #001C4E",
"d 	c #011234",
"e 	c #000511",
"f 	c #00153C",
"g 	c #002D7C",
"h 	c #003DA8",
"i 	c #003AA0",
"j 	c #003085",
"k 	c #002B76",
"l 	c #012C79",
"m 	c #012F82",
"n 	c #013388",
"o 	c #003797",
"p 	c #013DA6",
"q 	c #013FAD",
"r 	c #003897",
"s 	c #012D7A",
"t 	c #01286C",
"u 	c #012669",
"v 	c #01163F",
"w 	c #00040F",
"x 	c #00143B",
"y 	c #003592",
"z 	c #0055DF",
"A 	c #0063F7",
"B 	c #0055E0",
"C 	c #003BA4",
"D 	c #003082",
"E 	c #002D7D",
"F 	c #013184",
"G 	c #013591",
"H 	c #013BA0",
"I 	c #013BA2",
"J 	c #012F81",
"K 	c #012769",
"L 	c #012870",
"M 	c #012D7F",
"N 	c #01153C",
"O 	c #000C26",
"P 	c #002E80",
"Q 	c #026EFF",
"R 	c #0273FF",
"S 	c #0061F3",
"T 	c #0042B8",
"U 	c #003590",
"V 	c #01348B",
"W 	c #00348D",
"X 	c #013289",
"Y 	c #01348F",
"Z 	c #013999",
"` 	c #013795",
" .	c #01205B",
"..	c #012567",
"+.	c #012D7E",
"@.	c #003FAB",
"#.	c #01276B",
"$.	c #000512",
"%.	c #0045B9",
"&.	c #0169FB",
"*.	c #0574FE",
"=.	c #026FFE",
"-.	c #0058E5",
";.	c #003EA9",
">.	c #013285",
",.	c #013187",
"'.	c #01338C",
").	c #012D78",
"!.	c #011F54",
"~.	c #01215A",
"{.	c #01286E",
"].	c #0140AE",
"^.	c #003CA3",
"/.	c #00173F",
"(.	c #010D25",
"_.	c #002870",
":.	c #0050D3",
"<.	c #0271FF",
"[.	c #0474FF",
"}.	c #0064FA",
"|.	c #0047C2",
"1.	c #003288",
"2.	c #002D78",
"3.	c #002A72",
"4.	c #01276C",
"5.	c #012568",
"6.	c #011F55",
"7.	c #012668",
"8.	c #012A72",
"9.	c #012157",
"0.	c #01286D",
"a.	c #013EA8",
"b.	c #0046BE",
"c.	c #002564",
"d.	c #00030A",
"e.	c #00153A",
"f.	c #0047BE",
"g.	c #005FEF",
"h.	c #0062F5",
"i.	c #004FD4",
"j.	c #003693",
"k.	c #00296E",
"l.	c #002463",
"m.	c #00215B",
"n.	c #011E54",
"o.	c #01173F",
"p.	c #010919",
"q.	c #011233",
"r.	c #012464",
"s.	c #012B75",
"t.	c #013185",
"u.	c #013590",
"v.	c #003EAB",
"w.	c #0146BD",
"x.	c #000B1F",
"y.	c #00050E",
"z.	c #001B4A",
"A.	c #00286D",
"B.	c #00338C",
"C.	c #003FAC",
"D.	c #0044B9",
"E.	c #002971",
"F.	c #00205B",
"G.	c #001C4F",
"H.	c #011942",
"I.	c #001235",
"J.	c #011030",
"K.	c #010818",
"L.	c #011231",
"M.	c #012566",
"N.	c #01338A",
"O.	c #013695",
"P.	c #013AA1",
"Q.	c #013FAC",
"R.	c #003EA7",
"S.	c #000E25",
"T.	c #010714",
"U.	c #001F55",
"V.	c #00286E",
"W.	c #002F80",
"X.	c #003186",
"Y.	c #002A71",
"Z.	c #00225D",
"`.	c #011A46",
" +	c #001234",
".+	c #000C25",
"++	c #010918",
"@+	c #010716",
"#+	c #010E2A",
"$+	c #011945",
"%+	c #01225E",
"&+	c #012F7E",
"*+	c #013BA1",
"=+	c #0044B7",
"-+	c #001336",
";+	c #000815",
">+	c #01205A",
",+	c #01276D",
"'+	c #012A71",
")+	c #002E7B",
"!+	c #002B75",
"~+	c #012260",
"{+	c #011846",
"]+	c #00102F",
"^+	c #010A1E",
"/+	c #010611",
"(+	c #010309",
"_+	c #010715",
":+	c #011235",
"<+	c #011947",
"[+	c #011F56",
"}+	c #01389A",
"|+	c #013EAA",
"1+	c #003FAE",
"2+	c #013DA7",
"3+	c #001640",
"4+	c #010612",
"5+	c #01225F",
"6+	c #012F7F",
"7+	c #011B4E",
"8+	c #011336",
"9+	c #010D26",
"0+	c #01091A",
"a+	c #010510",
"b+	c #01020A",
"c+	c #010209",
"d+	c #01050F",
"e+	c #010717",
"f+	c #010B24",
"g+	c #011131",
"h+	c #011743",
"i+	c #013592",
"j+	c #013CA4",
"k+	c #003695",
"l+	c #003999",
"m+	c #00153B",
"n+	c #010511",
"o+	c #01215D",
"p+	c #01328A",
"q+	c #013083",
"r+	c #011742",
"s+	c #011334",
"t+	c #010D28",
"u+	c #01091D",
"v+	c #010817",
"w+	c #010512",
"x+	c #010A20",
"y+	c #01102D",
"z+	c #01163D",
"A+	c #011D4E",
"B+	c #012462",
"C+	c #012B77",
"D+	c #002C77",
"E+	c #012C78",
"F+	c #011B4A",
"G+	c #013794",
"H+	c #01348C",
"I+	c #01296E",
"J+	c #011E52",
"K+	c #011844",
"L+	c #011539",
"M+	c #01091C",
"N+	c #010D27",
"O+	c #011842",
"P+	c #012360",
"Q+	c #01296F",
"R+	c #01215C",
"S+	c #002360",
"T+	c #011333",
"U+	c #013288",
"V+	c #013899",
"W+	c #012058",
"X+	c #011B4B",
"Y+	c #011741",
"Z+	c #011437",
"`+	c #01112F",
" @	c #010E29",
".@	c #010F2B",
"+@	c #011335",
"@@	c #011946",
"#@	c #011D4F",
"$@	c #01225C",
"%@	c #012C76",
"&@	c #012B76",
"*@	c #002B78",
"=@	c #001742",
"-@	c #01225D",
";@	c #01399C",
">@	c #011A48",
",@	c #011841",
"'@	c #011438",
")@	c #011439",
"!@	c #011C4B",
"~@	c #011C4D",
"{@	c #012971",
"]@	c #013A9D",
"^@	c #003DA5",
"/@	c #01153A",
"(@	c #01318A",
"_@	c #011A49",
":@	c #011D51",
"<@	c #01215B",
"[@	c #01266A",
"}@	c #0143B8",
"|@	c #0146C0",
"1@	c #013694",
"2@	c #011C4C",
"3@	c #013898",
"4@	c #01399E",
"5@	c #012E80",
"6@	c #011C4F",
"7@	c #012564",
"8@	c #01348E",
"9@	c #0144BA",
"0@	c #0149C6",
"a@	c #0142B3",
"b@	c #0140AF",
"c@	c #012B78",
"d@	c #012E7E",
"e@	c #01348D",
"f@	c #013CA6",
"g@	c #013CA3",
"h@	c #0142B2",
"i@	c #013B9E",
"j@	c #013A9E",
"k@	c #01338B",
"l@	c #011D50",
"m@	c #013FAB",
"n@	c #013FAA",
"o@	c #013692",
"p@	c #011130",
"                  . + @ # $ $                       ",
"              # % & * = - ; > , '                   ",
"          $ ) ! ~ { ] ^ / ( _ : < [ }               ",
"        | 1 2 3 4 ( 5 6 7 8 9 0 a b c d             ",
"      e f g h i j k l m n o p q r s t u v           ",
"    w x y z A B C D E m F G H I J K L J M N         ",
"    O P B Q R S T U V W X Y Z ` t  ...+.@.#.        ",
"  $.c %.&.*.=.-.;.W >.D m ,.'.G ).!.~.{.].^./.      ",
"  (._.:.<.[.}.|.1.2.3.4.5.6.7.8.#.t 9.0.a.b.c.      ",
"d.e.k f.g.h.i.j.k.l.m.n.o.p.q.r.s.'.t.u.v.w.W x.    ",
"y.z.A.B.C.D.r E.F.G.H.I.J.K.L.M.a N.O.P.Q.D.R.S.    ",
"T.U._ V.W.X.Y.Z.`. +.+++@+#+$+%+0.&+u.*+Q.=+].-+    ",
";+>+,+'+)+!+~+{+]+^+/+. (+_+} :+<+[+s }+|+1+2+3+    ",
"4+5+a 6+l ..7+8+9+0+a+b+c+d+e+f+g+h+..i+j+k+l+m+    ",
"n+o+p+q+'+[+r+s+t+u+v+4+w+@+x+y+z+A+B+C+D+E+D  +    ",
"  F+G+H+I+J+K+L+> 9+x+M+^+N+d O+J+P+Q+#.R+3.S+      ",
"  T+U+V+s.W+X+Y+Z+`+ @.@+@z+@@#@$@u s.%@&@*@=@      ",
"    -@;@N.b #@>@,@'@)@@@!@~@n.-@M.{@X ]@^@{.        ",
"    /@J j+(@7.J+_@K+:@<@-@%+r.[@'+H+}@|@1@~@        ",
"      2@3@q 4@5@%+6@7@t 0.{.8.l 8@9@0@3@[+          ",
"        W+O.a@b@}+c@5 s l l d@e@f@g@%@<+            ",
"          :@E+j+h@Q.I ]@i@j@}+k@8.l@Z+              ",
"              ~@L 8@i@m@n@g@o@{@2@                  ",
"                   @p@8+N N 8+                      ",
"                                                    ",
"                                                    "};
