/* XPM */
static const char * support_star_empty_xpm[] = {
"48 48 119 2",
"  	c None",
". 	c #0061BC",
"+ 	c #004B8E",
"@ 	c #005BB0",
"# 	c #003766",
"$ 	c #0062BE",
"% 	c #0064C2",
"& 	c #003D73",
"* 	c #00396A",
"= 	c #0061BD",
"- 	c #005CB1",
"; 	c #0063BF",
"> 	c #004C91",
", 	c #004C92",
"' 	c #0059AB",
") 	c #005AAE",
"! 	c #003665",
"~ 	c #003969",
"{ 	c #004787",
"] 	c #0065C3",
"^ 	c #003E74",
"/ 	c #00386A",
"( 	c #0062BD",
"_ 	c #0066C6",
": 	c #004C90",
"< 	c #003869",
"[ 	c #004889",
"} 	c #005BAE",
"| 	c #0058A9",
"1 	c #003767",
"2 	c #004684",
"3 	c #004E96",
"4 	c #0064C1",
"5 	c #003663",
"6 	c #00519B",
"7 	c #0061BB",
"8 	c #00539F",
"9 	c #003868",
"0 	c #004888",
"a 	c #0065C4",
"b 	c #0062BC",
"c 	c #004A8D",
"d 	c #005DB3",
"e 	c #005FB6",
"f 	c #0057A7",
"g 	c #004F98",
"h 	c #00335F",
"i 	c #0063C0",
"j 	c #00539E",
"k 	c #004786",
"l 	c #004F96",
"m 	c #0063C1",
"n 	c #0055A3",
"o 	c #0058AA",
"p 	c #0056A5",
"q 	c #00427C",
"r 	c #0055A4",
"s 	c #00529C",
"t 	c #003E75",
"u 	c #003A6C",
"v 	c #004E94",
"w 	c #005EB6",
"x 	c #004B8F",
"y 	c #003B6E",
"z 	c #004E95",
"A 	c #005FB8",
"B 	c #005099",
"C 	c #00519A",
"D 	c #005FB7",
"E 	c #0060BA",
"F 	c #005BAF",
"G 	c #003664",
"H 	c #003562",
"I 	c #0057A6",
"J 	c #004685",
"K 	c #0058A8",
"L 	c #0060B9",
"M 	c #004582",
"N 	c #003563",
"O 	c #005DB2",
"P 	c #003D72",
"Q 	c #00427D",
"R 	c #004078",
"S 	c #004A8E",
"T 	c #00335E",
"U 	c #00509A",
"V 	c #00325D",
"W 	c #0067C7",
"X 	c #00529E",
"Y 	c #004583",
"Z 	c #004380",
"` 	c #00498A",
" .	c #004D93",
"..	c #004482",
"+.	c #003C71",
"@.	c #003A6D",
"#.	c #004D92",
"$.	c #003C70",
"%.	c #003B6F",
"&.	c #005EB4",
"*.	c #0054A1",
"=.	c #0059AC",
"-.	c #00529D",
";.	c #0067C8",
">.	c #00417A",
",.	c #0067C9",
"'.	c #004F97",
").	c #0066C5",
"!.	c #004481",
"~.	c #0057A8",
"{.	c #005CB2",
"].	c #0054A0",
"^.	c #005DB4",
"/.	c #0060B8",
"(.	c #004A8C",
"_.	c #0060BB",
":.	c #004785",
"<.	c #00447F",
"[.	c #00396B",
"                                                                                                ",
"                                          . +                                                   ",
"                                          . @ #                                                 ",
"                                          $ % & *                                               ",
"                                        = - ; > * *                                             ",
"                                        . , ' ) ! * ~                                           ",
"                                        $   { ] ^ * /                                           ",
"                                      ( _     ] : * * <                                         ",
"                                      ( [     } | 1 / *                                         ",
"                                      . 2     3 4 5 * *                                         ",
"                                    ( 4         % 6 * *                                         ",
"                                    . 6         7 8 9 * /                                       ",
"                                    (           0 a * * *                                       ",
"                                  b %             ] c * <                                       ",
"                                  b d             e f 9 * ~                                     ",
"                                  ; [             g ( h # #                                     ",
"                                i |                 - j { k                                     ",
"  l a $ . i % m m m m m m m m m n                     o ( ( m m m m m m % m $ . ; 4 p * <       ",
"    q r ; 0                                                                 : $ s t u < ~ *     ",
"      1 v ; w x                                                         v . $ v 9 < * * * / *   ",
"        1 y z A B                                                     C D x 9 1 * * * * < * /   ",
"            # 9 - E 8                                             r 7 F G # < * * * * * / / *   ",
"                H k p I J                                     K L n M N < * * * * * < *         ",
"                  G G B O ) P                             l } C Q N 1 * * * * * * * *           ",
"                        R S ) J                         p w c G 1 * * * * ~ * *                 ",
"                          T 7 8                         U D V * * * * ~ < * <                   ",
"                            i                             W X * * * * * *                       ",
"                          ( j                             Y ( N * * *                           ",
"                          $               Y Z               m ` * <                             ",
"                        (  .            { ( ; ..            6 L < *                             ",
"                      . $             x 7 +.R ( 0             . z < <                           ",
"                      ( o           B d @.< 9 & w #.          x $ $.*                           ",
"                      i           n | * < * * 9 %.' 6           &.*.1 *                         ",
"                    (  .        =.-.< < * * * < 9 %.;.n Z       M ; >.*                         ",
"                  . 4       X d > 9 < * * * < / /     ,.F '.      ).=.* ~                       ",
"                  ( !.    ~.p J 9 < * * * < *             = *.    J ( N *                       ",
"                . (     {.].%.< < * * * * * ~               . '     a F < *                     ",
"                (     E B u < < * * * * *                     E ^.    ( 1 * ~                   ",
"              ( /.  $ #.< * * * * * * ~                         ; E   ( $ < *                   ",
"              (  .; (.9 * * * * * < <                             i (   _.& <                   ",
"            ( ( A :.1 * * * * * < *                                 @ $ . a < *                 ",
"            ( - <.1 * * * * * <                                         d . >.<                 ",
"          $ v q 1 * * * * * <                                             D =.[.*               ",
"          [ G 1 * * * * * *                                                 - y * *             ",
"            * / * * / * <                                                       * <             ",
"              * * < * *                                                           < <           ",
"                / *                                                                 *           ",
"                                                                                                "};
