/* XPM */
static const char * circle_button_xpm[] = {
"32 32 9 1",
" 	c None",
".	c #2D2B2E",
"+	c #432E32",
"@	c #3B393C",
"#	c #63353D",
"$	c #7F3B48",
"%	c #9A4053",
"&	c #AD4557",
"*	c #B8455D",
"            ........            ",
"         ..............         ",
"       ..................       ",
"      ....................      ",
"     ......................     ",
"    ........#$&*&&$#........    ",
"   .......$&********&$.......   ",
"  ......+%************%+.....@  ",
"  .....+&***%#+..+#%***&+.....  ",
" ......%***#........#***%.....@ ",
" .....$***#..........#***$..... ",
" .....&**#............#**&..... ",
".....#**%..............%**#.....",
".....$**#..............#**$....@",
".....&**+..............+**&....@",
".....&**................**&.....",
".....&**................**&.....",
".....&**+..............+**&....@",
".....$**#..............#**$....@",
".....#**%..............%**#.....",
" .....&**#............#**&..... ",
" .....$***#..........#***$..... ",
" ......%***#........#***%.....@ ",
"  .....+&***%#+..+#%***&+.....  ",
"  ......+%************%+.....@  ",
"   .......$&********&$.......   ",
"    ........#$&*&&$#........    ",
"     ......................     ",
"      ....................      ",
"       @................@       ",
"         @............@         ",
"            .@@...@.            "};
