/* XPM */
static const char * left_button_xpm[] = {
"32 32 9 1",
" 	c None",
".	c #000100",
"+	c #030601",
"@	c #0B0A07",
"#	c #0D0F0B",
"$	c #110E13",
"%	c #1D1D1E",
"&	c #292A28",
"*	c #2C2B2E",
"                                ",
"                                ",
" ++++++++++++++++++++           ",
" +++++++++++++++++++++          ",
" ++################$+++         ",
" ++*****************%+++        ",
" ++******************#+++       ",
" ++*******************$+++      ",
" ++********************@++      ",
" ++*********************+++     ",
" ++*********************%+++    ",
" ++*********************&$.++   ",
" ++***********************$++   ",
" ++***********************%@++  ",
" ++************************%+++ ",
" ++*************************%++ ",
" ++*************************%++ ",
" ++************************%+++ ",
" ++************************@++  ",
" ++***********************$++   ",
" ++*********************&$.++   ",
" ++*********************%+++    ",
" ++********************%+++     ",
" ++*******************%@++      ",
" ++*******************$+++      ",
" ++*****************&#+++       ",
" ++*****************%+++        ",
" ++################$+++         ",
" +++++++++++++++++++++          ",
" +++++++++++++++++++++          ",
"                                ",
"                                "};
