/* XPM */
static const char * square_button_xpm[] = {
"32 32 3 1",
" 	c None",
".	c #2C2B2C",
"+	c #FF57FF",
"          ............          ",
"        ................        ",
"       ..................       ",
"     ......................     ",
"    ........................    ",
"   ..........................   ",
"   ..++++++++++++++++++++++..   ",
"  ...++++++++++++++++++++++...  ",
" ....++..................++.... ",
" ....++..................++.... ",
".....++..................++.... ",
".....++..................++.....",
".....++..................++.....",
".....++..................++.....",
".....++..................++.....",
".....++..................++.....",
".....++..................++.....",
".....++..................++.....",
".....++..................++.....",
".....++..................++.....",
".....++..................++.....",
".....++..................++.... ",
" ....++..................++.... ",
" ....++..................++.... ",
"  ...++++++++++++++++++++++...  ",
"   ..++++++++++++++++++++++..   ",
"   ..........................   ",
"    ........................    ",
"     ......................     ",
"       ..................       ",
"        ................        ",
"           ..........           "};
