/* XPM */
static const char * triangle_button_xpm[] = {
"32 32 9 1",
" 	c None",
".	c #2D2B2E",
"+	c #27443C",
"@	c #225348",
"#	c #12846B",
"$	c #179676",
"%	c #0EBA8F",
"&	c #00D3A2",
"*	c #00ECB3",
"            ........            ",
"         .....@$#+.....         ",
"       .......$**$.......       ",
"      .......+&**%+.......      ",
"     ........#&**&#........     ",
"    ........+%&%&&%+........    ",
"   .........#&&##&&#.........   ",
"  .........+%&%++%&%+.........  ",
"  .........#&&#..#&&#.........  ",
" .........+%&%+..+%&%+......... ",
" .........#&&#....#&&#......... ",
" ........+%&%+....+%&%+........ ",
".........#&&#......#&&#.........",
"........+%&%+......+%&%+........",
"........#&&#........#&&#........",
".......+%&%@........+%&%+.......",
".......#&&$..........#&&#.......",
"......+%&%@..........+%&%+......",
"......#&&$............#&&#......",
".....+%&%@............+%&%+.....",
" ....#&&$..............#&&#.... ",
" ...+%&%@..............+%&%+... ",
" ...$**&%%%%%%%%%%%%%%%%&**%... ",
"  ..%***&&&&&&&&&&&&&&&&****..  ",
"  ..#&&&&&&&&&&&&&&&&&&&&**%..  ",
"   ..+@@@@@@@@@@@@@@@@@@@@@+.   ",
"    ........................    ",
"     ......................     ",
"      ....................      ",
"       ..................       ",
"         ..............         ",
"            ........            "};
