<?xml version="1.0" encoding="UTF-8"?>
<svg width="48px" height="48px" version="1.1" xmlns="http://www.w3.org/2000/svg" xmlns:xlink="http://www.w3.org/1999/xlink">
 <defs>
  <linearGradient id="linearGradient4975" x1="34.893" x2="45.919" y1="36.423" y2="48.548" gradientTransform="translate(-18.018 -13.571)" gradientUnits="userSpaceOnUse">
   <stop stop-color="#729fcf" offset="0"/>
   <stop stop-color="#5187d6" offset="1"/>
  </linearGradient>
  <linearGradient id="linearGradient7922" x1="16.875" x2="27.901" y1="22.852" y2="34.977" gradientUnits="userSpaceOnUse">
   <stop stop-color="#fff" offset="0"/>
   <stop stop-color="#fff" stop-opacity=".34021" offset="1"/>
  </linearGradient>
  <radialGradient id="radialGradient2097" cx="23.071" cy="35.127" r="10.319" gradientTransform="matrix(.91481 .01265 -.008215 .21356 2.2539 27.189)" gradientUnits="userSpaceOnUse">
   <stop offset="0"/>
   <stop stop-opacity="0" offset="1"/>
  </radialGradient>
 </defs>
 <g>
  <ellipse transform="matrix(1.5505 0 0 1.9787 -12.481 -32.491)" cx="22.959" cy="34.941" rx="10.319" ry="2.3202" fill="url(#radialGradient2097)" opacity=".10825"/>
  <path d="m27.514 37.543v-9.027l9.9785-0.04018v-6.9953h-9.9695l-0.0089-9.9602-7.0163 0.01116 0.0045 9.9312-9.9896 0.07366-0.03571 6.9685 10.034-0.02902 0.0067 9.0404z" fill="#75a1d0" stroke="#3465a4" stroke-width="1px"/>
  <path d="m26.499 36.534v-9.0342h10.003l-0.0067-5.0244h-9.987v-9.995l-4.9948 0.01786 0.0089 9.9771-10.026 0.01786-0.02679 4.9731 10.064 0.0089-0.01339 9.0275z" fill="url(#linearGradient4975)" opacity=".4086" stroke="url(#linearGradient7922)" stroke-width="1px"/>
  <path d="m11 25c0 1.9375 25.984-0.96875 25.984-0.03125v-3l-9.9844 0.03125v-9.9652h-6v9.9652h-10z" fill="#fff" fill-rule="evenodd" opacity=".31183"/>
 </g>
</svg>
