<?xml version="1.0" encoding="UTF-8"?>
<svg width="163.84" height="163.84" version="1.1" viewBox="0 0 163.84 163.84" xmlns="http://www.w3.org/2000/svg" xmlns:xlink="http://www.w3.org/1999/xlink">
 <defs>
  <linearGradient id="linearGradient2993" x1="-14.558" x2="-13.729" y1="217.07" y2="216.4" gradientUnits="userSpaceOnUse">
   <stop stop-color="#505050" offset="0"/>
   <stop stop-color="#282828" offset="1"/>
  </linearGradient>
 </defs>
 <g transform="translate(1.8899 9.3453)">
  <ellipse transform="matrix(.70391 -.71029 .69146 .72242 0 0)" cx="-8.0144" cy="98.206" rx="7.7603" ry="10.426" fill="#fff" fill-opacity=".98782"/>
  <ellipse transform="rotate(-30.701)" cx="9.5384" cy="98.211" rx="3.8124" ry="6.5982" fill="#c29fa0" fill-opacity=".99732" stroke="#1112b2" stroke-linecap="square" stroke-linejoin="round" stroke-width="4.8"/>
  <path d="m53.428 88.52c-1.3515-0.10587-3.153-0.59248-3.1957-2.2479-0.33567-2.063-0.40078-4.1784-0.24566-6.2598 0.40188-2.9297 1.2894-5.7935 2.4912-8.4917 0.99112-2.1105 2.4016-4.1165 4.419-5.3542 1.4268-0.42749 2.9607-0.28404 4.4167-0.11803 1.91 0.44911 3.6155 1.5083 5.2266 2.5884 2.3802 1.8327 4.4352 4.1333 5.9159 6.7499 0.8498 1.662 1.2743 3.5704 1.0714 5.4306 0.37015 0.98977 1.2244 2.4063-0.36701 2.7723-1.2503 0.92195-2.8244 1.0998-4.1344 1.8773-2.2359 1.3105-4.3844 3.1299-7.0957 3.2422-2.828 0.27384-5.6843 0.12644-8.5021-0.18914zm9.8118-3.3311c4.8962-1.1606 8.1108-1.4011 7.0597-5.6-0.13615-2.5828-1.3427-5.0756-3.3529-6.7164-1.2249-1.0093-2.5884-1.8611-3.6374-3.0688-1.2603-0.92935-2.736-1.5557-4.2051-2.0762-1.438-0.61749-3.1494 0.38164-3.2556 1.9532-0.20496 1.044 1.3708 2.001 0.02277 2.7735-1.1894 0.49975-2.7688 1.5725-2.0049 3.064 0.67497 0.86434 1.9419 0.11424 2.8503 0.60679 2.9526 0.85753 5.163 3.9536 4.7625 7.0476-0.01675 0.89081-0.29273 1.8209-0.1124 2.6884 0.5471 0.64944 1.5349-0.18338 1.873-0.67204z" stroke="#000" stroke-width=".12"/>
  <ellipse transform="matrix(.84315 -.53767 .56163 .82739 0 0)" cx="1.4468" cy="99.06" rx="5.116" ry="6.142" fill="#000096" fill-opacity=".7199" opacity=".6996"/>
  <ellipse cx="53.694" cy="84.994" rx="1.1789" ry="1.4863" fill-opacity=".98782"/>
 </g>
 <g>
  <path d="m54.83 140.89c0.12558-0.76703 0.01564-1.183-0.44755-1.6935-0.55526-0.61201-0.94964-0.67676-4.1219-0.67676-1.9293 0-4.1353 0.15988-4.9023 0.35528-6.4155 1.6346-10.455 3.4908-14.632 6.7239-2.4339 1.8839-6.472 6.2099-8.2968 8.8883-1.7904 2.6279-2.4019 2.6899-4.149 0.42079-4.4614-5.7947-7.7911-14.831-9.0105-24.453-0.61295-4.8366 0.022956-16.845 1.3154-24.838 0.42747-2.6439 0.80535-4.7512 1.0412-5.8064 0.1388-0.62096 0.41001-1.8548 0.60268-2.7419 0.42762-1.9688 2.1992-7.9672 2.8104-9.516 1.3462-3.411 4.7416-10.508 6.1244-12.801 1.3947-2.3126 5.0363-5.7449 5.4104-6.231 1.112-1.4453 0.70169-0.72643 1.293-1.6143 3.6665 0.49726 0.9806 0.18689 3.6665 0.49726 0.19542 0.25953 0.72348 0.47188 1.1734 0.47188 1.7266 0 6.1199 2.9384 9.1739 6.1358 2.5645 2.6849 4.186 6.0423 6.2284 12.896 2.1279 7.1408 3.3018 9.4143 7.3003 14.139 2.9123 3.4413 6.4969 6.4247 12.855 10.699 1.62 1.0891 2.949 2.4067 5.6575 5.6092l1.2773 1.5102-0.12296 2.1284c-0.13967 2.4175-0.78591 3.3326-2.3535 3.3326-0.70667 0-1.3568 0.51144-3.2801 2.5806-1.3193 1.4193-2.4849 2.5806-2.5902 2.5806-0.4499 0-3.9706 3.3618-3.8137 3.6416 0.42748 0.76232-8.3015 8.32-8.2099 7.7608z" fill="#d2953a" stroke="#000" stroke-width="4.8009"/>
  <path d="m33.077 91.825c-0.79678-0.52147-0.49788-2.1907 0.64467-3.6002 0.65651-0.80991 2.1847-0.8754 2.7933-0.1197 0.6237 0.77441 0.52132 2.141-0.23617 3.1526-0.54099 0.72244-0.83744 0.87277-1.707 0.86563-0.57876-0.0047-1.2514-0.13898-1.4948-0.29828z" opacity=".64168"/>
  <path d="m25.516 66.457c0.64655-0.88077 0.96008-1.2657 0.98953-1.8406 0.21548-4.2061 1.339-12.55 2.1588-16.031 0.86146-3.6587 1.1873-3.879 6.1433-4.1538l4-0.2218 2.9402-3.1444h6.9509c9.1459 0 9.6539 0.27741 6.2608 3.4188-2.8205 2.6113-4.0672 4.5697-2.3431 3.6807 0.32514-0.16766 1.0232-0.48244 1.5512-0.69951s1.21-0.52187 1.5156-0.67733c0.30562-0.15547 0.83712-0.28267 1.1811-0.28267s0.70462-0.12809 0.80137-0.28464c0.0968-0.15655 0.64526-0.35916 1.2189-0.45023 0.57363-0.09107 1.619-0.32506 2.323-0.51999 4.5704-1.2655 9.8489-2.0931 16.32-2.5589 4.5682-0.32884 6.4306-1.0249 13.76-5.1427 4.9075-2.7572 16.961-11.583 22.532-16.499 0.8073-0.7123 1.9718-1.7017 2.5878-2.1986s2.8307-2.5062 4.9215-4.4649c4.3608-4.0853 4.7256-4.3346 6.3653-4.35 2.2536-0.02117 2.2877 1.7223 0.22219 11.349-0.15106 0.704-0.36123 1.712-0.46705 2.24-0.10581 0.528-0.34144 1.536-0.5236 2.24s-0.48003 1.856-0.66191 2.56c-0.61493 2.3801-0.99436 3.1968-1.9697 4.24-0.5348 0.572-1.0903 1.04-1.2345 1.04-0.52643 0-3.8307 2.3805-3.4708 2.5005 0.40923 0.13641 2.8792-0.7156 4.5742-1.5778 0.30561-0.15547 0.83711-0.28267 1.1811-0.28267s0.71446-0.144 0.82323-0.32 0.41223-0.32 0.67434-0.32c0.26212 0 1.0727-0.288 1.8012-0.64 0.72856-0.352 1.4432-0.64 1.588-0.64s0.94581-0.30476 1.7799-0.67724c0.83408-0.37248 1.9485-0.8594 2.4765-1.082 4.2325-1.7847 5.307-2.2851 12.32-5.7371 5.986-2.9465 10.04-5.071 10.72-5.6181 0.90646-0.72913 2.8333-1.6056 3.5297-1.6056 0.70909 0 0.79027 0.13193 0.79027 1.2843 0 0.70639-0.13249 1.5344-0.29443 1.84-0.16193 0.30561-0.61033 1.4197-0.99643 2.4757-0.6858 1.8757-0.97373 2.5901-2.0312 5.04-0.28488 0.66-0.75093 1.74-1.0357 2.4-1.3211 3.0622-5.4776 11.29-6.4559 12.78-1.1324 1.7242-2.2789 2.4479-5.1864 3.2737-0.792 0.22494-1.69 0.53895-1.9957 0.69779-0.30561 0.15885-0.90911 0.28881-1.3411 0.28881s-0.87446 0.144-0.98323 0.32c-0.1296 0.2097 2.2735 0.32 6.9715 0.32 6.5391 0 7.2158 0.05144 7.6989 0.5852 0.29128 0.32186 0.5296 0.79428 0.5296 1.0498 0 0.4822-8.5519 8.7699-11.36 11.009-2.1623 1.7242-2.8494 2.075-4.0756 2.0807-0.57438 3e-3 -1.2428 0.1306-1.4853 0.28423-0.63732 0.40367-0.1412 0.99087 0.83717 0.99087 0.46111 0 1.2806 0.13425 1.8211 0.29832s1.6307 0.47073 2.4227 0.68146 1.9163 0.59119 2.4985 0.84547c0.91547 0.39986 1.0452 0.59726 0.96 1.4608-0.0872 0.88391-0.35682 1.129-2.35 2.1362-2.4991 1.2629-5.4797 2.6017-7.1885 3.2291-0.616 0.22616-1.2568 0.53212-1.424 0.67991s-0.49816 0.26871-0.73546 0.26871-1.0276 0.288-1.7561 0.64c-0.72856 0.352-1.5568 0.64-1.8406 0.64-0.28374 0-0.68389 0.168-0.88922 0.37334-0.46483 0.46482-3.8483 0.48954-5.0796 0.0371-0.50327-0.18492-1.563-0.51362-2.355-0.73045-0.792-0.21682-1.8-0.50482-2.24-0.64-2.8916-0.88835-3.543-1.0436-3.7038-0.88289-0.0993 0.0993 0.13371 0.87862 0.51786 1.7318 1.226 2.7227 4.2408 8.898 4.5289 9.2766 0.20478 0.26912 0.71815 0.21685 1.9476-0.19829 4.0104-1.3542 4.2931-1.404 5.4128-0.95329 0.58117 0.23392 2.0647 1.0963 3.2967 1.9163 1.232 0.82005 2.3902 1.5492 2.5738 1.6204 0.1836 0.0712 2.0669 1.2691 4.1852 2.662 4.1223 2.7107 4.9933 3.728 4.2337 4.9443-0.4309 0.68998-1.2065 0.99182-2.5665 0.99878-1.0558 5e-3 -1.8662 0.30009-1.8662 0.6786 0 0.15717 0.28067 0.28576 0.62372 0.28576 0.34304 0 0.96691 0.468 1.3864 1.04 0.90477 1.2338 3.1731 5.9126 4.3827 9.04 0.13614 0.352 0.40734 1.0381 0.60266 1.5247 0.30075 0.74923 0.2571 0.98275-0.28503 1.5249-0.38821 0.38821-0.92161 0.58627-1.3553 0.50324-4.7809-0.91536-6.2865-1.2528-8.042-1.8024-0.50979-0.15961-1.0498-0.21424-1.2-0.12141-0.15021 0.0928-0.27391 1.1323-0.2749 2.3099-2e-3 2.0456-0.20714 3.2388-1.016 5.9011-0.32226 1.0607-0.48348 1.2-1.3884 1.2-0.56311 0-1.9441-0.45096-3.0688-1.0021-1.1247-0.55118-2.405-1.144-2.845-1.3173-0.44-0.17337-1.05-0.44241-1.3557-0.59787-0.30561-0.15547-0.83711-0.28267-1.1811-0.28267s-0.71446-0.144-0.82323-0.32-0.55123-0.32-0.98323-0.32-1.0634-0.17361-1.4032-0.3858c-0.5088-0.31774-0.7338-0.28077-1.2757 0.2096-0.36185 0.32747-0.6579 0.77262-0.6579 0.98924 0 0.3996-2.4359 5.2534-3.5367 7.047-0.62695 1.0216-1.4677 1.5614-2.922 1.8758-0.52451 0.11339-0.93707 0.46555-1.0601 0.90489-0.21629 0.77227-0.70178 1.977-1.1586 2.8749-0.15547 0.30561-0.28267 0.70857-0.28267 0.89546s-0.288 0.93589-0.64 1.6644c-0.352 0.72856-0.64 1.4432-0.64 1.588s-0.288 0.90981-0.64 1.6999l-1.28 2.873c-0.352 0.79009-0.64 1.5551-0.64 1.7001s-0.33956 0.97455-0.75457 1.8435c-0.73964 1.5486-1.2903 2.7782-2.3198 5.1799-0.28292 0.66-0.84172 1.92-1.2418 2.8-0.40007 0.88-0.98103 2.176-1.291 2.88-0.31001 0.704-0.90321 1.991-1.3182 2.8599-0.41502 0.86894-0.75457 1.6957-0.75457 1.8372s0.48953 0.89866 1.0878 1.6825c0.98239 1.287 2.0167 3.24 3.0269 5.7154 0.56649 1.3882 0.45853 1.8249-0.45107 1.8249-0.64486 0-0.9169-0.25206-1.2951-1.2-0.78694-1.9722-1.7209-3.7399-2.4769-4.688l-0.71194-0.89285-1.1926 0.70362c-2.5131 1.4828-2.7823 0.0747-0.73697-3.8541 2.7238-5.2319 4.7539-9.4472 5.4656-11.349 0.39524-1.056 1.23-3.288 1.8549-4.96s1.5226-3.904 1.9946-4.96 1.2844-3.504 1.8053-5.44c2.0661-7.6798 1.9683-7.1752 1.5005-7.7395-0.663-0.79981-4.4783-3.7827-5.5534-4.3417-1.2448-0.64728-2.5204-2.0216-2.263-2.438 0.30042-0.48609 2.2564 0.29931 4.5554 1.8292 1.0836 0.72107 2.0196 1.4381 2.08 1.5934 0.2221 0.5709 3.7812 3.2423 4.5902 3.4453 0.62325 0.15643 1.0344 0.0223 1.621-0.52875 0.72976-0.68557 2.3786-3.8239 2.3786-4.5273 0-0.46588-1.2489-1.4481-3.0244-2.3784-3.0408-1.5934-4.9756-3.1528-4.9756-4.01 0-0.50034 0.27409-0.58422 1.9091-0.58422 1.05 0 2.382 0.19719 2.96 0.43821 2.0689 0.86274 3.3219 1.2478 5.3709 1.6505 1.983 0.38973 4.5347 1.1892 7.68 2.4061 0.792 0.30643 2.088 0.80325 2.88 1.104s1.69 0.67613 1.9957 0.83406c1.3886 0.7176 1.5243 0.46016 1.5243-2.8911 0-3.1054-0.0202-3.1922-0.88-3.7906-1.6794-1.1686-12.132-3.3966-15.6-3.325-1.5719 0.0324-3.04-0.27199-3.04-0.63032 0-0.21654 0.65102-0.26824 1.84-0.14611 2.8626 0.29403 3.6262 0.2467 4.4208-0.27397 0.59578-0.39036 1.1688-0.42934 2.976-0.20241 1.231 0.15457 2.4121 0.3885 2.6246 0.51985s1.7148 0.26056 3.3385 0.28714c2.1802 0.0357 3.1698 0.19099 3.7848 0.59397 0.45802 0.30011 1.3348 0.54565 1.9484 0.54565 0.6136 0 1.9507 0.23197 2.9713 0.51548 1.0206 0.28352 2.571 0.71552 3.4454 0.96 2.4428 0.68306 2.8426 0.61556 2.5789-0.43548-0.12142-0.484-0.85703-2.0115-1.6347-3.3945s-1.4139-2.6301-1.4139-2.7714c0-0.59673-2.9352-1.5678-5.76-1.9056-1.672-0.19994-3.4-0.43546-3.84-0.52338-0.72861-0.1456-5.677-0.53895-11.84-0.94119-1.32-0.0862-2.58-0.22125-2.8-0.30023-0.87335-0.31352-0.32027-1.0059 1.12-1.4021 0.836-0.22996 1.9375-0.5494 2.4478-0.70986 0.51027-0.16047 2.5983-0.29366 4.64-0.29598 3.9425-5e-3 14.209-0.7803 14.75-1.1146 0.59895-0.37017 0.32693-0.7199-1.5181-1.9518-1.012-0.67568-1.984-1.3878-2.16-1.5825-0.6344-0.7017-3.407-2.1455-4.6612-2.4273-1.3719-0.30825-6.5301 0.30656-9.9904 1.1908-1.0184 0.26022-1.9664 0.40217-2.1067 0.31544-0.14033-0.0867-1.1071 0.19256-2.1484 0.62065-2.1128 0.86859-3.7293 1.0439-3.4732 0.3766 0.2966-0.77294 1.9867-1.5031 3.4793-1.5031 1.9244 0 2.0899-0.47462 0.97863-2.8055-2.4563-5.1519-3.0222-6.4633-3.5154-8.1457-0.2952-1.0072-0.78685-2.1592-1.0926-2.56-0.30572-0.40085-0.8005-1.5236-1.0995-2.4949-0.29902-0.97134-0.82872-2.2348-1.1771-2.8077s-0.63347-1.4702-0.63347-1.9939c0-1.2776 1.0587-1.2871 2.3848-0.0214 0.53639 0.51197 1.4792 1.0792 2.0952 1.2604 1.5557 0.4578 3.8752 1.2856 4.64 1.656 0.352 0.17046 1.504 0.59195 2.56 0.93665 3.1964 1.0433 4.7747 1.6495 5.1881 1.9926 0.74123 0.61518 2.8138 0.36993 5.5319-0.65457 10.656-4.0165 9.8259-3.5744 7.68-4.0896-2.0688-0.4967-5.0356-1.0047-8.16-1.3972-1.232-0.15476-3.248-0.50498-4.4799-0.77826-1.2319-0.2733-2.7012-0.4969-3.2649-0.4969-0.56379 0-1.3558-0.12778-1.7601-0.28396-0.40429-0.15618-1.5271-0.45905-2.4951-0.67305-3.2904-0.72742-8.1526-2.3035-10.56-3.4229-3.3698-1.567-3.36-1.561-3.36-2.051 0-0.68322 2.4505-0.89094 7.0658-0.59895 2.2738 0.14385 7.7342 0.47888 12.134 0.74451 4.4 0.26564 8.8919 0.55834 9.9821 0.65045 2.104 0.17779 1.8673 0.26171 6.8179-2.4175 4.3337-2.3453 8.64-5.404 8.64-6.1367 0-0.35176-7.0544-0.07643-10.88 0.42463-1.32 0.17289-3.696 0.48014-5.28 0.68279-1.5891 0.2033-8.9364 0.42581-16.392 0.49643-10.795 0.10225-13.779 0.22222-14.84 0.59665-1.339 0.47244-4.6043 0.63414-5.5417 0.27442-0.2784-0.10683-0.50617-0.46409-0.50617-0.7939 0-0.66983 0.2407-0.74595 4-1.2649 1.408-0.19437 3.3728-0.55895 4.3662-0.81018 0.9934-0.25122 2.3447-0.45677 3.0029-0.45677 0.65818 0 1.7174-0.13355 2.3538-0.29677 1.1588-0.29719 3.5428-0.80892 8.0371-1.7252 1.32-0.2691 3.912-0.72884 5.76-1.0216 5.1811-0.82088 6.4322-1.0407 8.16-1.4336 0.88-0.20014 2.392-0.49306 3.36-0.65094 0.968-0.15788 2.768-0.51674 4-0.79747 1.232-0.28073 3.0984-0.63967 4.1475-0.79763 1.3969-0.21033 2.0582-0.48388 2.4707-1.022 0.72101-0.94056 2.5018-4.632 2.5018-5.186 0-0.23236 0.28926-0.79022 0.64281-1.2397 0.35355-0.44946 0.73583-1.2969 0.84952-1.8832s0.50842-1.4531 0.87719-1.9262c1.4938-1.9166 2.4433-3.7843 2.635-5.1829 0.20038-1.4619 0.19309-1.4768-0.72108-1.4734-0.50792 0.0019-2.1475 0.57634-3.6435 1.2766s-2.9048 1.2747-3.1306 1.2766c-0.22585 0.0019-1.1618 0.38414-2.08 0.84944-2.0574 1.0427-5.4708 2.4795-8.2294 3.4641-1.144 0.40832-3.16 1.1857-4.48 1.7275-4.8806 2.0032-8.8596 3.4891-9.9345 3.71-1.2102 0.24867-4.6171 1.5298-6.3855 2.4011-0.616 0.30352-3.352 1.0828-6.08 1.7317-2.728 0.64892-5.6605 1.3913-6.5168 1.6497-0.85621 0.25844-1.9743 0.46988-2.4847 0.46988-0.51037 0-2.1858 0.64774-3.7233 1.4394-1.8254 0.94-3.2051 1.4396-3.9764 1.44-1.2313 6.4e-4 -1.6498-0.27598-1.2778-0.84449 0.27021-0.41294 3.1304-1.8545 4.2208-2.1273 0.44104-0.11035 1.9657-0.96633 3.3882-1.9022 1.4225-0.93586 3.2216-1.9615 3.9981-2.2793 2.2313-0.91302 4.1861-1.8752 5.5718-2.7425 0.704-0.44063 1.928-1.1253 2.72-1.5215s2.88-1.4933 4.64-2.438c3.0075-1.6142 3.2517-1.8218 4.0589-3.4509 0.47241-0.95333 1.1027-2.6693 1.4006-3.8133s0.82599-2.872 1.1735-3.84c1.0826-3.0161 1.859-5.9027 1.6998-6.32-0.084-0.22-0.31811-0.4-0.52031-0.4-0.35803 0-4.7498 3.7291-6.3926 5.428-0.45109 0.46649-1.3871 1.2694-2.08 1.7842-0.69292 0.51483-2.9878 2.3126-5.0998 3.995-4.8943 3.8989-8.9557 6.7766-11.091 7.8584-0.923 0.46772-2.0452 1.0988-2.4938 1.4023-0.4486 0.30356-1.4636 0.96644-2.2556 1.4731-0.792 0.50662-1.8702 1.2686-2.3959 1.6933-1.4125 1.141-12.056 6.1932-14.154 6.7186-0.66568 0.16671-2.6965 0.39091-4.513 0.4982-8.1745 0.48288-16.168 2.5666-23.953 6.2442-4.2675 2.0159-5.1832 2.5438-7.0522 4.0661-1.4585 1.188-2.6522 1.7583-2.6522 1.2672 0-0.56669 2.9899-5.2109 4.3676-6.7841 0.94182-1.0755 1.7124-2.0801 1.7124-2.2325 0-0.15234 1.0362-1.3202 2.3027-2.5951 1.2665-1.275 2.2297-2.3911 2.1405-2.4803-0.34293-0.34292-6.5425-0.27814-7.1994 0.07524-0.37186 0.20006-0.86316 0.83724-1.0918 1.416-0.22863 0.57873-0.65768 1.3402-0.95347 1.6922-0.56489 0.67227-1.216 1.7968-4.076 7.04-0.96003 1.76-2.0832 3.704-2.496 4.32s-1.1313 2.1531-1.5967 3.4159c-0.46543 1.2627-1.1216 2.545-1.4581 2.8496-0.59548 0.5389-0.61187 0.50639-0.61187-1.2132 0-1.9517 0.5889-3.7065 2.7158-8.0923 0.76816-1.584 1.5414-3.341 1.7184-3.9046 0.17697-0.56351 0.6853-1.5596 1.1296-2.2135 0.93442-1.3751 0.84214-1.722-0.45811-1.722-0.51508 0-1.5874-0.17408-2.3828-0.38684-1.833-0.49025-2.078-0.26479-3.2017 2.9468-1.79 5.1158-2.0453 6.3008-2.4109 11.191-0.34649 4.6338-0.42143 4.9986-1.1695 5.6919m47.332 52.26-0.13444 2.1115c-0.15271 2.3982-0.85929 3.3059-2.5732 3.3059-0.77267 0-1.4834 0.50736-3.5864 2.56-1.4425 1.408-2.7169 2.56-2.8321 2.56-0.49191 0-4.3413 3.335-4.1698 3.6125 0.46739 0.75624 4.1736 1.7468 7.2871 0.14718 1.7803-0.91471 10.096-4.1975 10.096-3.2985 0 0.72046-4.8651 3.7626-6.9883 4.3698-1.2262 0.35065-2.5802 1.0305-3.4154 1.715-1.4405 1.1804-2.7162 1.4875-2.7162 0.65401 0-0.60511-0.76211-0.62402-1.2542-0.0311-0.28604 0.34466-0.27657 0.48894 0.0408 0.62142 0.47148 0.19681 0.44956 0.21484-2.3066 1.8985-1.3334 0.81451-1.76 1.2584-1.76 1.8312 0 0.57424-0.42076 1.0092-1.7494 1.8086-0.96219 0.57887-1.8541 1.3353-1.982 1.681-0.12788 0.3457-0.52664 0.78596-0.88614 0.97836-0.71162 0.38085-3.018 3.6757-3.2834 4.6906-0.4228 1.6168-2.9325 5.0304-5.699 7.7516-3.2218 3.169-4.3947 3.9385-7.1102 4.6648-0.92937 0.24858-2.3199 0.67989-3.09 0.95847-1.4746 0.53339-4.1998 0.69119-4.1998 0.24317 0-0.14482 1.044-0.73747 2.32-1.317 4.9385-2.2429 5.7376-2.6706 7.5893-4.0626 2.0067-1.5084 4.7608-4.5121 6.1224-6.6771 1.0379-1.6503 2.2083-4.1824 2.2083-4.7776 0-0.25553 0.144-0.5536 0.32-0.66237s0.32-0.54077 0.32-0.96 0.12809-0.84139 0.28464-0.93815c0.15655-0.0968 0.37676-0.71725 0.48934-1.3789 0.11258-0.66164 0.2866-1.6569 0.3867-2.2116 0.13731-0.7609 0.0171-1.1736-0.48933-1.68" stroke="#000002" stroke-width=".32"/>
 </g>
 <g stroke="#000">
  <circle cx="66.898" cy="85.553" r="0" fill="#000096"/>
  <circle cx="66.898" cy="85.553" r="0" fill="#000096"/>
  <path d="m28.59 64.449c0.90126-5.7895 2.0477-11.553 4.0044-17.233l5.0124 0.49456c-2.4508 5.4538-4.6631 10.914-5.598 16.408 1.8706-1.5782 2.1142-3.2612 3.1012-4.2331l8.6541-15.459 8.0868-0.80372-11.011 13.542 0.20316 1.3818 2.4554-1.5856c6.5589-5.5325 12.613-6.2192 18.853-8.6844l14.935-1.8182 11.885-5.3361 22.525-14.27 13.571-11.237-1.4743 7.9573-3.516 7.9473c-9.5164 4.8375-17.653 10.574-28.332 14.559l0.2348 0.77945 1.7798 1.0135 4.8863-2.0237 4.0614-1.5562 21.956-6.2663 29.307-11.912 0.9838-0.39672-0.14664 3.0613-3.7216 6.7565-3.7926 7.4836-48.978 8.8903-0.85043 1.8833 5.094 0.4717 4.4773-1.2214 44.214-1.7687-13.22 9.1881-30.697-2.0133-0.46987 0.48552 0.27573 1.0405s9.2781 3.384 9.5346 3.4426c0.25654 0.0586 25.097 5.015 25.097 5.015l-10.264 4.2692-3.1094 0.29911-1.2314-0.60518-13.062-4.9431-1.9418-1.331-1.0423-0.20166-0.52918 1.2382 1.0825 2.8366 7.1679 16.844-0.64241 0.62483-3.4644 0.8485-1.0017 1.0643 0.6347 0.60809s4.483-1.6584 4.6295-1.5705c0.14649 0.0879 11.628-1.4886 11.628-1.4886l2.9415 0.80643 4.3568 3.146 1.8815 1.3318 0.0303 0.43296-15.343 1.1204-3.2837 0.14917-2.2728 0.46806-1.2408 0.45628-0.85396 0.57199-0.68615 0.60087 4.6101 0.87752 11.246 0.87195 7.4852 1.2216 1.3902 0.79348 3.4924 6.9103-0.55502 0.21955-5.2759-1.2436-4.2642-0.96188-8.8342-1.2968-4.4944-0.57058-1.312 0.90838-5.3744-0.25351-0.49062 0.33365s2.0648 0.96264 2.2402 0.96264 4.6211-4e-3 4.6211-4e-3l12.62 3.1592 0.21191 6.6152-0.8231-0.0712-21.706-6.9521-1.0914 0.40018-0.51086 0.24963 0.37934 2.0372 7.1487 4.4811c-0.0202 1.7421-0.85344 3.4791-3.0314 5.2076 0 0-2.335-0.91955-2.335-1.2711 0-0.35158-2.6968-3.0953-2.6968-3.0953l-6.6563-2.6104 0.86196 1.5814 5.0544 3.472s1.7052 2.0491 1.8865 2.1015c1.5769 0.45603-12.534 37.459-14.185 37.204l0.81961 2.0958 2.8016-1.8986 3.8098 6.4058-69.484 0.0441 9.0778-2.0541 4.0685-3.2916 6.6272-8.3319 0.02697-1.7984 5.256-5.0217 2.6707-2.8128 3.2508-2.9502 0.84101-1.1083s4.6265-2.7987 5.407-2.4456l6.6158-1.9586 1.8796-1.5863-0.15566-1.2702-1.7555 0.48954c-3.135 1.8172-8.499 3.9077-12.468 4.2068l7.5575-7.1615 4.113-2.2993 1.1835-6.4774-7.1501-7.4744c-5.974-3.5419-10.131-8.1045-14.879-12.335 0 0 4.5497 0.3227 4.8832 0.34674 0.33354 0.02405 5.5876-0.77013 5.5876-0.77013 2.4777-1.53 4.94-3.0717 7.9227-4.2156l1.3107-1.7736-0.24655-1.9971s0.0053-1.7004 0.17191-1.7844c0.16657-0.08404-1.3566-3.8719-1.3566-3.8719l-2.3625-3.3068s0.41024 0.18392-5.9253-3.7203c-5.2228-3.2185-5.3923-2.4508-7.2788-1.6485 0 0-0.14493 0.04622-0.29979 0.24343-1.0893 1.3871-4.6675 4.0258-4.428 5.0287 0.1642 0.68779-2.3499 9.1847-2.3499 9.1847l-2.5707-8.6234-2.9133-5.8225-3.2111-3.8097-9.8583-6.5404-2.1172-0.33482z" fill="url(#linearGradient2993)" stroke-width="1px"/>
 </g>
 <path d="m102.95 163.93c-0.116-0.18785-0.1423-0.40993-0.0584-0.4938 0.0839-0.0839 0.23777 0.0696 0.34201 0.34129 0.21638 0.56387 0.0321 0.66305-0.28357 0.1527zm-6.6763-4.8448c2.4309-0.0763 15.05-43.812 6.236-44.908 0.0918-0.38128-1.0544-1.9782-1.0015-2.2371 1.9975-0.1067 3.1444 0.11514 8.2492 2.6785 3.0049 1.9861 4.0438 3.4059 4.5876 2.2128 0.18051-0.39598 0.85508-1.0254 1.499-1.3987l1.1708-0.67872-0.9695-0.9213c-0.53322-0.50669-2.2217-1.6237-3.7523-2.4822s-1.1951 0.25438-1.7739-0.45246c-0.11435-0.13964-0.26992-0.65523-0.71813-0.65523-0.4482 0-0.0432-1.51-0.633-1.8-0.55559-0.27319 0.19102-1.6959 2.9855-1.8434 1.1731-0.0619 3.3856 1.1935 4.2854 1.3615 0.89976 0.168 3.3478 0.75481 5.44 1.304 9.1615 2.4048 9.6206 2.4717 10.767 1.5695 0.58324-0.45877 0.87659-0.98992 0.87659-1.5871 0-1.0412-0.39502-1.4339-2.1136-2.1015-0.99205-0.38534-1.0505-0.44596-0.28638-0.29707 0.528 0.10287 1.392 0.43669 1.92 0.74181 0.94617 0.54677 0.96133 0.59789 1.0527 3.5491 0.051 1.6469-0.0325 3.1196-0.18561 3.2726-0.15772 0.1576-1.6536-0.28649-3.4527-1.0255-1.7459-0.71705-3.9377-1.5134-4.8706-1.7697-0.9329-0.25629-2.0849-0.66503-2.56-0.90832-0.47511-0.24329-1.6355-0.54689-2.5787-0.67468-0.94318-0.12778-2.8872-0.6678-4.32-1.2-2.5958-0.96423-5.7232-1.2431-6.4022-0.57089-0.66415 0.65759 0.89373 1.9631 4.917 4.1204 0.968 0.51903 2.11 1.3191 2.5378 1.778l0.7778 0.83421-0.9343 1.9548c-1.2051 2.5213-2.0463 3.2117-3.4321 2.8166-0.56606-0.16139-1.1746-0.47391-1.3524-0.69456-0.55343-0.68693-4.0915-3.5712-5.4806-4.4678-3.3583-2.1678-5.3824-2.2251-3.3168-0.0941 0.59738 0.61633 1.2428 1.1206 1.4342 1.1206 0.49126 0 5.4083 4.1265 5.6272 4.7225 0.0994 0.27062-0.0215 1.227-0.26857 2.1249-0.24718 0.8979-0.80806 3.0006-1.2464 4.6726-0.73654 2.8092-1.4716 4.8278-4.2531 11.68-0.57155 1.408-1.2253 3.208-1.4528 4-0.38794 1.3505-2.3477 5.4232-5.5383 11.51-1.4677 2.7998-1.6559 4.2349-0.5822 4.4388 0.32969 0.0627 1.0005-0.18293 1.4908-0.54528 0.83556-0.61772 0.91827-0.62468 1.3206-0.11111 0.37805 0.48268 0.36824 0.50044-0.0822 0.14929-0.42039-0.32807-0.6089-0.29103-1.0591 0.20636-0.6518 0.72023-1.8487 1.0039-2.5589 0.60642zm46.049-52.432c-0.704-0.14752-2.07-0.56376-3.0355-0.92494-0.96551-0.36117-2.3512-0.65669-3.0793-0.65669s-1.9822-0.29121-2.7869-0.64717c-1.0732-0.47471-2.086-0.63706-3.8007-0.60919-1.2857 0.0208-2.6976-0.10084-3.1376-0.2705-1.6301-0.62857-4.9195-0.77921-5.9006-0.2702-0.70362 0.36507-1.5559 0.43396-3.591 0.29035-1.905-0.13444-2.6684-0.0832-2.6684 0.17922 0 0.45136-0.56434 0.34137 4.32 0.84207 2.288 0.23456 5.168 0.58724 6.4 0.78374 2.3892 0.38106 5.479 1.2446 4.5808 1.2803-0.29654 0.0117-0.88185-0.10889-1.3007-0.26812-0.73096-0.27791-8.9616-1.38-13.42-1.797-1.2648-0.1183-1.5648-0.32468-1.2713-0.52729 0.34339-0.23706-1.3015-0.20715 0.38929-1.3909 2.5503-1.7854 8.2475-3.1242 23.274 0.0425 1.3261 0.27945 2.9248 0.32108 3.2385 0.0606 0.59858-0.49677-0.14985-2.9431-0.74384-3.4361-0.24918-0.20682-1.5092-0.56887-2.8-0.80456-1.2908-0.2357-2.0494-0.44413-1.6857-0.46317 1.313-0.06875 4.4606 0.67709 5.2509 1.2442 0.92952 0.66705 4.3111 6.8705 4.0104 7.357-0.22575 0.36525-0.438 0.36389-2.2425-0.0144zm-9.9956-8.8513c0.48642-0.07355 1.2064-0.07158 1.6 0.0045 0.39358 0.07597-5e-3 0.13614-0.88441 0.13372-0.88-0.0026-1.202-0.06455-0.7156-0.1381zm-8.7244-0.58255c-3.784-0.21815-7.4704-0.55254-8.1921-0.74308-0.72166-0.19053-1.6577-0.27175-2.08-0.18044-2.1666 0.46841-2.9353 0.536-2.7537 0.24215 0.10654-0.17238 0.81293-0.51139 1.5698-0.75333 0.75683-0.24193 1.6755-0.62784 2.0415-0.85755 0.36597-0.22972 1.446-0.63719 2.4-0.90551 4.2998-1.2093 5.3448-1.5104 6.6946-1.9289 3.0453-0.94408 5.7303-1.4212 7.9977-1.4212 2.3781 0 4.4823-0.50657 4.4823-1.0791 0-0.1708-0.25201-0.60496-0.56-0.96483-0.54608-0.63805-0.54329-0.64265 0.11229-0.1852 0.36975 0.25799 1.7018 1.1742 2.96 2.0361 1.2582 0.86182 2.2877 1.6744 2.2877 1.8058 0 0.65624-4.1075 1.0941-14.56 1.5521-4.6058 0.20183-6.4291 0.40524-7.52 0.83891-1.7672 0.70255-2.1496 1.0146-1.7425 1.4217 0.29658 0.29658 1.6017 0.4138 10.121 0.90906 2.2322 0.12975 4.1642 0.34156 4.2933 0.47068 0.12911 0.12911 0.0306 0.21324-0.21857 0.18697-0.24934-0.02646-3.5493-0.22624-7.3333-0.44441zm18.966-1.6496c0.31136-0.08115 0.74335-0.07578 0.96 0.01172 0.21665 0.08765-0.0381 0.15405-0.56609 0.14752-0.528-0.0064-0.70526-0.07824-0.39391-0.15938zm-40.466-3.4648c-0.0916-0.09158 0.11297-1.4236 0.45459-2.96 1.0942-4.9214 0.83415-11.233-0.6491-15.753-0.20213-0.616-0.66314-2.0674-1.0245-3.2253-1.344-4.307-6.3669-10.495-11.01-13.563-2.1827-1.4425-7.2567-3.8036-9.6312-4.4817-1.056-0.30157-2.64-0.76844-3.52-1.0375-1.2213-0.37342-3.0257-0.47849-7.6231-0.44391-3.5761 0.02683-5.9495-0.07374-5.842-0.24771 0.09959-0.16116 0.72198-0.3738 1.3831-0.47252 0.6611-0.09872 2.498-0.3918 4.082-0.65126 6.6601-1.0909 20.267-0.97852 23.706 0.19578 0.96909 0.33094 4.8865 0.02721 8.9345-0.69312 0.88-0.15655 2.968-0.5261 4.64-0.8212 5.1934-0.91662 11.587-2.3794 13.324-3.0485 0.3764-0.14494 2.2441-0.71427 4.1505-1.2651 1.9064-0.55086 3.9744-1.2213 4.5957-1.4898 0.62122-0.26854 1.6024-0.69224 2.1803-0.94155 0.57797-0.24934 1.2465-0.45331 1.4856-0.45331 0.48956 0 10.841-4.0313 12.419-4.8365 0.30561-0.15594 0.68695-0.28354 0.84741-0.28354 0.16048 0 1.9521-0.79522 3.9813-1.7672 3.4379-1.6466 3.7593-1.8806 4.7123-3.4294 1.09-1.7714 1.5743-3.8534 0.98163-4.2197-0.19514-0.1206-1.6518 0.36472-3.237 1.0785-1.5852 0.71378-3.0061 1.2978-3.1575 1.2978-0.15141 0-1.4832 0.56112-2.9596 1.2469-1.4764 0.68581-4.1243 1.7705-5.8843 2.4104-1.76 0.63992-3.776 1.4376-4.48 1.7726-0.704 0.33502-2.72 1.1391-4.48 1.787-1.76 0.64782-3.9658 1.4632-4.9018 1.812-0.93602 0.34878-1.7656 0.57035-1.8436 0.49241-0.0779-0.07793 0.54389-0.37334 1.3818-0.65642 2.9543-0.99806 9.2133-3.4086 10.004-3.8527 0.44-0.24726 1.376-0.63161 2.08-0.8541 2.265-0.71583 7.4086-2.8517 8.8453-3.673 0.7671-0.43854 1.6485-0.79907 1.9586-0.80119 0.31011-0.0021 1.6422-0.52263 2.9601-1.1567 1.3179-0.63405 2.8642-1.1741 3.4361-1.2 1.0308-0.04675 1.0391-0.03515 0.95329 1.3198-0.0616 0.97257-0.49342 2.0017-1.4965 3.5666-0.77544 1.2098-1.5645 2.2951-1.7534 2.4119-0.18893 0.11679-0.34352 0.57128-0.34352 1.01s-0.27518 1.3302-0.61153 1.9811c-0.33634 0.65087-0.94834 1.9662-1.36 2.9229-1.2283 2.8547-2.3053 4.1186-3.6986 4.3403-1.1248 0.17896-5.3323 1.0035-11.45 2.2438-2.8757 0.58301-4.4133 0.8579-8.8 1.5732-5.0514 0.82368-6.4609 1.0855-8.8 1.6347-2.948 0.69213-4.9234 1.0505-7.84 1.4224-1.32 0.1683-3.192 0.46644-4.16 0.66249-0.96799 0.19604-2.8079 0.53572-4.0888 0.75481-2.6219 0.44849-3.278 0.84955-2.6425 1.6153 0.5386 0.64898 4.3928 0.66215 6.5019 0.0223 1.7551-0.53255 1.0725-0.51078 14.309-0.4562 9.158 0.0378 9.6702 0.06686 5.6 0.31793-2.464 0.15201-7.288 0.26136-10.72 0.24306-7.2886-0.03893-7.1357-0.04706-6.88 0.36658 0.10878 0.17601 1.1685 0.32001 2.3549 0.32001s2.2939 0.12903 2.4611 0.28675c0.41415 0.39063 13.171 1.0616 19.664 1.0342 6.1106-0.0257 13.982-0.538 15.163-0.9867 0.44737-0.17008 1.4308-0.70953 2.1854-1.1987 1.9513-1.265 2.3082-1.8493 1.292-2.1149-0.30799-0.0805-0.092-0.16305 0.48-0.18346 2.1336-0.07616 1.3345 0.6905-4.8876 4.6893-0.34783 0.22356-1.1011 0.62174-1.6738 0.8849-0.57279 0.26317-1.7968 0.95413-2.72 1.5355-2.6422 1.6639-3.5295 1.9384-4.8535 1.5014-0.62291-0.20557-1.2621-0.29374-1.4204-0.19593-0.15829 0.09781-3.5091-0.03666-7.4463-0.299-18.708-1.2462-21.22-1.2727-21.013-0.2219 0.052 0.26396 0.31064 0.59358 0.57465 0.73251 4.9822 2.6218 12.4 4.8898 19.84 6.0666 1.32 0.20878 2.8633 0.51741 3.4295 0.68584 0.56624 0.16845 1.7902 0.36042 2.72 0.42658 0.92976 0.06618 3.3981 0.44311 5.4851 0.83761 3.3052 0.62477 3.7204 0.77157 3.2188 1.1383-0.31668 0.23157-0.76033 0.42103-0.98588 0.42103-0.22556 0-1.17 0.35478-2.0988 0.78843-4.5187 2.1097-9.7356 3.4875-10.576 2.7933-0.35622-0.29408-3.1573-1.3561-6.4724-2.4539-4.9491-1.639-7.7803-2.8558-8.6862-3.7332-0.57808-0.55993-1.2588-0.92662-1.6-0.86186-0.76311 0.14483-0.97309 1.733-0.32466 2.4555 0.26241 0.29246 0.71861 1.1797 1.0137 1.9717 0.86376 2.3179 1.6709 4.1773 3.0889 7.1157 0.14748 0.30561 0.26816 0.78953 0.26816 1.0754 0 0.47653 1.1007 2.9918 3.0526 6.9756 0.42217 0.86162 0.69411 1.6854 0.60432 1.8307-0.0898 0.14528-0.86762 0.35758-1.7285 0.47178-1.6112 0.21373-3.5284 1.1517-3.5284 1.7262 0 0.17858 0.1525 0.3247 0.33887 0.3247 0.18641 0 0.24231 0.15628 0.12427 0.34726-0.13995 0.22643-0.85637 0.27281-2.0589 0.13323-1.4423-0.1674-2.3237-0.06282-4.0443 0.47995-1.21 0.3817-2.848 0.89846-3.64 1.1484-1.5056 0.47507-2.3389 0.56562-2.6198 0.28471zm14.78-2.8849c1.144-0.42791 2.512-0.75883 3.04-0.73538l0.96 0.04263-0.96 0.12333c-0.528 0.06784-1.248 0.25039-1.6 0.40568-0.98863 0.43613-2.7762 0.97695-3.1678 0.95842-0.19374-0.0091 0.58374-0.36676 1.7278-0.79469zm4.8-1.1085c1.0941-0.3504 1.9354-0.3504 1.12 0-0.35198 0.15126-0.92799 0.2708-1.28 0.26563-0.51449-0.0076-0.48311-0.05964 0.15999-0.26563zm2.16-0.53193c0.22-0.08878 0.57999-0.08878 0.79999 0 0.22001 0.08878 0.04 0.16139-0.4 0.16139s-0.62-0.07264-0.39999-0.16139zm2.0861-0.32984c0.31136-0.08115 0.74335-0.07578 0.96 0.01172 0.21665 0.08765-0.0381 0.15405-0.56609 0.14752-0.528-0.0064-0.70526-0.07824-0.39391-0.15938zm6.1539-0.09823c-0.88563-0.22534-0.89802-0.24684-0.15998-0.27723 0.43999-0.01814 1.016 0.10662 1.28 0.27723 0.54463 0.35195 0.26321 0.35195-1.12 0zm-4.0763-0.22632c0.39806-0.07653 0.97406-0.07362 1.28 0.0064 0.30596 0.08009-0.0196 0.14272-0.72373 0.13916-0.704-0.0036-0.95431-0.06909-0.55627-0.14562zm-97.041-17.69c-0.1121-0.18138 0.01625-0.23505 0.30111-0.12574 0.55437 0.21271 0.6558 0.4421 0.19552 0.4421-0.16562 0-0.38909-0.14234-0.49662-0.31635zm43.678-22.891c4.2757-0.23841 5.5881-0.57171 9.0734-2.3042 1.5583-0.77466 2.8887-1.3532 2.9563-1.2855 0.06762 0.06762-1.5674 0.92893-3.6334 1.914l-3.7563 1.791-3.84 0.19381c-5.8178 0.29367-5.8301-0.02861-0.8-0.30908zm65.107 17.746c-0.116-0.18773-0.1423-0.40992-0.0584-0.4938 0.0839-0.08387 0.23777 0.06969 0.342 0.34129 0.21638 0.56388 0.0321 0.66306-0.28357 0.1525zm11.373-8.0788c0-0.05507 0.468-0.52307 1.04-1.04l1.04-0.93987-0.93987 1.04c-0.87609 0.96943-1.1401 1.1871-1.1401 0.93987zm-18.88-3.4446c7.4284-0.69772 9.7605-0.88146 9.8647-0.77723 0.23668 0.23667-9.117 1.1413-11.145 1.0778-0.93011-0.0291-0.47687-0.13553 1.28-0.30055zm11.12-1.1668c0.572-0.07098 1.508-0.07098 2.08 0s0.10401 0.12907-1.04 0.12907c-1.144 0-1.612-0.05809-1.04-0.12907zm4.0044-0.31812c0.48642-0.07355 1.2064-0.07158 1.6 0.0045 0.39359 0.07597-5e-3 0.13614-0.8844 0.13372-0.88-0.0026-1.202-0.06455-0.7156-0.1381zm8.8348-2.2504c-0.39803-0.50754-0.38672-0.51886 0.12083-0.12083 0.53304 0.41804 0.70256 0.68082 0.43919 0.68082-0.0665 0-0.31847-0.25198-0.56001-0.56zm-65.079-1.7014c-0.62189-0.39814-1.2981-0.55953-1.92-0.45826-0.528 0.08598-1.464 0.03288-2.08-0.11819l-1.12-0.27451 1.44-0.69364c0.792-0.3815 1.656-0.8216 1.92-0.97801 0.45766-0.27114 4.4148-2.416 9.6-5.2035 2.1626-1.1626 8.3935-5.1717 9.6-6.1769 0.264-0.21997 0.84-0.50617 1.28-0.63604 1.1194-0.33041 3.0554-1.5586 6.49-4.1173 4.1864-3.1188 6.3076-5.2925 7.5486-7.7356 1.0816-2.1292 1.6713-4.6266 1.0924-4.6266-0.36027 0-4.6579 3.6387-5.851 4.9538-0.43999 0.48502-1.88 1.6803-3.2 2.6562-1.32 0.9759-2.472 1.8641-2.56 1.9737-1.0839 1.3505-10.078 7.7648-12.96 9.2429-1.056 0.54155-3.144 1.8503-4.64 2.9084-2.5033 1.7704-7.9753 4.8468-8.5536 4.8088-0.1355-0.0091 1.0496-0.67219 2.6336-1.474 1.584-0.80176 3.1884-1.7409 3.5652-2.0869 0.94718-0.86969 4.5984-3.1831 7.4748-4.7361 2.4588-1.3275 5.8664-3.7633 11.212-8.0146 1.6652-1.3243 3.7732-2.9488 4.6844-3.6102s1.7032-1.3079 1.76-1.4368c0.19574-0.44419 6.3246-5.8253 6.6348-5.8253 0.17091 0 0.38228 0.11577 0.46972 0.25723 0.23822 0.38546-0.36155 2.9099-1.0793 4.5428-0.34813 0.792-1.0793 3.0792-1.6249 5.0828-1.2016 4.4129-1.9518 5.9283-3.2842 6.6337-0.55707 0.29495-1.9488 1.0191-3.0928 1.6092-1.144 0.59009-3.376 1.7955-4.96 2.6787-2.6941 1.5022-4.3123 2.3205-7.84 3.9645-0.792 0.36911-2.4495 1.3344-3.6832 2.1452-1.2338 0.81074-2.6018 1.5812-3.04 1.7122-1.5484 0.46277-4.2193 1.8843-4.3935 2.3383-0.25013 0.6518 0.5539 1.0827 1.6462 0.88222 0.5112-0.09381 2.2777-0.81772 3.9255-1.6087 1.6478-0.79096 3.3769-1.4381 3.8424-1.4381s1.579-0.2157 2.4745-0.47933c0.89547-0.26362 3.7881-1.0002 6.4281-1.6367 2.64-0.63658 5.3274-1.4254 5.9719-1.7529 1.6748-0.85094 5.3708-2.2122 5.9862-2.2048 0.28706 0.0035-0.6301 0.41291-2.0381 0.90986-1.408 0.49695-3.064 1.1702-3.68 1.4962-1.1134 0.5891-12.928 3.8074-15.68 4.2711-0.792 0.13346-2.6248 0.84429-4.0729 1.5796-2.984 1.5152-4.7252 1.7011-6.3271 0.67557zm31.36-33.899c0.68744-0.704 1.3219-1.28 1.4099-1.28s-0.40245 0.576-1.0899 1.28c-0.68743 0.704-1.3219 1.28-1.4099 1.28-0.088 0 0.40245-0.576 1.0899-1.28zm7.2253-1.1467c0.0155-0.37277 0.0912-0.44861 0.19332-0.19332 0.0925 0.231 0.0811 0.507-0.0253 0.61333-0.10632 0.10632-0.18198-0.08266-0.16808-0.42z" opacity=".20286" stroke-width=".32"/>
</svg>
