/* XPM */
static const char * command_xpm[] = {
"26 26 14 1",
" 	c None",
".	c #996600",
"+	c #333300",
"@	c #CC9900",
"#	c #666600",
"$	c #000000",
"%	c #CC9933",
"&	c #FFFF00",
"*	c #FFCC00",
"=	c #FFCC33",
"-	c #663300",
";	c #FFFF33",
">	c #666633",
",	c #333333",
"        $$$$$$$$          ",
"      $$$+++++++$$        ",
"     $$++##....##++       ",
"    $+>#...%@@@%..#+      ",
"   $+.@@%..%%@@@@...+     ",
"  $+@;&*@..%%@@@....@+    ",
" $+.;&&&=@@@@@@@.#..@.+   ",
" $#=&&&;@@%%%%@@.##.=@+   ",
"$+.*&&&*%....#...###@=.$  ",
"$+.*&&*@.###+$+..@%@@=@+  ",
"$>.@@=@.##+++$+..@@@@=@+  ",
"$#..%%.#+++$$++#..@@@=@+  ",
"$#....#+++$$$$+++#.@@@@+  ",
"$..%..>++$$$$$$+++#@@@@+  ",
"$.%%.#++++$$$$+++##...%+  ",
"$#@@.#+++++,,+++##..#..$  ",
" +@@.#-++++++++##....%+   ",
" +.@%.#-+++--###..%@@%+   ",
"  +@@%##-+#####..%**@+    ",
"   +@@@.###.....%**@#     ",
"    #@=@@.....%@*@.+      ",
"     #%@@@@@@@@.#++       ",
"      +#.@@@@@@.#+        ",
"        $++++++,          ",
"                          ",
"                          "};
