/* XPM */
static const char * indpendent_star_empty_xpm[] = {
"48 48 7 1",
" 	c None",
".	c #990099",
"+	c #FF33FF",
"@	c #CC00CC",
"#	c #CC33CC",
"$	c #660066",
"%	c #FF00FF",
"                                                ",
"                     +.                         ",
"                     +@.                        ",
"                     ++..                       ",
"                    +@+#..                      ",
"                    +#@@$..                     ",
"                    +..%...                     ",
"                   +%  %#...                    ",
"                   +.  @@...                    ",
"                   +.  #+$..                    ",
"                  ++    +@..                    ",
"                  +@    +@...                   ",
"                  +.    .%...                   ",
"                 +%     .%...                   ",
"                 +@      @@...                  ",
"                 +.      @+$..                  ",
"                +@        @@..                  ",
" #%+++++++++++++@          @++++++++++++++@..   ",
"  .@+.                                #+@.....  ",
"   .#+@#                            #++#....... ",
"    ..#@@                          @@#......... ",
"      ..@@@                      @+@$.......... ",
"        $.@@.                  @@@.$........    ",
"         $$@@@.              #@@.$.........     ",
"            ..@.            @@.$........        ",
"             $+@            @@$........         ",
"              +              %@......           ",
"             +@              .+$...             ",
"             +       ..       +...              ",
"            +#      .++.      @@..              ",
"           ++      #+..+.      +#..             ",
"           +@     @@....@#     #+..             ",
"           +     @@......@@     @@..            ",
"          +#    @@........%@.   .+..            ",
"         ++   @@#........   @#   %@..           ",
"         +.  @@........      +@  .+$.           ",
"        ++  @@.........       +@  %@..          ",
"        +  @@........          +@  +...         ",
"       +@ +#........            ++ ++..         ",
"       +#+.........              ++ +..         ",
"      ++@........                 @++%..        ",
"      +@........                    @+..        ",
"     +#........                      @@..       ",
"     .$.......                        @...      ",
"      .......                           ..      ",
"       .....                             ..     ",
"        ..                                .     ",
"                                                "};
