/* XPM */
static const char * magic_star_empty_xpm[] = {
"48 48 13 1",
" 	c None",
".	c #006633",
"+	c #33FF33",
"@	c #00CC00",
"#	c #33CC33",
"$	c #339966",
"%	c #339933",
"&	c #009900",
"*	c #009933",
"=	c #33CC00",
"-	c #336633",
";	c #33FF00",
">	c #00CC33",
"                                                ",
"                     +&                         ",
"                     +@-                        ",
"                     ++%$                       ",
"                    +@+&..                      ",
"                    +&@@...                     ",
"                    +*&+%..                     ",
"                   +;  +&...                    ",
"                   +&  @@...                    ",
"                   +*  #+...                    ",
"                  ++    +#..                    ",
"                  +#    +#...                   ",
"                  +%    &+...                   ",
"                 ++      +&..                   ",
"                 +@      @=...                  ",
"                 +&      #+-..                  ",
"                +@        @#&*                  ",
" #++++++++++++++=          @++++++++++++++=..   ",
"  %=+&                                &+#%$$..  ",
"   .#+@&                            #++#.$..... ",
"    .%#@#                          #@&......... ",
"      ..@@#                     %=+@..$...$.... ",
"        -*==*                  @@=*.$.....$.    ",
"         ..#@@%              #@#*..........     ",
"            %&@*            =@&......$..        ",
"             -+#            #@-....$...         ",
"              +              ;#......           ",
"             +#              *+....             ",
"             +       *%       +&..              ",
"            +#      &++%      #@$.              ",
"           ++      &+%%+&      +#$$             ",
"           +@     #@%..%@&     &+%.             ",
"           +     =@.....%@#     @>..            ",
"          +#    @#$$.....%;=%   *+%.            ",
"         ++   #@&.$.....$   @#   ;@..           ",
"         +*  @=*.$.....      +>  *+-.           ",
"        ++  @#%$$......       +@  +@$.          ",
"        +  @#$$$.....          +@  +...         ",
"       +@ +&$......$            ++ ++$.         ",
"       +#+&........              ++ +%$         ",
"      ++@*.......                  +++$.        ",
"      +@%.......                    @+%$        ",
"     +#%.......                      @@$.       ",
"     &........                        @%..      ",
"      ......$                           ..      ",
"       .....                             $$     ",
"        ..                                .     ",
"                                                "};
