/* XPM */
static const char * summon_xpm[] = {
"26 26 6 1",
" 	c None",
".	c #660000",
"+	c #330000",
"@	c #000000",
"#	c #990000",
"$	c #CC0000",
"        @@@@@@@@          ",
"      @@@@+++++@@@        ",
"     @@++++....+++@       ",
"    @++...........++      ",
"   @+..........#....+     ",
"  @+.#$$.............+    ",
" @@.#$$$#........+..#.@   ",
" @+#$$$$.........++.##+   ",
"@+.#$$$#.....+....+.##.@  ",
"@+.#$$#...+++@@.....##.+  ",
"@+..##..+++++@+.....##.@  ",
"@+.....+++@@@@++....###+  ",
"@+.....++@@@@@@+++..##.+  ",
"@.....++@@@@@@@@++..#..+  ",
"@+...+++@@@@@@@+++.....+  ",
"@+...++++@@@@@+++...+..@  ",
" +...+++++@++++++.....+   ",
" @....++++++++++....#.+   ",
"  +....+++++++....##.+    ",
"   +.#..++.......##.+     ",
"    +.##........##.+      ",
"     +..##......+++       ",
"      ++...###..++        ",
"        @++++++@          ",
"                          ",
"                          "};
