/* XPM */
static const char * cross_button_xpm[] = {
"32 32 9 1",
" 	c None",
".	c #2C2B2E",
"+	c #3F405E",
"@	c #4C5086",
"#	c #57599D",
"$	c #6468C0",
"%	c #676BCA",
"&	c #6970D6",
"*	c #7178E8",
"            ........            ",
"         ..............         ",
"       ..................       ",
"      ....................      ",
"     ......................     ",
"    .@%@................@$@.    ",
"   ..%&*+..............+*&$..   ",
"  ...@*&%+............+%%*@...  ",
"  ....+%$%+..........+%$%+....  ",
" ......+%$%+........+%$%+...... ",
" .......+%$%+......+%$%+....... ",
" ........+%$%+....+%$%+........ ",
"..........+%$%+..+%$%+..........",
"...........+%$%++%$%+...........",
"............+%$&&$%+............",
".............+&**&+.............",
".............+&**&+.............",
"............+%$&&$%+............",
"...........+%$%++%$%+...........",
"..........+%$%+..+%$%+..........",
" ........+%$%+....+%$%+........ ",
" .......+%$%+......+%$%+....... ",
" ......+%$%+........+%$%+...... ",
"  ....+%$%+..........+%$%+....  ",
"  ...+%$%+............+%&*@...  ",
"   ..#$%+..............+*&%..   ",
"    .+#+................@%@.    ",
"     ......................     ",
"      ....................      ",
"       ..................       ",
"         ..............         ",
"            ........            "};
