/* XPM */
static const char * l1_button_xpm[] = {
"32 32 9 1",
" 	c None",
".	c #000100",
"+	c #2D2B2E",
"@	c #504E51",
"#	c #6F6D70",
"$	c #8A898C",
"%	c #ADADAD",
"&	c #CCCDCC",
"*	c #E2E4E1",
"                                ",
"                                ",
"                                ",
"                                ",
"                                ",
"                                ",
" .............................. ",
"................................",
"..++++++++++++++++++++++++++++..",
"..+++@@@+++++++++++++@$&$@++++..",
"..+++$&%@+++++++++++#%***#++++..",
"..+++%*&@+++++++++@$&&***$++++..",
"..+++%*&@+++++++++#&&&&*&$++++..",
"..+++%*&@+++++++++#%%#$&&$++++..",
"..+++%*&@+++++++++@@@+$&&$++++..",
"..+++%*&@+++++++++++++$&&$++++..",
"..+++%*&@+++++++++++++$&&$++++..",
"..+++%*&@+++++++++++++$&&$++++..",
"..+++%*&#@@@@@++++++++$&&$++++..",
"..+++&**&&&&&%#+++++++$**$++++..",
"..+++&***&&&&%$+++++++$**$++++..",
"..+++#&&%%%%%$@+++++++@%%@++++..",
"..++++++++++++++++++++++++++++..",
"................................",
" .............................. ",
"                                ",
"                                ",
"                                ",
"                                ",
"                                ",
"                                ",
"                                "};
