/* XPM */
static const char * l2_button_xpm[] = {
"32 32 9 1",
" 	c None",
".	c #000100",
"+	c #2E2C2F",
"@	c #504E51",
"#	c #6F6E70",
"$	c #89888A",
"%	c #AAABAA",
"&	c #CACBCA",
"*	c #E3E5E2",
"                                ",
"                                ",
"                                ",
"                                ",
"                                ",
"                                ",
" .............................. ",
"................................",
"..++++++++++++++++++++++++++++..",
"..+++@@@+++++++++++++#$$#@++++..",
"..+++$&%@++++++++++@$&&&%$@+++..",
"..+++%*&@+++++++++#%&&&%&&$@++..",
"..+++%*&@++++++++#**&%#@$&&%@+..",
"..+++%*&@++++++++%&*%@++#**&#+..",
"..+++%*&@++++++++#%$@++#&&*%@+..",
"..+++%*&@++++++++++++@$&&&$@++..",
"..+++%*&@+++++++++++@%&&&#++++..",
"..+++%*&@++++++++++@%&&%@+++++..",
"..+++%*&#@@@@@+++@%***&$$$$#@+..",
"..+++&**&&&&&%#++%****&&&&&%#+..",
"..+++&***&&&&%$++%***&&&&&&%#+..",
"..+++#&&%%%%%$@++#%%$$$$$$$#@+..",
"..++++++++++++++++++++++++++++..",
"................................",
" .............................. ",
"                                ",
"                                ",
"                                ",
"                                ",
"                                ",
"                                ",
"                                "};
