/* XPM */
static const char * r1_button_xpm[] = {
"32 32 9 1",
" 	c None",
".	c #000100",
"+	c #2E2C2F",
"@	c #545356",
"#	c #737274",
"$	c #8D8B8E",
"%	c #B1B2B1",
"&	c #D4D5D3",
"*	c #EAECE9",
"                                ",
"                                ",
"                                ",
"                                ",
"                                ",
"                                ",
" .............................. ",
"................................",
"..++++++++++++++++++++++++++++..",
"..++@$%%%%%%$@+++++++@$&$@++++..",
"..++$**&&&&**%@+++++#%**&#++++..",
"..++$*&$#@#&*&$+++@$&&**&$++++..",
"..++$&$@+++#**$+++#%&&%&&$++++..",
"..++$&%#@+@%*&#+++#%%#$&&$++++..",
"..++$***&&&&&$@+++@@@+$&&$++++..",
"..++$*******$+++++++++$&&$++++..",
"..++$&*&%&**#+++++++++$&&$++++..",
"..++$&&#++$&%+++++++++$&&$++++..",
"..++$&&@++@&&#++++++++$&&$++++..",
"..++$*&@+++%&&#+++++++$**$++++..",
"..++$&%@+++@&*%+++++++$&&$++++..",
"..++@%#+++++#$#+++++++@%%@++++..",
"..++++++++++++++++++++++++++++..",
"................................",
" .............................. ",
"                                ",
"                                ",
"                                ",
"                                ",
"                                ",
"                                ",
"                                "};
