/* XPM */
static const char * r2_button_xpm[] = {
"32 32 7 1",
" 	c None",
".	c #333333",
"+	c #000000",
"@	c #CCCCCC",
"#	c #999999",
"$	c #666666",
"%	c #FFFFFF",
"                                ",
"                                ",
"                                ",
"                                ",
"                                ",
"                                ",
" ++++++++++++++++++++++++++++++ ",
"++++++++++++++++++++++++++++++++",
"++............................++",
"++..$#@@@@@##........$##$.....++",
"++..#%%@@@@%%#$.....#@@@@#....++",
"++..#@@#$$$@%@#...$@@@@@@@#...++",
"++..#@#$...$%@#..$@@@#$$#@@#..++",
"++..#@@$..$#%@$..#@@#...$@%@$.++",
"++..#@%@@@@@@#$..$##...$@@@#..++",
"++..#%%%@%%%#.........#@@@#...++",
"++..#@%@#@%%$........#@@@$....++",
"++..#@@$..#@#......$#@@#$.....++",
"++..#@@$..$@@$...$#@@@@####$..++",
"++..#@@....#@@$..#%%%%@@@@@@$.++",
"++..#@@....$@@@..@%%@@@@@@@@$.++",
"++..$#$.....$#$..$#########$..++",
"++............................++",
"++++++++++++++++++++++++++++++++",
" ++++++++++++++++++++++++++++++ ",
"                                ",
"                                ",
"                                ",
"                                ",
"                                ",
"                                ",
"                                "};
