/* XPM */
static const char * select_button_xpm[] = {
"32 32 4 1",
" 	c None",
".	c #000000",
"+	c #000000",
"@	c #2C2B2C",
"                                ",
"                                ",
"                                ",
"                                ",
"                                ",
"                                ",
" ++++++++++++++++++++++++++++++ ",
"++++++++++++++++++++++++++++++++",
"++@@@@@@@@@@@@@@@@@@@@@@@@@@@@++",
"++@@@@@@@@@@@@@@@@@@@@@@@@@@@@++",
"++@@@@@@@@@@@@@@@@@@@@@@@@@@@@++",
"++@@@@@@@@@@@@@@@@@@@@@@@@@@@@++",
"++@@@@@@@@@@@@@@@@@@@@@@@@@@@@++",
"++@@@@@@@@@@@@@@@@@@@@@@@@@@@@++",
"++@@@@@@@@@@@@@@@@@@@@@@@@@@@@++",
"++@@@@@@@@@@@@@@@@@@@@@@@@@@@@++",
"++@@@@@@@@@@@@@@@@@@@@@@@@@@@@++",
"++@@@@@@@@@@@@@@@@@@@@@@@@@@@@++",
"++@@@@@@@@@@@@@@@@@@@@@@@@@@@@++",
"++@@@@@@@@@@@@@@@@@@@@@@@@@@@@++",
"++@@@@@@@@@@@@@@@@@@@@@@@@@@@@++",
"++@@@@@@@@@@@@@@@@@@@@@@@@@@@@++",
"++@@@@@@@@@@@@@@@@@@@@@@@@@@@@++",
"+.++++++++++++++++++++++++++++++",
" ++++++++++++++++++++++++++++++ ",
"                                ",
"                                ",
"                                ",
"                                ",
"                                ",
"                                ",
"                                "};
