/* XPM */
static const char * all_xpm[] = {
"32 32 369 2",
"  	c None",
". 	c #100405",
"+ 	c #190001",
"@ 	c #1C0001",
"# 	c #1A0506",
"$ 	c #0D0203",
"% 	c #2F0002",
"& 	c #4D0104",
"* 	c #5D0004",
"= 	c #690105",
"- 	c #660105",
"; 	c #410003",
"> 	c #0D0304",
", 	c #6A0105",
"' 	c #CC060D",
") 	c #7E0005",
"! 	c #700105",
"~ 	c #7A0105",
"{ 	c #510104",
"] 	c #690005",
"^ 	c #2E0002",
"/ 	c #CB060E",
"( 	c #D1050D",
"_ 	c #6E0005",
": 	c #5D0104",
"< 	c #500103",
"[ 	c #5E0104",
"} 	c #4C0104",
"| 	c #6E0105",
"1 	c #610105",
"2 	c #450003",
"3 	c #750005",
"4 	c #420103",
"5 	c #2B0102",
"6 	c #170102",
"7 	c #830106",
"8 	c #7B0005",
"9 	c #4F0104",
"0 	c #5F0104",
"a 	c #1D0102",
"b 	c #080101",
"c 	c #0A0101",
"d 	c #200102",
"e 	c #7D0105",
"f 	c #710004",
"g 	c #540104",
"h 	c #360102",
"i 	c #220102",
"j 	c #160101",
"k 	c #340102",
"l 	c #4E0104",
"m 	c #500305",
"n 	c #37090A",
"o 	c #780005",
"p 	c #480103",
"q 	c #330102",
"r 	c #390103",
"s 	c #6B0104",
"t 	c #820006",
"u 	c #490205",
"v 	c #830005",
"w 	c #6D0105",
"x 	c #600104",
"y 	c #720005",
"z 	c #3E0204",
"A 	c #5A0105",
"B 	c #680004",
"C 	c #6C0004",
"D 	c #560306",
"E 	c #021009",
"F 	c #000511",
"G 	c #001537",
"H 	c #01225A",
"I 	c #012A6F",
"J 	c #012869",
"K 	c #001B47",
"L 	c #01112D",
"M 	c #06120C",
"N 	c #023218",
"O 	c #025626",
"P 	c #036D30",
"Q 	c #036D31",
"R 	c #025024",
"S 	c #08381D",
"T 	c #020F25",
"U 	c #0143B0",
"V 	c #0045B8",
"W 	c #012F7D",
"X 	c #013388",
"Y 	c #013EA7",
"Z 	c #013285",
"` 	c #002C75",
" .	c #011C4B",
"..	c #031A0D",
"+.	c #029A44",
"@.	c #03C457",
"#.	c #037A36",
"$.	c #037E38",
"%.	c #039742",
"&.	c #03883C",
"*.	c #035A28",
"=.	c #003B9E",
"-.	c #0676FF",
";.	c #0152D5",
">.	c #013183",
",.	c #01358F",
"'.	c #01286B",
").	c #012665",
"!.	c #003CA1",
"~.	c #027132",
"{.	c #03FF80",
"].	c #03DE64",
"^.	c #03833A",
"/.	c #038139",
"(.	c #036F32",
"_.	c #035426",
":.	c #02A649",
"<.	c #021331",
"[.	c #0156DC",
"}.	c #012E7D",
"|.	c #012056",
"1.	c #011537",
"2.	c #01163C",
"3.	c #012F7E",
"4.	c #013792",
"5.	c #0145BA",
"6.	c #012055",
"7.	c #062715",
"8.	c #03CF5B",
"9.	c #035226",
"0.	c #033A1B",
"a.	c #032813",
"b.	c #037534",
"c.	c #038B3D",
"d.	c #03AB4A",
"e.	c #036C30",
"f.	c #031A43",
"g.	c #012A72",
"h.	c #012C76",
"i.	c #011A44",
"j.	c #010B1D",
"k.	c #01050D",
"l.	c #01112F",
"m.	c #011F53",
"n.	c #0142B1",
"o.	c #002769",
"p.	c #053219",
"q.	c #037333",
"r.	c #034721",
"s.	c #031F0F",
"t.	c #030A07",
"u.	c #032411",
"v.	c #03441F",
"w.	c #037C37",
"x.	c #03A548",
"y.	c #027935",
"z.	c #031E4E",
"A.	c #01348B",
"B.	c #012157",
"C.	c #011434",
"D.	c #010B1E",
"E.	c #010816",
"F.	c #010F29",
"G.	c #012A70",
"H.	c #05351A",
"I.	c #02873C",
"J.	c #035B29",
"K.	c #033619",
"L.	c #032110",
"M.	c #03170C",
"N.	c #032512",
"O.	c #03672E",
"P.	c #03672D",
"Q.	c #086631",
"R.	c #00358E",
"S.	c #012767",
"T.	c #011A45",
"U.	c #011538",
"V.	c #011A47",
"W.	c #012769",
"X.	c #002D78",
"Y.	c #027333",
"Z.	c #037032",
"`.	c #034520",
" +	c #03371A",
".+	c #03431F",
"++	c #034E24",
"@+	c #03612C",
"#+	c #03893C",
"$+	c #028039",
"%+	c #062251",
"&+	c #003DA6",
"*+	c #013287",
"=+	c #012460",
"-+	c #012B72",
";+	c #012D79",
">+	c #013EA6",
",+	c #013896",
"'+	c #028F3F",
")+	c #038E3E",
"!+	c #035E2A",
"~+	c #036E31",
"{+	c #037133",
"]+	c #039341",
"^+	c #029341",
"/+	c #023286",
"(+	c #003896",
"_+	c #003A9C",
":+	c #00338B",
"<+	c #052459",
"[+	c #047234",
"}+	c #02883C",
"|+	c #038D3E",
"1+	c #03853B",
"2+	c #045828",
"3+	c #0C0310",
"4+	c #2B023B",
"5+	c #4F016C",
"6+	c #620287",
"7+	c #5A027C",
"8+	c #400158",
"9+	c #141008",
"0+	c #291E04",
"a+	c #322603",
"b+	c #332708",
"c+	c #1C0326",
"d+	c #8D08B8",
"e+	c #A808DC",
"f+	c #7D01AC",
"g+	c #8D02C1",
"h+	c #AB02E9",
"i+	c #8E02C3",
"j+	c #72019C",
"k+	c #4A0664",
"l+	c #433204",
"m+	c #806403",
"n+	c #917304",
"o+	c #AB8604",
"p+	c #B48D04",
"q+	c #8A6D03",
"r+	c #544208",
"s+	c #8406AF",
"t+	c #FC42FF",
"u+	c #D21BFD",
"v+	c #9001C5",
"w+	c #8B02BF",
"x+	c #9802CF",
"y+	c #70029A",
"z+	c #6A0191",
"A+	c #9F02D9",
"B+	c #6E5503",
"C+	c #FFF204",
"D+	c #EDC904",
"E+	c #A78204",
"F+	c #AF8804",
"G+	c #CC9E04",
"H+	c #8C6E04",
"I+	c #A37F03",
"J+	c #785E07",
"K+	c #2D023E",
"L+	c #A208D5",
"M+	c #DD23FF",
"N+	c #8C02BF",
"O+	c #600284",
"P+	c #43025C",
"Q+	c #400259",
"R+	c #7D02AB",
"S+	c #BE02FF",
"T+	c #570376",
"U+	c #2F2406",
"V+	c #E4CA04",
"W+	c #FFFF04",
"X+	c #D0A704",
"Y+	c #987704",
"Z+	c #836704",
"`+	c #907004",
" @	c #886B04",
".@	c #D7A603",
"+@	c #3D0452",
"@@	c #73019D",
"#@	c #8001B0",
"$@	c #4E026B",
"%@	c #230230",
"&@	c #100217",
"*@	c #36024A",
"=@	c #5E0281",
"-@	c #9702CF",
";@	c #B701FB",
">@	c #7601A1",
",@	c #4C3B05",
"'@	c #A88404",
")@	c #CDA304",
"!@	c #7A6004",
"~@	c #4E3B04",
"{@	c #2D2204",
"]@	c #5B4704",
"^@	c #A78304",
"/@	c #CD9E04",
"(@	c #E8B403",
"_@	c #614C08",
":@	c #51096D",
"<@	c #5D0280",
"[@	c #360249",
"}@	c #1C0228",
"|@	c #13021B",
"1@	c #250232",
"2@	c #470260",
"3@	c #74029F",
"4@	c #68038D",
"5@	c #5D4905",
"6@	c #9C7B04",
"7@	c #806404",
"8@	c #403104",
"9@	c #191304",
"0@	c #0F0B04",
"a@	c #291F04",
"b@	c #534004",
"c@	c #B18A04",
"d@	c #C99C03",
"e@	c #775F0A",
"f@	c #9401CA",
"g@	c #66028C",
"h@	c #460260",
"i@	c #410259",
"j@	c #51026F",
"k@	c #68028F",
"l@	c #8B02BD",
"m@	c #7C01A9",
"n@	c #654F09",
"o@	c #B58D04",
"p@	c #675004",
"q@	c #453504",
"r@	c #2F2304",
"s@	c #2F2404",
"t@	c #4D3A04",
"u@	c #775E04",
"v@	c #8A6C03",
"w@	c #5C087B",
"x@	c #AA01E8",
"y@	c #5C027E",
"z@	c #71029B",
"A@	c #7601A2",
"B@	c #9E03D6",
"C@	c #A904E4",
"D@	c #A68103",
"E@	c #987804",
"F@	c #5E4904",
"G@	c #5A4504",
"H@	c #705804",
"I@	c #7C6204",
"J@	c #9A7A04",
"K@	c #E0AE03",
"L@	c #836606",
"M@	c #8F02C4",
"N@	c #A201DE",
"O@	c #A401DF",
"P@	c #9700CF",
"Q@	c #64028A",
"R@	c #B88F04",
"S@	c #CFA104",
"T@	c #9F7D04",
"U@	c #A27F04",
"V@	c #A88304",
"W@	c #BE9303",
"X@	c #765C05",
"Y@	c #81650A",
"Z@	c #9F7C03",
"`@	c #B38B03",
" #	c #9D7B05",
"                            . + @ #                             ",
"                        $ % & * = - ;                           ",
"                      > , ' ) - ! ~ { ]                         ",
"                      ^ / ( _ : < [ } | 1                       ",
"                      2 ) 3 4 5 6 } ! 7 8                       ",
"                      9 0 4 a b c d 4 e f                       ",
"                      g [ h i j a k l 9 m                       ",
"                      n o p q r 4 l s t                         ",
"                        u v w [ x , y z                         ",
"                            A B C D                 E           ",
"    F G H I J K L                             M N O P Q R S     ",
"  T U V W X Y Z `  .                        ..+.@.#.$.%.&.P *.  ",
"  =.-.;.X >.,.'.).!.                        ~.{.].^.#./.(._.:.  ",
"<.=.[.}.|.1.2.3.4.5.6.                    7.$.8./.9.0.a.b.c.d.e.",
"f.g.h.i.j.k.l.m.4.n.o.                    p.e.q.r.s.t.u.v.w.x.y.",
"z.A.B.C.D.E.F. .G.`                       H.I.J.K.L.M.N.v.O.P.Q.",
"  R.S.T.U.V.m.W.4.X.                        Y.Z.`. +.+++@+#+$+  ",
"  %+&+*+=+-+;+>+,+                            '+)+!+~+{+]+^+    ",
"      /+(+_+:+<+                                [+}+|+1+2+      ",
"                                                                ",
"                                                                ",
"                                                                ",
"          3+4+5+6+7+8+                  9+0+a+b+                ",
"        c+d+e+f+g+h+i+j+k+            l+m+n+o+p+q+r+            ",
"        s+t+u+v+w+x+y+z+A+          B+C+D+E+F+G+H+I+J+          ",
"      K+L+M+N+O+P+Q+R+N+S+T+      U+V+W+X+Y+Z+`+ @H+.@          ",
"      +@@@#@$@%@&@*@=@-@;@>@      ,@'@)@!@~@{@]@^@/@(@_@        ",
"      :@N+<@[@}@|@1@2@3@f+4@      5@6@7@8@9@0@a@b@c@d@e@        ",
"        f@g@h@[@i@j@k@l@m@        n@o@p@q@r@s@t@u@H+v@          ",
"        w@x@R+y@z@A@B@C@            D@E@F@G@H@I@J@K@L@          ",
"            M@N@O@P@Q@                R@S@T@U@V@W@X@            ",
"                                        Y@Z@`@ #                "};
