/* XPM */
static const char * command_star_full_xpm[] = {
"48 48 90 1",
" 	c None",
".	c #E7E700",
"+	c #B2B200",
"@	c #E6E600",
"#	c #D1D100",
"$	c #838300",
"%	c #E5E500",
"&	c #949400",
"*	c #828200",
"=	c #818100",
"-	c #CFCF00",
";	c #B1B100",
">	c #CBCB00",
",	c #E4E400",
"'	c #898900",
")	c #B8B800",
"!	c #C3C300",
"~	c #8C8C00",
"{	c #ADAD00",
"]	c #C8C800",
"^	c #848400",
"/	c #DEDE00",
"(	c #7F7F00",
"_	c #BDBD00",
":	c #A5A500",
"<	c #BBBB00",
"[	c #E8E800",
"}	c #E3E300",
"|	c #E0E000",
"1	c #C6C600",
"2	c #878700",
"3	c #9F9F00",
"4	c #999900",
"5	c #868600",
"6	c #858500",
"7	c #DDDD00",
"8	c #DADA00",
"9	c #AFAF00",
"0	c #929200",
"a	c #B9B900",
"b	c #D9D900",
"c	c #D8D800",
"d	c #B5B500",
"e	c #8D8D00",
"f	c #808000",
"g	c #7E7E00",
"h	c #DBDB00",
"i	c #C9C900",
"j	c #888800",
"k	c #C7C700",
"l	c #C0C000",
"m	c #9B9B00",
"n	c #7C7C00",
"o	c #D2D200",
"p	c #E2E200",
"q	c #9D9D00",
"r	c #959500",
"s	c #B0B000",
"t	c #D4D400",
"u	c #A6A600",
"v	c #DCDC00",
"w	c #E1E100",
"x	c #AAAA00",
"y	c #DFDF00",
"z	c #D7D700",
"A	c #9A9A00",
"B	c #B6B600",
"C	c #909000",
"D	c #D3D300",
"E	c #8F8F00",
"F	c #C2C200",
"G	c #BCBC00",
"H	c #CACA00",
"I	c #E9E900",
"J	c #CCCC00",
"K	c #A7A700",
"L	c #8B8B00",
"M	c #C1C100",
"N	c #BABA00",
"O	c #939300",
"P	c #B3B300",
"Q	c #D5D500",
"R	c #ACAC00",
"S	c #EAEA00",
"T	c #9E9E00",
"U	c #BFBF00",
"V	c #AEAE00",
"W	c #CDCD00",
"X	c #ABAB00",
"Y	c #8E8E00",
"                                                ",
"                     .+                         ",
"                     @#$                        ",
"                     %@&*                       ",
"                    @@.+=*                      ",
"                    @%@-=$$                     ",
"                    %@%%&*$                     ",
"                   @%@@@;*$                     ",
"                   %@@@@>$*$                    ",
"                   %@@@@,'$$                    ",
"                  @@@@@@.)**                    ",
"                  @@@@@@@!=*$                   ",
"                  %%@@@@%%~*$                   ",
"                 @%@@@@@@@{*$                   ",
"                 @@@@@@@@@]**^                  ",
"                 @%@@@@@@@/$((                  ",
"                @%@@@@@@@%@_::                  ",
" <%[%@%%@@@%@@%%%@@@@@@@@@@}||%@@%@@@%%%[@12*   ",
"  3][@@@@@@@@@@%@%@@@@@@@@%@@@@@@@@@@@@[!45$$$  ",
"   6;7%%@%@@@@@@@@@@@@@@@@@@@@@@@@@@%%89$**$$$$ ",
"    (0ab,@@@@@@@@@@@@@@@@@@@@@@@%@@%cdef*$$$*$* ",
"      ge>/@@@@@@@@@@@@@@@@@@@@%@.,hij(=$$$$*$** ",
"        =:k%@@%@@@@@@@@@@@@@@@@.8lm=**$$$**$    ",
"         n5do.@%@@@@@@@@@@@@%@p<q^f*$$$$*$*     ",
"            rs|@@@@@@@@@@@@@@tu*(*$$$$*$$       ",
"             *v@@@@@@@@@@@@@@h^*$$*$**$         ",
"              ,@@@@@@@@@@@@@%@<=$$$$$           ",
"             @@%@@@@@@@@@@@@@@w5$*$             ",
"             %@@@@@@@@@@@@@@@%%x*^              ",
"            %@@@@@@@%y|@@@@@@@@v2$              ",
"           @%@@@@@@@z&A8@@@@@@%@B*$             ",
"           %@@@@@@@-Cf(rD@@@@@@@wE*             ",
"           @@@@@@@1~f$$fCi%@@@@%@F*$            ",
"          %@@@@@@G'=$$$$fC%%@%@@@,A*            ",
"         @@@@%[%+5=$$$$$$  %%%%@%@H=$           ",
"         %@@%IJK6*$$$$*      %%@@@pL*           ",
"        @@@@IML^*$$$$**       %%%%@]=$          ",
"        %@@.N5**$$$$*          .%%@,O**         ",
"       @@%%P**$$$$**            @@%%Q$$         ",
"       %@wRf*$$****              S,%@T*         ",
"      .@v:($$$$$**                #w%75$        ",
"      }QT($$$*$*$                  U8.T*        ",
"     |dr($$$*$*                     V7W2$       ",
"     X*f$$$$$*                        bY*$      ",
"      *$$$*$*                           *$      ",
"       $$$$*                             **     ",
"        *$                                $     ",
"                                                "};
