/* XPM */
static const char * command_xpm[] = {
"26 26 358 2",
"  	c None",
". 	c #010101",
"+ 	c #080603",
"@ 	c #070602",
"# 	c #0C0903",
"$ 	c #0D0A03",
"% 	c #0B0902",
"& 	c #0F0B03",
"* 	c #070502",
"= 	c #040302",
"- 	c #1C1504",
"; 	c #2E2204",
"> 	c #3F2F04",
", 	c #483804",
"' 	c #4E3B04",
") 	c #4B3904",
"! 	c #3F3003",
"~ 	c #332604",
"{ 	c #231903",
"] 	c #161002",
"^ 	c #0B0903",
"/ 	c #1E1603",
"( 	c #5C4604",
"_ 	c #6D5604",
": 	c #785E04",
"< 	c #836704",
"[ 	c #856904",
"} 	c #856903",
"| 	c #806604",
"1 	c #775E04",
"2 	c #665004",
"3 	c #463503",
"4 	c #2F2403",
"5 	c #120D03",
"6 	c #362904",
"7 	c #624C04",
"8 	c #7D6204",
"9 	c #8C6E04",
"0 	c #947404",
"a 	c #AD8604",
"b 	c #B38B04",
"c 	c #B88E04",
"d 	c #B98F04",
"e 	c #9A7804",
"f 	c #856A04",
"g 	c #685103",
"h 	c #140F03",
"i 	c #4D3B03",
"j 	c #A17904",
"k 	c #CEA304",
"l 	c #CA9C04",
"m 	c #A88304",
"n 	c #987704",
"o 	c #997804",
"p 	c #A58004",
"q 	c #AC8604",
"r 	c #C09504",
"s 	c #D1A204",
"t 	c #DEAD04",
"u 	c #C59904",
"v 	c #9B7904",
"w 	c #8E6F04",
"x 	c #8E6F03",
"y 	c #4B3A03",
"z 	c #4F3C04",
"A 	c #B98E04",
"B 	c #F9E503",
"C 	c #FEFA04",
"D 	c #FEE304",
"E 	c #C99D04",
"F 	c #A37F04",
"G 	c #9E7C04",
"H 	c #A48004",
"I 	c #A98304",
"J 	c #BA9004",
"K 	c #C69904",
"L 	c #D0A204",
"M 	c #876A04",
"N 	c #907003",
"O 	c #9F7C04",
"P 	c #B58D03",
"Q 	c #483703",
"R 	c #0A0702",
"S 	c #2F2303",
"T 	c #A27F04",
"U 	c #FDE304",
"V 	c #FFFF04",
"W 	c #FFF304",
"X 	c #E2B004",
"Y 	c #B78D04",
"Z 	c #B68E04",
"` 	c #B18904",
" .	c #C29704",
"..	c #C19604",
"+.	c #7A6004",
"@.	c #836804",
"#.	c #E2AF04",
"$.	c #9B7903",
"%.	c #271D02",
"&.	c #191203",
"*.	c #644E04",
"=.	c #E4B604",
"-.	c #FEFF04",
";.	c #FFFE04",
">.	c #FEE504",
",.	c #D2A304",
"'.	c #B18A04",
").	c #AB8504",
"!.	c #A78104",
"~.	c #A48104",
"{.	c #B08904",
"].	c #9D7B04",
"^.	c #6A5504",
"/.	c #896B04",
"(.	c #E3B004",
"_.	c #D6A503",
":.	c #5D4803",
"<.	c #050401",
"[.	c #352804",
"}.	c #896C04",
"|.	c #FDD504",
"1.	c #FEFC04",
"2.	c #EBBE04",
"3.	c #917304",
"4.	c #6F5804",
"5.	c #977704",
"6.	c #937204",
"7.	c #856604",
"8.	c #7F6504",
"9.	c #675204",
"0.	c #806504",
"a.	c #DBA904",
"b.	c #E9B404",
"c.	c #161102",
"d.	c #130F03",
"e.	c #4F3C03",
"f.	c #907204",
"g.	c #EFBF04",
"h.	c #FFF804",
"i.	c #F8D504",
"j.	c #BB8E04",
"k.	c #8D6F04",
"l.	c #7C6204",
"m.	c #755D04",
"n.	c #6B5404",
"o.	c #1E1504",
"p.	c #322504",
"q.	c #957604",
"r.	c #8A6C04",
"s.	c #AC8504",
"t.	c #D8A804",
"u.	c #E6B204",
"v.	c #B78E03",
"w.	c #392A03",
"x.	c #130E02",
"y.	c #5F4A04",
"z.	c #8A6E03",
"A.	c #DAA904",
"B.	c #E8B804",
"C.	c #C29404",
"D.	c #907104",
"E.	c #755C04",
"F.	c #654F04",
"G.	c #544104",
"H.	c #453404",
"I.	c #3B2D04",
"J.	c #201804",
"K.	c #392B04",
"L.	c #A07E04",
"M.	c #C19504",
"N.	c #CC9E04",
"O.	c #E5B103",
"P.	c #D3A404",
"Q.	c #332602",
"R.	c #1D1603",
"S.	c #6B5304",
"T.	c #8B6E04",
"U.	c #A68104",
"V.	c #AA8404",
"W.	c #8F7104",
"X.	c #796004",
"Y.	c #5B4604",
"Z.	c #423104",
"`.	c #1F1704",
" +	c #594404",
".+	c #796104",
"++	c #8C6F04",
"@+	c #A17E04",
"#+	c #B78E04",
"$+	c #D6A604",
"%+	c #E4B004",
"&+	c #493803",
"*+	c #1D1703",
"=+	c #745A04",
"-+	c #917204",
";+	c #937404",
">+	c #3E2F04",
",+	c #281E04",
"'+	c #161204",
")+	c #0B0804",
"!+	c #0C0904",
"~+	c #1E1604",
"{+	c #2E2304",
"]+	c #433204",
"^+	c #5D4704",
"/+	c #6A5304",
"(+	c #A27E04",
"_+	c #C39704",
":+	c #D5A604",
"<+	c #DBAA04",
"[+	c #554203",
"}+	c #1A1402",
"|+	c #7D6104",
"1+	c #997903",
"2+	c #A17F04",
"3+	c #826704",
"4+	c #634C04",
"5+	c #463504",
"6+	c #322604",
"7+	c #231A04",
"8+	c #161004",
"9+	c #0E0B04",
"0+	c #0E0A04",
"a+	c #150F04",
"b+	c #201904",
"c+	c #2F2204",
"d+	c #3D2F04",
"e+	c #574204",
"f+	c #7E6504",
"g+	c #BD9204",
"h+	c #D3A304",
"i+	c #BA9003",
"j+	c #4D3B02",
"k+	c #1F1803",
"l+	c #7C6003",
"m+	c #A78304",
"n+	c #564104",
"o+	c #443304",
"p+	c #342804",
"q+	c #2A1E04",
"r+	c #191204",
"s+	c #181204",
"t+	c #1D1504",
"u+	c #291E04",
"v+	c #3D2D04",
"w+	c #534004",
"x+	c #695204",
"y+	c #A58103",
"z+	c #594403",
"A+	c #6E5604",
"B+	c #8A6E04",
"C+	c #6A5404",
"D+	c #4A3804",
"E+	c #3E2E04",
"F+	c #312604",
"G+	c #2B2004",
"H+	c #251D04",
"I+	c #271D04",
"J+	c #342704",
"K+	c #685204",
"L+	c #755E04",
"M+	c #856804",
"N+	c #8A6B04",
"O+	c #1F1802",
"P+	c #B68E03",
"Q+	c #957504",
"R+	c #6F5A04",
"S+	c #604904",
"T+	c #533F04",
"U+	c #473604",
"V+	c #382A04",
"W+	c #443404",
"X+	c #4E3C04",
"Y+	c #765E04",
"Z+	c #866A04",
"`+	c #977604",
" @	c #846704",
".@	c #AD8703",
"+@	c #574203",
"@@	c #281D02",
"#@	c #816503",
"$@	c #CD9D04",
"%@	c #AE8704",
"&@	c #816504",
"*@	c #695404",
"=@	c #5E4704",
"-@	c #483704",
";@	c #5A4404",
">@	c #614A04",
",@	c #634E04",
"'@	c #6C5504",
")@	c #785F04",
"!@	c #846804",
"~@	c #D4A504",
"{@	c #A88203",
"]@	c #352803",
"^@	c #473603",
"/@	c #B08A03",
"(@	c #D2A204",
"_@	c #A98503",
":@	c #695304",
"<@	c #5F4804",
"[@	c #584304",
"}@	c #775F04",
"|@	c #795F04",
"1@	c #876B04",
"2@	c #927304",
"3@	c #A98404",
"4@	c #F1BB03",
"5@	c #F1BB04",
"6@	c #C99B03",
"7@	c #574303",
"8@	c #594503",
"9@	c #CA9D03",
"0@	c #D9A904",
"a@	c #CB9C04",
"b@	c #745D04",
"c@	c #927204",
"d@	c #F1BA04",
"e@	c #FCC404",
"f@	c #C79A03",
"g@	c #6B5303",
"h@	c #C89B04",
"i@	c #E0AE04",
"j@	c #CC9F04",
"k@	c #987804",
"l@	c #886C04",
"m@	c #9F7D04",
"n@	c #A58104",
"o@	c #EFB904",
"p@	c #523E03",
"q@	c #A98403",
"r@	c #D3A303",
"s@	c #C99C03",
"t@	c #B78F04",
"u@	c #B58D04",
"v@	c #B58C03",
"w@	c #B38A04",
"x@	c #9C7A04",
"y@	c #7C6103",
"z@	c #5C4803",
"A@	c #4C3903",
"B@	c #423403",
"C@	c #715803",
"D@	c #9D7904",
"E@	c #DCAA04",
"F@	c #D7A704",
"G@	c #BF9503",
"H@	c #9C7B04",
"I@	c #6B5403",
"J@	c #3B2C03",
"K@	c #1C1502",
"L@	c #453403",
"M@	c #3E3002",
"N@	c #4B3903",
"O@	c #513F03",
"P@	c #4C3A02",
"Q@	c #241C02",
"                . + @ # $ % & *                     ",
"            = $ - ; > , ' ) ! ~ { ]                 ",
"          ^ / > ( _ : < [ } | 1 2 3 4               ",
"        5 6 7 8 [ 9 0 a b c d a e f g !             ",
"      h i j k l m n o p q r s t u v w x y           ",
"    5 z A B C D E F G H I J K L G M N O P Q         ",
"  R S T U V V W X Y b Z ` Z  ...M +.@.v #.$.%.      ",
"  &.*.=.V -.;.>.,.'.).!.~.a {.J ].^.+./.(._.:.      ",
"<.[.}.|.V ;.1.2.).o 3.}.}.4.5.6.7.8.9.0.a.b.6.c.    ",
"d.e.f.g.h.1.i.j.k.l.m.n.' o.p.q.r.c s.J t.u.v.w.    ",
"x.y.z.` A.B.C.D.E.F.G.H.I.J.K.k.L.{.M.N.t.O.P.Q.    ",
"R.S.f T.U.V.W.X.Y.Z.~ `.J.6  +.+++@+#+N.$+%+A.&+    ",
"*+=+f -+O ;+8  +>+,+'+)+!+~+{+]+^+/+(+_+:+<+N.[+    ",
"}+|+1+2+e 3+4+5+6+7+8+9+0+a+b+c+d+e+f+g+h+i+J j+    ",
"k+l+I m+-+_ n+o+p+q+~+r+s+t+u+v+w+x+8.W.0 T.y+z+    ",
"% A+Z b B+C+e+D+E+F+G+H+I+J+H.e+K+l.k.k.L+M+N+O+    ",
"  y P+r Q+R+S+T+U+> 6 V+W+X+ +2 Y+Z+`+n  @.@+@      ",
"  @@#@$@%@&@*@=@T+D+-@;@>@,@'@)@!@f.p N.~@{@]@      ",
"    ^@/@(@_@f+:@<@[@F.}@Y+|@8.1@2@3@4@5@6@7@        ",
"      8@9@0@a@T b@,@0.T.T.++c@5.s.d@e@f@g@          ",
"        g@h@i@<+j@k@l@m@m@@+n@M.o@0@W.p@            ",
"          g@q@r@A.a.s@t@u@v@w@x@y@z@A@              ",
"            B@C@D@P+j@0@E@F@G@H@I@J@                ",
"                K@L@M@N@O@P@8@Q@                    ",
"                                                    ",
"                                                    "};
