/* XPM */
static const char * magic_star_full_xpm[] = {
"48 48 12 1",
" 	c None",
".	c #33FF33",
"+	c #006633",
"@	c #339966",
"#	c #00CC00",
"$	c #339933",
"%	c #33CC33",
"&	c #009900",
"*	c #33CC00",
"=	c #336633",
"-	c #009933",
";	c #00CC33",
"                                                ",
"                     .&                         ",
"                     .#=                        ",
"                     ..$@                       ",
"                    ...&++                      ",
"                    ...#+++                     ",
"                    ....$++                     ",
"                   .....&+++                    ",
"                   .....#++@                    ",
"                   ......+++                    ",
"                  .......%++                    ",
"                  .......%+++                   ",
"                  ........+++                   ",
"                 .........&++                   ",
"                 .........*+++                  ",
"                 ..........=++                  ",
"                ...........%&-                  ",
" %..........................##............*++   ",
"  $*....................................%$@@++  ",
"   +%..................................%+@+++++ ",
"    +$%#............................#&+++++++++ ",
"      ++##........................##++@+++@++++ ",
"        =-;.....................#;-+@+++++@+    ",
"         ++%#..................%$++++++++++     ",
"            $&...............#&++++++@++        ",
"             =#..............#=++++@+++         ",
"              ................%++++++           ",
"             ..................++++             ",
"             ..................&++              ",
"            .........##........#@+              ",
"           .........#$$#........%@@             ",
"           ........#$++$#........$+             ",
"           .......*@++++$*.......;++            ",
"          .......%@@+++@+$........$+            ",
"         .......&+@++++++  .......#++           ",
"         .....*-+@+++++     .......=+           ",
"        .....%$@@++++++       .....#@+          ",
"        ....%@@@+++@+          .....+++         ",
"       ....&@+++++@@            .....@+         ",
"       ..#&++++++@+              ....$@         ",
"      ..#-++++++@+                *#..@+        ",
"      .#$++++++++                  %#.$@        ",
"     .%$+++++++                     -##@+       ",
"     &++++++++                        #$++      ",
"      ++++++@                           ++      ",
"       +++++                             @@     ",
"        ++                                +     ",
"                                                "};
