/* XPM */
static const char * summon_star_full_xpm[] = {
"48 48 106 2",
"  	c None",
". 	c #E50000",
"+ 	c #970000",
"@ 	c #E60000",
"# 	c #A70000",
"$ 	c #690000",
"% 	c #F40000",
"& 	c #600000",
"* 	c #EB0000",
"= 	c #780000",
"- 	c #6A0000",
"; 	c #A40000",
"> 	c #D00000",
", 	c #620000",
"' 	c #EE0000",
") 	c #790000",
"! 	c #A30000",
"~ 	c #C80000",
"{ 	c #660000",
"] 	c #ED0000",
"^ 	c #610000",
"/ 	c #B40000",
"( 	c #BA0000",
"_ 	c #670000",
": 	c #F00000",
"< 	c #E70000",
"[ 	c #9F0000",
"} 	c #C60000",
"| 	c #E40000",
"1 	c #5A0000",
"2 	c #650000",
"3 	c #F30000",
"4 	c #E80000",
"5 	c #B50000",
"6 	c #940000",
"7 	c #930000",
"8 	c #F90000",
"9 	c #EF0000",
"0 	c #8F0000",
"a 	c #AB0000",
"b 	c #F10000",
"c 	c #DE0000",
"d 	c #E90000",
"e 	c #C20000",
"f 	c #840000",
"g 	c #C00000",
"h 	c #7A0000",
"i 	c #6D0000",
"j 	c #A80000",
"k 	c #680000",
"l 	c #710000",
"m 	c #A90000",
"n 	c #DA0000",
"o 	c #A10000",
"p 	c #640000",
"q 	c #CF0000",
"r 	c #DB0000",
"s 	c #CD0000",
"t 	c #5E0000",
"u 	c #BE0000",
"v 	c #D40000",
"w 	c #BB0000",
"x 	c #8E0000",
"y 	c #AC0000",
"z 	c #AE0000",
"A 	c #870000",
"B 	c #7F0000",
"C 	c #9D0000",
"D 	c #E20000",
"E 	c #9B0000",
"F 	c #570000",
"G 	c #E10000",
"H 	c #CE0000",
"I 	c #B80000",
"J 	c #990000",
"K 	c #E00000",
"L 	c #DC0000",
"M 	c #750000",
"N 	c #DD0000",
"O 	c #AA0000",
"P 	c #EA0000",
"Q 	c #6F0000",
"R 	c #D20000",
"S 	c #730000",
"T 	c #EC0000",
"U 	c #C10000",
"V 	c #6B0000",
"W 	c #720000",
"X 	c #BC0000",
"Y 	c #B10000",
"Z 	c #810000",
"` 	c #A00000",
" .	c #CC0000",
"..	c #900000",
"+.	c #5F0000",
"@.	c #D10000",
"#.	c #AF0000",
"$.	c #A60000",
"%.	c #9C0000",
"&.	c #D90000",
"*.	c #8A0000",
"=.	c #CB0000",
"-.	c #E30000",
";.	c #820000",
">.	c #B90000",
",.	c #700000",
"                                          . +                                                   ",
"                                          @ # $                                                 ",
"                                          @ % &                                                 ",
"                                        . @ * = -                                               ",
"                                        . @ . ; - -                                             ",
"                                        @ @ @ > , - $                                           ",
"                                        @ @ @ ' ) - -                                           ",
"                                      @ @ @ @ @ ! - - $                                         ",
"                                      @ @ @ @ . ~ { - -                                         ",
"                                      . @ @ @ @ ] ^ - -                                         ",
"                                    @ @ @ @ @ @ . / - - -                                       ",
"                                    @ @ @ @ @ @ @ ( _ - -                                       ",
"                                    @ @ @ @ @ @ @ : - - -                                       ",
"                                  . @ @ @ @ @ @ @ < [ - $                                       ",
"                                  . @ @ @ @ @ @ @ . } _ - $                                     ",
"                                  @ @ @ @ @ @ @ @ @ | 1 2 2                                     ",
"  3 . @ @ @ @ @ @ @ @ @ @ @ @ @ @ @ @ @ @ @ @ @ @ @ 4 5 6 7 8 @ @ @ @ @ @ @ @ @ @ @ 9 0         ",
"  a b 4 @ @ . . @ @ @ . . @ @ @ @ @ @ @ @ @ @ @ @ @ . | c c @ . . . . @ @ . . @ d ] e - $       ",
"    f g < . @ @ @ @ @ @ @ @ @ @ @ @ @ @ @ @ @ @ @ @ @ @ @ @ . @ @ @ @ @ @ @ . < 5 h i $ $ -     ",
"      { j 4 . @ . @ @ @ @ @ @ @ @ @ @ @ @ @ @ @ @ @ @ @ @ @ @ @ @ @ @ @ @ . @ j k $ - - - - -   ",
"        { l m n < @ @ @ @ @ @ @ @ @ @ @ @ @ @ @ @ @ @ @ @ @ @ @ @ @ @ @ n o _ { - - - - $ - -   ",
"          _ p k q r 4 . @ @ @ @ @ @ @ @ @ @ @ @ @ @ @ @ @ @ @ . < < n s , 2 $ - - - - - - - -   ",
"              k t 7 u * 4 . @ @ @ @ @ @ @ @ @ @ @ @ @ @ @ @ @ * v w x & $ - - - - - $ - $       ",
"                  , ^ y s ] @ @ @ @ @ @ @ @ @ @ @ @ @ @ @ < < z A & 2 - - - - - - - -           ",
"                      1 B C D @ @ @ @ @ @ @ @ @ @ @ @ @ @ v E ^ { - - - - $ - - -               ",
"                        , F G @ @ @ @ @ @ @ @ @ @ @ @ @ @ c F - - - - $ $ - $ $                 ",
"                          H . @ @ @ @ @ @ @ @ @ @ @ @ @ @ < I - - - - - -                       ",
"                          @ @ @ @ @ @ @ @ @ @ @ @ @ @ @ @ . < & - - -                           ",
"                        . @ @ @ @ @ @ @ @ @ @ @ @ @ @ @ @ @ < J - $                             ",
"                        @ @ @ @ @ @ @ . @ G D @ . @ @ @ @ @ . K k -                             ",
"                      . . @ @ @ @ @ . 4 L M B N < . @ @ @ @ @ < O k $                           ",
"                      . @ @ @ @ @ . P > Q k _ = R P . @ @ @ @ . @ S -                           ",
"                    @ @ @ @ @ @ . T U V k - - _ W e < @ @ @ @ @ @ X { -                         ",
"                    @ @ @ @ @ . 9 Y k $ - - - $ k l P . . @ @ @ . 4 Z -                         ",
"                  @ @ @ @ @ P : ` k $ - - - $ - -     . @ @ @ @ @ @  .- $                       ",
"                  @ @ @ @ P g ..k $ - - - $ - $         . . @ @ @ . @ +.- -                     ",
"                @ @ @ . d I W $ $ - - - $ - $               . @ @ @ @ @.$ -                     ",
"                . @ . 4 #.i $ $ - - - $ -                     @ @ @ . @ { - $                   ",
"              @ . @ . $.$ - - - - - $ $                         @ @ @ . < $ -                   ",
"              . @ G %._ - - - - - $ $                             < . @ . = $                   ",
"            @ < r 7 { - - - - - $ -                                 &.. . b $ -                 ",
"            @ v *.2 - - - - - $ -                                     =.-.. ;.$ $               ",
"          < m f { - - - - - $ $                                         >.-. .V -               ",
"          J ^ { - - - - - $                                                 < ,.- -             ",
"          1 - - - - - - $                                                     ,.- $             ",
"            - - - $ - -                                                           $ $           ",
"                - -                                                                 -           ",
"                                                                                                "};
