/* XPM */
static const char * support_star_full_xpm[] = {
"48 48 92 2",
"  	c None",
". 	c #0061BC",
"+ 	c #004B8E",
"@ 	c #005BB0",
"# 	c #003766",
"$ 	c #0064C2",
"% 	c #003D73",
"& 	c #00396A",
"* 	c #0061BD",
"= 	c #0062BD",
"- 	c #004C91",
"; 	c #005AAE",
"> 	c #003665",
", 	c #003969",
"' 	c #003E74",
") 	c #00386A",
"! 	c #0062BC",
"~ 	c #004C90",
"{ 	c #003869",
"] 	c #0058A9",
"^ 	c #003767",
"/ 	c #0064C1",
"( 	c #003663",
"_ 	c #00519B",
": 	c #00539F",
"< 	c #003868",
"[ 	c #0065C3",
"} 	c #0062BE",
"| 	c #004A8D",
"1 	c #0057A7",
"2 	c #0061BB",
"3 	c #00335F",
"4 	c #00529C",
"5 	c #004787",
"6 	c #004786",
"7 	c #004F96",
"8 	c #0065C4",
"9 	c #005FB8",
"0 	c #0063BF",
"a 	c #0056A5",
"b 	c #00427C",
"c 	c #0055A4",
"d 	c #003E75",
"e 	c #003A6C",
"f 	c #004E94",
"g 	c #003B6E",
"h 	c #005EB5",
"i 	c #004B8F",
"j 	c #005FB7",
"k 	c #0059AC",
"l 	c #003664",
"m 	c #003562",
"n 	c #0055A2",
"o 	c #0063C0",
"p 	c #005CB1",
"q 	c #0054A0",
"r 	c #004582",
"s 	c #003563",
"t 	c #005AAD",
"u 	c #004F97",
"v 	c #00427D",
"w 	c #004078",
"x 	c #00498C",
"y 	c #005CB0",
"z 	c #00498B",
"A 	c #00335E",
"B 	c #0060BA",
"C 	c #00325D",
"D 	c #00529E",
"E 	c #00498A",
"F 	c #0060B9",
"G 	c #005EB6",
"H 	c #003C71",
"I 	c #004E95",
"J 	c #003A6D",
"K 	c #003C70",
"L 	c #0056A4",
"M 	c #003B6F",
"N 	c #0054A1",
"O 	c #005099",
"P 	c #00417A",
"Q 	c #004583",
"R 	c #005BAF",
"S 	c #005098",
"T 	c #004D92",
"U 	c #004A8C",
"V 	c #0062C0",
"W 	c #0060BB",
"X 	c #00447F",
"Y 	c #005DB3",
"Z 	c #00396B",
"` 	c #004889",
"                                                                                                ",
"                                          . +                                                   ",
"                                          . @ #                                                 ",
"                                          . $ % &                                               ",
"                                        * = . - & &                                             ",
"                                        = = = ; > & ,                                           ",
"                                        = = = $ ' & )                                           ",
"                                      = ! = = = ~ & & {                                         ",
"                                      = = = = . ] ^ ) &                                         ",
"                                      * = = = = / ( & &                                         ",
"                                    = = = = = = . _ & &                                         ",
"                                    * = = = = = = : < & )                                       ",
"                                    = = = = = = = [ & & &                                       ",
"                                  ! = = = = = = = } | & {                                       ",
"                                  ! = = = = = = = . 1 < & ,                                     ",
"                                  = = = = = = = = = 2 3 # #                                     ",
"                                = = = = = = = = = = } 4 5 6                                     ",
"  7 8 } = = = . . = = . ! = . . = = = = = = = = = = . . 9 9 = = ! . = = = . . = 0 / a & {       ",
"    b c } . = = = = = = = = = = = = = = = = = = = = = = = . . = = = = = = = . } 4 d e { , &     ",
"      ^ f } . = . = = = = = = = = = = = = = = = = = = = = = = = = = = = = . = f < { & & & ) &   ",
"        ^ g f h = = = = = = = = = = = = = = = = = = = = = = = = = = = = h i < ^ & & & & { & )   ",
"            # < ; j } . = = = = = = = = = = = = = = = = = = = . = } h k l # { & & & & & ) ) &   ",
"                m 6 n o } . = = = = = = = = = = = = = = = = = o p q r s { & & & & & { &         ",
"                  l l 7 t / = = = = = = = = = = = = = = = } } u v s ^ & & & & & & & &           ",
"                        w x 2 = = = = = = = = = = = = = = y z l ^ & & & & , & &                 ",
"                          A B = = = = = = = = = = = = = = 9 C & & & & , { & {                   ",
"                            . = = = = = = = = = = = = = = = D & & & & & &                       ",
"                          = = = = = = = = = = = = = = = = . = s & & &                           ",
"                          = = = = = = = = = = = = = = = = = = E & {                             ",
"                        * = = = = = = . = F B = . = = = = = . F { &                             ",
"                      ! * = = = = = . } G H w j } . = = = = = = I { {                           ",
"                      ! = = = = = . 0 ; J { < ' @ 0 . = = = = . = K &                           ",
"                      = = = = = . / L & { & & < M a } = = = = = = N ^ &                         ",
"                    ! = = = = . [ O { { & & & { < M 0 . . = = = . } P &                         ",
"                  = = = = = 0 8 + < { & & & { ) )     . = = = = = = k & ,                       ",
"                  = = = = 0 c Q < { & & & { &             . = = = . = s &                       ",
"                = = = . 0 : M { { & & & & & ,               . = = = = R { &                     ",
"                . = . } S e { { & & & & &                     = = = . = ^ & ,                   ",
"              = . = . T { & & & & & & ,                         = = = . } { &                   ",
"              . = F U < & & & & & { {                             V 2 * W % {                   ",
"            = = h 6 ^ & & & & & { &                                 @ B * 8 { &                 ",
"            = p X ^ & & & & & {                                         Y . P {                 ",
"          } f b ^ & & & & & {                                             j k Z &               ",
"          ` l ^ & & & & & &                                                 p g & &             ",
"            & ) & & ) & {                                                       & {             ",
"              & & { & &                                                           { {           ",
"                ) &                                                                 &           ",
"                                                                                                "};
