/* XPM */
static const char * support_star_full_xpm[] = {
"48 48 4 1",
" 	c None",
".	c #0066CC",
"+	c #003366",
"@	c #336699",
"                                                ",
"                     .+                         ",
"                     ..+                        ",
"                     ..++                       ",
"                    ...+++                      ",
"                    ....+++                     ",
"                    ....+++                     ",
"                   .....++++                    ",
"                   ......+++                    ",
"                   ......+++                    ",
"                  ........++                    ",
"                  ........+++                   ",
"                  ........+++                   ",
"                 .........+++                   ",
"                 ..........+++                  ",
"                 ..........+++                  ",
"                ...........@++                  ",
" +.........................................++   ",
"  +.....................................@+++++  ",
"   ++..................................++++++++ ",
"    +++..............................++++++++++ ",
"      ++............................+++++++++++ ",
"        ++........................++++++++++    ",
"         +++...................++++++++++++     ",
"            ++................++++++++++        ",
"             +................+++++++++         ",
"              .................++++++           ",
"             ..................++++             ",
"             ..................+++              ",
"            ....................++              ",
"           ..........++.........+++             ",
"           .........++++.........++             ",
"           ........++++++.........++            ",
"          .......@++++++++........++            ",
"         .......+++++++++  ........++           ",
"         ......++++++++      ......++           ",
"        ......+++++++++       ......++          ",
"        ....@++++++++          .....+++         ",
"       ....+++++++++            .....++         ",
"       ...+++++++++              ....++         ",
"      ...+++++++++                ....++        ",
"      ..++++++++                    ..++        ",
"     .+++++++++                      ..++       ",
"     +++++++++                        .+++      ",
"      +++++++                           ++      ",
"       +++++                             ++     ",
"        ++                                +     ",
"                                                "};
