/* XPM */
static const char * support_xpm[] = {
"26 26 7 1",
" 	c None",
".	c #003399",
"+	c #000033",
"@	c #333366",
"#	c #000000",
"$	c #003366",
"%	c #0066FF",
"         ######           ",
"       ###+++++##         ",
"     ##++$$@@@$$+++       ",
"    #++$$@@.....@$++      ",
"   #+....@.......@@@+     ",
"  #+.%%%.........$@..+    ",
"  +.%%%%........@@@..@    ",
" #+.%%%%........@$@@..+   ",
" +@%%%%..@@@@$$@@@$@..$   ",
"#+@.%%%.@$@$+#+$@......#  ",
"#+@....@@++++#+$@......#  ",
"#$$@..@@+++##++$@......+  ",
"#@@@@@$++#####+++$@....+  ",
"#$@..@+++######+++@....+  ",
"#$..@$+++######+++$@@@.+  ",
" +..@$++++###+++$$@@@@$   ",
" +..@@++++++++++@@@@@.+   ",
"  @..$++++++++$@$@...@    ",
"  +...$$+++@@$$@@....+    ",
"   +....$+$@@@@.....$     ",
"    @.....@@......@+      ",
"     +@.........@++       ",
"       +@......@+         ",
"         ++++++           ",
"                          ",
"                          "};
