/* XPM */
static const char * black_choco_xpm[] = {
"64 64 557 2",
"  	c None",
". 	c #000000",
"+ 	c #060606",
"@ 	c #2A2A2A",
"# 	c #474747",
"$ 	c #535353",
"% 	c #545454",
"& 	c #4F4F4F",
"* 	c #373737",
"= 	c #0D0D0D",
"- 	c #0E0E0E",
"; 	c #2D2D2D",
"> 	c #464646",
", 	c #606060",
"' 	c #646464",
") 	c #666666",
"! 	c #363636",
"~ 	c #151515",
"{ 	c #090909",
"] 	c #2B2B2B",
"^ 	c #555555",
"/ 	c #5F5F5F",
"( 	c #434343",
"_ 	c #313131",
": 	c #101010",
"< 	c #030303",
"[ 	c #242424",
"} 	c #444444",
"| 	c #656565",
"1 	c #656566",
"2 	c #636363",
"3 	c #515151",
"4 	c #2F2F2F",
"5 	c #050505",
"6 	c #131313",
"7 	c #323232",
"8 	c #525252",
"9 	c #7E7E7E",
"0 	c #8E8E8E",
"a 	c #939393",
"b 	c #989898",
"c 	c #9B9B9B",
"d 	c #9E9F9F",
"e 	c #7F7E7C",
"f 	c #686763",
"g 	c #686764",
"h 	c #72716E",
"i 	c #9F9FA0",
"j 	c #9C9C9C",
"k 	c #9A9A9A",
"l 	c #949494",
"m 	c #909090",
"n 	c #868686",
"o 	c #404040",
"p 	c #333333",
"q 	c #C2C2C2",
"r 	c #CECECE",
"s 	c #D9D9D9",
"t 	c #E5E5E5",
"u 	c #F1F1F1",
"v 	c #FCFCFC",
"w 	c #FFFFFF",
"x 	c #AEADA3",
"y 	c #6F6D5B",
"z 	c #716E5D",
"A 	c #716E5C",
"B 	c #8C897B",
"C 	c #FEFEFE",
"D 	c #F6F6F6",
"E 	c #EAEAEA",
"F 	c #DEDEDE",
"G 	c #D2D2D2",
"H 	c #C8C8C8",
"I 	c #999999",
"J 	c #757575",
"K 	c #B9B9B9",
"L 	c #C1C1C1",
"M 	c #CCCCCC",
"N 	c #D8D8D8",
"O 	c #E4E4E4",
"P 	c #EFEFEF",
"Q 	c #FBFBFB",
"R 	c #B3B19F",
"S 	c #787455",
"T 	c #7A7657",
"U 	c #797556",
"V 	c #939076",
"W 	c #FDFDFD",
"X 	c #F5F5F5",
"Y 	c #E9E9E9",
"Z 	c #DDDDDD",
"` 	c #D1D1D1",
" .	c #C6C6C6",
"..	c #BDBDBD",
"+.	c #8F8F8F",
"@.	c #3A3A3A",
"#.	c #494949",
"$.	c #ADADAD",
"%.	c #B4B4B4",
"&.	c #BFBFBF",
"*.	c #CBCBCB",
"=.	c #D7D7D7",
"-.	c #E3E3E3",
";.	c #FAFAFA",
">.	c #B8B59C",
",.	c #817B4F",
"'.	c #837D51",
").	c #827C51",
"!.	c #9A9572",
"~.	c #DCDCDC",
"{.	c #D0D0D0",
"].	c #C5C5C5",
"^.	c #B3B3B3",
"/.	c #797979",
"(.	c #AAAAAA",
"_.	c #CBCBCA",
":.	c #DFDED6",
"<.	c #F1EEE2",
"[.	c #FEFBEF",
"}.	c #FFFFFC",
"|.	c #C4BF9A",
"1.	c #8A824A",
"2.	c #8B834C",
"3.	c #8B834B",
"4.	c #A49D6E",
"5.	c #FFFFF5",
"6.	c #F7F5E8",
"7.	c #E7E6DC",
"8.	c #D2D2D0",
"9.	c #C4C4C4",
"0.	c #B8B8B8",
"a.	c #AEAEAE",
"b.	c #979797",
"c.	c #040404",
"d.	c #A7A7A7",
"e.	c #B2B2B2",
"f.	c #C7C5BD",
"g.	c #7786D2",
"h.	c #2543DD",
"i.	c #0F31DD",
"j.	c #0E30DD",
"k.	c #0E30DC",
"l.	c #072ADF",
"m.	c #5A6283",
"n.	c #968B44",
"o.	c #948A46",
"p.	c #958B45",
"q.	c #7B7960",
"r.	c #0428DE",
"s.	c #0D30DB",
"t.	c #0D30DD",
"u.	c #1C3CDD",
"v.	c #586DD8",
"w.	c #C4C4C3",
"x.	c #B9B8B8",
"y.	c #ACACAC",
"z.	c #A6A6A6",
"A.	c #A1A1A1",
"B.	c #A5A5A5",
"C.	c #B7B6B1",
"D.	c #8791C7",
"E.	c #1C3CDC",
"F.	c #1738DD",
"G.	c #1637DE",
"H.	c #1738DE",
"I.	c #1637DA",
"J.	c #0F31DA",
"K.	c #62697E",
"L.	c #9E923E",
"M.	c #9D9140",
"N.	c #9D913F",
"O.	c #837F5B",
"P.	c #0C2EDA",
"Q.	c #1636D8",
"R.	c #1637DD",
"S.	c #1839DD",
"T.	c #5D70D1",
"U.	c #C1BFB5",
"V.	c #ABABAB",
"W.	c #BAB8AF",
"X.	c #5B6ECE",
"Y.	c #1637DB",
"Z.	c #1536D5",
"`.	c #0E2FD5",
" +	c #676C78",
".+	c #A89938",
"++	c #A6983A",
"@+	c #A79839",
"#+	c #8B8555",
"$+	c #0B2CD4",
"%+	c #1534D2",
"&+	c #1638DD",
"*+	c #1537DE",
"=+	c #3C55D6",
"-+	c #B6B6B6",
";+	c #ABABAA",
">+	c #A4A4A4",
",+	c #A0A0A0",
"'+	c #B9B7AE",
")+	c #5A6DCE",
"!+	c #1637DC",
"~+	c #1535D5",
"{+	c #0E2ECE",
"]+	c #0224CD",
"^+	c #686B71",
"/+	c #B1A032",
"(+	c #AF9F34",
"_+	c #90884F",
":+	c #0021CC",
"<+	c #0C2CCB",
"[+	c #1333D2",
"}+	c #1536D9",
"|+	c #B4B4B6",
"1+	c #AAAAA9",
"2+	c #A3A3A3",
"3+	c #737373",
"4+	c #A2A2A2",
"5+	c #9F9F9F",
"6+	c #B8B6AD",
"7+	c #596DCE",
"8+	c #1435D6",
"9+	c #3B55D8",
"0+	c #C0C8F1",
"a+	c #EBEFFF",
"b+	c #CDC386",
"c+	c #B7A52C",
"d+	c #B8A62E",
"e+	c #B7A52E",
"f+	c #C0B354",
"g+	c #D5DBF5",
"h+	c #596FDC",
"i+	c #1736D3",
"j+	c #3B55D5",
"k+	c #B3B3B5",
"l+	c #A9A9A8",
"m+	c #414141",
"n+	c #9E9E9E",
"o+	c #080808",
"p+	c #6D6D6D",
"q+	c #969696",
"r+	c #B7B6AD",
"s+	c #596CCD",
"t+	c #1839DC",
"u+	c #1535D7",
"v+	c #2945D5",
"w+	c #C7CEF3",
"x+	c #D9CE83",
"y+	c #C0AC26",
"z+	c #C0AD28",
"A+	c #C0AC28",
"B+	c #CABA4F",
"C+	c #FCFCFE",
"D+	c #3650D5",
"E+	c #1535D4",
"F+	c #1435DA",
"G+	c #B3B3B4",
"H+	c #202020",
"I+	c #8D8D8D",
"J+	c #898989",
"K+	c #262626",
"L+	c #212121",
"M+	c #B7B5AD",
"N+	c #586CCC",
"O+	c #1737D7",
"P+	c #1534D1",
"Q+	c #2B46D1",
"R+	c #D0D6F4",
"S+	c #FAFBFF",
"T+	c #D8CC79",
"U+	c #C8B320",
"V+	c #C9B423",
"W+	c #C9B322",
"X+	c #CFBE47",
"Y+	c #F3F4FD",
"Z+	c #3851D1",
"`+	c #1433CE",
" @	c #1435D5",
".@	c #3A54D2",
"+@	c #B2B2B4",
"@@	c #AEAEAD",
"#@	c #161616",
"$@	c #818181",
"%@	c #686868",
"&@	c #8A8A8A",
"*@	c #8C8C8C",
"=@	c #BAB9B0",
"-@	c #586BC9",
";@	c #1636D2",
">@	c #1332CD",
",@	c #2944CD",
"'@	c #D1D7F4",
")@	c #FFFFFD",
"!@	c #EBEDF5",
"~@	c #D7CA71",
"{@	c #D1BA1B",
"]@	c #D2BA1D",
"^@	c #D2BA1C",
"/@	c #D3C040",
"(@	c #E3E4F0",
"_@	c #F5F6F6",
":@	c #3650CE",
"<@	c #1331CA",
"[@	c #1332D0",
"}@	c #3A53CF",
"|@	c #B6B7B8",
"1@	c #626161",
"2@	c #707070",
"3@	c #9D9D9D",
"4@	c #919191",
"5@	c #222222",
"6@	c #747474",
"7@	c #808080",
"8@	c #010101",
"9@	c #5A5954",
"0@	c #606B9B",
"a@	c #394A9E",
"b@	c #62687E",
"c@	c #7E7F74",
"d@	c #D5CC8B",
"e@	c #EADD8B",
"f@	c #DCD185",
"g@	c #D9C542",
"h@	c #DBC116",
"i@	c #DBC117",
"j@	c #DAC229",
"k@	c #D8CC82",
"l@	c #E3D686",
"m@	c #EFE290",
"n@	c #838575",
"o@	c #6F7374",
"p@	c #37489D",
"q@	c #505D9E",
"r@	c #6A6A6B",
"s@	c #0D0D0C",
"t@	c #5D5D5D",
"u@	c #858585",
"v@	c #343434",
"w@	c #232323",
"x@	c #6F6F6F",
"y@	c #717171",
"z@	c #636468",
"A@	c #9F933F",
"B@	c #E9CB0E",
"C@	c #E4C811",
"D@	c #E7CA0F",
"E@	c #BFAB2A",
"F@	c #626369",
"G@	c #575757",
"H@	c #5E5E5E",
"I@	c #6A6963",
"J@	c #EECF0B",
"K@	c #EDCF0B",
"L@	c #F3D407",
"M@	c #5F6062",
"N@	c #1A1A1A",
"O@	c #3C3C3C",
"P@	c #929292",
"Q@	c #838383",
"R@	c #1C1C1C",
"S@	c #848484",
"T@	c #8B8B8B",
"U@	c #0B0B0B",
"V@	c #686867",
"W@	c #9E9140",
"X@	c #FEDD00",
"Y@	c #F5D606",
"Z@	c #FBDB02",
"`@	c #BFAC2A",
" #	c #686866",
".#	c #272727",
"+#	c #252525",
"@#	c #777777",
"##	c #787878",
"$#	c #393939",
"%#	c #676767",
"&#	c #171717",
"*#	c #6F6E69",
"=#	c #B4A430",
"-#	c #FFE300",
";#	c #FDDD00",
">#	c #FFE100",
",#	c #D0B91E",
"'#	c #747162",
")#	c #111111",
"!#	c #767676",
"~#	c #6B6B6B",
"{#	c #6E6E6E",
"]#	c #828282",
"^#	c #292929",
"/#	c #0F0F0F",
"(#	c #020202",
"_#	c #4A4A4A",
":#	c #0C0C0C",
"<#	c #232324",
"[#	c #6D6D6C",
"}#	c #C1AD29",
"|#	c #FFDF00",
"1#	c #FFDE00",
"2#	c #FFE000",
"3#	c #D6BE1A",
"4#	c #767462",
"5#	c #3B3B3D",
"6#	c #565656",
"7#	c #585858",
"8#	c #6A6A6A",
"9#	c #505050",
"0#	c #303030",
"a#	c #353636",
"b#	c #68696D",
"c#	c #CAB423",
"d#	c #E3C812",
"e#	c #727063",
"f#	c #47484A",
"g#	c #1D1D1D",
"h#	c #353535",
"i#	c #3E3E3E",
"j#	c #141414",
"k#	c #121212",
"l#	c #424242",
"m#	c #484849",
"n#	c #64656B",
"o#	c #EDCF0C",
"p#	c #6C6B64",
"q#	c #535456",
"r#	c #383838",
"s#	c #4D4D4D",
"t#	c #1F1F1F",
"u#	c #626262",
"v#	c #595958",
"w#	c #B9A72E",
"x#	c #FFE500",
"y#	c #DDC317",
"z#	c #5D5D5F",
"A#	c #595959",
"B#	c #3F3F3F",
"C#	c #646466",
"D#	c #938948",
"E#	c #F2D407",
"F#	c #AE9F36",
"G#	c #666665",
"H#	c #4C4C4C",
"I#	c #878787",
"J#	c #646566",
"K#	c #626368",
"L#	c #616269",
"M#	c #646467",
"N#	c #3B3B3B",
"O#	c #7F7F7F",
"P#	c #4E4E4E",
"Q#	c #2C2C2C",
"R#	c #484848",
"S#	c #696969",
"T#	c #5A5A5A",
"U#	c #616161",
"V#	c #070707",
"W#	c #6C6C6C",
"X#	c #7D7D7D",
"Y#	c #4B4B4B",
"Z#	c #454545",
"`#	c #5B5B5B",
" $	c #5C5C5C",
".$	c #7A7A7A",
"+$	c #888888",
"@$	c #7C7C7C",
"#$	c #727272",
"$$	c #1E1E1E",
"%$	c #7B7B7B",
"&$	c #3D3D3D",
"*$	c #282828",
"=$	c #959595",
"-$	c #181818",
";$	c #3C3C38",
">$	c #8D8974",
",$	c #9A9367",
"'$	c #6C6638",
")$	c #161407",
"!$	c #0B0A03",
"~$	c #595328",
"{$	c #938C59",
"]$	c #948E70",
"^$	c #515048",
"/$	c #2E2E2E",
"($	c #3F3E38",
"_$	c #FFFFD4",
":$	c #FEF2A1",
"<$	c #FFED79",
"[$	c #FFEF52",
"}$	c #AB991F",
"|$	c #65590D",
"1$	c #FFF03F",
"2$	c #FEEB67",
"3$	c #FFF08F",
"4$	c #FFFDBE",
"5$	c #7F7D6B",
"6$	c #59553C",
"7$	c #FFFA97",
"8$	c #FEEB68",
"9$	c #FFE640",
"0$	c #FFE717",
"a$	c #A69100",
"b$	c #605300",
"c$	c #FFE709",
"d$	c #FFE32D",
"e$	c #FFE956",
"f$	c #FFF381",
"g$	c #9E9663",
"h$	c #6C6431",
"i$	c #FFF15B",
"j$	c #FFE32E",
"k$	c #FFE50A",
"l$	c #A18D00",
"m$	c #090800",
"n$	c #020200",
"o$	c #695C00",
"p$	c #FFE402",
"q$	c #FFE11C",
"r$	c #FFEB47",
"s$	c #B0A246",
"t$	c #6B5F18",
"u$	c #FFE920",
"v$	c #FCDC01",
"w$	c #DCC000",
"x$	c #2D2700",
"y$	c #191600",
"z$	c #B49E00",
"A$	c #F8D800",
"B$	c #FFE30F",
"C$	c #AE9B1F",
"D$	c #F8F8F8",
"E$	c #584D02",
"F$	c #E8CB00",
"G$	c #AC9800",
"H$	c #1A1700",
"I$	c #E6E6E6",
"J$	c #877700",
"K$	c #E2C700",
"L$	c #F2D400",
"M$	c #9B8700",
"N$	c #BBBBBB",
"O$	c #1B1B1B",
"P$	c #373000",
"Q$	c #F0D200",
"R$	c #D7BE00",
"S$	c #A49200",
"T$	c #817300",
"U$	c #D1B900",
"V$	c #E4C900",
"W$	c #726400",
"X$	c #010100",
"Y$	c #171400",
"Z$	c #141200",
"`$	c #100F00",
" %	c #030200",
".%	c #0D0B00",
"+%	c #131100",
"@%	c #151300",
"#%	c #070600",
"                                            . . . . . . . . . . . . . . . . . . . .                                             ",
"                                          . . . . . . . . . . . . . . . . . . . . . . .                                         ",
"                                        . . . . . . . . . . . . . . . . . . . . . . . .                                         ",
"                                      . . . . . . . . . . . . . . . . . . . . . . . . . .                                       ",
"                                    . . . + @ # $ % % % % % % % % % % % % % % $ & * = . . .                                     ",
"                                  . . . - ; > , ' ) ) ) ) ) ) ) ) ) ) ) ) ) ) ' ' % ! ~ . . .                                   ",
"                                . . . { ] * ^ ' ' ) ) ) ) ) ) ) ) ) ) ) ) ) ) ' ' / ( _ : . . .                                 ",
"                                . . < [ _ } , ' ' ) | | | 1 1 1 1 1 1 | | | ) ' 2 2 3 ! 4 5 . . .                               ",
"                              . . . 6 7 ! 8 9 0 a b c d e f g g g g f h i j k l m n , o 7 [ . . .                               ",
"                            . . . . 4 p 9 q r s t u v w x y z z z z A B w C D E F G H I o 7 = . . .                             ",
"                            . . . < * J K L M N O P Q w R S T T T T U V w W X Y Z `  ...+.@.: . . .                             ",
"                            . . . < #.$.%.&.*.=.-.P ;.w >.,.'.'.'.'.).!.w W X Y ~.{.].K ^.' : . . .                             ",
"                            . . . < /.(.^.&._.:.<.[.}.w |.1.2.2.2.2.3.4.w w 5.6.7.8.9.0.a.b.: . . .                             ",
"        . . . . . . . . . . . . . c.c d.e.f.g.h.i.j.k.l.m.n.o.o.o.o.p.q.r.s.j.t.u.v.w.x.y.z.[ . . . . . . . . . . . . . .       ",
"      . . . . . . . . . . . . . . { A.B.C.D.E.F.G.H.I.J.K.L.M.M.M.M.N.O.P.Q.R.H.F.S.T.U.V.B.7 . . . . . . . . . . . . . .       ",
"    . . . . . . . . . . . . . . . { A.B.W.X.S.H.R.Y.Z.`. +.+++++++++@+#+$+%+Q.&+H.*+=+-+;+>+7 . . . . . . . . . . . . . . .     ",
"  . . . . . . . . . . . . . . . . { ,+>+'+)+S.R.!+~+{+]+^+/+(+(+(+(+(+_+:+<+[+}+H.*+=+|+1+2+_ . . . . . . . . . . . . . . . .   ",
". . . . . . 3+d.2+2+2+2+4+/ . . . { 5+2+6+7+S.!+8+9+0+a+b+c+d+d+d+d+e+f+a+g+h+i+}+G.j+k+l+4+_ . . . m+n+2+2+2+2+B.m o+. . . . . ",
". . . . . p+c b I I I I I q+m+. . 5 q+2+r+s+t+u+v+w+w w x+y+z+z+z+z+A+B+w w C+D+E+F+j+G+l+4+H+. . @ I+I I I I I I I J+. . . . . ",
". . . . # b.b I I I I I I I a K+. . L+B.M+N+O+P+Q+R+w S+T+U+V+V+V+V+W+X+Y+C w Z+`+ @.@+@@@m+. . #@$@c I b I I I I I b %@. . . . ",
". . . 6 &@k k k I b I I I I k *@: . . o =@-@;@>@,@'@)@!@~@{@]@]@]@]@^@/@(@_@w :@<@[@}@|@1@5 . o+2@3@I l b I b I k k k 4@_ . . . ",
". . . : 5@5@5@] 6@c I I b I I c 7@8@. 8@9@0@a@b@c@d@e@f@g@h@i@i@i@i@i@j@k@l@m@n@o@p@q@r@s@. . t@n+I m +.b I k u@v@5@5@w@#@. . . ",
". . . . . . . . < x@k I I b b.I c y@. . 8@& z@A@B@C@C@C@C@C@C@C@C@C@C@C@C@C@C@D@E@F@G@: . . #.3@I m n 0 b k 9 #@. . . . . . . . ",
". . . . . . . . . 8@u@I I b m l I b ' . . c.H@I@J@K@K@K@K@K@K@K@K@K@K@K@K@K@K@L@'.M@N@. . O@b I P@9 Q@0 b *@R@. . . . . . . . . ",
". . . . . . . . . . 6 b.I b m S@*@0 T@} . . U@V@W@X@Y@Y@Y@Y@Y@Y@Y@Y@Y@Y@Y@Y@Z@`@ #.#. . +#u@0 *@@###S@0 b.$#. . . . . . . . . . ",
"  . . . . . 5 ] .#.#w@%#c b m Q@@#J J x@[ . . &#*#=#-#;#;#;#;#;#;#;#;#;#;#>#,#'#p . . )#2 !#J ~#{#/.S@+.]#L+.#.#^#/#. . . . .   ",
"    . . . . (#& A.I k I I b m Q@@#%#8 ^ _#:#. . <#[#}#|#1#1#1#1#1#1#1#X@2#3#4#5#. . + O@6#$ 7#' x@/.S@0 b k I n+y@+ . . . .     ",
"      . . . . o+%@3@b I I b m Q@@#8#9#0#v@^#(#. 8@a#b#c#X@X@1#1#1#1#1#1#d#e#f#+ . 8@g#h#_ i#7#' x@/.S@0 b I c 7@j#. . . . .     ",
"      . . . . . k#9 k b I b m Q@@#8#H@l#_ v@w@. . 5 m#n#c#|#X@1#1#1#1#o#p#q#: . . j#h#7 r#s#7#' x@/.S@0 b I *@.#. . . . .       ",
"        . . . . . t#l A.3@b.m Q@@#~#u#8 @.7 h#= . . U@v#F@w#x#X@X@>#y#I@z#R@. . 8@h#7 v@( 9#A#' x@/.Q@4@,+c B#. . . . .         ",
"          . . . . . . . 5@a 4@Q@##| _ h#! ! r#: . . . 6 ' C#D#E#2#F#G#' ] . . . (#$#! ! ! v@H#| x@/.I#p . . . . . . .           ",
"            . . . . . . . .#m S@@#) l#} } } > t#. . . . t#8#J#K#L#M#%#N#. . . . = # } } } } 8 ' x@O#p . . . . . . .             ",
"              . . . . . . = %@n @#%@P#& & & & s#< . . . . Q#~#| | %@R#. . . . . ( 9#& & & & 6#' 2@~#~ . . . . . .               ",
"              . . . . . . = %@n @#S#7#A#A#A#A#A##.< . . . . N#~#%@$ . . . . . N#A#A#A#A#A#A#T#' 2@8#~ . . . . . .               ",
"              . . . . . . = %@n @#8#U#u#u#u#u#u#2 , 6#H#{ . < 7 o V#. < i#G@H@u#u#u#u#u#u#u#t@' 2@8#~ . . . . . .               ",
"              . . . . . . = %@n @#~#S#S#S#S#S#S#S#S#%@%#%@o+. . . . . 7#S#%@S#S#S#S#S#S#S#8#, ' 2@8#~ . . . . . .               ",
"              . . . . . . = %@n @#W#y@2@2@2@2@2@{#8#) u#/ 6#. . . . l#, U#| S#p+2@2@2@2@2@y@2 2 2@8#~ . . . . . .               ",
"              . . . . . . = %@n @#p+##@#!#6@!#y@%#T#s#} B#O@w@(#< &#N#B#( _#G@| 2@J !#6@@###| 2 2@8#j#. . . . . .               ",
"              . . . L+* * m+##u@@#!#X#7@#.H#6@) Y#* $#o Z##.Y#Y#Y#Y##.> m+N#! > U#6@`#h#O#X#@#2 x@2@B#v@* ; . . .               ",
"              . . . /#b.I b m Q@X#S@u@%@5 } S## h#m+Y#8 6#T# $t@t@t@`#G@$ H#( * B#| T#. T#u@S@.$p+/.S@0 b.h#. . .               ",
"              . . . . @.n+b m n +$+$@$)#. i#_#! } 3 `#2 %@8#p+p+p+p+~#%@2  $$ # r#} & . . #$+$+$X###S@4@U#. . . .               ",
"              . . . . . # ,+4@I+I+0 $$. . ; ! m+3 H@S#2@J /..$%$%$.$/.@##$~#U#% } r#r#. . < J+0 *@$@I#| . . . . .               ",
"                . . . . . r#c k 5+4 . . &#$#$#_# $8#6@@$$@S@n u@u@n S@]#X#J W#H@P#O@&$K+. . /#c k 3@#.< . . . .                 ",
"                  . . . . . . . . . . - P#i#i#8 2 y@@$S@J+*@*@I+I+I+*@J+u@9 6@) ^ l#@.T#N@. . . . . . . . . .                   ",
"                    . . . . . . . . c.& ) $#m+^ %#J 7@+$I++.m m m m +.I+J+$@##S#7#Z#r#t@~#o+. . . . . . . . .                   ",
"                    . . . . . . . . O@9 2 $#m+^ %#J 7@+$I++.+.m m m +.I+J+]#@#8#7#Z#r# $$@H@. . . . . . . .                     ",
"                      . . . . . . 5@p+%$p+O@B#3 2 y@@$Q@J+T@*@I+I+*@*@J+u@X#3+) % m+$#) $@!#l#. . . . . . .                     ",
"                      . . . . . = 9#S#X#/.#.$#Y#`#S#6@@$$@S@u@n n u@S@]#@$J ~#H@s#O@m+@#S@6@ $[ . . . . . .                     ",
"                      . . . . o+4 & S#9 n | * m+9#H@%@2@J ##.$%$@$.$/.J y@8#, $ } * `#I#u@6@ $N#k#. . . . .                     ",
"                    . . . . c.*$7 & S#O#I+$@3 ! ( 9#T#u#%#~#W#W#W#W#8#%@2 `#8 > * R#%$m n 6@ $O@] U@. . . .                     ",
"                  . . . . (#L+7 7 & 8#7@4@a .$P#! o #.3 6#T# $t@t@ $`#G@8 H#l#! Z#3+4@=$+$J t@O@0#*$5 . . . .                   ",
"                . . . . . -$p 0#7 ] * l#H#H#{#@$7#N#$#i#( R##.Y#Y#_##.Z#B#@.r#8 !#%$H#P## &$0#* 0#7 5@8@. . . .                 ",
"                . . . . : v@0#p )#. . . . . . U#J+y@, 8 > B#O@N#N#O@i#} & t@{#]#X#. . . . . . + _ _ 7 g#. . . . .               ",
"              . . . . { p 0#7 &#. (#;$>$,$'$)$. ' q+&@u@O#%$##@#@###.$9 S@J+4@I#. !$~${$]$^$o+. /#7 _ 7 &#. . . .               ",
"              . . . < /$/$0#t#(#. ($_$:$<$[$}$. = 9 c q+q+l a a P@a l =$q+b b ~ . |$1$2$3$4$5$. . -$0#/$/$- . . .               ",
"              . . . . . . . . . . 6$7$8$9$0$a$. . @ a b b.b.b.b.b.b.b.b.b.n+&$. . b$c$d$e$f$g$. . . . . . . . . .               ",
"              . . . . . . . . . . h$i$j$k$l$m$. . . . . . . . . . . . . . . . . . n$o$p$q$r$s$. . . . . . . . . .               ",
"              . . . . . . . . . . t$u$v$w$x$. . . . . . . . . . . . . . . . . . . . y$z$A$B$C$. . . . . . . . . .               ",
"              . . . 3 D$w w -./$. E$X@F$G$H$. . ^ w w w I$. . . . . . V.w w w I+(#. m$J$K$L$M$. &#..w w W 0 . . .               ",
"                . . ! w w w N$O$. P$Q$R$S$H$. . #.w w w 3@. . . . . . 8#w w w %$8@. m$T$U$V$W$. U@m w w w p+. . .               ",
"                . . . . o+U@. . . X$Y$Z$`$ %. . . . /#8@. . . . . . . . . - . . . . X$.%+%@%#%. . . (#)#. . . .                 ",
"                  . . . . . . . . . . . . . . . . . . . . . . . . . . . . . . . . . . . . . . . . . . . . . .                   ",
"                    . . . . . . . . . . . . . . . . . . . . . . . . . . . . . . . . . . . . . . . . . . . .                     ",
"                      . . . . . . . . . . . . . . . . . . . . . . . . . . . . . . . . . . . . . . . . . .                       "};
