/* XPM */
static const char * delete_xpm[] = {
"22 22 9 1",
" 	c None",
".	c #9D2937",
"+	c #264D85",
"@	c #6D6F6E",
"#	c #8B8D8A",
"$	c #6795CD",
"%	c #98BCDF",
"&	c #B6B8B4",
"*	c #DDE0DC",
"   ################   ",
"   #**************#   ",
" ++#**************#++ ",
"+%$@*&&&&&&&&&&&&*@$$+",
"+%$@&############&@$$+",
"+%$++++++++++++++++$$+",
"+%$$$$$$$$$$$$$$$$$.$+",
"+%%%%%%%%%%%%%%%%%%%$+",
"+%$$$$$$$$$$$$$$$$$$$+",
"++++++++++++++++++++++",
" #**@&@&@&#&@&#&#@&*# ",
" #*&###&#&#&#&#&&@**# ",
" #*##&&*#&&*&&&&*#**# ",
" #*#&*&*#*&*&*&**&&*# ",
" #*#*&**#***&&&*&*&*# ",
" #*##&*##**&**&*&&**# ",
" #*&&##&&##&**&##&&*# ",
" #*&&&&&&&&&&&&&&&**# ",
" ##&&&&&&&&&&&&&&**## ",
" @#**&&&&&&&&&&&**&#@ ",
"  @################@  ",
"                      "};
