/* XPM */
static const char * copy_xpm[] = {
"22 22 73 1",
" 	c None",
".	c #8C8E89",
"+	c #FFFFFF",
"@	c #F0F0EF",
"#	c #FEFEFE",
"$	c #EFEFEE",
"%	c #E9E9E8",
"&	c #E8E8E7",
"*	c #F6F6F6",
"=	c #90918D",
"-	c #CACACA",
";	c #C9C9C9",
">	c #979995",
",	c #8C8E8A",
"'	c #8D8F8A",
")	c #898B86",
"!	c #C5C6C5",
"~	c #8A8C87",
"{	c #CACAC9",
"]	c #C5C5C3",
"^	c #C7C7C6",
"/	c #C6C6C5",
"(	c #EEEEEE",
"_	c #EEEEED",
":	c #E6E6E5",
"<	c #EDEDEC",
"[	c #EDEDED",
"}	c #C9C9C8",
"|	c #C8C8C8",
"1	c #C8C8C7",
"2	c #C3C3C2",
"3	c #C5C5C5",
"4	c #C5C5C4",
"5	c #ECECEC",
"6	c #ECECEB",
"7	c #E4E5E4",
"8	c #C7C7C7",
"9	c #C1C1C1",
"0	c #F4F4F4",
"a	c #FDFDFD",
"b	c #EBEBEB",
"c	c #EBEBEA",
"d	c #EAEAEA",
"e	c #E3E3E2",
"f	c #EFEFEF",
"g	c #F2F2F2",
"h	c #FCFCFC",
"i	c #FAFAFA",
"j	c #EAEAE9",
"k	c #E9E9E9",
"l	c #E2E2E1",
"m	c #C4C4C4",
"n	c #C4C4C3",
"o	c #C3C3C3",
"p	c #CDCDCD",
"q	c #DCDCDC",
"r	c #F9F9F9",
"s	c #8B8D88",
"t	c #F7F7F7",
"u	c #E8E8E8",
"v	c #F3F3F3",
"w	c #F1F1F1",
"x	c #F0F0F0",
"y	c #BDBEBB",
"z	c #888A85",
"A	c #868A84",
"B	c #CFCFCF",
"C	c #BABBB9",
"D	c #898D87",
"E	c #B4B5B4",
"F	c #90948F",
"G	c #868A85",
"H	c #878A84",
" .............        ",
" +++++++++++++        ",
" +@@@@@@@@@@@#        ",
" +@@@@@$%%%%&*=       ",
" +@---;>....,'.......'",
" +@@@@%)+###########+.",
" +@---!)+@@@@@@@@@@@#.",
" +@@@@&~+@@@@@@@@@@$#.",
" +@-{{])+@^^^^^^^^/(#.",
" +@$(_:~+@$$$$$$__<[#.",
" +$}|12)+@^^^^^/334(#.",
" +_<567~+@@@@$$_[<_[#.",
" +<8^/9)+@1^^//33_[0#.",
" a6bcde~+@$(_<<6bfgfh.",
" icdjkl~+$334mnopqqgrs",
" tdk%ue~+_6bcdj5f[fgts",
" gvwxw[~+<56cd$xfwgwy)",
" zzzzzz)a6bcd5x(zzzzzz",
"       )icdj5ffwABBCz ",
"       )tdk_wwv0DBEzF ",
"       )ggwxw0t*GCz   ",
"       '))zzzzzHAz    "};
