/* XPM */
static const char * all_xpm[] = {
"32 32 37 1",
" 	c None",
".	c #660000",
"+	c #006633",
"@	c #000000",
"#	c #003399",
"$	c #660099",
"%	c #996600",
"&	c #9900CC",
"*	c #330000",
"=	c #000033",
"-	c #333300",
";	c #003366",
">	c #CC9900",
",	c #003300",
"'	c #666600",
")	c #333366",
"!	c #339933",
"~	c #330066",
"{	c #CC9933",
"]	c #330033",
"^	c #660066",
"/	c #009933",
"(	c #003333",
"_	c #CC33FF",
":	c #666633",
"<	c #009966",
"[	c #CC00FF",
"}	c #CC0000",
"|	c #9933CC",
"1	c #00CC66",
"2	c #0066FF",
"3	c #FFFF00",
"4	c #FFCC33",
"5	c #FFCC00",
"6	c #990000",
"7	c #FF33FF",
"8	c #00FF99",
"              @@@@              ",
"            @*....*             ",
"           @.}......            ",
"           *}}.......           ",
"           *..**@..6.           ",
"           ..*@@@**..           ",
"           ..**@@*...           ",
"           *.****...            ",
"            *6.....*            ",
"              ....        @     ",
"  @=;;)==              @,++++,  ",
" @##)###)=            @/1++/!++ ",
" #22###;;#            +81<+<++/ ",
"=#2#;==###;          (+1<+,,+!/+",
"=))=@@=;##;          ,++,(@(,+/+",
"=#;=@@==))           ,!+,(@(,+++",
" #)===;;#)            ++,,,++!+ ",
" ;##;))##              !!+++!!  ",
"   ####;                +!!<+   ",
"                                ",
"                                ",
"                                ",
"     @]^$~~         @---        ",
"    =|&$&_&$^      -'%{>%-      ",
"    |7[&&&$$&     '35{{>%{'     ",
"   ]&_&$~~$&[^   -53>%%%%%>     ",
"   ~$|^]@]$&[$   -{>'---{>4:    ",
"   ^&$]=@]~$$$   :%'-@@-->>'    ",
"    &$~]~~$&$    :>'----'%%     ",
"    ^_$$$$&_      {%:-''%4%     ",
"      &&&&$        >>%%{>'      ",
"                    %%>%        "};
