/* XPM */
static const char * command_star_empty_xpm[] = {
"48 48 7 1",
" 	c None",
".	c #999900",
"+	c #FFFF33",
"@	c #CCCC00",
"#	c #CCCC33",
"$	c #999933",
"%	c #666600",
"                                                ",
"                     +.                         ",
"                     +@$                        ",
"                     ++..                       ",
"                    +@+#..                      ",
"                    +#@@%..                     ",
"                    +..+...                     ",
"                   ++  +#...                    ",
"                   +.  @@$..                    ",
"                   +.  #+%..                    ",
"                  ++    +#..                    ",
"                  +#    +@...                   ",
"                  +.    .+...                   ",
"                 ++      +...                   ",
"                 +@      @@...                  ",
"                 +.      #+%$$                  ",
"                +@       .@@..                  ",
" #++++++++++++++@.        .@++++++++++++++@..   ",
"  .@+.                                #+@.....  ",
"   $#+@#                            #++#....... ",
"    $.#@#                          #@#.$....... ",
"      $.@+@                     .@+@%$......... ",
"        %.@@.                  @@@.%........    ",
"         %%#@@               #@#.%$........     ",
"            ..@.            @@.%$.......        ",
"             %+@            #@%........         ",
"              +              +@......           ",
"             +@               +%...             ",
"             +                +...              ",
"            +#      .++.      #+..              ",
"           ++      #+..+.      +#..             ",
"           +@     #@....@#     #+..             ",
"           +     @@......@#     @@$.            ",
"          +#    @@........+@.   .+..            ",
"         ++   @@#........   @#   +@..           ",
"         +   @@........      +@  .+%.           ",
"        ++  @@.........       +@  +@..          ",
"        +  +#........          +@  +$..         ",
"       +@ +#........            ++ ++..         ",
"       +#+.$.......              ++ +..         ",
"      ++@.$......                 @+++..        ",
"      +@.$......                    @+..        ",
"     +#.$......                      @@..       ",
"     .%$......                        @...      ",
"      .......                           ..      ",
"       .....                             ..     ",
"        ..                                .     ",
"                                                "};
