/* XPM */
static const char * independent_star_full_xpm[] = {
"48 48 7 1",
" 	c None",
".	c #FF33FF",
"+	c #990099",
"@	c #CC00CC",
"#	c #660066",
"$	c #CC33CC",
"%	c #FF00FF",
"                                                ",
"                     .+                         ",
"                     .@+                        ",
"                     ..++                       ",
"                    ...$++                      ",
"                    ...@#++                     ",
"                    ....+++                     ",
"                   .....$+++                    ",
"                   .....@+++                    ",
"                   ......#++                    ",
"                  .......@++                    ",
"                  .......@+++                   ",
"                  .......%+++                   ",
"                 .........+++                   ",
"                 .........@+++                  ",
"                 ..........#++                  ",
"                ...........@++                  ",
" $%.........................@@............@++   ",
"  +@....................................@+++++  ",
"   +$..................................$+++++++ ",
"    ++$@............................@$+++++++++ ",
"      ++@@........................@@#++++++++++ ",
"        #+@.....................@@+#++++++++    ",
"         ##$@..................$+#+++++++++     ",
"            ++...............@+#++++++++        ",
"             #@..............@#++++++++         ",
"              ................@++++++           ",
"             ..................#+++             ",
"             ..................+++              ",
"            .........@@........@++              ",
"           .........@++@........$++             ",
"           ........@++++@........++             ",
"           .......@++++++@.......@++            ",
"          ......%@++++++++........++            ",
"         ......%+++++++++  .......@++           ",
"         .....@++++++++      ......#+           ",
"        .....@+++++++++       .....@++          ",
"        ....@++++++++          .....+++         ",
"       ....$++++++++            .....++         ",
"       ..@+++++++++              ....++         ",
"      ..@+++++++++                @@.%++        ",
"      .@++++++++                    @.++        ",
"     .$++++++++                      @@++       ",
"     +#+++++++                        @+++      ",
"      +++++++                           ++      ",
"       +++++                             ++     ",
"        ++                                +     ",
"                                                "};
