/* XPM */
static const char * magic_xpm[] = {
"25 26 13 1",
" 	c None",
".	c #006633",
"+	c #003300",
"@	c #009933",
"#	c #000000",
"$	c #339933",
"%	c #003333",
"&	c #009966",
"*	c #33FF66",
"=	c #00CC66",
"-	c #33CC66",
";	c #00CC33",
">	c #00FF99",
"        ########         ",
"      ###%++++++##       ",
"     ##++.......++%      ",
"    #++....&$$$&...+     ",
"   #+.@@....&$@@@...+    ",
"  #+$;*;@....$@@....$+   ",
" #%.;*>*@$$$$$$$....@.%  ",
" #+@*>*;@&...&$$....@@+  ",
"#+.=*>*-............@@.# ",
"#+.-**=$....+#%..$&$@@$+ ",
"#+.&@@$..++++#+..&$@@@@+ ",
"#.......+++##++...$@@@@+ ",
"#......++%####%++..$@@@+ ",
"#.....++%%#####%++.$@$$+ ",
"#.....+++%####%++......+ ",
"#.$$..++++%%%+++.......# ",
" +$$..++++++++++.....&+  ",
" %.@&..+++++++.....@@.+  ",
"  +$@...+++.......==@+   ",
"   +@@@..+.......=-@.    ",
"    .@@@@......$-@.+     ",
"     ..@@@@$$$&..++      ",
"      +..$@@@@$..+       ",
"        #++++++#         ",
"                         ",
"                         "};
