/* XPM */
static const char * summon_star_empty_xpm[] = {
"48 48 6 1",
" 	c None",
".	c #660000",
"+	c #FF0000",
"@	c #CC0000",
"#	c #990000",
"$	c #FF3300",
"                                                ",
"                     +#                         ",
"                     +@.                        ",
"                     ++..                       ",
"                    +@+#..                      ",
"                    +#@@...                     ",
"                    +##+...                     ",
"                   ++  +#...                    ",
"                   +#  @@...                    ",
"                   +#  #+...                    ",
"                  ++    +@..                    ",
"                  +@    @@...                   ",
"                  +#    #+...                   ",
"                 ++      +#..                   ",
"                 +@      @@...                  ",
"                 +#      #+...                  ",
"                $@        @@##                  ",
" #+++$++++++++++@          @++++++++++++++@..   ",
"  #@+#                                #+@.....  ",
"   .#+@#                            #@+#....... ",
"    ..#@#                          @@#......... ",
"      ..@@@                     #@@@........... ",
"        .#@@#                 .@@@#.........    ",
"         ..#@@#              #@@#..........     ",
"            ##@#            @@#.........        ",
"             .@@            #@.........         ",
"              $.             +@......           ",
"             +@              #+....             ",
"             +       ##       +#..              ",
"            +#      #++#      @@..              ",
"           ++      #@.#+#      +#..             ",
"           +@     #@....@#     #+..             ",
"           $     @@......@@     @@..            ",
"          +#   .@@........+@#   #+#.            ",
"         ++   @@#........  +@#   +@..           ",
"         +#  @@#.......      +@  #+..           ",
"        ++  @@.........       +@  +@..          ",
"        +  @#........          @@  +...         ",
"       +@ +#........            +@ ++..         ",
"       +#+#........              $+ @..         ",
"      ++@#........                @+++..        ",
"      +@#.......                    @+#.        ",
"     +##.......                      @@..       ",
"     #........                        @...      ",
"      .......                           ..      ",
"       .....                             ..     ",
"        ..                                .     ",
"                                                "};
