/* XPM */
static const char * summon_star_full_xpm[] = {
"48 48 6 1",
" 	c None",
".	c #FF0000",
"+	c #660000",
"@	c #CC0000",
"#	c #990000",
"$	c #FF3300",
"                     .#                         ",
"                     .#+                        ",
"                     ..+                        ",
"                    ..$++                       ",
"                    ...#++                      ",
"                    ...@+++                     ",
"                    ....+++                     ",
"                   .....#+++                    ",
"                   .....@+++                    ",
"                   ......+++                    ",
"                  .......@+++                   ",
"                  .......@+++                   ",
"                  ........+++                   ",
"                 .........#++                   ",
"                 .........@+++                  ",
"                 .........@+++                  ",
" ..........................@##.............#    ",
" #.........................@@@............@++   ",
"  #@....................................@+++++  ",
"   +#..................................#+++++++ ",
"    ++#@............................@#+++++++++ ",
"     +++@@........................@@+++++++++++ ",
"       ++#@$...................$@@#++++++++++   ",
"         ++#@..................##++++++++++     ",
"           +##@..............@#++++++++++       ",
"            ++@..............@++++++++++        ",
"             @................@++++++           ",
"             ..................++++             ",
"            ...................#++              ",
"            .........@@........@++              ",
"           .........@+#@........#++             ",
"           ........@++++@........++             ",
"          ........@++++++@.......@++            ",
"          .......#++++++++........#+            ",
"         .......#++++++++  .......@++           ",
"         .....@#++++++++    .......+++          ",
"        .....@+++++++++       .....@++          ",
"        ....#++++++++          .....+++         ",
"       ....#++++++++            .....++         ",
"       ..@#++++++++              ....++         ",
"      ..@#++++++++                @...++        ",
"      .@#++++++++                  @@.#++       ",
"     .##++++++++                    @@@++       ",
"     #++++++++                        .+++      ",
"     ++++++++                          +++      ",
"      ++++++                             ++     ",
"        ++                                +     ",
"                                                "};
