/* XPM */
static const char * support_star_empty_xpm[] = {
"48 48 4 1",
" 	c None",
".	c #003366",
"+	c #0066CC",
"@	c #336699",
"                                                ",
"                     +.                         ",
"                     ++.                        ",
"                     ++..                       ",
"                    +++...                      ",
"                    +.++...                     ",
"                    + .+...                     ",
"                   ++  +....                    ",
"                   +.  ++...                    ",
"                   +.  .+...                    ",
"                  ++    ++..                    ",
"                  ++    ++...                   ",
"                  +     .+...                   ",
"                 ++      +...                   ",
"                 ++      ++...                  ",
"                 +.      ++...                  ",
"                ++        ++..                  ",
" .+++++++++++++++          ++++++++++++++++..   ",
"  .++.                                .+@.....  ",
"   ..++.                            .++........ ",
"    ...+@                          @+.......... ",
"      ..+++                      +++........... ",
"        ..++.                  +++..........    ",
"         ..@++.              .+@...........     ",
"            ..+.            ++..........        ",
"             .++            ++.........         ",
"              +              ++......           ",
"             ++              .+....             ",
"             +       ..       +...              ",
"            +.      .++.      ++..              ",
"           ++      .+..+.      +...             ",
"           ++     @+....+.     .+..             ",
"           +     ++......++     ++..            ",
"          +.    ++........++.   .+..            ",
"         ++   ++.........  ++.   ++..           ",
"         +.  ++........      ++  .+..           ",
"        ++  ++.........       ++  ++..          ",
"        +  +@........          ++  +...         ",
"       ++ +.........            ++ ++..         ",
"       +.+.........              ++ +..         ",
"      +++.........                ++++..        ",
"      ++........                    ++..        ",
"     +.........                      ++..       ",
"     .........                        +...      ",
"      .......                           ..      ",
"       .....                             ..     ",
"        ..                                .     ",
"                                                "};
