<?xml version="1.0" encoding="UTF-8"?>
<svg version="1.1" viewBox="0 0 32 32" xmlns="http://www.w3.org/2000/svg">
 <defs>
  <style id="current-color-scheme" type="text/css">.ColorScheme-Text {
                color:#eff0f1;
            }</style>
 </defs>
 <path class="ColorScheme-Text" d="m6 4v24h10v-1h-9v-22h11v7h7v10.5h-7.0859l3.7929-3.793-0.707-0.707-5 5 5 5 0.707-0.707-3.7929-3.793h8.0898v-1h-4e-3l1e-4 -11.5-7-7h-13z" fill="currentColor"/>
 <path class="ColorScheme-Text" d="m12.499 5.75a2.5225 2.75 0 0 0-2.5225 2.75 2.5225 2.75 0 0 0 2.5225 2.75 2.5225 2.75 0 0 0 2.5225-2.75 2.5225 2.75 0 0 0-2.5225-2.75zm0 0.6875a1.8919 2.0625 0 0 1 1.8919 2.0625 1.8919 2.0625 0 0 1-1.8919 2.0625 1.8919 2.0625 0 0 1-1.8919-2.0625 1.8919 2.0625 0 0 1 1.8919-2.0625zm0 5.5a5.0449 5.5 0 0 0-4.9994 4.8125h0.63555a4.4143 4.8125 0 0 1 4.3638-4.125 4.4143 4.8125 0 0 1 4.3651 4.125h0.63555a5.0449 5.5 0 0 0-5.0006-4.8125z" color="#eff0f1" fill="currentColor"/>
</svg>
